M48
;Layer_Color=9474304
;FILE_FORMAT=2:5
INCH
;TYPE=PLATED
T1F00S00C0.01181
T2F00S00C0.02756
T3F00S00C0.03543
T4F00S00C0.03937
;TYPE=NON_PLATED
T5F00S00C0.06496
T6F00S00C0.09000
T7F00S00C0.10000
T8F00S00C0.12598
T9F00S00C0.13110
T10F00S00C0.13504
%
T01
X1106714Y0289256
X1118525Y0295161
X1130336Y0301067
Y0289256
X1153958
Y0301067
X1142147Y0306972
X1181953Y0310910
X1185102Y0308154
X1176441Y0289256
X1200063
X1211874Y0295161
X1223685Y0301067
Y0289256
X1247307
Y0301067
X1235496Y0306972
X1091753Y0308154
X1088603Y0310910
X1083092Y0289256
X1060608
Y0301067
X1048797Y0306972
X1036986Y0301067
Y0289256
X1025175Y0295161
X1013364Y0289256
X0989742
X0967259
Y0301067
X0955448Y0306972
X0943637Y0301067
Y0289256
X0995254Y0310910
X0998403Y0308154
X0931826Y0295161
X0920015Y0289256
X0896393
X0873909
Y0301067
X0862098Y0306972
X0850287Y0301067
Y0289256
X0838476Y0295161
X0826665Y0289256
X0803043
X0808555Y0310910
X0811705Y0308154
X0901904Y0310910
X0905054Y0308154
Y0313272
Y0319177
Y0324689
Y0329020
X0901511Y0327051
Y0321933
Y0316028
X0896393Y0324689
Y0336500
X0911275Y0337445
X0908204Y0342405
X0918046Y0344374
X0920015Y0348311
X0927337Y0342366
X0923952Y0338862
X0923322Y0322406
X0914109Y0326264
X0915684Y0329807
X0935763Y0328232
Y0323902
Y0319177
X0936590Y0360043
X0933440Y0358941
X0936904Y0373928
Y0378228
X0933125Y0382484
X0934030Y0388232
X0930251Y0392366
X0926196
X0925684Y0387799
X0925566Y0383665
X0926904Y0397484
X0929070Y0401303
X0924621Y0401657
X0918322Y0411264
X0915881Y0414020
X0913007Y0416776
X0912453Y0421504
X0909784Y0420633
X0920015Y0419177
X0929109Y0418153
X0928873Y0422720
X0935290Y0425240
X0931433Y0437680
X0921314Y0437878
X0921511Y0434571
X0922298Y0442957
X0918873Y0443350
X0918755Y0450988
X0915605Y0451303
X0911630Y0447314
X0908230Y0447327
X0906236Y0453428
X0910566Y0458547
X0918755Y0457839
X0921904Y0458311
X0922219Y0454071
X0930842Y0459531
X0929104Y0464847
X0934660Y0448941
X0935803Y0446302
X0914897Y0439256
X0912141Y0436185
X0909975Y0433390
X0892783Y0432649
X0894058Y0440954
X0897771Y0443587
X0892062Y0453429
X0858870Y0454413
Y0458744
Y0463075
Y0467406
X0854539
X0850208
X0845878
Y0463075
X0850208
X0854539
Y0458744
X0850208
X0845878
Y0454413
X0850208
X0854539
X0852216Y0443941
X0846626Y0446343
X0842453Y0446302
X0841311Y0448941
X0837493Y0459531
X0835754Y0464847
X0828555Y0458311
X0825405Y0457839
Y0450988
X0822256Y0451303
X0818280Y0447314
X0814880Y0447327
X0812887Y0453428
X0817216Y0458547
X0828870Y0454071
X0828949Y0442957
X0825523Y0443350
X0827964Y0437878
X0828161Y0434571
X0818791Y0436185
X0816626Y0433390
X0821547Y0439256
X0838083Y0437680
X0848320
X0855012Y0434138
X0863083Y0433902
X0865682Y0436342
X0860760Y0443350
X0859829Y0446036
X0858949Y0425909
X0858988Y0423232
X0861665Y0420358
X0868161Y0415634
X0867334Y0398390
X0857177Y0396933
X0854027Y0396776
X0851193Y0396972
X0847807Y0396303
X0847531Y0392406
Y0383035
X0839775Y0382484
X0840681Y0388232
X0836901Y0392366
X0832846
X0832335Y0387799
X0832216Y0383665
X0833555Y0397484
X0835720Y0401303
X0831271Y0401657
X0824972Y0411264
X0822531Y0414020
X0819657Y0416776
X0819103Y0421504
X0816435Y0420633
X0826665Y0419177
X0835760Y0418153
X0835524Y0422720
X0841941Y0425240
X0850838Y0426539
X0851823Y0377681
X0854618Y0377248
X0855012Y0374295
X0855405Y0371933
X0853831Y0370358
X0854618Y0367602
X0847098Y0365555
X0846980Y0361658
Y0358390
X0843240Y0360043
X0840090Y0358941
X0845169Y0347524
X0855405Y0353429
X0857138Y0340870
X0850287Y0336500
Y0324689
X0842413Y0323902
Y0328232
Y0319177
X0850287Y0312878
X0862098Y0318783
Y0330594
X0873909Y0336500
Y0324689
Y0312878
Y0360122
X0868791Y0361697
X0868909Y0380634
X0864697Y0381067
X0864775Y0387563
X0857020Y0381421
X0857531Y0378468
X0843555Y0378228
Y0373928
X0846980Y0369925
X0810917Y0367209
Y0372721
X0814067Y0362484
X0814854Y0354216
Y0342405
X0817925Y0337445
X0822334Y0329807
X0820760Y0326264
X0811705Y0324689
Y0329020
X0808161Y0327051
Y0321933
Y0316028
X0811705Y0313272
Y0319177
X0803043Y0324689
Y0336500
Y0360122
X0812098Y0385319
X0814854Y0389650
X0826665Y0348311
X0824697Y0344374
X0833988Y0342366
X0830602Y0338862
X0829972Y0322406
X0896393Y0360122
X0907416Y0362484
X0904267Y0367209
Y0372721
X0905448Y0385319
X0908204Y0389650
Y0354216
X0799434Y0432649
X0800708Y0440954
X0804421Y0443587
X0798712Y0453429
X0939227Y0454413
Y0458744
Y0463075
Y0467406
X0943558
X0947889
X0952219
Y0463075
X0947889
X0943558
Y0458744
X0947889
X0952219
Y0454413
X0947889
X0943558
X0939975Y0446343
X0945566Y0443941
X0954110Y0443350
X0953179Y0446036
X0956432Y0433902
X0959031Y0436342
X0948361Y0434138
X0941669Y0437680
X0944188Y0426539
X0952299Y0425909
X0952337Y0423232
X0955015Y0420358
X0961511Y0415634
X0960684Y0398390
X0950527Y0396933
X0947377Y0396776
X0944542Y0396972
X0941156Y0396303
X0940881Y0392406
Y0383035
X0945172Y0377681
X0947967Y0377248
X0948361Y0374295
X0948755Y0371933
X0947180Y0370358
X0947967Y0367602
X0940448Y0365555
X0940330Y0361658
Y0358390
Y0369925
X0950881Y0378468
X0950369Y0381421
X0958046Y0381067
X0962259Y0380634
X0958125Y0387563
X0962141Y0361697
X0967259Y0360122
X0989742
X1000766Y0362484
X0997616Y0367209
Y0372721
X0998797Y0385319
X1001553Y0389650
X1019033Y0387799
X1018915Y0383665
X1026474Y0382484
X1027380Y0388232
X1023600Y0392366
X1019545
X1020254Y0397484
X1022419Y0401303
X1017970Y0401657
X1011671Y0411264
X1009230Y0414020
X1006356Y0416776
X1005802Y0421504
X1003134Y0420633
X1013364Y0419177
X1022459Y0418153
X1022222Y0422720
X1028640Y0425240
X1037537Y0426539
X1045648Y0425909
X1045687Y0423232
X1048364Y0420358
X1054860Y0415634
X1054033Y0398390
X1043876Y0396933
X1040726Y0396776
X1037892Y0396972
X1034506Y0396303
X1034230Y0392406
Y0383035
X1030254Y0378228
Y0373928
X1033679Y0369925
X1033797Y0365555
X1033679Y0361658
Y0358390
X1029939Y0360043
X1026789Y0358941
X1031868Y0347524
X1042104Y0353429
X1043837Y0340870
X1036986Y0336500
Y0324689
X1029112Y0323902
Y0328232
Y0319177
X1036986Y0312878
X1048797Y0318783
Y0330594
X1060608Y0336500
Y0324689
Y0312878
X1088210Y0316028
Y0321933
Y0327051
X1091753Y0329020
Y0324689
Y0319177
Y0313272
X1083092Y0324689
Y0336500
Y0360122
X1090965Y0367209
Y0372721
X1092147Y0385319
X1055608Y0380634
X1051396Y0381067
X1051474Y0387563
X1043718Y0381421
X1044230Y0378468
X1041317Y0377248
X1038522Y0377681
X1041711Y0374295
X1042104Y0371933
X1040530Y0370358
X1041317Y0367602
X1055490Y0361697
X1060608Y0360122
X1020687Y0342366
X1017301Y0338862
X1011396Y0344374
X1013364Y0348311
X1001553Y0354216
Y0342405
X1004624Y0337445
X1009033Y0329807
X1007459Y0326264
X0998403Y0324689
Y0329020
X0994860Y0327051
Y0321933
Y0316028
X0998403Y0313272
Y0319177
X0989742Y0324689
Y0336500
X0967259
Y0324689
Y0312878
X0955448Y0318783
Y0330594
X0950487Y0340870
X0943637Y0336500
Y0324689
Y0312878
X0938519Y0347524
X0948755Y0353429
X1016671Y0322406
X1014860Y0434571
X1014663Y0437878
X1015648Y0442957
X1012222Y0443350
X1012104Y0450988
X1008955Y0451303
X1004979Y0447314
X1001579Y0447327
X0999586Y0453428
X1003915Y0458547
X1012104Y0457839
X1015254Y0458311
X1015569Y0454071
X1024192Y0459531
X1022453Y0464847
X1032577Y0463075
Y0467406
X1036907
X1041238
X1045569
Y0463075
X1041238
X1036907
Y0458744
X1032577
Y0454413
X1036907
X1041238
Y0458744
X1045569
Y0454413
X1046528Y0446036
X1047459Y0443350
X1038915Y0443941
X1033325Y0446343
X1029152Y0446302
X1028010Y0448941
X1024782Y0437680
X1035019
X1041711Y0434138
X1049782Y0433902
X1052381Y0436342
X1079482Y0432649
X1080757Y0440954
X1084470Y0443587
X1078761Y0453429
X1092935Y0453428
X1008246Y0439256
X1005490Y0436185
X1003325Y0433390
X0986133Y0432649
X0987407Y0440954
X0991120Y0443587
X0985411Y0453429
X1094928Y0447327
X1098329Y0447314
X1102304Y0451303
X1105454Y0450988
X1108918Y0454071
X1108603Y0458311
X1105454Y0457839
X1097265Y0458547
X1117541Y0459531
X1115803Y0464847
X1125926Y0463075
Y0467406
X1130257
X1134588
X1138918
Y0463075
X1134588
X1130257
Y0458744
X1125926
Y0454413
X1130257
X1134588
Y0458744
X1138918
Y0454413
X1139878Y0446036
X1140809Y0443350
X1132265Y0443941
X1126674Y0446343
X1122502Y0446302
X1121359Y0448941
X1118132Y0437680
X1128368
X1135060Y0434138
X1143131Y0433902
X1145730Y0436342
X1138998Y0425909
X1139036Y0423232
X1141714Y0420358
X1148210Y0415634
X1147383Y0398390
X1137225Y0396933
X1134076Y0396776
X1131241Y0396972
X1127855Y0396303
X1127580Y0392406
Y0383035
X1119824Y0382484
X1120729Y0388232
X1116950Y0392366
X1112895
X1112383Y0387799
X1112265Y0383665
X1113603Y0397484
X1115769Y0401303
X1111320Y0401657
X1105021Y0411264
X1102580Y0414020
X1099706Y0416776
X1099152Y0421504
X1096483Y0420633
X1106714Y0419177
X1115808Y0418153
X1115572Y0422720
X1121989Y0425240
X1130887Y0426539
X1108210Y0434571
X1108013Y0437878
X1108997Y0442957
X1105572Y0443350
X1101595Y0439256
X1098840Y0436185
X1096674Y0433390
X1094903Y0389650
X1094115Y0362484
X1094903Y0354216
Y0342405
X1097973Y0337445
X1102383Y0329807
X1100808Y0326264
X1110021Y0322406
X1122462Y0323902
Y0328232
Y0319177
X1130336Y0324689
Y0336500
X1137186Y0340870
X1135454Y0353429
X1127028Y0358390
Y0361658
X1127147Y0365555
X1127028Y0369925
X1133879Y0370358
X1135454Y0371933
X1135060Y0374295
X1134666Y0377248
X1131871Y0377681
X1137580Y0378468
X1137068Y0381421
X1144745Y0381067
X1148958Y0380634
X1144824Y0387563
X1148840Y0361697
X1153958Y0360122
X1176441
X1187465Y0362484
X1184315Y0367209
Y0372721
X1185496Y0385319
X1188252Y0389650
X1205732Y0387799
X1205614Y0383665
X1213173Y0382484
X1214079Y0388232
X1210299Y0392366
X1206244
X1206953Y0397484
X1209118Y0401303
X1204669Y0401657
X1198370Y0411264
X1195929Y0414020
X1193055Y0416776
X1192501Y0421504
X1189833Y0420633
X1200063Y0419177
X1209157Y0418153
X1208921Y0422720
X1215339Y0425240
X1224236Y0426539
X1232347Y0425909
X1232386Y0423232
X1235063Y0420358
X1241559Y0415634
X1240732Y0398390
X1230575Y0396933
X1227425Y0396776
X1224591Y0396972
X1221205Y0396303
X1220929Y0392406
Y0383035
X1216953Y0378228
Y0373928
X1220378Y0369925
X1220496Y0365555
X1220378Y0361658
Y0358390
X1216638Y0360043
X1213488Y0358941
X1218567Y0347524
X1228803Y0353429
X1230536Y0340870
X1223685Y0336500
Y0324689
X1215811Y0323902
Y0328232
Y0319177
X1223685Y0312878
X1235496Y0318783
Y0330594
X1247307Y0336500
Y0324689
Y0312878
Y0360122
X1242189Y0361697
X1242307Y0380634
X1238095Y0381067
X1238173Y0387563
X1230417Y0381421
X1230929Y0378468
X1228016Y0377248
X1225220Y0377681
X1228409Y0374295
X1228803Y0371933
X1227228Y0370358
X1228016Y0367602
X1207386Y0342366
X1204000Y0338862
X1198094Y0344374
X1200063Y0348311
X1188252Y0354216
Y0342405
X1191323Y0337445
X1195732Y0329807
X1194158Y0326264
X1185102Y0324689
Y0329020
X1181559Y0327051
Y0321933
Y0316028
X1185102Y0313272
Y0319177
X1176441Y0324689
Y0336500
X1153958
Y0324689
Y0312878
X1142147Y0318783
Y0330594
X1130336Y0312878
X1125218Y0347524
X1123288Y0360043
X1120139Y0358941
X1123603Y0373928
Y0378228
X1134666Y0367602
X1114036Y0342366
X1110651Y0338862
X1104745Y0344374
X1106714Y0348311
X1203370Y0322406
X1201559Y0434571
X1201362Y0437878
X1202347Y0442957
X1198921Y0443350
X1198803Y0450988
X1195654Y0451303
X1191678Y0447314
X1188278Y0447327
X1186284Y0453428
X1190614Y0458547
X1198803Y0457839
X1201953Y0458311
X1202268Y0454071
X1210891Y0459531
X1209152Y0464847
X1219276Y0463075
Y0467406
X1223606
X1227937
X1232268
Y0463075
X1227937
X1223606
Y0458744
X1219276
Y0454413
X1223606
X1227937
Y0458744
X1232268
Y0454413
X1233227Y0446036
X1234158Y0443350
X1225614Y0443941
X1220024Y0446343
X1215851Y0446302
X1214709Y0448941
X1211481Y0437680
X1221717
X1228409Y0434138
X1236480Y0433902
X1239079Y0436342
X1192189Y0436185
X1190024Y0433390
X1194945Y0439256
X1177819Y0443587
X1174106Y0440954
X1172832Y0432649
X1172110Y0453429
X1187071Y0474689
X1186677Y0481382
X1186047Y0489492
X1192695Y0504537
X1192702Y0519491
X1194000Y0527287
Y0530083
X1194079Y0535043
X1178567Y0534216
X1176677Y0531382
X1176835Y0537484
X1178882Y0547034
X1176441Y0560909
X1178016Y0565240
X1174473Y0566815
X1176441Y0572720
X1180378Y0577839
X1181953Y0592799
X1176441Y0596342
Y0608153
X1182347Y0609335
Y0603429
Y0615634
X1191402Y0617209
Y0606972
X1200063Y0608153
Y0619964
Y0596342
X1196126Y0592799
X1191402Y0595949
X1209118Y0597524
X1217386Y0595949
X1223685Y0596342
X1222110Y0600673
X1220929Y0592799
X1235496Y0590437
X1232347Y0603429
X1228803Y0606972
X1235496Y0614059
X1247307Y0619964
Y0608153
Y0596342
Y0572720
X1245614Y0567012
X1248528Y0565319
X1247307Y0560909
X1240339Y0554807
X1231795Y0557248
X1228173Y0557957
X1227898Y0553232
X1230614Y0549020
X1231087Y0545161
X1237190Y0544688
X1237346Y0535910
X1236323Y0531579
X1236047Y0520287
X1236520Y0517091
X1236945Y0513988
X1236245Y0510948
X1241087Y0507720
X1241835Y0513665
X1242346Y0516815
X1241087Y0497405
X1238765Y0493822
X1236678Y0492090
X1233532Y0492287
X1233686Y0495082
X1234197Y0485831
X1238724Y0485280
X1237976Y0481972
X1240417Y0480555
X1228724Y0476264
X1224316Y0479098
X1225850Y0483587
X1214709Y0482957
X1215221Y0485633
X1213921Y0488547
X1211047Y0488862
X1213882Y0501106
Y0506972
X1214000Y0510949
Y0514807
X1213921Y0518862
X1214157Y0527524
X1213921Y0530870
X1217661Y0533705
X1224039Y0536146
X1224748Y0521972
X1223685Y0513665
X1220220Y0513744
X1223765Y0507523
X1222858Y0503626
X1204236Y0508075
X1204315Y0511421
X1204236Y0514256
X1209197Y0513902
X1212620Y0550750
X1211874Y0555004
X1211402Y0558665
X1214945Y0557839
X1214591Y0561500
X1218370Y0562602
Y0558705
X1218843Y0554177
X1215181Y0554059
X1210063Y0563469
X1211874Y0566815
X1208606Y0571815
X1210378Y0575319
X1211874Y0578626
X1214315Y0573272
X1219118Y0572996
X1219354Y0576657
X1223449Y0576500
X1223685Y0572720
X1227032Y0574177
X1229473Y0577366
X1237386Y0569689
X1235496Y0566815
X1187661Y0563902
X1192583Y0554216
X1153958Y0560909
X1155178Y0565319
X1152265Y0567012
X1153958Y0572720
X1144036Y0569689
X1142147Y0566815
X1138446Y0557248
X1134824Y0557957
X1134548Y0553232
X1137265Y0549020
X1137737Y0545161
X1143840Y0544688
X1143997Y0535910
X1142973Y0531579
X1142698Y0520287
X1143170Y0517091
X1143596Y0513988
X1142895Y0510948
X1147738Y0507720
X1148485Y0513665
X1148997Y0516815
X1147738Y0497405
X1145415Y0493822
X1143328Y0492090
X1140183Y0492287
X1140336Y0495082
X1140847Y0485831
X1145375Y0485280
X1144627Y0481972
X1147068Y0480555
X1135375Y0476264
X1130966Y0479098
X1132501Y0483587
X1121359Y0482957
X1121872Y0485633
X1120572Y0488547
X1117698Y0488862
X1120533Y0501106
Y0506972
X1120651Y0510949
Y0514807
X1120572Y0518862
X1120808Y0527524
X1120572Y0530870
X1124312Y0533705
X1130690Y0536146
X1131399Y0521972
X1130336Y0513665
X1126871Y0513744
X1130415Y0507523
X1129509Y0503626
X1110887Y0508075
X1110966Y0511421
X1110887Y0514256
X1115847Y0513902
X1099352Y0519491
X1100651Y0527287
Y0530083
X1100729Y0535043
X1099233Y0554216
X1094312Y0563902
X1116714Y0563469
X1118525Y0566815
X1121241Y0561500
X1121595Y0557839
X1121832Y0554059
X1125493Y0554177
X1125021Y0558705
Y0562602
X1118052Y0558665
X1118525Y0555004
X1119271Y0550750
X1120965Y0573272
X1125769Y0572996
X1126005Y0576657
X1130099Y0576500
X1130336Y0572720
X1133682Y0574177
X1136123Y0577366
X1118525Y0578626
X1117029Y0575319
X1115257Y0571815
X1115769Y0597524
X1124036Y0595949
X1130336Y0596342
X1128761Y0600673
X1127580Y0592799
X1142147Y0590437
X1138997Y0603429
X1135454Y0606972
X1142147Y0614059
X1153958Y0619964
Y0608153
Y0596342
X1106714
X1102777Y0592799
X1098052Y0595949
Y0606972
X1106714Y0608153
Y0619964
X1098052Y0617209
X1129154Y0623114
X1146989Y0554807
X1099346Y0504537
X1112895Y0473232
X1120572Y0471697
X1124784Y0477484
X1206244Y0473232
X1213921Y0471697
X1218134Y0477484
X1222504Y0623114
X1088997Y0615634
Y0609335
Y0603429
X1083092Y0608153
Y0596342
X1088603Y0592799
X1087029Y0577839
X1083092Y0572720
X1081123Y0566815
X1084666Y0565240
X1083092Y0560909
X1085532Y0547034
X1083485Y0537484
X1085217Y0534216
X1083328Y0531382
X1049624Y0531579
X1050648Y0535910
X1050491Y0544688
X1044388Y0545161
X1043915Y0549020
X1041199Y0553232
X1041474Y0557957
X1045096Y0557248
X1053640Y0554807
X1060608Y0560909
X1061829Y0565319
X1058915Y0567012
X1060608Y0572720
X1050687Y0569689
X1048797Y0566815
X1040333Y0574177
X1036986Y0572720
X1036750Y0576500
X1032656Y0576657
X1032419Y0572996
X1027616Y0573272
X1023679Y0575319
X1025175Y0578626
X1021907Y0571815
X1025175Y0566815
X1023364Y0563469
X1024703Y0558665
X1025175Y0555004
X1028482Y0554059
X1032144Y0554177
X1031671Y0558705
Y0562602
X1027892Y0561500
X1028246Y0557839
X1025921Y0550750
X1027222Y0530870
X1027459Y0527524
X1027222Y0518862
X1027301Y0514807
Y0510949
X1027183Y0506972
Y0501106
X1036159Y0503626
X1037066Y0507523
X1036986Y0513665
X1033522Y0513744
X1022498Y0513902
X1017537Y0514256
X1017616Y0511421
X1017537Y0508075
X1005996Y0504537
X1006003Y0519491
X1007301Y0527287
Y0530083
X1007380Y0535043
X0991868Y0534216
X0989978Y0531382
X0990136Y0537484
X0992183Y0547034
X0989742Y0560909
X0991317Y0565240
X0987774Y0566815
X0989742Y0572720
X0993679Y0577839
X0995254Y0592799
X0989742Y0596342
Y0608153
X0995648Y0609335
Y0603429
Y0615634
X1004703Y0617209
Y0606972
X1013364Y0608153
Y0619964
Y0596342
X1009427Y0592799
X1004703Y0595949
X1022419Y0597524
X1030687Y0595949
X1036986Y0596342
X1035411Y0600673
X1034230Y0592799
X1048797Y0590437
X1045648Y0603429
X1042104Y0606972
X1048797Y0614059
X1060608Y0619964
Y0608153
Y0596342
X1042774Y0577366
X1037341Y0536146
X1030962Y0533705
X1038049Y0521972
X1049348Y0520287
X1049821Y0517091
X1050246Y0513988
X1049546Y0510948
X1054389Y0507720
X1055136Y0513665
X1055648Y0516815
X1054389Y0497405
X1052066Y0493822
X1049979Y0492090
X1046833Y0492287
X1046987Y0495082
X1047498Y0485831
X1052026Y0485280
X1051278Y0481972
X1053718Y0480555
X1042025Y0476264
X1037617Y0479098
X1039151Y0483587
X1028010Y0482957
X1028522Y0485633
X1027222Y0488547
X1024348Y0488862
X1031435Y0477484
X1027222Y0471697
X1019545Y0473232
X1000372Y0474689
X0999978Y0481382
X0999348Y0489492
X0958676Y0485280
X0957928Y0481972
X0960369Y0480555
X0954148Y0485831
X0953484Y0492287
X0953638Y0495082
X0956630Y0492090
X0958716Y0493822
X0961039Y0497405
Y0507720
X0961786Y0513665
X0962298Y0516815
X0956471Y0517091
X0956897Y0513988
X0956197Y0510948
X0955999Y0520287
X0956275Y0531579
X0957298Y0535910
X0957141Y0544688
X0951038Y0545161
X0950566Y0549020
X0947849Y0553232
X0948125Y0557957
X0951747Y0557248
X0960290Y0554807
X0967259Y0560909
X0968479Y0565319
X0965566Y0567012
X0967259Y0572720
X0957337Y0569689
X0955448Y0566815
X0946983Y0574177
X0943637Y0572720
X0943400Y0576500
X0939306Y0576657
X0939070Y0572996
X0938322Y0562602
Y0558705
X0938794Y0554177
X0937613Y0533705
X0943991Y0536146
X0944700Y0521972
X0943637Y0513665
X0940172Y0513744
X0943716Y0507523
X0942810Y0503626
X0945802Y0483587
X0944267Y0479098
X0948676Y0476264
X0938085Y0477484
X0949424Y0577366
X0955448Y0590437
X0952298Y0603429
X0948755Y0606972
X0942062Y0600673
X0943637Y0596342
X0940881Y0592799
X0967259Y0596342
Y0608153
Y0619964
X0955448Y0614059
X0942456Y0623114
X1035805
X1000963Y0563902
X1005884Y0554216
X1092698Y0489492
X1093328Y0481382
X1093721Y0474689
X0933873Y0471697
X0926196Y0473232
X0934660Y0482957
X0935173Y0485633
X0933873Y0488547
X0930999Y0488862
X0933834Y0501106
Y0506972
X0933952Y0510949
Y0514807
X0933873Y0518862
X0934109Y0527524
X0933873Y0530870
X0913952Y0530083
Y0527287
X0914030Y0535043
X0898519Y0534216
X0896629Y0531382
X0896786Y0537484
X0898834Y0547034
X0896393Y0560909
X0897967Y0565240
X0894424Y0566815
X0896393Y0572720
X0900330Y0577839
X0901904Y0592799
X0896393Y0596342
Y0608153
X0902298Y0609335
Y0603429
Y0615634
X0911353Y0617209
Y0606972
X0920015Y0608153
Y0619964
Y0596342
X0916078Y0592799
X0911353Y0595949
X0929070Y0597524
X0937337Y0595949
X0931826Y0578626
X0930330Y0575319
X0928558Y0571815
X0934267Y0573272
X0931826Y0566815
X0930015Y0563469
X0931353Y0558665
X0931826Y0555004
X0935133Y0554059
X0934897Y0557839
X0934542Y0561500
X0932572Y0550750
X0912534Y0554216
X0907613Y0563902
X0875130Y0565319
X0872216Y0567012
X0873909Y0572720
Y0560909
X0866941Y0554807
X0858397Y0557248
X0854776Y0557957
X0854500Y0553232
X0857216Y0549020
X0857689Y0545161
X0863792Y0544688
X0863949Y0535910
X0862925Y0531579
X0862650Y0520287
X0863122Y0517091
X0863547Y0513988
X0862847Y0510948
X0867690Y0507720
X0868437Y0513665
X0868949Y0516815
X0867690Y0497405
X0865367Y0493822
X0863280Y0492090
X0860134Y0492287
X0860288Y0495082
X0860799Y0485831
X0865327Y0485280
X0864579Y0481972
X0867019Y0480555
X0855327Y0476264
X0850918Y0479098
X0852453Y0483587
X0841311Y0482957
X0841823Y0485633
X0840524Y0488547
X0837650Y0488862
X0840484Y0501106
Y0506972
X0840602Y0510949
Y0514807
X0840524Y0518862
X0840760Y0527524
X0840524Y0530870
X0844264Y0533705
X0850642Y0536146
X0851350Y0521972
X0850287Y0513665
X0846823Y0513744
X0850367Y0507523
X0849461Y0503626
X0830838Y0508075
X0830917Y0511421
X0830838Y0514256
X0835799Y0513902
X0819304Y0519491
X0820602Y0527287
Y0530083
X0820681Y0535043
X0805169Y0534216
X0803279Y0531382
X0803437Y0537484
X0805484Y0547034
X0803043Y0560909
X0804618Y0565240
X0801075Y0566815
X0803043Y0572720
X0806980Y0577839
X0808555Y0592799
X0803043Y0596342
Y0608153
X0808949Y0609335
Y0603429
Y0615634
X0818004Y0617209
Y0606972
X0826665Y0608153
Y0619964
Y0596342
X0822728Y0592799
X0818004Y0595949
X0835720Y0597524
X0843988Y0595949
X0850287Y0596342
X0848713Y0600673
X0847531Y0592799
X0862098Y0590437
X0858949Y0603429
X0855405Y0606972
X0862098Y0614059
X0873909Y0619964
Y0608153
Y0596342
X0863988Y0569689
X0862098Y0566815
X0853634Y0574177
X0850287Y0572720
X0850051Y0576500
X0845957Y0576657
X0845720Y0572996
X0840917Y0573272
X0836980Y0575319
X0838476Y0578626
X0835209Y0571815
X0838476Y0566815
X0836665Y0563469
X0838004Y0558665
X0838476Y0555004
X0841783Y0554059
X0845445Y0554177
X0844972Y0558705
Y0562602
X0841193Y0561500
X0841547Y0557839
X0839222Y0550750
X0819185Y0554216
X0814264Y0563902
X0856075Y0577366
X0849106Y0623114
X0819297Y0504537
X0812650Y0489492
X0813279Y0481382
X0813673Y0474689
X0832846Y0473232
X0840524Y0471697
X0844736Y0477484
X0907022Y0474689
X0906629Y0481382
X0905999Y0489492
X0912647Y0504537
X0912653Y0519491
X0924188Y0514256
X0924267Y0511421
X0924188Y0508075
X0929148Y0513902
X0931826Y0637681
Y0649492
X0920015Y0643586
Y0631775
X0908204Y0649492
X0896393Y0643586
X0873909
Y0631775
X0862098Y0625870
Y0649492
X0850287Y0643586
X0838476Y0649492
Y0637681
X0826665Y0643586
Y0631775
X0814854Y0649492
X0803043Y0643586
Y0671031
X0826665
X0838476Y0676936
X0850287Y0682841
Y0694653
Y0706463
X0842413Y0705676
Y0710007
Y0700952
X0829972Y0704180
X0820760Y0708038
X0822334Y0711582
X0811705Y0710794
Y0706464
Y0700952
Y0695046
Y0689928
X0808555Y0692684
X0808161Y0697802
Y0703708
Y0708826
X0803043Y0706463
Y0718275
X0817925Y0719219
X0814854Y0724180
X0824697Y0726149
X0826665Y0730086
X0833988Y0724141
X0830602Y0720637
X0850287Y0718275
X0857138Y0722645
X0855405Y0735204
X0846980Y0740164
Y0743432
X0847098Y0747330
X0846980Y0751700
X0853831Y0752133
X0855405Y0753708
X0855012Y0756070
X0854618Y0759023
X0851823Y0759456
X0857531Y0760243
X0857020Y0763196
X0864697Y0762842
X0868909Y0762408
X0864775Y0769338
X0867334Y0780164
X0857177Y0778708
X0854027Y0778550
X0851193Y0778747
X0847807Y0778078
X0847531Y0774180
Y0764810
X0839775Y0764259
X0840681Y0770007
X0836901Y0774141
X0832846
X0832335Y0769574
X0832216Y0765440
X0833555Y0779259
X0814854Y0771424
X0812098Y0767094
X0810917Y0754495
Y0748983
X0814067Y0744259
X0814854Y0735991
X0803043Y0741897
X0840090Y0740716
X0843240Y0741818
X0843555Y0755702
Y0760002
X0854618Y0749377
X0868791Y0743471
X0873909Y0741897
X0896393
X0907416Y0744259
X0904267Y0748983
Y0754495
X0905448Y0767094
X0908204Y0771424
X0925684Y0769574
X0925566Y0765440
X0933125Y0764259
X0934030Y0770007
X0930251Y0774141
X0926196
X0926904Y0779259
X0936904Y0760002
Y0755702
X0936590Y0741818
X0933440Y0740716
X0927337Y0724141
X0923952Y0720637
X0918046Y0726149
X0920015Y0730086
X0908204Y0735991
Y0724180
X0911275Y0719219
X0915684Y0711582
X0914109Y0708038
X0905054Y0706464
Y0710794
X0901511Y0708826
Y0703708
Y0697802
X0901904Y0692684
X0905054Y0695046
Y0689928
Y0700952
X0896393Y0706463
Y0718275
X0873909
Y0706463
Y0694653
Y0682841
Y0671031
X0896393
X0920015
X0931826Y0676936
X0935763Y0700952
Y0705676
Y0710007
X0923322Y0704180
X0862098Y0700558
Y0712369
Y0688747
X0850287Y0671031
X0845169Y0729298
X0938519
X0940330Y0740164
Y0743432
X0940448Y0747330
X0940330Y0751700
X0947180Y0752133
X0948755Y0753708
X0948361Y0756070
X0947967Y0759023
X0945172Y0759456
X0950881Y0760243
X0950369Y0763196
X0958046Y0762842
X0962259Y0762408
X0958125Y0769338
X0960684Y0780164
X0950527Y0778708
X0947377Y0778550
X0944542Y0778747
X0941156Y0778078
X0940881Y0774180
Y0764810
X0947967Y0749377
X0948755Y0735204
X0950487Y0722645
X0943637Y0718275
Y0706463
Y0694653
Y0682841
Y0671031
X0967259
Y0682841
Y0694653
Y0706463
Y0718275
X0955448Y0712369
Y0700558
Y0688747
Y0649492
X0943637Y0643586
X0967259
Y0631775
X0955448Y0625870
X0989742Y0643586
X1001553Y0649492
X1013364Y0643586
Y0631775
X1025175Y0637681
Y0649492
X1036986Y0643586
X1048797Y0649492
X1060608Y0643586
Y0631775
X1048797Y0625870
X1083092Y0643586
Y0671031
X1060608
Y0682841
Y0694653
Y0706463
Y0718275
X1048797Y0712369
Y0700558
Y0688747
X1036986Y0694653
Y0706463
X1029112Y0705676
Y0710007
Y0700952
X1016671Y0704180
X1007459Y0708038
X1009033Y0711582
X0998403Y0710794
Y0706464
Y0700952
Y0695046
Y0689928
X0995254Y0692684
X0994860Y0697802
Y0703708
Y0708826
X0989742Y0706463
Y0718275
X1004624Y0719219
X1001553Y0724180
X1011396Y0726149
X1013364Y0730086
X1020687Y0724141
X1017301Y0720637
X1036986Y0718275
X1043837Y0722645
X1042104Y0735204
X1033679Y0740164
Y0743432
X1033797Y0747330
X1033679Y0751700
X1040530Y0752133
X1042104Y0753708
X1041711Y0756070
X1041317Y0759023
X1038522Y0759456
X1044230Y0760243
X1043718Y0763196
X1051396Y0762842
X1055608Y0762408
X1051474Y0769338
X1054033Y0780164
X1043876Y0778708
X1040726Y0778550
X1037892Y0778747
X1034506Y0778078
X1034230Y0774180
Y0764810
X1026474Y0764259
X1027380Y0770007
X1023600Y0774141
X1019545
X1019033Y0769574
X1018915Y0765440
X1020254Y0779259
X1001553Y0771424
X0998797Y0767094
X0997616Y0754495
Y0748983
X1000766Y0744259
X1001553Y0735991
X0989742Y0741897
X0967259
X0962141Y0743471
X1026789Y0740716
X1029939Y0741818
X1030254Y0755702
Y0760002
X1041317Y0749377
X1055490Y0743471
X1060608Y0741897
X1083092
X1090965Y0748983
Y0754495
X1092147Y0767094
X1091753Y0710794
Y0706464
Y0700952
Y0695046
Y0689928
X1088603Y0692684
X1088210Y0697802
Y0703708
Y0708826
X1083092Y0706463
Y0718275
X1031868Y0729298
X1036986Y0682841
Y0671031
X1025175Y0676936
X1013364Y0671031
X0989742
X1106714
X1118525Y0676936
X1130336Y0682841
Y0694653
Y0706463
X1122462Y0705676
Y0710007
Y0700952
X1110021Y0704180
X1100808Y0708038
X1102383Y0711582
X1097973Y0719219
X1094903Y0724180
X1104745Y0726149
X1106714Y0730086
X1114036Y0724141
X1110651Y0720637
X1130336Y0718275
X1137186Y0722645
X1135454Y0735204
X1127028Y0740164
Y0743432
X1127147Y0747330
X1127028Y0751700
X1133879Y0752133
X1135454Y0753708
X1135060Y0756070
X1134666Y0759023
X1131871Y0759456
X1137580Y0760243
X1137068Y0763196
X1144745Y0762842
X1148958Y0762408
X1144824Y0769338
X1147383Y0780164
X1137225Y0778708
X1134076Y0778550
X1131241Y0778747
X1127855Y0778078
X1127580Y0774180
Y0764810
X1119824Y0764259
X1120729Y0770007
X1116950Y0774141
X1112895
X1112383Y0769574
X1112265Y0765440
X1113603Y0779259
X1094903Y0771424
X1094115Y0744259
X1094903Y0735991
X1120139Y0740716
X1123288Y0741818
X1123603Y0755702
Y0760002
X1134666Y0749377
X1148840Y0743471
X1153958Y0741897
X1176441
X1187465Y0744259
X1184315Y0748983
Y0754495
X1185496Y0767094
X1188252Y0771424
X1205732Y0769574
X1205614Y0765440
X1213173Y0764259
X1214079Y0770007
X1210299Y0774141
X1206244
X1206953Y0779259
X1221205Y0778078
X1224591Y0778747
X1227425Y0778550
X1230575Y0778708
X1240732Y0780164
X1238173Y0769338
X1238095Y0762842
X1242307Y0762408
X1230417Y0763196
X1230929Y0760243
X1228016Y0759023
X1225220Y0759456
X1228409Y0756070
X1228803Y0753708
X1227228Y0752133
X1228016Y0749377
X1220496Y0747330
X1220378Y0743432
Y0740164
X1216638Y0741818
X1213488Y0740716
X1218567Y0729298
X1228803Y0735204
X1230536Y0722645
X1223685Y0718275
Y0706463
X1215811Y0705676
Y0710007
Y0700952
X1223685Y0694653
Y0682841
Y0671031
X1211874Y0676936
X1200063Y0671031
X1176441
X1153958
Y0682841
Y0694653
Y0706463
Y0718275
X1142147Y0712369
Y0700558
Y0688747
X1130336Y0671031
Y0643586
X1118525Y0649492
Y0637681
X1106714Y0643586
Y0631775
X1094903Y0649492
X1142147
X1153958Y0643586
Y0631775
X1142147Y0625870
X1176441Y0643586
X1188252Y0649492
X1200063Y0643586
Y0631775
X1211874Y0637681
Y0649492
X1223685Y0643586
X1235496Y0649492
X1247307Y0643586
Y0631775
X1235496Y0625870
X1247307Y0671031
Y0682841
Y0694653
Y0706463
Y0718275
X1235496Y0712369
Y0700558
Y0688747
X1203370Y0704180
X1194158Y0708038
X1195732Y0711582
X1185102Y0710794
Y0706464
Y0700952
Y0695046
Y0689928
X1181953Y0692684
X1181559Y0697802
Y0703708
Y0708826
X1176441Y0706463
Y0718275
X1191323Y0719219
X1188252Y0724180
X1198094Y0726149
X1200063Y0730086
X1207386Y0724141
X1204000Y0720637
X1188252Y0735991
X1220378Y0751700
X1216953Y0755702
Y0760002
X1220929Y0764810
Y0774180
X1242189Y0743471
X1247307Y0741897
X1125218Y0729298
X1115769Y0783078
X1111320Y0783432
X1105021Y0793038
X1102580Y0795794
X1099706Y0798550
X1099152Y0803279
X1096483Y0802408
X1106714Y0800952
X1115808Y0799928
X1115572Y0804495
X1121989Y0807015
X1130887Y0808314
X1138998Y0807683
X1139036Y0805007
X1141714Y0802133
X1148210Y0797408
X1145730Y0818116
X1143131Y0815676
X1135060Y0815912
X1128368Y0819455
X1132265Y0825716
X1126674Y0828117
X1122502Y0828077
X1121359Y0830716
X1125926Y0836188
Y0840519
Y0844849
Y0849180
X1130257
X1134588
X1138918
Y0844849
X1134588
X1130257
Y0840519
X1134588
X1138918
Y0836188
X1134588
X1130257
X1117541Y0841305
X1115803Y0846621
X1112895Y0855007
X1120572Y0853471
X1124784Y0859259
X1130966Y0860872
X1132501Y0865361
X1135375Y0858038
X1144627Y0863747
X1147068Y0862330
X1145375Y0867054
X1140847Y0867605
X1140183Y0874062
X1140336Y0876856
X1143328Y0873864
X1145415Y0875597
X1147738Y0879179
Y0889494
X1148485Y0895440
X1148997Y0898590
X1143170Y0898865
X1143596Y0895763
X1142895Y0892723
X1142698Y0902062
X1142973Y0913353
X1143997Y0917684
X1143840Y0926463
X1137737Y0926936
X1137265Y0930794
X1134548Y0935007
X1125493Y0935952
X1121832Y0935834
X1118525Y0936778
X1119271Y0932525
X1120572Y0912645
X1120808Y0909298
X1120572Y0900637
X1120651Y0896582
Y0892723
X1120533Y0888747
Y0882881
X1129509Y0885401
X1130415Y0889297
X1130336Y0895440
X1126871Y0895519
X1115847Y0895676
X1110887Y0896031
X1110966Y0893196
X1110887Y0889849
X1099346Y0886312
X1099352Y0901266
X1100651Y0909062
Y0911857
X1100729Y0916818
X1099233Y0935991
X1124312Y0915479
X1130690Y0917920
X1131399Y0903747
X1120572Y0870322
X1117698Y0870637
X1121872Y0867408
X1121359Y0864731
X1108603Y0840086
X1105454Y0839613
Y0832763
X1102304Y0833078
X1098329Y0829089
X1094928Y0829101
X1097265Y0840322
X1108918Y0835845
X1108997Y0824731
X1105572Y0825125
X1108013Y0819653
X1108210Y0816346
X1098840Y0817960
X1096674Y0815164
X1101595Y0821031
X1118132Y0819455
X1140809Y0825124
X1139878Y0827811
X1174106Y0822729
X1177819Y0825361
X1188278Y0829101
X1191678Y0829089
X1195654Y0833078
X1198803Y0832763
X1202268Y0835845
X1201953Y0840086
X1198803Y0839613
X1190614Y0840322
X1186284Y0835203
X1172110Y0835204
X1172832Y0814423
X1190024Y0815164
X1192189Y0817960
X1194945Y0821031
X1201362Y0819653
X1201559Y0816346
X1202347Y0824731
X1198921Y0825125
X1211481Y0819455
X1221717
X1225614Y0825716
X1220024Y0828117
X1215851Y0828077
X1214709Y0830716
X1219276Y0836188
Y0840519
Y0844849
Y0849180
X1223606
X1227937
X1232268
Y0844849
X1227937
X1223606
Y0840519
X1227937
X1232268
Y0836188
X1227937
X1223606
X1210891Y0841305
X1209152Y0846621
X1206244Y0855007
X1213921Y0853471
X1218134Y0859259
X1224316Y0860872
X1225850Y0865361
X1228724Y0858038
X1237976Y0863747
X1240417Y0862330
X1238724Y0867054
X1234197Y0867605
X1233532Y0874062
X1233686Y0876856
X1236678Y0873864
X1238765Y0875597
X1241087Y0879179
Y0889494
X1241835Y0895440
X1242346Y0898590
X1236520Y0898865
X1236945Y0895763
X1236245Y0892723
X1236047Y0902062
X1236323Y0913353
X1237346Y0917684
X1237190Y0926463
X1231087Y0926936
X1230614Y0930794
X1227898Y0935007
X1218843Y0935952
X1215181Y0935834
X1211874Y0936778
X1212620Y0932525
X1213921Y0912645
X1214157Y0909298
X1213921Y0900637
X1214000Y0896582
Y0892723
X1213882Y0888747
Y0882881
X1222858Y0885401
X1223765Y0889297
X1223685Y0895440
X1220220Y0895519
X1209197Y0895676
X1204236Y0896031
X1204315Y0893196
X1204236Y0889849
X1192695Y0886312
X1192702Y0901266
X1194000Y0909062
Y0911857
X1194079Y0916818
X1178567Y0915991
X1176677Y0913157
X1176835Y0919259
X1178882Y0928809
X1192583Y0935991
X1217661Y0915479
X1224039Y0917920
X1224748Y0903747
X1213921Y0870322
X1211047Y0870637
X1215221Y0867408
X1214709Y0864731
X1186677Y0863157
X1187071Y0856464
X1186047Y0871267
X1189833Y0802408
X1192501Y0803279
X1193055Y0798550
X1195929Y0795794
X1198370Y0793038
X1200063Y0800952
X1209157Y0799928
X1208921Y0804495
X1215339Y0807015
X1224236Y0808314
X1232347Y0807683
X1232386Y0805007
X1235063Y0802133
X1241559Y0797408
X1239079Y0818116
X1236480Y0815676
X1228409Y0815912
X1234158Y0825124
X1233227Y0827811
X1209118Y0783078
X1204669Y0783432
X1240339Y0936582
X1146989
X1085532Y0928809
X1083485Y0919259
X1085217Y0915991
X1083328Y0913157
X1049624Y0913353
X1050648Y0917684
X1050491Y0926463
X1044388Y0926936
X1043915Y0930794
X1041199Y0935007
X1032144Y0935952
X1028482Y0935834
X1025175Y0936778
X1025921Y0932525
X1027222Y0912645
X1027459Y0909298
X1027222Y0900637
X1027301Y0896582
Y0892723
X1027183Y0888747
Y0882881
X1036159Y0885401
X1037066Y0889297
X1036986Y0895440
X1033522Y0895519
X1022498Y0895676
X1017537Y0896031
X1017616Y0893196
X1017537Y0889849
X1005996Y0886312
X1006003Y0901266
X1007301Y0909062
Y0911857
X1007380Y0916818
X0991868Y0915991
X0989978Y0913157
X0990136Y0919259
X0992183Y0928809
X1005884Y0935991
X1030962Y0915479
X1037341Y0917920
X1038049Y0903747
X1049348Y0902062
X1049821Y0898865
X1050246Y0895763
X1049546Y0892723
X1054389Y0889494
X1055136Y0895440
X1055648Y0898590
X1054389Y0879179
X1052066Y0875597
X1049979Y0873864
X1046833Y0874062
X1046987Y0876856
X1047498Y0867605
X1052026Y0867054
X1051278Y0863747
X1053718Y0862330
X1042025Y0858038
X1037617Y0860872
X1039151Y0865361
X1028010Y0864731
X1028522Y0867408
X1027222Y0870322
X1024348Y0870637
X1031435Y0859259
X1027222Y0853471
X1019545Y0855007
X1022453Y0846621
X1024192Y0841305
X1032577Y0840519
Y0844849
Y0849180
X1036907
X1041238
X1045569
Y0844849
X1041238
X1036907
Y0840519
X1041238
X1045569
Y0836188
X1041238
X1036907
X1032577
X1033325Y0828117
X1029152Y0828077
X1028010Y0830716
X1024782Y0819455
X1035019
X1038915Y0825716
X1047459Y0825124
X1046528Y0827811
X1049782Y0815676
X1052381Y0818116
X1041711Y0815912
X1037537Y0808314
X1045648Y0807683
X1045687Y0805007
X1048364Y0802133
X1054860Y0797408
X1022459Y0799928
X1022222Y0804495
X1028640Y0807015
X1013364Y0800952
X1009230Y0795794
X1011671Y0793038
X1006356Y0798550
X1005802Y0803279
X1003134Y0802408
X1003325Y0815164
X1005490Y0817960
X1008246Y0821031
X1014663Y0819653
X1014860Y0816346
X1015648Y0824731
X1012222Y0825125
X1012104Y0832763
X1008955Y0833078
X1004979Y0829089
X1001579Y0829101
X0999586Y0835203
X1003915Y0840322
X1012104Y0839613
X1015254Y0840086
X1015569Y0835845
X0985411Y0835204
X0987407Y0822729
X0991120Y0825361
X0986133Y0814423
X0959031Y0818116
X0956432Y0815676
X0948361Y0815912
X0941669Y0819455
X0945566Y0825716
X0939975Y0828117
X0939227Y0836188
Y0840519
Y0844849
Y0849180
X0943558
X0947889
X0952219
Y0844849
X0947889
X0943558
Y0840519
X0947889
X0952219
Y0836188
X0947889
X0943558
X0953179Y0827811
X0954110Y0825124
X0952299Y0807683
X0952337Y0805007
X0955015Y0802133
X0961511Y0797408
X0944188Y0808314
X0944267Y0860872
X0945802Y0865361
X0948676Y0858038
X0938085Y0859259
X0957928Y0863747
X0960369Y0862330
X0958676Y0867054
X0954148Y0867605
X0953484Y0874062
X0953638Y0876856
X0956630Y0873864
X0958716Y0875597
X0961039Y0879179
Y0889494
X0961786Y0895440
X0962298Y0898590
X0956471Y0898865
X0956897Y0895763
X0956197Y0892723
X0955999Y0902062
X0956275Y0913353
X0957298Y0917684
X0957141Y0926463
X0951038Y0926936
X0950566Y0930794
X0947849Y0935007
X0938794Y0935952
X0937613Y0915479
X0943991Y0917920
X0944700Y0903747
X0943637Y0895440
X0940172Y0895519
X0943716Y0889297
X0942810Y0885401
X0960290Y0936582
X1053640
X1092698Y0871267
X1093328Y0863157
X1093721Y0856464
X1092935Y0835203
X1078761Y0835204
X1080757Y0822729
X1084470Y0825361
X1079482Y0814423
X1022419Y0783078
X1017970Y0783432
X1000372Y0856464
X0999978Y0863157
X0999348Y0871267
X0933873Y0870322
X0930999Y0870637
X0935173Y0867408
X0934660Y0864731
X0933873Y0853471
X0926196Y0855007
X0929104Y0846621
X0930842Y0841305
X0921904Y0840086
X0918755Y0839613
Y0832763
X0915605Y0833078
X0911630Y0829089
X0908230Y0829101
X0906236Y0835203
X0910566Y0840322
X0922219Y0835845
X0922298Y0824731
X0918873Y0825125
X0921314Y0819653
X0921511Y0816346
X0912141Y0817960
X0909975Y0815164
X0914897Y0821031
X0931433Y0819455
X0935803Y0828077
X0934660Y0830716
X0935290Y0807015
X0928873Y0804495
X0929109Y0799928
X0920015Y0800952
X0915881Y0795794
X0918322Y0793038
X0913007Y0798550
X0912453Y0803279
X0909784Y0802408
X0892783Y0814423
X0894058Y0822729
X0897771Y0825361
X0892062Y0835204
X0858870Y0836188
Y0840519
Y0844849
Y0849180
X0854539
X0850208
X0845878
Y0844849
X0850208
X0854539
Y0840519
X0850208
X0845878
Y0836188
X0850208
X0854539
X0852216Y0825716
X0846626Y0828117
X0842453Y0828077
X0841311Y0830716
X0837493Y0841305
X0835754Y0846621
X0832846Y0855007
X0840524Y0853471
X0844736Y0859259
X0850918Y0860872
X0852453Y0865361
X0855327Y0858038
X0864579Y0863747
X0867019Y0862330
X0865327Y0867054
X0860799Y0867605
X0860134Y0874062
X0860288Y0876856
X0863280Y0873864
X0865367Y0875597
X0867690Y0879179
Y0889494
X0868437Y0895440
X0868949Y0898590
X0863122Y0898865
X0863547Y0895763
X0862847Y0892723
X0862650Y0902062
X0862925Y0913353
X0863949Y0917684
X0863792Y0926463
X0857689Y0926936
X0857216Y0930794
X0854500Y0935007
X0845445Y0935952
X0841783Y0935834
X0838476Y0936778
X0839222Y0932525
X0840524Y0912645
X0840760Y0909298
X0840524Y0900637
X0840602Y0896582
Y0892723
X0840484Y0888747
Y0882881
X0849461Y0885401
X0850367Y0889297
X0850287Y0895440
X0846823Y0895519
X0835799Y0895676
X0830838Y0896031
X0830917Y0893196
X0830838Y0889849
X0819297Y0886312
X0819304Y0901266
X0820602Y0909062
Y0911857
X0820681Y0916818
X0805169Y0915991
X0803279Y0913157
X0803437Y0919259
X0805484Y0928809
X0819185Y0935991
X0844264Y0915479
X0850642Y0917920
X0851350Y0903747
X0840524Y0870322
X0837650Y0870637
X0841823Y0867408
X0841311Y0864731
X0813279Y0863157
X0813673Y0856464
X0812650Y0871267
X0817216Y0840322
X0825405Y0839613
X0828555Y0840086
X0828870Y0835845
X0825405Y0832763
X0822256Y0833078
X0818280Y0829089
X0814880Y0829101
X0812887Y0835203
X0798712Y0835204
X0800708Y0822729
X0804421Y0825361
X0799434Y0814423
X0816626Y0815164
X0818791Y0817960
X0821547Y0821031
X0827964Y0819653
X0828161Y0816346
X0828949Y0824731
X0825523Y0825125
X0838083Y0819455
X0848320
X0855012Y0815912
X0863083Y0815676
X0865682Y0818116
X0860760Y0825124
X0859829Y0827811
X0858949Y0807683
X0858988Y0805007
X0861665Y0802133
X0868161Y0797408
X0850838Y0808314
X0841941Y0807015
X0835524Y0804495
X0835760Y0799928
X0826665Y0800952
X0822531Y0795794
X0824972Y0793038
X0819657Y0798550
X0819103Y0803279
X0816435Y0802408
X0831271Y0783432
X0835720Y0783078
X0924621Y0783432
X0929070Y0783078
X0907022Y0856464
X0906629Y0863157
X0905999Y0871267
X0912647Y0886312
X0912653Y0901266
X0913952Y0909062
Y0911857
X0914030Y0916818
X0898519Y0915991
X0896629Y0913157
X0896786Y0919259
X0898834Y0928809
X0912534Y0935991
X0931826Y0936778
X0935133Y0935834
X0932572Y0932525
X0933873Y0912645
X0934109Y0909298
X0933873Y0900637
X0933952Y0896582
Y0892723
X0933834Y0888747
Y0882881
X0924188Y0889849
X0924267Y0893196
X0924188Y0896031
X0929148Y0895676
X0866941Y0936582
X0858397Y0939023
X0854776Y0939731
X0844972Y0940479
Y0944377
X0841193Y0943275
X0841547Y0939613
X0838004Y0940440
X0836665Y0945243
X0838476Y0948590
X0835209Y0953590
X0836980Y0957094
X0838476Y0960400
X0840917Y0955046
X0845720Y0954771
X0845957Y0958432
X0850051Y0958275
X0850287Y0954495
X0853634Y0955952
X0856075Y0959141
X0863988Y0951464
X0862098Y0948590
X0872216Y0948787
X0875130Y0947093
X0873909Y0942684
Y0954495
X0896393
X0894424Y0948590
X0897967Y0947015
X0896393Y0942684
X0907613Y0945676
X0900330Y0959613
X0901904Y0974574
X0896393Y0978117
Y0989928
X0902298Y0991109
Y0985204
Y0997408
X0911353Y0998983
Y0988747
X0920015Y0989928
Y1001739
Y1013550
Y1025361
X0908204Y1031267
X0896393Y1025361
X0873909
Y1013550
Y1001739
Y0989928
Y0978117
X0862098Y0972211
X0858949Y0985204
X0855405Y0988747
X0848713Y0982448
X0850287Y0978117
X0847531Y0974574
X0843988Y0977724
X0835720Y0979298
X0826665Y0978117
X0822728Y0974574
X0818004Y0977724
Y0988747
X0826665Y0989928
Y1001739
X0818004Y0998983
X0808949Y0997408
Y0991109
Y0985204
X0803043Y0989928
Y0978117
X0808555Y0974574
X0806980Y0959613
X0803043Y0954495
X0801075Y0948590
X0804618Y0947015
X0803043Y0942684
X0814264Y0945676
X0826665Y1013550
Y1025361
X0814854Y1031267
X0803043Y1025361
X0838476Y1031267
Y1019456
X0850287Y1025361
X0862098Y1031267
Y1007644
Y0995833
X0849106Y1004889
X0911353Y0977724
X0916078Y0974574
X0920015Y0978117
X0929070Y0979298
X0937337Y0977724
X0931826Y0960400
X0930330Y0957094
X0928558Y0953590
X0934267Y0955046
X0931826Y0948590
X0930015Y0945243
X0931353Y0940440
X0934897Y0939613
X0934542Y0943275
X0931826Y1019456
Y1031267
X0943637Y1025361
X0955448Y1031267
X0967259Y1025361
Y1013550
Y1001739
Y0989928
Y0978117
X0955448Y0972211
X0952298Y0985204
X0948755Y0988747
X0942062Y0982448
X0943637Y0978117
X0940881Y0974574
X0939306Y0958432
X0939070Y0954771
X0943637Y0954495
X0943400Y0958275
X0946983Y0955952
X0949424Y0959141
X0957337Y0951464
X0955448Y0948590
X0965566Y0948787
X0968479Y0947093
X0967259Y0942684
Y0954495
X0989742
X0987774Y0948590
X0991317Y0947015
X0989742Y0942684
X1000963Y0945676
X0993679Y0959613
X0995254Y0974574
X0989742Y0978117
Y0989928
X0995648Y0991109
Y0985204
Y0997408
X1004703Y0998983
Y0988747
X1013364Y0989928
Y1001739
Y1013550
Y1025361
X1001553Y1031267
X0989742Y1025361
X1025175Y1031267
Y1019456
X1036986Y1025361
X1048797Y1031267
X1060608Y1025361
Y1013550
Y1001739
Y0989928
Y0978117
X1048797Y0972211
X1045648Y0985204
X1042104Y0988747
X1035411Y0982448
X1036986Y0978117
X1034230Y0974574
X1030687Y0977724
X1022419Y0979298
X1013364Y0978117
X1009427Y0974574
X1004703Y0977724
X1025175Y0960400
X1023679Y0957094
X1021907Y0953590
X1027616Y0955046
X1032419Y0954771
X1032656Y0958432
X1036750Y0958275
X1036986Y0954495
X1040333Y0955952
X1042774Y0959141
X1050687Y0951464
X1048797Y0948590
X1058915Y0948787
X1061829Y0947093
X1060608Y0942684
Y0954495
X1083092
X1081123Y0948590
X1084666Y0947015
X1083092Y0942684
X1087029Y0959613
X1088603Y0974574
X1083092Y0978117
Y0989928
X1088997Y0991109
Y0985204
Y0997408
X1083092Y1025361
X1048797Y1007644
Y0995833
X1035805Y1004889
X1031671Y0944377
Y0940479
X1028246Y0939613
X1027892Y0943275
X1024703Y0940440
X1023364Y0945243
X1025175Y0948590
X1041474Y0939731
X1045096Y0939023
X0951747
X0948125Y0939731
X0938322Y0940479
Y0944377
X0942456Y1004889
X0955448Y1007644
Y0995833
X1098052Y0998983
Y0988747
X1106714Y0989928
Y1001739
Y1013550
Y1025361
X1094903Y1031267
X1118525
Y1019456
X1130336Y1025361
X1142147Y1031267
X1153958Y1025361
Y1013550
Y1001739
Y0989928
Y0978117
X1142147Y0972211
X1138997Y0985204
X1135454Y0988747
X1128761Y0982448
X1130336Y0978117
X1127580Y0974574
X1124036Y0977724
X1115769Y0979298
X1106714Y0978117
X1102777Y0974574
X1098052Y0977724
X1094312Y0945676
X1116714Y0945243
X1118525Y0948590
X1121241Y0943275
X1121595Y0939613
X1125021Y0940479
Y0944377
X1118052Y0940440
X1115257Y0953590
X1117029Y0957094
X1118525Y0960400
X1120965Y0955046
X1125769Y0954771
X1126005Y0958432
X1130099Y0958275
X1130336Y0954495
X1133682Y0955952
X1136123Y0959141
X1144036Y0951464
X1142147Y0948590
X1152265Y0948787
X1155178Y0947093
X1153958Y0942684
Y0954495
X1176441
X1174473Y0948590
X1178016Y0947015
X1176441Y0942684
X1187661Y0945676
X1180378Y0959613
X1181953Y0974574
X1176441Y0978117
Y0989928
X1182347Y0991109
Y0985204
Y0997408
X1191402Y0998983
Y0988747
X1200063Y0989928
Y1001739
Y1013550
Y1025361
X1188252Y1031267
X1176441Y1025361
X1211874Y1031267
Y1019456
X1223685Y1025361
X1235496Y1031267
X1247307Y1025361
Y1013550
Y1001739
Y0989928
Y0978117
X1235496Y0972211
X1232347Y0985204
X1228803Y0988747
X1222110Y0982448
X1223685Y0978117
X1220929Y0974574
X1217386Y0977724
X1209118Y0979298
X1200063Y0978117
X1196126Y0974574
X1191402Y0977724
X1211874Y0960400
X1210378Y0957094
X1208606Y0953590
X1214315Y0955046
X1219118Y0954771
X1219354Y0958432
X1223449Y0958275
X1223685Y0954495
X1227032Y0955952
X1229473Y0959141
X1237386Y0951464
X1235496Y0948590
X1245614Y0948787
X1248528Y0947093
X1247307Y0942684
Y0954495
X1231795Y0939023
X1228173Y0939731
X1218370Y0940479
Y0944377
X1214591Y0943275
X1214945Y0939613
X1211402Y0940440
X1210063Y0945243
X1211874Y0948590
X1222504Y1004889
X1235496Y1007644
Y0995833
X1142147
Y1007644
X1129154Y1004889
X1134824Y0939731
X1138446Y0939023
T02
X1105336Y0307524
X1113328
X1121320
X1129312
X1198685
X1206677
X1214669
X1222661
X1035963
X1027970
X1019978
X1011986
X0942613
X0934621
X0926629
X0918637
X0849264
X0841271
X0833279
X0825287
X0829067Y0314571
X0837059
X0845051Y0314531
X0821075Y0314571
X0914424
X0922416
X0930408
X0938400Y0314531
X1007774Y0314571
X1015766
X1023758
X1031750Y0314531
X1101123Y0314571
X1109115
X1117107
X1125099Y0314531
X1194473Y0314571
X1202465
X1210457
X1218449Y0314531
X1221244Y0617563
X1213252
X1205260
X1197268Y0617602
X1201047Y0624610
X1193055
X1209039
X1217031
X1123682
X1115690
X1107698
X1099706
X1103918Y0617602
X1111910Y0617563
X1119903
X1127895
X1034545
X1026553
X1018561
X1010569Y0617602
X1014348Y0624610
X1006356
X1022340
X1030333
X0941196Y0617563
X0933204
X0925212
X0917219Y0617602
X0920999Y0624610
X0913007
X0928991
X0936983
X0843634
X0835642
X0827649
X0819657
X0823870Y0617602
X0831862Y0617563
X0839854
X0847846
X0849264Y0689298
X0841271
X0833279
X0825287
X0829067Y0696346
X0837059
X0845051Y0696306
X0821075Y0696346
X0914424
X0922416
X0930408
X0926629Y0689298
X0918637
X0934621
X0942613
X0938400Y0696306
X1007774Y0696346
X1015766
X1023758
X1031750Y0696306
X1027970Y0689298
X1035963
X1019978
X1011986
X1105336
X1113328
X1121320
X1129312
X1125099Y0696306
X1117107Y0696346
X1109115
X1101123
X1194473
X1202465
X1210457
X1218449Y0696306
X1214669Y0689298
X1222661
X1206677
X1198685
X0933204Y0999338
X0925212
X0917219Y0999377
X0920999Y1006385
X0913007
X0928991
X0936983
X0843634
X0835642
X0827649
X0819657
X0823870Y0999377
X0831862Y0999338
X0839854
X0847846
X0941196
X1010569Y0999377
X1018561Y0999338
X1026553
X1034545
X1030333Y1006385
X1022340
X1014348
X1006356
X1099706
X1107698
X1115690
X1123682
X1119903Y0999338
X1111910
X1103918Y0999377
X1127895Y0999338
X1197268Y0999377
X1205260Y0999338
X1213252
X1221244
X1217031Y1006385
X1209039
X1201047
X1193055
T03
X0800681Y0350831
X0810681
X0820681
X0830681
X0840681
X0850681
X0860681
X0870681
X0894030
X0904030
X0914030
X0924030
X0934030
X0875362Y0388035
Y0398035
Y0408035
Y0418035
Y0428035
Y0438035
Y0448035
Y0458035
Y0468035
X0889109
Y0458035
Y0448035
Y0438035
Y0428035
X0795760
Y0438035
Y0448035
Y0458035
Y0468035
X0968711
Y0458035
Y0448035
Y0438035
Y0428035
Y0418035
Y0408035
Y0398035
Y0388035
X0964030Y0350831
X0954030
X0944030
X0987380
X0997380
X1007380
X1017380
X1027380
X1037380
X1047380
X1057380
X1080729
X1090729
X1062061Y0388035
Y0398035
Y0408035
Y0418035
Y0428035
Y0438035
Y0448035
Y0458035
Y0468035
X1075808
Y0458035
Y0448035
Y0438035
Y0428035
X0982459
Y0438035
Y0448035
Y0458035
Y0468035
X1155410
Y0458035
Y0448035
Y0438035
Y0428035
Y0418035
Y0408035
Y0398035
Y0388035
X1150729Y0350831
X1140729
X1130729
X1120729
X1110729
X1100729
X1174079
X1184079
X1194079
X1204079
X1214079
X1224079
X1234079
X1244079
X1248760Y0388035
Y0398035
Y0408035
Y0418035
Y0428035
Y0438035
Y0448035
Y0458035
Y0468035
X1169158
Y0458035
Y0448035
Y0438035
Y0428035
Y0478035
Y0488035
Y0498035
Y0508035
Y0518035
Y0528035
Y0538035
X1155410
Y0528035
Y0518035
Y0508035
Y0498035
Y0488035
Y0478035
X1248760
Y0488035
Y0498035
Y0508035
Y0518035
Y0528035
Y0538035
X1243055Y0583941
X1233055
X1223055
X1213055
X1203055
X1193055
X1183055
X1173055
X1149706
X1139706
X1129706
X1119706
X1109706
X1099706
X1089706
X1079706
X1056356
X1046356
X1036356
X1026356
X1016356
X1006356
X0996356
X0986356
X0963007
X0953007
X0943007
X0968711Y0538035
Y0528035
Y0518035
Y0508035
Y0498035
Y0488035
Y0478035
X0982459
Y0488035
Y0498035
Y0508035
Y0518035
Y0528035
Y0538035
X1062061
Y0528035
Y0518035
Y0508035
Y0498035
Y0488035
Y0478035
X1075808
Y0488035
Y0498035
Y0508035
Y0518035
Y0528035
Y0538035
X0889109
Y0528035
Y0518035
Y0508035
Y0498035
Y0488035
Y0478035
X0875362
Y0488035
Y0498035
Y0508035
Y0518035
Y0528035
Y0538035
X0869657Y0583941
X0859657
X0849657
X0839657
X0829657
X0819657
X0809657
X0799657
X0795760Y0538035
Y0528035
Y0518035
Y0508035
Y0498035
Y0488035
Y0478035
X0893007Y0583941
X0903007
X0913007
X0923007
X0933007
X0934030Y0732605
X0924030
X0914030
X0904030
X0894030
X0870681
X0860681
X0850681
X0840681
X0830681
X0820681
X0810681
X0800681
X0875362Y0769810
Y0779810
X0968711
Y0769810
X0964030Y0732605
X0954030
X0944030
X0987380
X0997380
X1007380
X1017380
X1027380
X1037380
X1047380
X1057380
X1080729
X1090729
X1062061Y0769810
Y0779810
X1100729Y0732605
X1110729
X1120729
X1130729
X1140729
X1150729
X1174079
X1184079
X1194079
X1204079
X1214079
X1224079
X1234079
X1244079
X1248760Y0769810
Y0779810
X1155410
Y0769810
Y0789810
Y0799810
Y0809810
Y0819810
Y0829810
Y0839810
Y0849810
Y0859810
Y0869810
Y0879810
Y0889810
Y0899810
Y0909810
Y0919810
X1169158
Y0909810
Y0899810
Y0889810
Y0879810
Y0869810
Y0859810
Y0849810
Y0839810
Y0829810
Y0819810
Y0809810
X1248760
Y0799810
Y0789810
Y0819810
Y0829810
Y0839810
Y0849810
Y0859810
Y0869810
Y0879810
Y0889810
Y0899810
Y0909810
Y0919810
X1075808
Y0909810
Y0899810
Y0889810
Y0879810
Y0869810
Y0859810
Y0849810
Y0839810
Y0829810
Y0819810
Y0809810
X1062061
Y0799810
Y0789810
Y0819810
Y0829810
Y0839810
Y0849810
Y0859810
Y0869810
Y0879810
Y0889810
Y0899810
Y0909810
Y0919810
X0982459
Y0909810
Y0899810
Y0889810
Y0879810
Y0869810
Y0859810
Y0849810
Y0839810
Y0829810
Y0819810
Y0809810
X0968711
Y0799810
Y0789810
Y0819810
Y0829810
Y0839810
Y0849810
Y0859810
Y0869810
Y0879810
Y0889810
Y0899810
Y0909810
Y0919810
X0889109
Y0909810
Y0899810
Y0889810
Y0879810
Y0869810
Y0859810
Y0849810
Y0839810
Y0829810
Y0819810
Y0809810
X0875362
Y0799810
Y0789810
Y0819810
Y0829810
Y0839810
Y0849810
Y0859810
Y0869810
Y0879810
Y0889810
Y0899810
Y0909810
Y0919810
X0795760
Y0909810
Y0899810
Y0889810
Y0879810
Y0869810
Y0859810
Y0849810
Y0839810
Y0829810
Y0819810
Y0809810
X0799657Y0965716
X0809657
X0819657
X0829657
X0839657
X0849657
X0859657
X0869657
X0893007
X0903007
X0913007
X0923007
X0933007
X0943007
X0953007
X0963007
X0986356
X0996356
X1006356
X1016356
X1026356
X1036356
X1046356
X1056356
X1079706
X1089706
X1099706
X1109706
X1119706
X1129706
X1139706
X1149706
X1173055
X1183055
X1193055
X1203055
X1213055
X1223055
X1233055
X1243055
T04
X0800169Y0397366
Y0406028
X0893519
Y0397366
X0986868
Y0406028
X1080217
Y0397366
X1173567
Y0406028
X0893519Y0779141
X0800169
X0986868
X1080217
X1173567
Y0787802
X1080217
X0986868
X0893519
X0800169
T05
X1147619Y0311028
X1176165
X1240969
X1082816
X1054270
X0989466
X0960920
X0896117
X0867571
X0802768
X1146202Y0621106
X1174748
X1239551
X1081399
X1052852
X0988049
X0959503
X0894700
X0866153
X0801350
X0802768Y0692802
X0867571
X0896117
X0960920
X0989466
X1054270
X1082816
X1147619
X1176165
X1240969
X0894700Y1002881
X0866153
X0801350
X0959503
X0988049
X1052852
X1081399
X1146202
X1174748
X1239551
T06
X1153564Y0550516
X1170654
X1246913
X1077304
X1060215
X0983955
X0966865
X0890605
X0873516
X0797256
X1153564Y0932290
X1170654
X1246913
X1077304
X1060215
X0983955
X0966865
X0890605
X0873516
X0797256
T07
X0800287Y0370752
X0870366Y0370358
X0893637Y0370752
X0963715Y0370358
X0986986Y0370752
X1057065Y0370358
X1080336Y0370752
X1150414Y0370358
X1173685Y0370752
X1243764Y0370358
X0893637Y0752527
X0870366Y0752133
X0800287Y0752527
X0963715Y0752133
X0986986Y0752527
X1057065Y0752133
X1080336Y0752527
X1150414Y0752133
X1173685Y0752527
X1243764Y0752133
T08
X0769685Y0293307
Y1025591
X1273622
T09
X1140139Y0297563
X1233488
X1046789
X0953440
X0860090
X0902180Y0634571
X0860090Y0679338
X0808831Y0634571
X0995529
X0953440Y0679338
X1046789
X1088879Y0634571
X1182228
X1140139Y0679338
X1233488
X0902180Y1016346
X0808831
X0995529
X1088879
X1182228
T10
X1183646Y0297248
X1090296
X0996947
X0903597
X0810248
Y0679023
X0858673Y0634886
X0903597Y0679023
X0952022Y0634886
X0996947Y0679023
X1045372Y0634886
X1090296Y0679023
X1138721Y0634886
X1183646Y0679023
X1232071Y0634886
X0858673Y1016660
X0952022
X1045372
X1138721
X1232071
M30
