G04*
G04 #@! TF.GenerationSoftware,Altium Limited,Altium Designer,18.1.9 (240)*
G04*
G04 Layer_Color=8421504*
%FSAX25Y25*%
%MOIN*%
G70*
G01*
G75*
%ADD10C,0.03937*%
%ADD13R,0.03937X0.03150*%
%ADD14R,0.03150X0.03937*%
%ADD15R,0.13386X0.05906*%
%ADD16R,0.13386X0.03937*%
%ADD17R,0.01968X0.00984*%
%ADD18R,0.02717X0.06496*%
%ADD19R,0.03543X0.03937*%
%ADD20R,0.08661X0.05118*%
%ADD21R,0.08661X0.04134*%
%ADD22R,0.03937X0.03937*%
%ADD23R,0.03150X0.02362*%
%ADD24R,0.02362X0.03150*%
%ADD25R,0.05118X0.08661*%
%ADD26R,0.06496X0.02717*%
%ADD27R,0.00984X0.01968*%
%ADD28R,0.03937X0.01457*%
%ADD29R,0.01457X0.03937*%
%ADD30R,0.16732X0.16732*%
%ADD31R,0.03445X0.03051*%
G04:AMPARAMS|DCode=34|XSize=59.06mil|YSize=59.06mil|CornerRadius=5.91mil|HoleSize=0mil|Usage=FLASHONLY|Rotation=90.000|XOffset=0mil|YOffset=0mil|HoleType=Round|Shape=RoundedRectangle|*
%AMROUNDEDRECTD34*
21,1,0.05906,0.04724,0,0,90.0*
21,1,0.04724,0.05906,0,0,90.0*
1,1,0.01181,0.02362,0.02362*
1,1,0.01181,0.02362,-0.02362*
1,1,0.01181,-0.02362,-0.02362*
1,1,0.01181,-0.02362,0.02362*
%
%ADD34ROUNDEDRECTD34*%
%ADD35R,0.05906X0.05906*%
%ADD36R,0.03150X0.03937*%
%ADD59R,0.03740X0.01929*%
%ADD60R,0.01968X0.03780*%
%ADD61R,0.01968X0.03780*%
%ADD62R,0.01929X0.03740*%
%ADD63R,0.01929X0.03740*%
%ADD64R,0.01968X0.03780*%
%ADD65R,0.01968X0.03780*%
D10*
X1273622Y0976378D02*
D03*
X0769685D02*
D03*
Y0342520D02*
D03*
D13*
X1179827Y0494182D02*
D03*
Y0501057D02*
D03*
X1234197Y0372440D02*
D03*
Y0365565D02*
D03*
X1178803Y0518818D02*
D03*
Y0511942D02*
D03*
X1240772Y0539526D02*
D03*
Y0532651D02*
D03*
X1238606Y0411810D02*
D03*
Y0404935D02*
D03*
X1232937Y0392361D02*
D03*
Y0385486D02*
D03*
X1225496Y0385600D02*
D03*
Y0392475D02*
D03*
X1205181Y0462017D02*
D03*
Y0468892D02*
D03*
X1214039Y0399458D02*
D03*
Y0406333D02*
D03*
X1188961Y0551505D02*
D03*
Y0558380D02*
D03*
X1182622Y0551860D02*
D03*
Y0558735D02*
D03*
X1206638Y0453936D02*
D03*
Y0447061D02*
D03*
X1183410Y0477332D02*
D03*
Y0484207D02*
D03*
X1204433Y0558245D02*
D03*
Y0551370D02*
D03*
X1205181Y0477550D02*
D03*
Y0484425D02*
D03*
X1191008Y0483245D02*
D03*
Y0476370D02*
D03*
X1198094Y0483245D02*
D03*
Y0476370D02*
D03*
X1220142Y0434243D02*
D03*
Y0441118D02*
D03*
X1212898Y0434204D02*
D03*
Y0441079D02*
D03*
X1179551Y0425857D02*
D03*
Y0432732D02*
D03*
X1180732Y0447181D02*
D03*
Y0440306D02*
D03*
X1199394Y0454465D02*
D03*
Y0447590D02*
D03*
X1179827Y0875957D02*
D03*
Y0882832D02*
D03*
X1234197Y0754214D02*
D03*
Y0747339D02*
D03*
X1178803Y0900592D02*
D03*
Y0893717D02*
D03*
X1240772Y0921301D02*
D03*
Y0914426D02*
D03*
X1238606Y0793584D02*
D03*
Y0786709D02*
D03*
X1232937Y0774135D02*
D03*
Y0767261D02*
D03*
X1225496Y0767374D02*
D03*
Y0774249D02*
D03*
X1205181Y0843792D02*
D03*
Y0850667D02*
D03*
X1214039Y0781233D02*
D03*
Y0788108D02*
D03*
X1188961Y0933280D02*
D03*
Y0940155D02*
D03*
X1182622Y0933634D02*
D03*
Y0940509D02*
D03*
X1206638Y0835710D02*
D03*
Y0828835D02*
D03*
X1183410Y0859107D02*
D03*
Y0865982D02*
D03*
X1204433Y0940020D02*
D03*
Y0933145D02*
D03*
X1205181Y0859325D02*
D03*
Y0866200D02*
D03*
X1191008Y0865020D02*
D03*
Y0858145D02*
D03*
X1198094Y0865020D02*
D03*
Y0858145D02*
D03*
X1220142Y0816018D02*
D03*
Y0822893D02*
D03*
X1212898Y0815978D02*
D03*
Y0822853D02*
D03*
X1179551Y0807632D02*
D03*
Y0814507D02*
D03*
X1180732Y0828956D02*
D03*
Y0822081D02*
D03*
X1199394Y0836239D02*
D03*
Y0829364D02*
D03*
X1086477Y0494182D02*
D03*
Y0501057D02*
D03*
X1140847Y0372440D02*
D03*
Y0365565D02*
D03*
X1085454Y0518818D02*
D03*
Y0511942D02*
D03*
X1147422Y0539526D02*
D03*
Y0532651D02*
D03*
X1145257Y0411810D02*
D03*
Y0404935D02*
D03*
X1139588Y0392361D02*
D03*
Y0385486D02*
D03*
X1132147Y0385600D02*
D03*
Y0392475D02*
D03*
X1111832Y0462017D02*
D03*
Y0468892D02*
D03*
X1120690Y0399458D02*
D03*
Y0406333D02*
D03*
X1095611Y0551505D02*
D03*
Y0558380D02*
D03*
X1089273Y0551860D02*
D03*
Y0558735D02*
D03*
X1113288Y0453936D02*
D03*
Y0447061D02*
D03*
X1090060Y0477332D02*
D03*
Y0484207D02*
D03*
X1111084Y0558245D02*
D03*
Y0551370D02*
D03*
X1111832Y0477550D02*
D03*
Y0484425D02*
D03*
X1097659Y0483245D02*
D03*
Y0476370D02*
D03*
X1104745Y0483245D02*
D03*
Y0476370D02*
D03*
X1126792Y0434243D02*
D03*
Y0441118D02*
D03*
X1119548Y0434204D02*
D03*
Y0441079D02*
D03*
X1086202Y0425857D02*
D03*
Y0432732D02*
D03*
X1087383Y0447181D02*
D03*
Y0440306D02*
D03*
X1106044Y0454465D02*
D03*
Y0447590D02*
D03*
X1086477Y0875957D02*
D03*
Y0882832D02*
D03*
X1140847Y0754214D02*
D03*
Y0747339D02*
D03*
X1085454Y0900592D02*
D03*
Y0893717D02*
D03*
X1147422Y0921301D02*
D03*
Y0914426D02*
D03*
X1145257Y0793584D02*
D03*
Y0786709D02*
D03*
X1139588Y0774135D02*
D03*
Y0767261D02*
D03*
X1132147Y0767374D02*
D03*
Y0774249D02*
D03*
X1111832Y0843792D02*
D03*
Y0850667D02*
D03*
X1120690Y0781233D02*
D03*
Y0788108D02*
D03*
X1095611Y0933280D02*
D03*
Y0940155D02*
D03*
X1089273Y0933634D02*
D03*
Y0940509D02*
D03*
X1113288Y0835710D02*
D03*
Y0828835D02*
D03*
X1090060Y0859107D02*
D03*
Y0865982D02*
D03*
X1111084Y0940020D02*
D03*
Y0933145D02*
D03*
X1111832Y0859325D02*
D03*
Y0866200D02*
D03*
X1097659Y0865020D02*
D03*
Y0858145D02*
D03*
X1104745Y0865020D02*
D03*
Y0858145D02*
D03*
X1126792Y0816018D02*
D03*
Y0822893D02*
D03*
X1119548Y0815978D02*
D03*
Y0822853D02*
D03*
X1086202Y0807632D02*
D03*
Y0814507D02*
D03*
X1087383Y0828956D02*
D03*
Y0822081D02*
D03*
X1106044Y0836239D02*
D03*
Y0829364D02*
D03*
X0993128Y0494182D02*
D03*
Y0501057D02*
D03*
X1047498Y0372440D02*
D03*
Y0365565D02*
D03*
X0992104Y0518818D02*
D03*
Y0511942D02*
D03*
X1054073Y0539526D02*
D03*
Y0532651D02*
D03*
X1051907Y0411810D02*
D03*
Y0404935D02*
D03*
X1046238Y0392361D02*
D03*
Y0385486D02*
D03*
X1038797Y0385600D02*
D03*
Y0392475D02*
D03*
X1018482Y0462017D02*
D03*
Y0468892D02*
D03*
X1027341Y0399458D02*
D03*
Y0406333D02*
D03*
X1002262Y0551505D02*
D03*
Y0558380D02*
D03*
X0995923Y0551860D02*
D03*
Y0558735D02*
D03*
X1019939Y0453936D02*
D03*
Y0447061D02*
D03*
X0996711Y0477332D02*
D03*
Y0484207D02*
D03*
X1017734Y0558245D02*
D03*
Y0551370D02*
D03*
X1018482Y0477550D02*
D03*
Y0484425D02*
D03*
X1004309Y0483245D02*
D03*
Y0476370D02*
D03*
X1011396Y0483245D02*
D03*
Y0476370D02*
D03*
X1033443Y0434243D02*
D03*
Y0441118D02*
D03*
X1026199Y0434204D02*
D03*
Y0441079D02*
D03*
X0992852Y0425857D02*
D03*
Y0432732D02*
D03*
X0994033Y0447181D02*
D03*
Y0440306D02*
D03*
X1012695Y0454465D02*
D03*
Y0447590D02*
D03*
X0993128Y0875957D02*
D03*
Y0882832D02*
D03*
X1047498Y0754214D02*
D03*
Y0747339D02*
D03*
X0992104Y0900592D02*
D03*
Y0893717D02*
D03*
X1054073Y0921301D02*
D03*
Y0914426D02*
D03*
X1051907Y0793584D02*
D03*
Y0786709D02*
D03*
X1046238Y0774135D02*
D03*
Y0767261D02*
D03*
X1038797Y0767374D02*
D03*
Y0774249D02*
D03*
X1018482Y0843792D02*
D03*
Y0850667D02*
D03*
X1027341Y0781233D02*
D03*
Y0788108D02*
D03*
X1002262Y0933280D02*
D03*
Y0940155D02*
D03*
X0995923Y0933634D02*
D03*
Y0940509D02*
D03*
X1019939Y0835710D02*
D03*
Y0828835D02*
D03*
X0996711Y0859107D02*
D03*
Y0865982D02*
D03*
X1017734Y0940020D02*
D03*
Y0933145D02*
D03*
X1018482Y0859325D02*
D03*
Y0866200D02*
D03*
X1004309Y0865020D02*
D03*
Y0858145D02*
D03*
X1011396Y0865020D02*
D03*
Y0858145D02*
D03*
X1033443Y0816018D02*
D03*
Y0822893D02*
D03*
X1026199Y0815978D02*
D03*
Y0822853D02*
D03*
X0992852Y0807632D02*
D03*
Y0814507D02*
D03*
X0994033Y0828956D02*
D03*
Y0822081D02*
D03*
X1012695Y0836239D02*
D03*
Y0829364D02*
D03*
X0899778Y0494182D02*
D03*
Y0501057D02*
D03*
X0954148Y0372440D02*
D03*
Y0365565D02*
D03*
X0898755Y0518818D02*
D03*
Y0511942D02*
D03*
X0960723Y0539526D02*
D03*
Y0532651D02*
D03*
X0958558Y0411810D02*
D03*
Y0404935D02*
D03*
X0952889Y0392361D02*
D03*
Y0385486D02*
D03*
X0945448Y0385600D02*
D03*
Y0392475D02*
D03*
X0925133Y0462017D02*
D03*
Y0468892D02*
D03*
X0933991Y0399458D02*
D03*
Y0406333D02*
D03*
X0908912Y0551505D02*
D03*
Y0558380D02*
D03*
X0902574Y0551860D02*
D03*
Y0558735D02*
D03*
X0926589Y0453936D02*
D03*
Y0447061D02*
D03*
X0903361Y0477332D02*
D03*
Y0484207D02*
D03*
X0924385Y0558245D02*
D03*
Y0551370D02*
D03*
X0925133Y0477550D02*
D03*
Y0484425D02*
D03*
X0910960Y0483245D02*
D03*
Y0476370D02*
D03*
X0918046Y0483245D02*
D03*
Y0476370D02*
D03*
X0940093Y0434243D02*
D03*
Y0441118D02*
D03*
X0932849Y0434204D02*
D03*
Y0441079D02*
D03*
X0899503Y0425857D02*
D03*
Y0432732D02*
D03*
X0900684Y0447181D02*
D03*
Y0440306D02*
D03*
X0919345Y0454465D02*
D03*
Y0447590D02*
D03*
X0899778Y0875957D02*
D03*
Y0882832D02*
D03*
X0954148Y0754214D02*
D03*
Y0747339D02*
D03*
X0898755Y0900592D02*
D03*
Y0893717D02*
D03*
X0960723Y0921301D02*
D03*
Y0914426D02*
D03*
X0958558Y0793584D02*
D03*
Y0786709D02*
D03*
X0952889Y0774135D02*
D03*
Y0767261D02*
D03*
X0945448Y0767374D02*
D03*
Y0774249D02*
D03*
X0925133Y0843792D02*
D03*
Y0850667D02*
D03*
X0933991Y0781233D02*
D03*
Y0788108D02*
D03*
X0908912Y0933280D02*
D03*
Y0940155D02*
D03*
X0902574Y0933634D02*
D03*
Y0940509D02*
D03*
X0926589Y0835710D02*
D03*
Y0828835D02*
D03*
X0903361Y0859107D02*
D03*
Y0865982D02*
D03*
X0924385Y0940020D02*
D03*
Y0933145D02*
D03*
X0925133Y0859325D02*
D03*
Y0866200D02*
D03*
X0910960Y0865020D02*
D03*
Y0858145D02*
D03*
X0918046Y0865020D02*
D03*
Y0858145D02*
D03*
X0940093Y0816018D02*
D03*
Y0822893D02*
D03*
X0932849Y0815978D02*
D03*
Y0822853D02*
D03*
X0899503Y0807632D02*
D03*
Y0814507D02*
D03*
X0900684Y0828956D02*
D03*
Y0822081D02*
D03*
X0919345Y0836239D02*
D03*
Y0829364D02*
D03*
X0806429Y0494182D02*
D03*
Y0501057D02*
D03*
X0860799Y0372440D02*
D03*
Y0365565D02*
D03*
X0805405Y0518818D02*
D03*
Y0511942D02*
D03*
X0867374Y0539526D02*
D03*
Y0532651D02*
D03*
X0865209Y0411810D02*
D03*
Y0404935D02*
D03*
X0859539Y0392361D02*
D03*
Y0385486D02*
D03*
X0852098Y0385600D02*
D03*
Y0392475D02*
D03*
X0831783Y0462017D02*
D03*
Y0468892D02*
D03*
X0840642Y0399458D02*
D03*
Y0406333D02*
D03*
X0815563Y0551505D02*
D03*
Y0558380D02*
D03*
X0809224Y0551860D02*
D03*
Y0558735D02*
D03*
X0833240Y0453936D02*
D03*
Y0447061D02*
D03*
X0810012Y0477332D02*
D03*
Y0484207D02*
D03*
X0831035Y0558245D02*
D03*
Y0551370D02*
D03*
X0831783Y0477550D02*
D03*
Y0484425D02*
D03*
X0817610Y0483245D02*
D03*
Y0476370D02*
D03*
X0824697Y0483245D02*
D03*
Y0476370D02*
D03*
X0846744Y0434243D02*
D03*
Y0441118D02*
D03*
X0839500Y0434204D02*
D03*
Y0441079D02*
D03*
X0806153Y0425857D02*
D03*
Y0432732D02*
D03*
X0807335Y0447181D02*
D03*
Y0440306D02*
D03*
X0825996Y0454465D02*
D03*
Y0447590D02*
D03*
X0806429Y0875957D02*
D03*
Y0882832D02*
D03*
X0860799Y0754214D02*
D03*
Y0747339D02*
D03*
X0805405Y0900592D02*
D03*
Y0893717D02*
D03*
X0867374Y0921301D02*
D03*
Y0914426D02*
D03*
X0865209Y0793584D02*
D03*
Y0786709D02*
D03*
X0859539Y0774135D02*
D03*
Y0767261D02*
D03*
X0852098Y0767374D02*
D03*
Y0774249D02*
D03*
X0831783Y0843792D02*
D03*
Y0850667D02*
D03*
X0840642Y0781233D02*
D03*
Y0788108D02*
D03*
X0815563Y0933280D02*
D03*
Y0940155D02*
D03*
X0809224Y0933634D02*
D03*
Y0940509D02*
D03*
X0833240Y0835710D02*
D03*
Y0828835D02*
D03*
X0810012Y0859107D02*
D03*
Y0865982D02*
D03*
X0831035Y0940020D02*
D03*
Y0933145D02*
D03*
X0831783Y0859325D02*
D03*
Y0866200D02*
D03*
X0817610Y0865020D02*
D03*
Y0858145D02*
D03*
X0824697Y0865020D02*
D03*
Y0858145D02*
D03*
X0846744Y0816018D02*
D03*
Y0822893D02*
D03*
X0839500Y0815978D02*
D03*
Y0822853D02*
D03*
X0806153Y0807632D02*
D03*
Y0814507D02*
D03*
X0807335Y0828956D02*
D03*
Y0822081D02*
D03*
X0825996Y0836239D02*
D03*
Y0829364D02*
D03*
D14*
X1197903Y0438193D02*
D03*
X1204778D02*
D03*
X1204743Y0430752D02*
D03*
X1197868D02*
D03*
X1204997Y0422996D02*
D03*
X1198122D02*
D03*
X1227714Y0427012D02*
D03*
X1220839D02*
D03*
X1232044Y0405634D02*
D03*
X1225169D02*
D03*
X1232635Y0434138D02*
D03*
X1225760D02*
D03*
X1210483Y0387799D02*
D03*
X1217358D02*
D03*
X1223934Y0365634D02*
D03*
X1217059D02*
D03*
X1197903Y0819968D02*
D03*
X1204778D02*
D03*
X1204743Y0812527D02*
D03*
X1197868D02*
D03*
X1204997Y0804771D02*
D03*
X1198122D02*
D03*
X1227714Y0808786D02*
D03*
X1220839D02*
D03*
X1232044Y0787408D02*
D03*
X1225169D02*
D03*
X1232635Y0815912D02*
D03*
X1225760D02*
D03*
X1210483Y0769574D02*
D03*
X1217358D02*
D03*
X1223934Y0747408D02*
D03*
X1217059D02*
D03*
X1104554Y0438193D02*
D03*
X1111429D02*
D03*
X1111393Y0430752D02*
D03*
X1104518D02*
D03*
X1111648Y0422996D02*
D03*
X1104773D02*
D03*
X1134364Y0427012D02*
D03*
X1127489D02*
D03*
X1138695Y0405634D02*
D03*
X1131820D02*
D03*
X1139285Y0434138D02*
D03*
X1132410D02*
D03*
X1117134Y0387799D02*
D03*
X1124009D02*
D03*
X1130585Y0365634D02*
D03*
X1123710D02*
D03*
X1104554Y0819968D02*
D03*
X1111429D02*
D03*
X1111393Y0812527D02*
D03*
X1104518D02*
D03*
X1111648Y0804771D02*
D03*
X1104773D02*
D03*
X1134364Y0808786D02*
D03*
X1127489D02*
D03*
X1138695Y0787408D02*
D03*
X1131820D02*
D03*
X1139285Y0815912D02*
D03*
X1132410D02*
D03*
X1117134Y0769574D02*
D03*
X1124009D02*
D03*
X1130585Y0747408D02*
D03*
X1123710D02*
D03*
X1011204Y0438193D02*
D03*
X1018079D02*
D03*
X1018044Y0430752D02*
D03*
X1011169D02*
D03*
X1018298Y0422996D02*
D03*
X1011423D02*
D03*
X1041015Y0427012D02*
D03*
X1034140D02*
D03*
X1045345Y0405634D02*
D03*
X1038470D02*
D03*
X1045936Y0434138D02*
D03*
X1039061D02*
D03*
X1023784Y0387799D02*
D03*
X1030659D02*
D03*
X1037235Y0365634D02*
D03*
X1030360D02*
D03*
X1011204Y0819968D02*
D03*
X1018079D02*
D03*
X1018044Y0812527D02*
D03*
X1011169D02*
D03*
X1018298Y0804771D02*
D03*
X1011423D02*
D03*
X1041015Y0808786D02*
D03*
X1034140D02*
D03*
X1045345Y0787408D02*
D03*
X1038470D02*
D03*
X1045936Y0815912D02*
D03*
X1039061D02*
D03*
X1023784Y0769574D02*
D03*
X1030659D02*
D03*
X1037235Y0747408D02*
D03*
X1030360D02*
D03*
X0917855Y0438193D02*
D03*
X0924730D02*
D03*
X0924694Y0430752D02*
D03*
X0917819D02*
D03*
X0924949Y0422996D02*
D03*
X0918074D02*
D03*
X0947665Y0427012D02*
D03*
X0940790D02*
D03*
X0951996Y0405634D02*
D03*
X0945121D02*
D03*
X0952586Y0434138D02*
D03*
X0945712D02*
D03*
X0930435Y0387799D02*
D03*
X0937310D02*
D03*
X0943886Y0365634D02*
D03*
X0937011D02*
D03*
X0917855Y0819968D02*
D03*
X0924730D02*
D03*
X0924694Y0812527D02*
D03*
X0917819D02*
D03*
X0924949Y0804771D02*
D03*
X0918074D02*
D03*
X0947665Y0808786D02*
D03*
X0940790D02*
D03*
X0951996Y0787408D02*
D03*
X0945121D02*
D03*
X0952586Y0815912D02*
D03*
X0945712D02*
D03*
X0930435Y0769574D02*
D03*
X0937310D02*
D03*
X0943886Y0747408D02*
D03*
X0937011D02*
D03*
X0824505Y0438193D02*
D03*
X0831380D02*
D03*
X0831345Y0430752D02*
D03*
X0824470D02*
D03*
X0831599Y0422996D02*
D03*
X0824724D02*
D03*
X0854316Y0427012D02*
D03*
X0847441D02*
D03*
X0858646Y0405634D02*
D03*
X0851772D02*
D03*
X0859237Y0434138D02*
D03*
X0852362D02*
D03*
X0837086Y0387799D02*
D03*
X0843960D02*
D03*
X0850536Y0365634D02*
D03*
X0843661D02*
D03*
X0824505Y0819968D02*
D03*
X0831380D02*
D03*
X0831345Y0812527D02*
D03*
X0824470D02*
D03*
X0831599Y0804771D02*
D03*
X0824724D02*
D03*
X0854316Y0808786D02*
D03*
X0847441D02*
D03*
X0858646Y0787408D02*
D03*
X0851772D02*
D03*
X0859237Y0815912D02*
D03*
X0852362D02*
D03*
X0837086Y0769574D02*
D03*
X0843960D02*
D03*
X0850536Y0747408D02*
D03*
X0843661D02*
D03*
D15*
X1172779Y0414492D02*
D03*
X1172735Y0388229D02*
D03*
X1172779Y0796267D02*
D03*
X1172735Y0770004D02*
D03*
X1079430Y0414492D02*
D03*
X1079385Y0388229D02*
D03*
X1079430Y0796267D02*
D03*
X1079385Y0770004D02*
D03*
X0986081Y0414492D02*
D03*
X0986036Y0388229D02*
D03*
X0986081Y0796267D02*
D03*
X0986036Y0770004D02*
D03*
X0892731Y0414492D02*
D03*
X0892686Y0388229D02*
D03*
X0892731Y0796267D02*
D03*
X0892686Y0770004D02*
D03*
X0799382Y0414492D02*
D03*
X0799337Y0388229D02*
D03*
X0799382Y0796267D02*
D03*
X0799337Y0770004D02*
D03*
D16*
X1194831Y0397336D02*
D03*
X1194821Y0405249D02*
D03*
X1194831Y0779110D02*
D03*
X1194821Y0787023D02*
D03*
X1101481Y0397336D02*
D03*
X1101472Y0405249D02*
D03*
X1101481Y0779110D02*
D03*
X1101472Y0787023D02*
D03*
X1008132Y0397336D02*
D03*
X1008123Y0405249D02*
D03*
X1008132Y0779110D02*
D03*
X1008123Y0787023D02*
D03*
X0914782Y0397336D02*
D03*
X0914773Y0405249D02*
D03*
X0914782Y0779110D02*
D03*
X0914773Y0787023D02*
D03*
X0821433Y0397336D02*
D03*
X0821424Y0405249D02*
D03*
X0821433Y0779110D02*
D03*
X0821424Y0787023D02*
D03*
D17*
X1220693Y0373075D02*
D03*
Y0375043D02*
D03*
Y0377012D02*
D03*
Y0378980D02*
D03*
X1213213Y0373075D02*
D03*
Y0375043D02*
D03*
Y0377012D02*
D03*
Y0378980D02*
D03*
X1220693Y0754849D02*
D03*
Y0756818D02*
D03*
Y0758786D02*
D03*
Y0760755D02*
D03*
X1213213Y0754849D02*
D03*
Y0756818D02*
D03*
Y0758786D02*
D03*
Y0760755D02*
D03*
X1127343Y0373075D02*
D03*
Y0375043D02*
D03*
Y0377012D02*
D03*
Y0378980D02*
D03*
X1119863Y0373075D02*
D03*
Y0375043D02*
D03*
Y0377012D02*
D03*
Y0378980D02*
D03*
X1127343Y0754849D02*
D03*
Y0756818D02*
D03*
Y0758786D02*
D03*
Y0760755D02*
D03*
X1119863Y0754849D02*
D03*
Y0756818D02*
D03*
Y0758786D02*
D03*
Y0760755D02*
D03*
X1033994Y0373075D02*
D03*
Y0375043D02*
D03*
Y0377012D02*
D03*
Y0378980D02*
D03*
X1026514Y0373075D02*
D03*
Y0375043D02*
D03*
Y0377012D02*
D03*
Y0378980D02*
D03*
X1033994Y0754849D02*
D03*
Y0756818D02*
D03*
Y0758786D02*
D03*
Y0760755D02*
D03*
X1026514Y0754849D02*
D03*
Y0756818D02*
D03*
Y0758786D02*
D03*
Y0760755D02*
D03*
X0940645Y0373075D02*
D03*
Y0375043D02*
D03*
Y0377012D02*
D03*
Y0378980D02*
D03*
X0933164Y0373075D02*
D03*
Y0375043D02*
D03*
Y0377012D02*
D03*
Y0378980D02*
D03*
X0940645Y0754849D02*
D03*
Y0756818D02*
D03*
Y0758786D02*
D03*
Y0760755D02*
D03*
X0933164Y0754849D02*
D03*
Y0756818D02*
D03*
Y0758786D02*
D03*
Y0760755D02*
D03*
X0847295Y0373075D02*
D03*
Y0375043D02*
D03*
Y0377012D02*
D03*
Y0378980D02*
D03*
X0839815Y0373075D02*
D03*
Y0375043D02*
D03*
Y0377012D02*
D03*
Y0378980D02*
D03*
X0847295Y0754849D02*
D03*
Y0756818D02*
D03*
Y0758786D02*
D03*
Y0760755D02*
D03*
X0839815Y0754849D02*
D03*
Y0756818D02*
D03*
Y0758786D02*
D03*
Y0760755D02*
D03*
D18*
X1216953Y0376028D02*
D03*
Y0757802D02*
D03*
X1123603Y0376028D02*
D03*
Y0757802D02*
D03*
X1030254Y0376028D02*
D03*
Y0757802D02*
D03*
X0936904Y0376028D02*
D03*
Y0757802D02*
D03*
X0843555Y0376028D02*
D03*
Y0757802D02*
D03*
D19*
X1229638Y0412996D02*
D03*
X1213496D02*
D03*
Y0419295D02*
D03*
X1229638D02*
D03*
Y0794771D02*
D03*
X1213496D02*
D03*
Y0801070D02*
D03*
X1229638D02*
D03*
X1136288Y0412996D02*
D03*
X1120147D02*
D03*
Y0419295D02*
D03*
X1136288D02*
D03*
Y0794771D02*
D03*
X1120147D02*
D03*
Y0801070D02*
D03*
X1136288D02*
D03*
X1042939Y0412996D02*
D03*
X1026797D02*
D03*
Y0419295D02*
D03*
X1042939D02*
D03*
Y0794771D02*
D03*
X1026797D02*
D03*
Y0801070D02*
D03*
X1042939D02*
D03*
X0949590Y0412996D02*
D03*
X0933448D02*
D03*
Y0419295D02*
D03*
X0949590D02*
D03*
Y0794771D02*
D03*
X0933448D02*
D03*
Y0801070D02*
D03*
X0949590D02*
D03*
X0856240Y0412996D02*
D03*
X0840098D02*
D03*
Y0419295D02*
D03*
X0856240D02*
D03*
Y0794771D02*
D03*
X0840098D02*
D03*
Y0801070D02*
D03*
X0856240D02*
D03*
D20*
X1201402Y0366776D02*
D03*
Y0378429D02*
D03*
Y0748550D02*
D03*
Y0760204D02*
D03*
X1108052Y0366776D02*
D03*
Y0378429D02*
D03*
Y0748550D02*
D03*
Y0760204D02*
D03*
X1014703Y0366776D02*
D03*
Y0378429D02*
D03*
Y0748550D02*
D03*
Y0760204D02*
D03*
X0921353Y0366776D02*
D03*
Y0378429D02*
D03*
Y0748550D02*
D03*
Y0760204D02*
D03*
X0828004Y0366776D02*
D03*
Y0378429D02*
D03*
Y0748550D02*
D03*
Y0760204D02*
D03*
D21*
X1235839Y0574039D02*
D03*
Y0562425D02*
D03*
Y0955814D02*
D03*
Y0944200D02*
D03*
X1142489Y0574039D02*
D03*
Y0562425D02*
D03*
Y0955814D02*
D03*
Y0944200D02*
D03*
X1049140Y0574039D02*
D03*
Y0562425D02*
D03*
Y0955814D02*
D03*
Y0944200D02*
D03*
X0955790Y0574039D02*
D03*
Y0562425D02*
D03*
Y0955814D02*
D03*
Y0944200D02*
D03*
X0862441Y0574039D02*
D03*
Y0562425D02*
D03*
Y0955814D02*
D03*
Y0944200D02*
D03*
D22*
X1229933Y0568232D02*
D03*
Y0950007D02*
D03*
X1136584Y0568232D02*
D03*
Y0950007D02*
D03*
X1043234Y0568232D02*
D03*
Y0950007D02*
D03*
X0949885Y0568232D02*
D03*
Y0950007D02*
D03*
X0856535Y0568232D02*
D03*
Y0950007D02*
D03*
D23*
X1223094Y0567957D02*
D03*
X1216835D02*
D03*
X1223331Y0549098D02*
D03*
X1217071D02*
D03*
X1223094Y0949731D02*
D03*
X1216835D02*
D03*
X1223331Y0930873D02*
D03*
X1217071D02*
D03*
X1129745Y0567957D02*
D03*
X1123485D02*
D03*
X1129981Y0549098D02*
D03*
X1123721D02*
D03*
X1129745Y0949731D02*
D03*
X1123485D02*
D03*
X1129981Y0930873D02*
D03*
X1123721D02*
D03*
X1036396Y0567957D02*
D03*
X1030136D02*
D03*
X1036632Y0549098D02*
D03*
X1030372D02*
D03*
X1036396Y0949731D02*
D03*
X1030136D02*
D03*
X1036632Y0930873D02*
D03*
X1030372D02*
D03*
X0943046Y0567957D02*
D03*
X0936786D02*
D03*
X0943282Y0549098D02*
D03*
X0937022D02*
D03*
X0943046Y0949731D02*
D03*
X0936786D02*
D03*
X0943282Y0930873D02*
D03*
X0937022D02*
D03*
X0849697Y0567957D02*
D03*
X0843437D02*
D03*
X0849933Y0549098D02*
D03*
X0843673D02*
D03*
X0849697Y0949731D02*
D03*
X0843437D02*
D03*
X0849933Y0930873D02*
D03*
X0843673D02*
D03*
D24*
X1223409Y0561618D02*
D03*
Y0555358D02*
D03*
Y0943393D02*
D03*
Y0937133D02*
D03*
X1130060Y0561618D02*
D03*
Y0555358D02*
D03*
Y0943393D02*
D03*
Y0937133D02*
D03*
X1036711Y0561618D02*
D03*
Y0555358D02*
D03*
Y0943393D02*
D03*
Y0937133D02*
D03*
X0943361Y0561618D02*
D03*
Y0555358D02*
D03*
Y0943393D02*
D03*
Y0937133D02*
D03*
X0850012Y0561618D02*
D03*
Y0555358D02*
D03*
Y0943393D02*
D03*
Y0937133D02*
D03*
D25*
X1198331Y0465240D02*
D03*
X1186677D02*
D03*
X1198331Y0847015D02*
D03*
X1186677D02*
D03*
X1104981Y0465240D02*
D03*
X1093328D02*
D03*
X1104981Y0847015D02*
D03*
X1093328D02*
D03*
X1011632Y0465240D02*
D03*
X0999978D02*
D03*
X1011632Y0847015D02*
D03*
X0999978D02*
D03*
X0918282Y0465240D02*
D03*
X0906629D02*
D03*
X0918282Y0847015D02*
D03*
X0906629D02*
D03*
X0824933Y0465240D02*
D03*
X0813279D02*
D03*
X0824933Y0847015D02*
D03*
X0813279D02*
D03*
D26*
X1190378Y0447327D02*
D03*
Y0829101D02*
D03*
X1097029Y0447327D02*
D03*
Y0829101D02*
D03*
X1003679Y0447327D02*
D03*
Y0829101D02*
D03*
X0910330Y0447327D02*
D03*
Y0829101D02*
D03*
X0816980Y0447327D02*
D03*
Y0829101D02*
D03*
D27*
X1193331Y0451067D02*
D03*
X1191362D02*
D03*
X1189394D02*
D03*
X1187425D02*
D03*
X1193331Y0443587D02*
D03*
X1191362D02*
D03*
X1189394D02*
D03*
X1187425D02*
D03*
X1193331Y0832842D02*
D03*
X1191362D02*
D03*
X1189394D02*
D03*
X1187425D02*
D03*
X1193331Y0825361D02*
D03*
X1191362D02*
D03*
X1189394D02*
D03*
X1187425D02*
D03*
X1099981Y0451067D02*
D03*
X1098013D02*
D03*
X1096044D02*
D03*
X1094076D02*
D03*
X1099981Y0443587D02*
D03*
X1098013D02*
D03*
X1096044D02*
D03*
X1094076D02*
D03*
X1099981Y0832842D02*
D03*
X1098013D02*
D03*
X1096044D02*
D03*
X1094076D02*
D03*
X1099981Y0825361D02*
D03*
X1098013D02*
D03*
X1096044D02*
D03*
X1094076D02*
D03*
X1006632Y0451067D02*
D03*
X1004663D02*
D03*
X1002695D02*
D03*
X1000726D02*
D03*
X1006632Y0443587D02*
D03*
X1004663D02*
D03*
X1002695D02*
D03*
X1000726D02*
D03*
X1006632Y0832842D02*
D03*
X1004663D02*
D03*
X1002695D02*
D03*
X1000726D02*
D03*
X1006632Y0825361D02*
D03*
X1004663D02*
D03*
X1002695D02*
D03*
X1000726D02*
D03*
X0913282Y0451067D02*
D03*
X0911314D02*
D03*
X0909345D02*
D03*
X0907377D02*
D03*
X0913282Y0443587D02*
D03*
X0911314D02*
D03*
X0909345D02*
D03*
X0907377D02*
D03*
X0913282Y0832842D02*
D03*
X0911314D02*
D03*
X0909345D02*
D03*
X0907377D02*
D03*
X0913282Y0825361D02*
D03*
X0911314D02*
D03*
X0909345D02*
D03*
X0907377D02*
D03*
X0819933Y0451067D02*
D03*
X0817964D02*
D03*
X0815996D02*
D03*
X0814027D02*
D03*
X0819933Y0443587D02*
D03*
X0817964D02*
D03*
X0815996D02*
D03*
X0814027D02*
D03*
X0819933Y0832842D02*
D03*
X0817964D02*
D03*
X0815996D02*
D03*
X0814027D02*
D03*
X0819933Y0825361D02*
D03*
X0817964D02*
D03*
X0815996D02*
D03*
X0814027D02*
D03*
D28*
X1214551Y0468587D02*
D03*
Y0466028D02*
D03*
Y0463469D02*
D03*
Y0460910D02*
D03*
Y0458350D02*
D03*
Y0455791D02*
D03*
Y0453232D02*
D03*
X1236992D02*
D03*
Y0455791D02*
D03*
Y0458350D02*
D03*
Y0460910D02*
D03*
Y0463469D02*
D03*
Y0466028D02*
D03*
Y0468587D02*
D03*
X1214551Y0850361D02*
D03*
Y0847802D02*
D03*
Y0845243D02*
D03*
Y0842684D02*
D03*
Y0840125D02*
D03*
Y0837566D02*
D03*
Y0835007D02*
D03*
X1236992D02*
D03*
Y0837566D02*
D03*
Y0840125D02*
D03*
Y0842684D02*
D03*
Y0845243D02*
D03*
Y0847802D02*
D03*
Y0850361D02*
D03*
X1121202Y0468587D02*
D03*
Y0466028D02*
D03*
Y0463469D02*
D03*
Y0460910D02*
D03*
Y0458350D02*
D03*
Y0455791D02*
D03*
Y0453232D02*
D03*
X1143643D02*
D03*
Y0455791D02*
D03*
Y0458350D02*
D03*
Y0460910D02*
D03*
Y0463469D02*
D03*
Y0466028D02*
D03*
Y0468587D02*
D03*
X1121202Y0850361D02*
D03*
Y0847802D02*
D03*
Y0845243D02*
D03*
Y0842684D02*
D03*
Y0840125D02*
D03*
Y0837566D02*
D03*
Y0835007D02*
D03*
X1143643D02*
D03*
Y0837566D02*
D03*
Y0840125D02*
D03*
Y0842684D02*
D03*
Y0845243D02*
D03*
Y0847802D02*
D03*
Y0850361D02*
D03*
X1027852Y0468587D02*
D03*
Y0466028D02*
D03*
Y0463469D02*
D03*
Y0460910D02*
D03*
Y0458350D02*
D03*
Y0455791D02*
D03*
Y0453232D02*
D03*
X1050293D02*
D03*
Y0455791D02*
D03*
Y0458350D02*
D03*
Y0460910D02*
D03*
Y0463469D02*
D03*
Y0466028D02*
D03*
Y0468587D02*
D03*
X1027852Y0850361D02*
D03*
Y0847802D02*
D03*
Y0845243D02*
D03*
Y0842684D02*
D03*
Y0840125D02*
D03*
Y0837566D02*
D03*
Y0835007D02*
D03*
X1050293D02*
D03*
Y0837566D02*
D03*
Y0840125D02*
D03*
Y0842684D02*
D03*
Y0845243D02*
D03*
Y0847802D02*
D03*
Y0850361D02*
D03*
X0934503Y0468587D02*
D03*
Y0466028D02*
D03*
Y0463469D02*
D03*
Y0460910D02*
D03*
Y0458350D02*
D03*
Y0455791D02*
D03*
Y0453232D02*
D03*
X0956944D02*
D03*
Y0455791D02*
D03*
Y0458350D02*
D03*
Y0460910D02*
D03*
Y0463469D02*
D03*
Y0466028D02*
D03*
Y0468587D02*
D03*
X0934503Y0850361D02*
D03*
Y0847802D02*
D03*
Y0845243D02*
D03*
Y0842684D02*
D03*
Y0840125D02*
D03*
Y0837566D02*
D03*
Y0835007D02*
D03*
X0956944D02*
D03*
Y0837566D02*
D03*
Y0840125D02*
D03*
Y0842684D02*
D03*
Y0845243D02*
D03*
Y0847802D02*
D03*
Y0850361D02*
D03*
X0841153Y0468587D02*
D03*
Y0466028D02*
D03*
Y0463469D02*
D03*
Y0460910D02*
D03*
Y0458350D02*
D03*
Y0455791D02*
D03*
Y0453232D02*
D03*
X0863594D02*
D03*
Y0455791D02*
D03*
Y0458350D02*
D03*
Y0460910D02*
D03*
Y0463469D02*
D03*
Y0466028D02*
D03*
Y0468587D02*
D03*
X0841153Y0850361D02*
D03*
Y0847802D02*
D03*
Y0845243D02*
D03*
Y0842684D02*
D03*
Y0840125D02*
D03*
Y0837566D02*
D03*
Y0835007D02*
D03*
X0863594D02*
D03*
Y0837566D02*
D03*
Y0840125D02*
D03*
Y0842684D02*
D03*
Y0845243D02*
D03*
Y0847802D02*
D03*
Y0850361D02*
D03*
D29*
X1218095Y0449689D02*
D03*
X1220654D02*
D03*
X1223213D02*
D03*
X1225772D02*
D03*
X1228331D02*
D03*
X1230890D02*
D03*
X1233449D02*
D03*
Y0472130D02*
D03*
X1230890D02*
D03*
X1228331D02*
D03*
X1225772D02*
D03*
X1223213D02*
D03*
X1220654D02*
D03*
X1218095D02*
D03*
Y0831464D02*
D03*
X1220654D02*
D03*
X1223213D02*
D03*
X1225772D02*
D03*
X1228331D02*
D03*
X1230890D02*
D03*
X1233449D02*
D03*
Y0853905D02*
D03*
X1230890D02*
D03*
X1228331D02*
D03*
X1225772D02*
D03*
X1223213D02*
D03*
X1220654D02*
D03*
X1218095D02*
D03*
X1124745Y0449689D02*
D03*
X1127304D02*
D03*
X1129863D02*
D03*
X1132422D02*
D03*
X1134981D02*
D03*
X1137540D02*
D03*
X1140099D02*
D03*
Y0472130D02*
D03*
X1137540D02*
D03*
X1134981D02*
D03*
X1132422D02*
D03*
X1129863D02*
D03*
X1127304D02*
D03*
X1124745D02*
D03*
Y0831464D02*
D03*
X1127304D02*
D03*
X1129863D02*
D03*
X1132422D02*
D03*
X1134981D02*
D03*
X1137540D02*
D03*
X1140099D02*
D03*
Y0853905D02*
D03*
X1137540D02*
D03*
X1134981D02*
D03*
X1132422D02*
D03*
X1129863D02*
D03*
X1127304D02*
D03*
X1124745D02*
D03*
X1031396Y0449689D02*
D03*
X1033955D02*
D03*
X1036514D02*
D03*
X1039073D02*
D03*
X1041632D02*
D03*
X1044191D02*
D03*
X1046750D02*
D03*
Y0472130D02*
D03*
X1044191D02*
D03*
X1041632D02*
D03*
X1039073D02*
D03*
X1036514D02*
D03*
X1033955D02*
D03*
X1031396D02*
D03*
Y0831464D02*
D03*
X1033955D02*
D03*
X1036514D02*
D03*
X1039073D02*
D03*
X1041632D02*
D03*
X1044191D02*
D03*
X1046750D02*
D03*
Y0853905D02*
D03*
X1044191D02*
D03*
X1041632D02*
D03*
X1039073D02*
D03*
X1036514D02*
D03*
X1033955D02*
D03*
X1031396D02*
D03*
X0938046Y0449689D02*
D03*
X0940605D02*
D03*
X0943164D02*
D03*
X0945723D02*
D03*
X0948282D02*
D03*
X0950841D02*
D03*
X0953401D02*
D03*
Y0472130D02*
D03*
X0950841D02*
D03*
X0948282D02*
D03*
X0945723D02*
D03*
X0943164D02*
D03*
X0940605D02*
D03*
X0938046D02*
D03*
Y0831464D02*
D03*
X0940605D02*
D03*
X0943164D02*
D03*
X0945723D02*
D03*
X0948282D02*
D03*
X0950841D02*
D03*
X0953401D02*
D03*
Y0853905D02*
D03*
X0950841D02*
D03*
X0948282D02*
D03*
X0945723D02*
D03*
X0943164D02*
D03*
X0940605D02*
D03*
X0938046D02*
D03*
X0844697Y0449689D02*
D03*
X0847256D02*
D03*
X0849815D02*
D03*
X0852374D02*
D03*
X0854933D02*
D03*
X0857492D02*
D03*
X0860051D02*
D03*
Y0472130D02*
D03*
X0857492D02*
D03*
X0854933D02*
D03*
X0852374D02*
D03*
X0849815D02*
D03*
X0847256D02*
D03*
X0844697D02*
D03*
Y0831464D02*
D03*
X0847256D02*
D03*
X0849815D02*
D03*
X0852374D02*
D03*
X0854933D02*
D03*
X0857492D02*
D03*
X0860051D02*
D03*
Y0853905D02*
D03*
X0857492D02*
D03*
X0854933D02*
D03*
X0852374D02*
D03*
X0849815D02*
D03*
X0847256D02*
D03*
X0844697D02*
D03*
D30*
X1225772Y0460910D02*
D03*
Y0842684D02*
D03*
X1132422Y0460910D02*
D03*
Y0842684D02*
D03*
X1039073Y0460910D02*
D03*
Y0842684D02*
D03*
X0945723Y0460910D02*
D03*
Y0842684D02*
D03*
X0852374Y0460910D02*
D03*
Y0842684D02*
D03*
D31*
X1186480Y0429748D02*
D03*
X1191500D02*
D03*
X1186480Y0425910D02*
D03*
X1191500D02*
D03*
X1186480Y0811523D02*
D03*
X1191500D02*
D03*
X1186480Y0807684D02*
D03*
X1191500D02*
D03*
X1093131Y0429748D02*
D03*
X1098151D02*
D03*
X1093131Y0425910D02*
D03*
X1098151D02*
D03*
X1093131Y0811523D02*
D03*
X1098151D02*
D03*
X1093131Y0807684D02*
D03*
X1098151D02*
D03*
X0999781Y0429748D02*
D03*
X1004801D02*
D03*
X0999781Y0425910D02*
D03*
X1004801D02*
D03*
X0999781Y0811523D02*
D03*
X1004801D02*
D03*
X0999781Y0807684D02*
D03*
X1004801D02*
D03*
X0906432Y0429748D02*
D03*
X0911452D02*
D03*
X0906432Y0425910D02*
D03*
X0911452D02*
D03*
X0906432Y0811523D02*
D03*
X0911452D02*
D03*
X0906432Y0807684D02*
D03*
X0911452D02*
D03*
X0813083Y0429748D02*
D03*
X0818102D02*
D03*
X0813083Y0425910D02*
D03*
X0818102D02*
D03*
X0813083Y0811523D02*
D03*
X0818102D02*
D03*
X0813083Y0807684D02*
D03*
X0818102D02*
D03*
D34*
X1199217Y0508909D02*
D03*
Y0890684D02*
D03*
X1105867Y0508909D02*
D03*
Y0890684D02*
D03*
X1012518Y0508909D02*
D03*
Y0890684D02*
D03*
X0919168Y0508909D02*
D03*
Y0890684D02*
D03*
X0825819Y0508909D02*
D03*
Y0890684D02*
D03*
D35*
X1199217Y0518752D02*
D03*
X1199217Y0528594D02*
D03*
X1209059Y0508910D02*
D03*
Y0518752D02*
D03*
Y0528594D02*
D03*
X1218902Y0508811D02*
D03*
Y0518752D02*
D03*
Y0528594D02*
D03*
X1199217Y0900527D02*
D03*
X1199217Y0910369D02*
D03*
X1209059Y0890684D02*
D03*
Y0900527D02*
D03*
Y0910369D02*
D03*
X1218902Y0890586D02*
D03*
Y0900527D02*
D03*
Y0910369D02*
D03*
X1105867Y0518752D02*
D03*
X1105867Y0528594D02*
D03*
X1115710Y0508910D02*
D03*
Y0518752D02*
D03*
Y0528594D02*
D03*
X1125552Y0508811D02*
D03*
Y0518752D02*
D03*
Y0528594D02*
D03*
X1105867Y0900527D02*
D03*
X1105867Y0910369D02*
D03*
X1115710Y0890684D02*
D03*
Y0900527D02*
D03*
Y0910369D02*
D03*
X1125552Y0890586D02*
D03*
Y0900527D02*
D03*
Y0910369D02*
D03*
X1012518Y0518752D02*
D03*
X1012518Y0528594D02*
D03*
X1022360Y0508910D02*
D03*
Y0518752D02*
D03*
Y0528594D02*
D03*
X1032203Y0508811D02*
D03*
Y0518752D02*
D03*
Y0528594D02*
D03*
X1012518Y0900527D02*
D03*
X1012518Y0910369D02*
D03*
X1022360Y0890684D02*
D03*
Y0900527D02*
D03*
Y0910369D02*
D03*
X1032203Y0890586D02*
D03*
Y0900527D02*
D03*
Y0910369D02*
D03*
X0919168Y0518752D02*
D03*
X0919168Y0528594D02*
D03*
X0929011Y0508910D02*
D03*
Y0518752D02*
D03*
Y0528594D02*
D03*
X0938853Y0508811D02*
D03*
Y0518752D02*
D03*
Y0528594D02*
D03*
X0919168Y0900527D02*
D03*
X0919168Y0910369D02*
D03*
X0929011Y0890684D02*
D03*
Y0900527D02*
D03*
Y0910369D02*
D03*
X0938853Y0890586D02*
D03*
Y0900527D02*
D03*
Y0910369D02*
D03*
X0825819Y0518752D02*
D03*
X0825819Y0528594D02*
D03*
X0835661Y0508910D02*
D03*
Y0518752D02*
D03*
Y0528594D02*
D03*
X0845504Y0508811D02*
D03*
Y0518752D02*
D03*
Y0528594D02*
D03*
X0825819Y0900527D02*
D03*
X0825819Y0910369D02*
D03*
X0835661Y0890684D02*
D03*
Y0900527D02*
D03*
Y0910369D02*
D03*
X0845504Y0890586D02*
D03*
Y0900527D02*
D03*
Y0910369D02*
D03*
D36*
X1177228Y0478941D02*
D03*
Y0472248D02*
D03*
Y0860716D02*
D03*
Y0854023D02*
D03*
X1083879Y0478941D02*
D03*
Y0472248D02*
D03*
Y0860716D02*
D03*
Y0854023D02*
D03*
X0990530Y0478941D02*
D03*
Y0472248D02*
D03*
Y0860716D02*
D03*
Y0854023D02*
D03*
X0897180Y0478941D02*
D03*
Y0472248D02*
D03*
Y0860716D02*
D03*
Y0854023D02*
D03*
X0803831Y0478941D02*
D03*
Y0472248D02*
D03*
Y0860716D02*
D03*
Y0854023D02*
D03*
D59*
X1189020Y0536087D02*
D03*
Y0532898D02*
D03*
Y0529748D02*
D03*
Y0526598D02*
D03*
Y0523449D02*
D03*
Y0520299D02*
D03*
Y0517150D02*
D03*
Y0514039D02*
D03*
Y0510890D02*
D03*
Y0507740D02*
D03*
Y0504591D02*
D03*
X1189059Y0501402D02*
D03*
X1229059Y0536244D02*
D03*
X1229059Y0532937D02*
D03*
Y0529748D02*
D03*
X1229059Y0526598D02*
D03*
Y0523449D02*
D03*
Y0520299D02*
D03*
X1229059Y0517150D02*
D03*
X1229059Y0514000D02*
D03*
X1229059Y0510890D02*
D03*
X1229059Y0507740D02*
D03*
Y0504551D02*
D03*
Y0501402D02*
D03*
X1189020Y0917861D02*
D03*
Y0914672D02*
D03*
Y0911523D02*
D03*
Y0908373D02*
D03*
Y0905223D02*
D03*
Y0902074D02*
D03*
Y0898924D02*
D03*
Y0895814D02*
D03*
Y0892664D02*
D03*
Y0889515D02*
D03*
Y0886365D02*
D03*
X1189059Y0883176D02*
D03*
X1229059Y0918019D02*
D03*
X1229059Y0914712D02*
D03*
Y0911523D02*
D03*
X1229059Y0908373D02*
D03*
Y0905223D02*
D03*
Y0902074D02*
D03*
X1229059Y0898924D02*
D03*
X1229059Y0895775D02*
D03*
X1229059Y0892664D02*
D03*
X1229059Y0889515D02*
D03*
Y0886326D02*
D03*
Y0883176D02*
D03*
X1095670Y0536087D02*
D03*
Y0532898D02*
D03*
Y0529748D02*
D03*
X1095670Y0526598D02*
D03*
X1095670Y0523449D02*
D03*
Y0520299D02*
D03*
X1095670Y0517150D02*
D03*
X1095670Y0514039D02*
D03*
X1095670Y0510890D02*
D03*
X1095670Y0507740D02*
D03*
Y0504591D02*
D03*
X1095710Y0501402D02*
D03*
X1135710Y0536244D02*
D03*
Y0532937D02*
D03*
Y0529748D02*
D03*
Y0526598D02*
D03*
Y0523449D02*
D03*
Y0520299D02*
D03*
Y0517150D02*
D03*
Y0514000D02*
D03*
Y0510890D02*
D03*
Y0507740D02*
D03*
Y0504551D02*
D03*
Y0501402D02*
D03*
X1095670Y0917861D02*
D03*
Y0914672D02*
D03*
Y0911523D02*
D03*
X1095670Y0908373D02*
D03*
X1095670Y0905223D02*
D03*
Y0902074D02*
D03*
X1095670Y0898924D02*
D03*
X1095670Y0895814D02*
D03*
X1095670Y0892664D02*
D03*
X1095670Y0889515D02*
D03*
Y0886365D02*
D03*
X1095710Y0883176D02*
D03*
X1135710Y0918019D02*
D03*
Y0914712D02*
D03*
Y0911523D02*
D03*
Y0908373D02*
D03*
Y0905223D02*
D03*
Y0902074D02*
D03*
Y0898924D02*
D03*
Y0895775D02*
D03*
Y0892664D02*
D03*
Y0889515D02*
D03*
Y0886326D02*
D03*
Y0883176D02*
D03*
X1002321Y0536087D02*
D03*
Y0532898D02*
D03*
Y0529748D02*
D03*
Y0526598D02*
D03*
Y0523449D02*
D03*
Y0520299D02*
D03*
Y0517150D02*
D03*
Y0514039D02*
D03*
Y0510890D02*
D03*
Y0507740D02*
D03*
Y0504591D02*
D03*
X1002360Y0501402D02*
D03*
X1042360Y0536244D02*
D03*
X1042360Y0532937D02*
D03*
Y0529748D02*
D03*
X1042360Y0526598D02*
D03*
Y0523449D02*
D03*
Y0520299D02*
D03*
X1042360Y0517150D02*
D03*
X1042360Y0514000D02*
D03*
X1042360Y0510890D02*
D03*
X1042360Y0507740D02*
D03*
Y0504551D02*
D03*
Y0501402D02*
D03*
X1002321Y0917861D02*
D03*
Y0914672D02*
D03*
Y0911523D02*
D03*
Y0908373D02*
D03*
Y0905223D02*
D03*
Y0902074D02*
D03*
Y0898924D02*
D03*
Y0895814D02*
D03*
Y0892664D02*
D03*
Y0889515D02*
D03*
Y0886365D02*
D03*
X1002360Y0883176D02*
D03*
X1042360Y0918019D02*
D03*
X1042360Y0914712D02*
D03*
Y0911523D02*
D03*
X1042360Y0908373D02*
D03*
Y0905223D02*
D03*
Y0902074D02*
D03*
X1042360Y0898924D02*
D03*
X1042360Y0895775D02*
D03*
X1042360Y0892664D02*
D03*
X1042360Y0889515D02*
D03*
Y0886326D02*
D03*
Y0883176D02*
D03*
X0908971Y0536087D02*
D03*
Y0532898D02*
D03*
Y0529748D02*
D03*
X0908971Y0526598D02*
D03*
X0908971Y0523449D02*
D03*
Y0520299D02*
D03*
X0908971Y0517150D02*
D03*
X0908971Y0514039D02*
D03*
X0908971Y0510890D02*
D03*
X0908971Y0507740D02*
D03*
Y0504591D02*
D03*
X0909011Y0501402D02*
D03*
X0949011Y0536244D02*
D03*
Y0532937D02*
D03*
Y0529748D02*
D03*
Y0526598D02*
D03*
Y0523449D02*
D03*
Y0520299D02*
D03*
Y0517150D02*
D03*
Y0514000D02*
D03*
Y0510890D02*
D03*
Y0507740D02*
D03*
Y0504551D02*
D03*
Y0501402D02*
D03*
X0908971Y0917861D02*
D03*
Y0914672D02*
D03*
Y0911523D02*
D03*
X0908971Y0908373D02*
D03*
X0908971Y0905223D02*
D03*
Y0902074D02*
D03*
X0908971Y0898924D02*
D03*
X0908971Y0895814D02*
D03*
X0908971Y0892664D02*
D03*
X0908971Y0889515D02*
D03*
Y0886365D02*
D03*
X0909011Y0883176D02*
D03*
X0949011Y0918019D02*
D03*
Y0914712D02*
D03*
Y0911523D02*
D03*
Y0908373D02*
D03*
Y0905223D02*
D03*
Y0902074D02*
D03*
Y0898924D02*
D03*
Y0895775D02*
D03*
Y0892664D02*
D03*
Y0889515D02*
D03*
Y0886326D02*
D03*
Y0883176D02*
D03*
X0815622Y0536087D02*
D03*
Y0532898D02*
D03*
Y0529748D02*
D03*
Y0526598D02*
D03*
Y0523449D02*
D03*
Y0520299D02*
D03*
Y0517150D02*
D03*
Y0514039D02*
D03*
Y0510890D02*
D03*
Y0507740D02*
D03*
Y0504591D02*
D03*
X0815661Y0501402D02*
D03*
X0855661Y0536244D02*
D03*
X0855661Y0532937D02*
D03*
Y0529748D02*
D03*
X0855661Y0526598D02*
D03*
Y0523449D02*
D03*
Y0520299D02*
D03*
X0855661Y0517150D02*
D03*
X0855661Y0514000D02*
D03*
X0855661Y0510890D02*
D03*
X0855661Y0507740D02*
D03*
Y0504551D02*
D03*
Y0501402D02*
D03*
X0815622Y0917861D02*
D03*
Y0914672D02*
D03*
Y0911523D02*
D03*
Y0908373D02*
D03*
Y0905223D02*
D03*
Y0902074D02*
D03*
Y0898924D02*
D03*
Y0895814D02*
D03*
Y0892664D02*
D03*
Y0889515D02*
D03*
Y0886365D02*
D03*
X0815661Y0883176D02*
D03*
X0855661Y0918019D02*
D03*
X0855661Y0914712D02*
D03*
Y0911523D02*
D03*
X0855661Y0908373D02*
D03*
Y0905223D02*
D03*
Y0902074D02*
D03*
X0855661Y0898924D02*
D03*
X0855661Y0895775D02*
D03*
X0855661Y0892664D02*
D03*
X0855661Y0889515D02*
D03*
Y0886326D02*
D03*
Y0883176D02*
D03*
D60*
X1226402Y0540516D02*
D03*
X1216953D02*
D03*
X1207504D02*
D03*
X1204354D02*
D03*
X1198055D02*
D03*
X1191717Y0878747D02*
D03*
X1129902Y0540516D02*
D03*
X1126753D02*
D03*
X1120454D02*
D03*
X1117304D02*
D03*
X1107855D02*
D03*
X1101556D02*
D03*
X1098407D02*
D03*
X1039703D02*
D03*
X1030254D02*
D03*
X1020805D02*
D03*
X1017655D02*
D03*
X1011356D02*
D03*
X1005018Y0878747D02*
D03*
X0943204Y0540516D02*
D03*
X0940054D02*
D03*
X0933755D02*
D03*
X0930605D02*
D03*
X0921156D02*
D03*
X0914857D02*
D03*
X0911708D02*
D03*
X0853004D02*
D03*
X0843555D02*
D03*
X0834106D02*
D03*
X0830957D02*
D03*
X0824657D02*
D03*
X0818319Y0878747D02*
D03*
D61*
X1223252Y0540516D02*
D03*
X1220102D02*
D03*
X1213803D02*
D03*
X1210654D02*
D03*
X1201205D02*
D03*
X1194905D02*
D03*
X1191756D02*
D03*
X1133052D02*
D03*
X1123603D02*
D03*
X1114155D02*
D03*
X1111005D02*
D03*
X1104706D02*
D03*
X1098367Y0878747D02*
D03*
X1036553Y0540516D02*
D03*
X1033403D02*
D03*
X1027104D02*
D03*
X1023955D02*
D03*
X1014506D02*
D03*
X1008207D02*
D03*
X1005057D02*
D03*
X0946353D02*
D03*
X0936904D02*
D03*
X0927456D02*
D03*
X0924306D02*
D03*
X0918007D02*
D03*
X0911668Y0878747D02*
D03*
X0849854Y0540516D02*
D03*
X0846705D02*
D03*
X0840405D02*
D03*
X0837256D02*
D03*
X0827807D02*
D03*
X0821508D02*
D03*
X0818358D02*
D03*
D62*
X1226382Y0496953D02*
D03*
X1223232D02*
D03*
X1220083D02*
D03*
X1216933D02*
D03*
X1213783D02*
D03*
X1210634D02*
D03*
X1207484D02*
D03*
X1204335D02*
D03*
X1198036D02*
D03*
X1194847D02*
D03*
X1226382Y0878727D02*
D03*
X1223232D02*
D03*
X1220083D02*
D03*
X1216933D02*
D03*
X1213783D02*
D03*
X1210634D02*
D03*
X1207484D02*
D03*
X1204335D02*
D03*
X1198036D02*
D03*
X1194847D02*
D03*
X1133033Y0496953D02*
D03*
X1129883D02*
D03*
X1126733D02*
D03*
X1123584D02*
D03*
X1120434D02*
D03*
X1117284D02*
D03*
X1114135D02*
D03*
X1110985D02*
D03*
X1104686D02*
D03*
X1101497D02*
D03*
X1133033Y0878727D02*
D03*
X1129883D02*
D03*
X1126733D02*
D03*
X1123584D02*
D03*
X1120434D02*
D03*
X1117284D02*
D03*
X1114135D02*
D03*
X1110985D02*
D03*
X1104686D02*
D03*
X1101497D02*
D03*
X1039683Y0496953D02*
D03*
X1036533D02*
D03*
X1033384D02*
D03*
X1030234D02*
D03*
X1027085D02*
D03*
X1023935D02*
D03*
X1020785D02*
D03*
X1017636D02*
D03*
X1011337D02*
D03*
X1008148D02*
D03*
X1039683Y0878727D02*
D03*
X1036533D02*
D03*
X1033384D02*
D03*
X1030234D02*
D03*
X1027085D02*
D03*
X1023935D02*
D03*
X1020785D02*
D03*
X1017636D02*
D03*
X1011337D02*
D03*
X1008148D02*
D03*
X0946334Y0496953D02*
D03*
X0943184D02*
D03*
X0940034D02*
D03*
X0936885D02*
D03*
X0933735D02*
D03*
X0930585D02*
D03*
X0927436D02*
D03*
X0924286D02*
D03*
X0917987D02*
D03*
X0914798D02*
D03*
X0946334Y0878727D02*
D03*
X0943184D02*
D03*
X0940034D02*
D03*
X0936885D02*
D03*
X0933735D02*
D03*
X0930585D02*
D03*
X0927436D02*
D03*
X0924286D02*
D03*
X0917987D02*
D03*
X0914798D02*
D03*
X0852984Y0496953D02*
D03*
X0849835D02*
D03*
X0846685D02*
D03*
X0843535D02*
D03*
X0840386D02*
D03*
X0837236D02*
D03*
X0834087D02*
D03*
X0830937D02*
D03*
X0824638D02*
D03*
X0821449D02*
D03*
X0852984Y0878727D02*
D03*
X0849835D02*
D03*
X0846685D02*
D03*
X0843535D02*
D03*
X0840386D02*
D03*
X0837236D02*
D03*
X0834087D02*
D03*
X0830937D02*
D03*
X0824638D02*
D03*
X0821449D02*
D03*
D63*
X1201185Y0496953D02*
D03*
Y0878727D02*
D03*
X1107836Y0496953D02*
D03*
Y0878727D02*
D03*
X1014486Y0496953D02*
D03*
Y0878727D02*
D03*
X0921137Y0496953D02*
D03*
Y0878727D02*
D03*
X0827787Y0496953D02*
D03*
Y0878727D02*
D03*
D64*
X1191717Y0496972D02*
D03*
X1226402Y0922290D02*
D03*
X1216953D02*
D03*
X1207504D02*
D03*
X1204354D02*
D03*
X1198055D02*
D03*
X1129902D02*
D03*
X1126753D02*
D03*
X1120454D02*
D03*
X1117304D02*
D03*
X1107855D02*
D03*
X1101556D02*
D03*
X1098407D02*
D03*
X1005018Y0496972D02*
D03*
X1039703Y0922290D02*
D03*
X1030254D02*
D03*
X1020805D02*
D03*
X1017655D02*
D03*
X1011356D02*
D03*
X0943204D02*
D03*
X0940054D02*
D03*
X0933755D02*
D03*
X0930605D02*
D03*
X0921156D02*
D03*
X0914857D02*
D03*
X0911708D02*
D03*
X0818319Y0496972D02*
D03*
X0853004Y0922290D02*
D03*
X0843555D02*
D03*
X0834106D02*
D03*
X0830957D02*
D03*
X0824657D02*
D03*
D65*
X1223252D02*
D03*
X1220102D02*
D03*
X1213803D02*
D03*
X1210654D02*
D03*
X1201205D02*
D03*
X1194905D02*
D03*
X1191756D02*
D03*
X1098367Y0496972D02*
D03*
X1133052Y0922290D02*
D03*
X1123603D02*
D03*
X1114155D02*
D03*
X1111005D02*
D03*
X1104706D02*
D03*
X1036553D02*
D03*
X1033403D02*
D03*
X1027104D02*
D03*
X1023955D02*
D03*
X1014506D02*
D03*
X1008207D02*
D03*
X1005057D02*
D03*
X0911668Y0496972D02*
D03*
X0946353Y0922290D02*
D03*
X0936904D02*
D03*
X0927456D02*
D03*
X0924306D02*
D03*
X0918007D02*
D03*
X0849854D02*
D03*
X0846705D02*
D03*
X0840405D02*
D03*
X0837256D02*
D03*
X0827807D02*
D03*
X0821508D02*
D03*
X0818358D02*
D03*
M02*
