G04*
G04 #@! TF.GenerationSoftware,Altium Limited,Altium Designer,18.1.9 (240)*
G04*
G04 Layer_Color=128*
%FSAX25Y25*%
%MOIN*%
G70*
G01*
G75*
%ADD10C,0.03937*%
D10*
X1273622Y0996063D02*
D03*
X0769685D02*
D03*
Y0322835D02*
D03*
X1208961Y0504295D02*
D03*
X1203488Y0487287D02*
D03*
X1203016Y0479216D02*
D03*
X1211717Y0496224D02*
D03*
X1200260Y0464256D02*
D03*
X1227676Y0430201D02*
D03*
X1216047Y0433035D02*
D03*
X1226047Y0438075D02*
D03*
X1212465Y0443508D02*
D03*
X1208961Y0886070D02*
D03*
X1203488Y0869062D02*
D03*
X1203016Y0860991D02*
D03*
X1211717Y0877999D02*
D03*
X1200260Y0846031D02*
D03*
X1227676Y0811975D02*
D03*
X1216047Y0814810D02*
D03*
X1226047Y0819849D02*
D03*
X1212465Y0825282D02*
D03*
X1115611Y0504295D02*
D03*
X1110139Y0487287D02*
D03*
X1109666Y0479216D02*
D03*
X1118367Y0496224D02*
D03*
X1106910Y0464256D02*
D03*
X1134326Y0430201D02*
D03*
X1122698Y0433035D02*
D03*
X1132698Y0438075D02*
D03*
X1119115Y0443508D02*
D03*
X1115611Y0886070D02*
D03*
X1110139Y0869062D02*
D03*
X1109666Y0860991D02*
D03*
X1118367Y0877999D02*
D03*
X1106910Y0846031D02*
D03*
X1134326Y0811975D02*
D03*
X1122698Y0814810D02*
D03*
X1132698Y0819849D02*
D03*
X1119115Y0825282D02*
D03*
X1022262Y0504295D02*
D03*
X1016789Y0487287D02*
D03*
X1016317Y0479216D02*
D03*
X1025018Y0496224D02*
D03*
X1013561Y0464256D02*
D03*
X1040977Y0430201D02*
D03*
X1029348Y0433035D02*
D03*
X1039348Y0438075D02*
D03*
X1025766Y0443508D02*
D03*
X1022262Y0886070D02*
D03*
X1016789Y0869062D02*
D03*
X1016317Y0860991D02*
D03*
X1025018Y0877999D02*
D03*
X1013561Y0846031D02*
D03*
X1040977Y0811975D02*
D03*
X1029348Y0814810D02*
D03*
X1039348Y0819849D02*
D03*
X1025766Y0825282D02*
D03*
X0928912Y0504295D02*
D03*
X0923440Y0487287D02*
D03*
X0922967Y0479216D02*
D03*
X0931668Y0496224D02*
D03*
X0920212Y0464256D02*
D03*
X0947628Y0430201D02*
D03*
X0935999Y0433035D02*
D03*
X0945999Y0438075D02*
D03*
X0932416Y0443508D02*
D03*
X0928912Y0886070D02*
D03*
X0923440Y0869062D02*
D03*
X0922967Y0860991D02*
D03*
X0931668Y0877999D02*
D03*
X0920212Y0846031D02*
D03*
X0947628Y0811975D02*
D03*
X0935999Y0814810D02*
D03*
X0945999Y0819849D02*
D03*
X0932416Y0825282D02*
D03*
X0835563Y0504295D02*
D03*
X0830090Y0487287D02*
D03*
X0829618Y0479216D02*
D03*
X0838319Y0496224D02*
D03*
X0826862Y0464256D02*
D03*
X0854278Y0430201D02*
D03*
X0842649Y0433035D02*
D03*
X0852649Y0438075D02*
D03*
X0839067Y0443508D02*
D03*
X0835563Y0886070D02*
D03*
X0830090Y0869062D02*
D03*
X0829618Y0860991D02*
D03*
X0838319Y0877999D02*
D03*
X0826862Y0846031D02*
D03*
X0854278Y0811975D02*
D03*
X0842649Y0814810D02*
D03*
X0852649Y0819849D02*
D03*
X0839067Y0825282D02*
D03*
M02*
