M48
;Layer_Color=9474304
;FILE_FORMAT=2:5
INCH
;TYPE=PLATED
T1F00S00C0.01181
T2F00S00C0.02756
T3F00S00C0.03543
T4F00S00C0.03937
;TYPE=NON_PLATED
T5F00S00C0.06496
T6F00S00C0.09000
T7F00S00C0.10000
T8F00S00C0.13110
T9F00S00C0.13504
%
T01
X0236220Y0377953
X0248031
X0259842
X0271654
X0283465
X0277559Y0389764
X0265748
X0253937
X0259842Y0401575
X0271654
X0270866Y0409449
X0275197
X0266142
X0269370Y0421890
X0273228Y0431102
X0276772Y0429528
X0275984Y0440158
X0271654
X0266142
X0260236
X0255118
X0257874Y0443307
X0262992Y0443701
X0268898
X0274016
X0271654Y0448819
X0283465
X0284409Y0433937
X0289370Y0437008
X0291339Y0427165
X0295275Y0425197
X0289331Y0417874
X0285827Y0421260
X0283465Y0401575
X0287835Y0394724
X0300394Y0396457
X0305354Y0404882
X0308622
X0307008Y0408622
X0305906Y0411772
X0294488Y0406693
X0301181Y0437008
X0309449Y0437795
X0307086Y0448819
X0308661Y0383071
X0307086Y0377953
X0248031Y0401575
X0236220
X0242126Y0413386
X0236220Y0425197
Y0448819
X0314173Y0440945
X0319685
X0332283Y0439764
X0336614Y0437008
X0334764Y0419528
X0330630Y0419646
X0329449Y0412087
X0335197Y0411181
X0339331Y0414961
Y0419016
X0344449Y0418307
X0348268Y0416142
X0348622Y0420590
X0358228Y0426890
X0360984Y0429331
X0363740Y0432205
X0368468Y0432759
X0367598Y0435427
X0366142Y0425197
X0365118Y0416102
X0369685Y0416339
X0372205Y0409921
X0373504Y0401024
X0372873Y0392913
X0370197Y0392874
X0367323Y0390197
X0362598Y0383701
X0345354Y0384528
X0343898Y0394685
X0343740Y0397835
X0343937Y0400669
X0343268Y0404055
X0339370Y0404331
X0330000
X0325192Y0408307
X0320892
X0316890Y0404882
X0312520Y0404764
X0314567Y0397244
X0317323Y0398031
X0318898Y0396457
X0321260Y0396850
X0324213Y0397244
X0324646Y0400039
X0325433Y0394331
X0328386Y0394843
X0328031Y0387165
X0327598Y0382953
X0334528Y0387087
X0380866Y0388779
X0383306Y0386180
X0390314Y0391102
X0393001Y0392033
X0401378Y0392992
X0405709
X0410039
X0414370
Y0397323
Y0401653
Y0405984
X0410039
Y0401653
Y0397323
X0405709
Y0401653
Y0405984
X0401378
Y0401653
Y0397323
X0390905Y0399646
X0393307Y0405236
X0393267Y0409409
X0395905Y0410551
X0406495Y0414369
X0411811Y0416108
X0420197Y0419016
X0418661Y0411339
X0424449Y0407126
X0426062Y0400944
X0430551Y0399410
X0423228Y0396535
X0428937Y0387283
X0427520Y0384842
X0432244Y0386535
X0432795Y0391063
X0439252Y0391728
X0442046Y0391574
X0439054Y0388582
X0440787Y0386495
X0444369Y0384173
X0454684
X0460630Y0383425
X0463779Y0382913
X0464055Y0388740
X0460953Y0388315
X0457912Y0389015
X0467252Y0389213
X0460630Y0401575
X0460709Y0405039
X0461772Y0411260
X0457913
X0453937Y0411378
X0448071
X0450591Y0402402
X0454487Y0401495
X0455039Y0421024
X0458386Y0420945
X0461221Y0421024
X0460866Y0416063
X0465827Y0411339
X0466456Y0432558
X0451502Y0432565
X0436457Y0439213
X0428346Y0438583
X0421654Y0438189
X0405512Y0434646
X0404803Y0426457
X0405276Y0423307
X0401035Y0422992
X0397953Y0426457
X0398268Y0429606
X0394279Y0433582
X0394291Y0436982
X0400393Y0438975
X0400394Y0453150
X0387919Y0451154
X0390551Y0447441
X0379613Y0452428
X0380354Y0435236
X0383150Y0433071
X0386221Y0430315
X0384842Y0423898
X0381535Y0423701
X0389921Y0422913
X0390315Y0426339
X0384645Y0413779
Y0403543
X0381102Y0396850
X0429921Y0410551
X0432598Y0410039
X0435512Y0411339
X0435827Y0414213
X0474488Y0411102
X0477835Y0411339
X0480669Y0407598
X0483110Y0401221
X0482874Y0387913
X0478543Y0388937
X0491653Y0388070
X0492126Y0394173
X0495984Y0394646
X0500197Y0397362
X0504921Y0397087
X0504213Y0393465
X0501772Y0384921
X0507874Y0377953
X0512284Y0376732
X0513976Y0379646
X0519685Y0377953
X0516653Y0387874
X0513779Y0389764
X0521142Y0398228
X0519685Y0401575
X0523465Y0401811
X0523622Y0405905
X0519961Y0406142
X0520236Y0410945
X0522284Y0414882
X0525590Y0413386
X0518780Y0416653
X0513779Y0413386
X0510433Y0415197
X0505630Y0413858
X0501968Y0413386
X0501024Y0410079
X0501142Y0406417
X0505669Y0406890
X0509567
X0508465Y0410669
X0504803Y0410315
X0497715Y0412640
X0501181Y0432677
X0510866Y0437598
X0512205Y0447244
X0513779Y0450787
X0519685Y0448819
X0524803Y0444882
X0539764Y0443307
X0543307Y0448819
X0555118
X0556299Y0442913
X0550394
X0562598
X0564173Y0433858
X0553937
X0555118Y0425197
X0566929
X0578740
X0590551
X0596456Y0437008
X0590551Y0448819
X0596456Y0413386
X0584646
X0590551Y0401575
X0596456Y0389764
X0590551Y0377953
X0578740
X0566929
X0555118
X0543307
X0537401Y0389764
X0550394Y0392913
X0553937Y0396457
X0547638Y0403150
X0543307Y0401575
X0539764Y0404331
X0542913Y0407874
X0544488Y0416142
X0543307Y0425197
X0539764Y0429134
X0542913Y0433858
X0507874Y0448819
X0493999Y0446378
X0484449Y0448425
X0481181Y0446693
X0478346Y0448583
X0477047Y0431260
X0474252
X0482008Y0431181
X0468937Y0400512
X0524331Y0395787
X0561023Y0389764
X0572834
X0570079Y0402756
T02
X0254488Y0402598
Y0410591
Y0418583
Y0426575
X0261535Y0422795
Y0414803
X0261496Y0406811
X0261535Y0430787
X0564567Y0427992
X0564528Y0420000
Y0412008
Y0404016
X0571575Y0408228
Y0416221
Y0424213
Y0432205
T03
X0297795Y0381181
Y0391181
Y0401181
Y0411181
Y0421181
Y0431181
Y0441181
Y0451181
X0375000Y0456102
X0385000
X0395000
X0405000
X0415000
X0425000
X0435000
X0445000
X0455000
X0465000
Y0376500
X0455000
X0445000
X0435000
X0425000
X0415000
X0405000
X0395000
X0385000
X0375000
X0365000
X0355000
X0345000
X0335000
X0475000
X0485000
X0530905Y0382205
Y0392205
Y0402205
Y0412205
Y0422205
Y0432205
Y0442205
Y0452205
X0485000Y0456102
X0475000
T04
X0344331Y0451693
X0352992
T05
X0257992Y0384291
Y0449094
X0568071Y0450512
Y0385709
T06
X0497480Y0378346
Y0454606
T07
X0317323Y0381496
X0317717Y0451575
T08
X0244528Y0391772
X0581535Y0443032
T09
X0244213Y0441614
X0581850Y0393189
M30
