G04 Layer_Color=32896*
%FSAX25Y25*%
%MOIN*%
G70*
G01*
G75*
%ADD50C,0.00787*%
%ADD51C,0.00591*%
D50*
X0432170Y0427953D02*
G03*
X0432170Y0427953I-0002878J0000000D01*
G01*
X0422721D02*
G03*
X0422721Y0427953I-0002878J0000000D01*
G01*
X0412878Y0428031D02*
G03*
X0412878Y0428031I-0002878J0000000D01*
G01*
X0408311Y0417717D02*
G03*
X0408311Y0417717I-0002878J0000000D01*
G01*
X0400241Y0425984D02*
G03*
X0400241Y0425984I-0002878J0000000D01*
G01*
X0338937Y0417205D02*
X0344764D01*
X0347323Y0417165D02*
X0353661D01*
X0350354Y0414213D02*
Y0420236D01*
X0514843Y0409879D02*
X0512219D01*
X0513531D01*
Y0402008D01*
X0514843D01*
X0512219D01*
X0508283D02*
Y0409879D01*
X0504347D01*
X0503035Y0408567D01*
Y0405944D01*
X0504347Y0404632D01*
X0508283D01*
X0505659D02*
X0503035Y0402008D01*
X0500412D02*
Y0409879D01*
X0495164Y0402008D01*
Y0409879D01*
X0492540Y0402008D02*
Y0407256D01*
X0489916Y0409879D01*
X0487292Y0407256D01*
Y0402008D01*
Y0405944D01*
X0492540D01*
X0479421Y0408567D02*
X0480733Y0409879D01*
X0483357D01*
X0484668Y0408567D01*
Y0407256D01*
X0483357Y0405944D01*
X0480733D01*
X0479421Y0404632D01*
Y0403320D01*
X0480733Y0402008D01*
X0483357D01*
X0484668Y0403320D01*
X0468926Y0402008D02*
X0466302D01*
X0467614D01*
Y0409879D01*
X0468926D01*
X0461054Y0402008D02*
X0458430D01*
X0457118Y0403320D01*
Y0405944D01*
X0458430Y0407256D01*
X0461054D01*
X0462366Y0405944D01*
Y0403320D01*
X0461054Y0402008D01*
X0454494Y0407256D02*
Y0402008D01*
Y0404632D01*
X0453183Y0405944D01*
X0451871Y0407256D01*
X0450559D01*
X0445311D02*
X0442687D01*
X0441375Y0405944D01*
Y0402008D01*
X0445311D01*
X0446623Y0403320D01*
X0445311Y0404632D01*
X0441375D01*
X0438752Y0400696D02*
X0433504D01*
X0429568Y0402008D02*
Y0408567D01*
Y0405944D01*
X0430880D01*
X0428256D01*
X0429568D01*
Y0408567D01*
X0428256Y0409879D01*
X0420385Y0402008D02*
X0423009D01*
X0424321Y0403320D01*
Y0405944D01*
X0423009Y0407256D01*
X0420385D01*
X0419073Y0405944D01*
Y0404632D01*
X0424321D01*
X0415137Y0407256D02*
X0412513D01*
X0411201Y0405944D01*
Y0402008D01*
X0415137D01*
X0416449Y0403320D01*
X0415137Y0404632D01*
X0411201D01*
X0407266Y0408567D02*
Y0407256D01*
X0408578D01*
X0405954D01*
X0407266D01*
Y0403320D01*
X0405954Y0402008D01*
X0402018Y0409879D02*
Y0402008D01*
Y0405944D01*
X0400706Y0407256D01*
X0398082D01*
X0396770Y0405944D01*
Y0402008D01*
X0390211D02*
X0392835D01*
X0394146Y0403320D01*
Y0405944D01*
X0392835Y0407256D01*
X0390211D01*
X0388899Y0405944D01*
Y0404632D01*
X0394146D01*
X0386275Y0407256D02*
Y0402008D01*
Y0404632D01*
X0384963Y0405944D01*
X0383651Y0407256D01*
X0382339D01*
X0370532D02*
X0367908Y0402008D01*
X0365284Y0407256D01*
X0362661Y0408567D02*
X0361349Y0409879D01*
X0358725D01*
X0357413Y0408567D01*
Y0403320D01*
X0358725Y0402008D01*
X0361349D01*
X0362661Y0403320D01*
Y0408567D01*
X0354789Y0402008D02*
Y0403320D01*
X0353477D01*
Y0402008D01*
X0354789D01*
X0348230D02*
X0345606D01*
X0346918D01*
Y0409879D01*
X0348230Y0408567D01*
D51*
X0397205Y0433109D02*
X0395368D01*
X0396286D01*
Y0430354D01*
X0394450D02*
X0393531D01*
X0393990D01*
Y0433109D01*
X0394450Y0432650D01*
X0401299Y0419566D02*
X0399463D01*
X0400381D01*
Y0416811D01*
X0396708D02*
X0398544D01*
X0396708Y0418648D01*
Y0419107D01*
X0397167Y0419566D01*
X0398085D01*
X0398544Y0419107D01*
X0410512Y0434881D02*
X0408675D01*
X0409593D01*
Y0432126D01*
X0407757Y0434422D02*
X0407298Y0434881D01*
X0406379D01*
X0405920Y0434422D01*
Y0433963D01*
X0406379Y0433503D01*
X0406839D01*
X0406379D01*
X0405920Y0433044D01*
Y0432585D01*
X0406379Y0432126D01*
X0407298D01*
X0407757Y0432585D01*
X0421969Y0434881D02*
X0420132D01*
X0421050D01*
Y0432126D01*
X0417836D02*
Y0434881D01*
X0419213Y0433503D01*
X0417377D01*
X0432441Y0434763D02*
X0430604D01*
X0431523D01*
Y0432008D01*
X0427849Y0434763D02*
X0429686D01*
Y0433385D01*
X0428768Y0433845D01*
X0428308D01*
X0427849Y0433385D01*
Y0432467D01*
X0428308Y0432008D01*
X0429227D01*
X0429686Y0432467D01*
X0375315Y0449921D02*
X0372560D01*
Y0448544D01*
X0373019Y0448085D01*
X0373937D01*
X0374397Y0448544D01*
Y0449921D01*
X0375315Y0447166D02*
X0373478D01*
X0372560Y0446248D01*
X0373478Y0445330D01*
X0375315D01*
X0373937D01*
Y0447166D01*
X0375315Y0444411D02*
Y0443493D01*
Y0443952D01*
X0372560D01*
X0373019Y0444411D01*
X0375315Y0442115D02*
Y0441197D01*
Y0441656D01*
X0372560D01*
X0373019Y0442115D01*
X0386260Y0449685D02*
X0383505D01*
Y0448308D01*
X0383964Y0447848D01*
X0384882D01*
X0385342Y0448308D01*
Y0449685D01*
X0383505Y0446930D02*
X0386260D01*
Y0445552D01*
X0385801Y0445093D01*
X0385342D01*
X0384882Y0445552D01*
Y0446930D01*
Y0445552D01*
X0384423Y0445093D01*
X0383964D01*
X0383505Y0445552D01*
Y0446930D01*
Y0442338D02*
Y0444175D01*
X0384882D01*
X0384423Y0443257D01*
Y0442798D01*
X0384882Y0442338D01*
X0385801D01*
X0386260Y0442798D01*
Y0443716D01*
X0385801Y0444175D01*
X0395984Y0450039D02*
X0393229D01*
Y0448662D01*
X0393688Y0448203D01*
X0394607D01*
X0395066Y0448662D01*
Y0450039D01*
X0393229Y0447284D02*
X0395984D01*
Y0445907D01*
X0395525Y0445448D01*
X0395066D01*
X0394607Y0445907D01*
Y0447284D01*
Y0445907D01*
X0394148Y0445448D01*
X0393688D01*
X0393229Y0445907D01*
Y0447284D01*
Y0442693D02*
X0393688Y0443611D01*
X0394607Y0444529D01*
X0395525D01*
X0395984Y0444070D01*
Y0443152D01*
X0395525Y0442693D01*
X0395066D01*
X0394607Y0443152D01*
Y0444529D01*
X0406457Y0450039D02*
X0403702D01*
Y0448662D01*
X0404161Y0448203D01*
X0405079D01*
X0405538Y0448662D01*
Y0450039D01*
X0403702Y0447284D02*
X0406457D01*
Y0445907D01*
X0405998Y0445448D01*
X0405538D01*
X0405079Y0445907D01*
Y0447284D01*
Y0445907D01*
X0404620Y0445448D01*
X0404161D01*
X0403702Y0445907D01*
Y0447284D01*
Y0444529D02*
Y0442693D01*
X0404161D01*
X0405998Y0444529D01*
X0406457D01*
X0416890Y0450039D02*
X0414135D01*
Y0448662D01*
X0414594Y0448203D01*
X0415512D01*
X0415971Y0448662D01*
Y0450039D01*
X0414135Y0447284D02*
X0416890D01*
X0415512D01*
Y0445448D01*
X0414135D01*
X0416890D01*
X0414594Y0444529D02*
X0414135Y0444070D01*
Y0443152D01*
X0414594Y0442693D01*
X0416431D01*
X0416890Y0443152D01*
Y0444070D01*
X0416431Y0444529D01*
X0414594D01*
X0426181Y0450118D02*
X0423426D01*
Y0448741D01*
X0423885Y0448281D01*
X0424804D01*
X0425263Y0448741D01*
Y0450118D01*
X0423426Y0447363D02*
X0426181D01*
X0424804D01*
Y0445526D01*
X0423426D01*
X0426181D01*
Y0444608D02*
Y0443690D01*
Y0444149D01*
X0423426D01*
X0423885Y0444608D01*
X0433505Y0450315D02*
X0436260D01*
Y0448937D01*
X0435801Y0448478D01*
X0435342D01*
X0434882Y0448937D01*
Y0450315D01*
Y0448937D01*
X0434423Y0448478D01*
X0433964D01*
X0433505Y0448937D01*
Y0450315D01*
Y0446182D02*
Y0447101D01*
X0433964Y0447560D01*
X0435801D01*
X0436260Y0447101D01*
Y0446182D01*
X0435801Y0445723D01*
X0433964D01*
X0433505Y0446182D01*
Y0443427D02*
Y0444346D01*
X0433964Y0444805D01*
X0435801D01*
X0436260Y0444346D01*
Y0443427D01*
X0435801Y0442968D01*
X0433964D01*
X0433505Y0443427D01*
Y0442050D02*
Y0440213D01*
Y0441132D01*
X0436260D01*
X0433964Y0439295D02*
X0433505Y0438836D01*
Y0437917D01*
X0433964Y0437458D01*
X0435801D01*
X0436260Y0437917D01*
Y0438836D01*
X0435801Y0439295D01*
X0433964D01*
X0444122Y0448557D02*
X0443662Y0449016D01*
Y0449934D01*
X0444122Y0450394D01*
X0444581D01*
X0445040Y0449934D01*
Y0449016D01*
X0445499Y0448557D01*
X0445958D01*
X0446417Y0449016D01*
Y0449934D01*
X0445958Y0450394D01*
X0443662Y0447639D02*
X0446417D01*
X0445499Y0446720D01*
X0446417Y0445802D01*
X0443662D01*
X0444122Y0443047D02*
X0443662Y0443506D01*
Y0444424D01*
X0444122Y0444884D01*
X0445958D01*
X0446417Y0444424D01*
Y0443506D01*
X0445958Y0443047D01*
X0443662Y0442129D02*
X0446417D01*
Y0440292D01*
X0443662Y0439374D02*
X0446417D01*
X0445499D01*
X0443662Y0437537D01*
X0445040Y0438914D01*
X0446417Y0437537D01*
X0454318Y0448478D02*
X0453859Y0448937D01*
Y0449856D01*
X0454318Y0450315D01*
X0454777D01*
X0455237Y0449856D01*
Y0448937D01*
X0455696Y0448478D01*
X0456155D01*
X0456614Y0448937D01*
Y0449856D01*
X0456155Y0450315D01*
X0453859Y0447560D02*
X0456614D01*
X0455696Y0446642D01*
X0456614Y0445723D01*
X0453859D01*
Y0444805D02*
X0456614D01*
Y0443427D01*
X0456155Y0442968D01*
X0454318D01*
X0453859Y0443427D01*
Y0444805D01*
Y0442050D02*
Y0441132D01*
Y0441591D01*
X0456614D01*
Y0442050D01*
Y0441132D01*
X0453859Y0438377D02*
Y0439295D01*
X0454318Y0439754D01*
X0456155D01*
X0456614Y0439295D01*
Y0438377D01*
X0456155Y0437917D01*
X0454318D01*
X0453859Y0438377D01*
X0466772Y0450276D02*
X0464017D01*
Y0448898D01*
X0464476Y0448439D01*
X0465394D01*
X0465853Y0448898D01*
Y0450276D01*
X0464017Y0447521D02*
X0466772D01*
Y0446143D01*
X0466313Y0445684D01*
X0465853D01*
X0465394Y0446143D01*
Y0447521D01*
Y0446143D01*
X0464935Y0445684D01*
X0464476D01*
X0464017Y0446143D01*
Y0447521D01*
X0466772Y0442929D02*
Y0444766D01*
X0464935Y0442929D01*
X0464476D01*
X0464017Y0443388D01*
Y0444306D01*
X0464476Y0444766D01*
X0474122Y0448557D02*
X0473662Y0449016D01*
Y0449934D01*
X0474122Y0450394D01*
X0474581D01*
X0475040Y0449934D01*
Y0449016D01*
X0475499Y0448557D01*
X0475958D01*
X0476417Y0449016D01*
Y0449934D01*
X0475958Y0450394D01*
X0473662Y0447639D02*
X0476417D01*
Y0446261D01*
X0475958Y0445802D01*
X0474122D01*
X0473662Y0446261D01*
Y0447639D01*
X0476417Y0444884D02*
X0474581D01*
X0473662Y0443965D01*
X0474581Y0443047D01*
X0476417D01*
X0475040D01*
Y0444884D01*
X0484830Y0448911D02*
X0484371Y0449370D01*
Y0450289D01*
X0484830Y0450748D01*
X0485289D01*
X0485748Y0450289D01*
Y0449370D01*
X0486208Y0448911D01*
X0486667D01*
X0487126Y0449370D01*
Y0450289D01*
X0486667Y0450748D01*
X0484830Y0446156D02*
X0484371Y0446616D01*
Y0447534D01*
X0484830Y0447993D01*
X0486667D01*
X0487126Y0447534D01*
Y0446616D01*
X0486667Y0446156D01*
X0484371Y0445238D02*
X0487126D01*
Y0443401D01*
X0484253Y0387140D02*
Y0388976D01*
X0487008D01*
Y0387140D01*
X0485630Y0388976D02*
Y0388058D01*
X0487008Y0386221D02*
X0484253D01*
X0487008Y0384385D01*
X0484253D01*
X0473505Y0389134D02*
Y0387297D01*
Y0388215D01*
X0476260D01*
X0473505Y0386379D02*
X0476260Y0384542D01*
X0473505D02*
X0476260Y0386379D01*
X0466457Y0388701D02*
X0463702D01*
Y0387323D01*
X0464161Y0386864D01*
X0465079D01*
X0465538Y0387323D01*
Y0388701D01*
Y0387783D02*
X0466457Y0386864D01*
X0463702Y0385946D02*
X0466457Y0384109D01*
X0463702D02*
X0466457Y0385946D01*
X0455984Y0393150D02*
X0453229D01*
X0454148Y0392231D01*
X0453229Y0391313D01*
X0455984D01*
X0453229Y0390395D02*
Y0389476D01*
Y0389935D01*
X0455984D01*
Y0390395D01*
Y0389476D01*
X0453688Y0386262D02*
X0453229Y0386721D01*
Y0387640D01*
X0453688Y0388099D01*
X0454148D01*
X0454607Y0387640D01*
Y0386721D01*
X0455066Y0386262D01*
X0455525D01*
X0455984Y0386721D01*
Y0387640D01*
X0455525Y0388099D01*
X0453229Y0383966D02*
Y0384885D01*
X0453688Y0385344D01*
X0455525D01*
X0455984Y0384885D01*
Y0383966D01*
X0455525Y0383507D01*
X0453688D01*
X0453229Y0383966D01*
X0446378Y0392874D02*
X0443623D01*
X0444541Y0391956D01*
X0443623Y0391037D01*
X0446378D01*
X0443623Y0388741D02*
Y0389660D01*
X0444082Y0390119D01*
X0445919D01*
X0446378Y0389660D01*
Y0388741D01*
X0445919Y0388282D01*
X0444082D01*
X0443623Y0388741D01*
X0444082Y0385527D02*
X0443623Y0385986D01*
Y0386905D01*
X0444082Y0387364D01*
X0444541D01*
X0445000Y0386905D01*
Y0385986D01*
X0445460Y0385527D01*
X0445919D01*
X0446378Y0385986D01*
Y0386905D01*
X0445919Y0387364D01*
X0443623Y0384609D02*
Y0383691D01*
Y0384150D01*
X0446378D01*
Y0384609D01*
Y0383691D01*
X0435472Y0391220D02*
X0432717D01*
X0435472Y0389384D01*
X0432717D01*
X0433177Y0386629D02*
X0432717Y0387088D01*
Y0388006D01*
X0433177Y0388465D01*
X0433636D01*
X0434095Y0388006D01*
Y0387088D01*
X0434554Y0386629D01*
X0435013D01*
X0435472Y0387088D01*
Y0388006D01*
X0435013Y0388465D01*
X0433177Y0383874D02*
X0432717Y0384333D01*
Y0385251D01*
X0433177Y0385710D01*
X0433636D01*
X0434095Y0385251D01*
Y0384333D01*
X0434554Y0383874D01*
X0435013D01*
X0435472Y0384333D01*
Y0385251D01*
X0435013Y0385710D01*
X0423964Y0389384D02*
X0423505Y0389843D01*
Y0390761D01*
X0423964Y0391220D01*
X0424423D01*
X0424882Y0390761D01*
Y0389843D01*
X0425342Y0389384D01*
X0425801D01*
X0426260Y0389843D01*
Y0390761D01*
X0425801Y0391220D01*
X0423964Y0386629D02*
X0423505Y0387088D01*
Y0388006D01*
X0423964Y0388465D01*
X0425801D01*
X0426260Y0388006D01*
Y0387088D01*
X0425801Y0386629D01*
X0423505Y0385710D02*
X0426260D01*
X0425342D01*
X0423505Y0383874D01*
X0424882Y0385251D01*
X0426260Y0383874D01*
X0416063Y0390787D02*
X0413308D01*
Y0389410D01*
X0413767Y0388951D01*
X0414685D01*
X0415145Y0389410D01*
Y0390787D01*
X0416063Y0388032D02*
X0414226D01*
X0413308Y0387114D01*
X0414226Y0386196D01*
X0416063D01*
X0414685D01*
Y0388032D01*
X0416063Y0383900D02*
X0413308D01*
X0414685Y0385277D01*
Y0383441D01*
X0405748Y0391063D02*
X0402993D01*
Y0389686D01*
X0403452Y0389226D01*
X0404370D01*
X0404830Y0389686D01*
Y0391063D01*
X0405748Y0388308D02*
X0403911D01*
X0402993Y0387390D01*
X0403911Y0386471D01*
X0405748D01*
X0404370D01*
Y0388308D01*
X0403452Y0385553D02*
X0402993Y0385094D01*
Y0384175D01*
X0403452Y0383716D01*
X0405289D01*
X0405748Y0384175D01*
Y0385094D01*
X0405289Y0385553D01*
X0403452D01*
X0392914Y0395945D02*
X0394751D01*
X0395669Y0395026D01*
X0394751Y0394108D01*
X0392914D01*
X0395669Y0393190D02*
X0392914D01*
Y0391812D01*
X0393373Y0391353D01*
X0394292D01*
X0394751Y0391812D01*
Y0393190D01*
Y0392271D02*
X0395669Y0391353D01*
X0392914Y0388598D02*
Y0390435D01*
X0395669D01*
Y0388598D01*
X0394292Y0390435D02*
Y0389516D01*
X0392914Y0385843D02*
Y0387680D01*
X0394292D01*
Y0386761D01*
Y0387680D01*
X0395669D01*
X0394292Y0384925D02*
Y0383088D01*
X0393373Y0384007D02*
X0395210D01*
X0385906Y0391929D02*
X0383151D01*
X0385906Y0390092D01*
X0383151D01*
X0385906Y0389174D02*
X0385446D01*
Y0388715D01*
X0385906D01*
Y0389174D01*
X0383610Y0385042D02*
X0383151Y0385501D01*
Y0386419D01*
X0383610Y0386878D01*
X0385446D01*
X0385906Y0386419D01*
Y0385501D01*
X0385446Y0385042D01*
X0385906Y0384123D02*
X0385446D01*
Y0383664D01*
X0385906D01*
Y0384123D01*
X0375866Y0391929D02*
X0373111D01*
X0375866Y0390092D01*
X0373111D01*
X0375866Y0389174D02*
X0375407D01*
Y0388715D01*
X0375866D01*
Y0389174D01*
X0373570Y0385042D02*
X0373111Y0385501D01*
Y0386419D01*
X0373570Y0386878D01*
X0375407D01*
X0375866Y0386419D01*
Y0385501D01*
X0375407Y0385042D01*
X0375866Y0384123D02*
X0375407D01*
Y0383664D01*
X0375866D01*
Y0384123D01*
X0356457Y0392205D02*
X0353702D01*
X0356457Y0390368D01*
X0353702D01*
X0356457Y0389450D02*
X0355997D01*
Y0388990D01*
X0356457D01*
Y0389450D01*
X0354161Y0385317D02*
X0353702Y0385776D01*
Y0386695D01*
X0354161Y0387154D01*
X0355997D01*
X0356457Y0386695D01*
Y0385776D01*
X0355997Y0385317D01*
X0356457Y0384399D02*
X0355997D01*
Y0383940D01*
X0356457D01*
Y0384399D01*
X0363925Y0389384D02*
X0363465Y0389843D01*
Y0390761D01*
X0363925Y0391220D01*
X0365761D01*
X0366220Y0390761D01*
Y0389843D01*
X0365761Y0389384D01*
X0364843D01*
Y0390302D01*
X0366220Y0388465D02*
X0363465D01*
X0366220Y0386629D01*
X0363465D01*
Y0385710D02*
X0366220D01*
Y0384333D01*
X0365761Y0383874D01*
X0363925D01*
X0363465Y0384333D01*
Y0385710D01*
X0345158Y0393858D02*
Y0392022D01*
X0344240Y0392940D02*
X0346076D01*
X0344240Y0391103D02*
X0343780Y0390644D01*
Y0389726D01*
X0344240Y0389267D01*
X0344699D01*
X0345158Y0389726D01*
Y0390185D01*
Y0389726D01*
X0345617Y0389267D01*
X0346076D01*
X0346535Y0389726D01*
Y0390644D01*
X0346076Y0391103D01*
X0343780Y0388348D02*
X0345617D01*
X0346535Y0387430D01*
X0345617Y0386511D01*
X0343780D01*
X0344240Y0385593D02*
X0343780Y0385134D01*
Y0384216D01*
X0344240Y0383756D01*
X0344699D01*
X0345158Y0384216D01*
Y0384675D01*
Y0384216D01*
X0345617Y0383756D01*
X0346076D01*
X0346535Y0384216D01*
Y0385134D01*
X0346076Y0385593D01*
X0335906Y0404606D02*
X0333151D01*
X0334069Y0403688D01*
X0333151Y0402770D01*
X0335906D01*
X0333610Y0400015D02*
X0333151Y0400474D01*
Y0401392D01*
X0333610Y0401851D01*
X0335446D01*
X0335906Y0401392D01*
Y0400474D01*
X0335446Y0400015D01*
X0333151Y0399096D02*
X0335446D01*
X0335906Y0398637D01*
Y0397719D01*
X0335446Y0397260D01*
X0333151D01*
X0336365Y0396341D02*
Y0394505D01*
X0335906Y0393586D02*
X0334069D01*
Y0392209D01*
X0334528Y0391750D01*
X0335906D01*
Y0390831D02*
X0333151D01*
Y0389454D01*
X0333610Y0388995D01*
X0334528D01*
X0334987Y0389454D01*
Y0390831D01*
Y0389913D02*
X0335906Y0388995D01*
X0333610Y0386240D02*
X0333151Y0386699D01*
Y0387617D01*
X0333610Y0388076D01*
X0334069D01*
X0334528Y0387617D01*
Y0386699D01*
X0334987Y0386240D01*
X0335446D01*
X0335906Y0386699D01*
Y0387617D01*
X0335446Y0388076D01*
X0333151Y0385321D02*
Y0383485D01*
Y0384403D01*
X0335906D01*
X0546274Y0383004D02*
X0546733Y0383464D01*
X0547651D01*
X0548110Y0383004D01*
Y0381168D01*
X0547651Y0380709D01*
X0546733D01*
X0546274Y0381168D01*
X0545355Y0380709D02*
Y0382545D01*
X0544437Y0383464D01*
X0543518Y0382545D01*
Y0380709D01*
Y0382086D01*
X0545355D01*
X0542600Y0380709D02*
Y0383464D01*
X0540764Y0380709D01*
Y0383464D01*
X0539845D02*
Y0380709D01*
Y0382086D01*
X0538008D01*
Y0383464D01*
Y0380709D01*
X0545722Y0393241D02*
X0546181Y0393700D01*
X0547100D01*
X0547559Y0393241D01*
Y0391404D01*
X0547100Y0390945D01*
X0546181D01*
X0545722Y0391404D01*
X0544804Y0390945D02*
Y0392782D01*
X0543886Y0393700D01*
X0542967Y0392782D01*
Y0390945D01*
Y0392322D01*
X0544804D01*
X0542049Y0390945D02*
Y0393700D01*
X0540212Y0390945D01*
Y0393700D01*
X0539294D02*
Y0390945D01*
X0537457D01*
X0548110Y0432204D02*
X0546274D01*
X0547192Y0433123D02*
Y0431286D01*
X0545355Y0430827D02*
X0544437D01*
X0544896D01*
Y0433582D01*
X0545355Y0433123D01*
X0541223Y0430827D02*
X0543059D01*
X0541223Y0432663D01*
Y0433123D01*
X0541682Y0433582D01*
X0542600D01*
X0543059Y0433123D01*
X0540304Y0433582D02*
Y0431745D01*
X0539386Y0430827D01*
X0538468Y0431745D01*
Y0433582D01*
X0550407Y0413201D02*
X0550867Y0413660D01*
X0551785D01*
X0552244Y0413201D01*
Y0412742D01*
X0551785Y0412283D01*
X0550867D01*
X0550407Y0411824D01*
Y0411365D01*
X0550867Y0410906D01*
X0551785D01*
X0552244Y0411365D01*
X0549030Y0410906D02*
X0548112D01*
X0547652Y0411365D01*
Y0412283D01*
X0548112Y0412742D01*
X0549030D01*
X0549489Y0412283D01*
Y0411365D01*
X0549030Y0410906D01*
X0546734D02*
X0545816D01*
X0546275D01*
Y0413660D01*
X0546734D01*
X0543979Y0412742D02*
X0543061D01*
X0542601Y0412283D01*
Y0410906D01*
X0543979D01*
X0544438Y0411365D01*
X0543979Y0411824D01*
X0542601D01*
X0541683Y0412742D02*
Y0410906D01*
Y0411824D01*
X0541224Y0412283D01*
X0540765Y0412742D01*
X0540306D01*
X0538928Y0410906D02*
X0538010D01*
X0538469D01*
Y0413660D01*
X0538928Y0413201D01*
X0551746Y0423831D02*
X0552205Y0424290D01*
X0553124D01*
X0553583Y0423831D01*
Y0423372D01*
X0553124Y0422913D01*
X0552205D01*
X0551746Y0422454D01*
Y0421995D01*
X0552205Y0421535D01*
X0553124D01*
X0553583Y0421995D01*
X0550368Y0421535D02*
X0549450D01*
X0548991Y0421995D01*
Y0422913D01*
X0549450Y0423372D01*
X0550368D01*
X0550828Y0422913D01*
Y0421995D01*
X0550368Y0421535D01*
X0548073D02*
X0547154D01*
X0547613D01*
Y0424290D01*
X0548073D01*
X0545318Y0423372D02*
X0544399D01*
X0543940Y0422913D01*
Y0421535D01*
X0545318D01*
X0545777Y0421995D01*
X0545318Y0422454D01*
X0543940D01*
X0543022Y0423372D02*
Y0421535D01*
Y0422454D01*
X0542563Y0422913D01*
X0542103Y0423372D01*
X0541644D01*
X0538430Y0421535D02*
X0540267D01*
X0538430Y0423372D01*
Y0423831D01*
X0538889Y0424290D01*
X0539808D01*
X0540267Y0423831D01*
X0547638Y0401614D02*
X0545801D01*
X0546720Y0402532D02*
Y0400695D01*
X0544883Y0400236D02*
X0543964D01*
X0544424D01*
Y0402991D01*
X0544883Y0402532D01*
X0540750Y0400236D02*
X0542587D01*
X0540750Y0402073D01*
Y0402532D01*
X0541209Y0402991D01*
X0542128D01*
X0542587Y0402532D01*
X0539832Y0402991D02*
Y0401155D01*
X0538914Y0400236D01*
X0537995Y0401155D01*
Y0402991D01*
X0543833Y0443044D02*
X0544292Y0443503D01*
X0545210D01*
X0545669Y0443044D01*
Y0441207D01*
X0545210Y0440748D01*
X0544292D01*
X0543833Y0441207D01*
Y0442126D01*
X0544751D01*
X0542914Y0440748D02*
Y0443503D01*
X0541078Y0440748D01*
Y0443503D01*
X0540159D02*
Y0440748D01*
X0538782D01*
X0538323Y0441207D01*
Y0443044D01*
X0538782Y0443503D01*
X0540159D01*
X0543518Y0453162D02*
X0543977Y0453621D01*
X0544895D01*
X0545354Y0453162D01*
Y0451325D01*
X0544895Y0450866D01*
X0543977D01*
X0543518Y0451325D01*
Y0452244D01*
X0544436D01*
X0542599Y0450866D02*
Y0453621D01*
X0540763Y0450866D01*
Y0453621D01*
X0539844D02*
Y0450866D01*
X0538467D01*
X0538008Y0451325D01*
Y0453162D01*
X0538467Y0453621D01*
X0539844D01*
X0287927Y0381154D02*
X0288386Y0381613D01*
X0289305D01*
X0289764Y0381154D01*
Y0379317D01*
X0289305Y0378858D01*
X0288386D01*
X0287927Y0379317D01*
Y0380236D01*
X0288845D01*
X0287009Y0378858D02*
Y0381613D01*
X0285172Y0378858D01*
Y0381613D01*
X0284254D02*
Y0378858D01*
X0282876D01*
X0282417Y0379317D01*
Y0381154D01*
X0282876Y0381613D01*
X0284254D01*
X0287573Y0391548D02*
X0288032Y0392007D01*
X0288950D01*
X0289409Y0391548D01*
Y0389711D01*
X0288950Y0389252D01*
X0288032D01*
X0287573Y0389711D01*
Y0390630D01*
X0288491D01*
X0286654Y0389252D02*
Y0392007D01*
X0284818Y0389252D01*
Y0392007D01*
X0283899D02*
Y0389252D01*
X0282522D01*
X0282063Y0389711D01*
Y0391548D01*
X0282522Y0392007D01*
X0283899D01*
X0290433Y0431338D02*
X0288596D01*
X0289515Y0432257D02*
Y0430420D01*
X0287678Y0429961D02*
X0286760D01*
X0287219D01*
Y0432716D01*
X0287678Y0432257D01*
X0283545Y0429961D02*
X0285382D01*
X0283545Y0431797D01*
Y0432257D01*
X0284005Y0432716D01*
X0284923D01*
X0285382Y0432257D01*
X0282627Y0432716D02*
Y0430879D01*
X0281709Y0429961D01*
X0280790Y0430879D01*
Y0432716D01*
X0287927Y0411587D02*
X0288386Y0412046D01*
X0289305D01*
X0289764Y0411587D01*
Y0411128D01*
X0289305Y0410669D01*
X0288386D01*
X0287927Y0410210D01*
Y0409751D01*
X0288386Y0409291D01*
X0289305D01*
X0289764Y0409751D01*
X0286550Y0409291D02*
X0285631D01*
X0285172Y0409751D01*
Y0410669D01*
X0285631Y0411128D01*
X0286550D01*
X0287009Y0410669D01*
Y0409751D01*
X0286550Y0409291D01*
X0284254D02*
X0283335D01*
X0283795D01*
Y0412046D01*
X0284254D01*
X0281499Y0411128D02*
X0280580D01*
X0280121Y0410669D01*
Y0409291D01*
X0281499D01*
X0281958Y0409751D01*
X0281499Y0410210D01*
X0280121D01*
X0279203Y0411128D02*
Y0409291D01*
Y0410210D01*
X0278744Y0410669D01*
X0278285Y0411128D01*
X0277825D01*
X0274611Y0409291D02*
X0276448D01*
X0274611Y0411128D01*
Y0411587D01*
X0275070Y0412046D01*
X0275989D01*
X0276448Y0411587D01*
X0288006Y0421508D02*
X0288465Y0421968D01*
X0289383D01*
X0289843Y0421508D01*
Y0421049D01*
X0289383Y0420590D01*
X0288465D01*
X0288006Y0420131D01*
Y0419672D01*
X0288465Y0419213D01*
X0289383D01*
X0289843Y0419672D01*
X0286628Y0419213D02*
X0285710D01*
X0285251Y0419672D01*
Y0420590D01*
X0285710Y0421049D01*
X0286628D01*
X0287087Y0420590D01*
Y0419672D01*
X0286628Y0419213D01*
X0284332D02*
X0283414D01*
X0283873D01*
Y0421968D01*
X0284332D01*
X0281577Y0421049D02*
X0280659D01*
X0280200Y0420590D01*
Y0419213D01*
X0281577D01*
X0282037Y0419672D01*
X0281577Y0420131D01*
X0280200D01*
X0279282Y0421049D02*
Y0419213D01*
Y0420131D01*
X0278822Y0420590D01*
X0278363Y0421049D01*
X0277904D01*
X0276527Y0419213D02*
X0275608D01*
X0276067D01*
Y0421968D01*
X0276527Y0421508D01*
X0290197Y0401811D02*
X0288360D01*
X0289279Y0402729D02*
Y0400892D01*
X0287442Y0400433D02*
X0286524D01*
X0286983D01*
Y0403188D01*
X0287442Y0402729D01*
X0283309Y0400433D02*
X0285146D01*
X0283309Y0402270D01*
Y0402729D01*
X0283769Y0403188D01*
X0284687D01*
X0285146Y0402729D01*
X0282391Y0403188D02*
Y0401351D01*
X0281473Y0400433D01*
X0280554Y0401351D01*
Y0403188D01*
X0288163Y0443083D02*
X0288622Y0443542D01*
X0289541D01*
X0290000Y0443083D01*
Y0441247D01*
X0289541Y0440787D01*
X0288622D01*
X0288163Y0441247D01*
X0287245Y0440787D02*
Y0442624D01*
X0286327Y0443542D01*
X0285408Y0442624D01*
Y0440787D01*
Y0442165D01*
X0287245D01*
X0284490Y0440787D02*
Y0443542D01*
X0282653Y0440787D01*
Y0443542D01*
X0281735D02*
Y0440787D01*
X0279898D01*
X0288163Y0452138D02*
X0288622Y0452598D01*
X0289541D01*
X0290000Y0452138D01*
Y0450302D01*
X0289541Y0449843D01*
X0288622D01*
X0288163Y0450302D01*
X0287245Y0449843D02*
Y0451679D01*
X0286327Y0452598D01*
X0285408Y0451679D01*
Y0449843D01*
Y0451220D01*
X0287245D01*
X0284490Y0449843D02*
Y0452598D01*
X0282653Y0449843D01*
Y0452598D01*
X0281735D02*
Y0449843D01*
Y0451220D01*
X0279898D01*
Y0452598D01*
Y0449843D01*
M02*
