G04 Layer_Color=8388736*
%FSAX25Y25*%
%MOIN*%
G70*
G01*
G75*
%ADD52R,0.04934X0.09461*%
%ADD53R,0.04737X0.04737*%
%ADD54R,0.04343X0.04737*%
%ADD55R,0.06706X0.14186*%
%ADD56R,0.04737X0.14186*%
%ADD57R,0.06706X0.06706*%
G04:AMPARAMS|DCode=58|XSize=67.06mil|YSize=67.06mil|CornerRadius=9.9mil|HoleSize=0mil|Usage=FLASHONLY|Rotation=0.000|XOffset=0mil|YOffset=0mil|HoleType=Round|Shape=RoundedRectangle|*
%AMROUNDEDRECTD58*
21,1,0.06706,0.04724,0,0,0.0*
21,1,0.04724,0.06706,0,0,0.0*
1,1,0.01981,0.02362,-0.02362*
1,1,0.01981,-0.02362,-0.02362*
1,1,0.01981,-0.02362,0.02362*
1,1,0.01981,0.02362,0.02362*
%
%ADD58ROUNDEDRECTD58*%
%ADD59R,0.02768X0.07493*%
%ADD60R,0.07493X0.02768*%
%ADD61R,0.03950X0.04737*%
%ADD62R,0.01784X0.02768*%
%ADD63R,0.07296X0.03517*%
%ADD64R,0.10642X0.10642*%
%ADD65O,0.01981X0.03674*%
%ADD66O,0.03674X0.01981*%
%ADD67R,0.04737X0.03950*%
%ADD68O,0.03162X0.06509*%
%ADD69R,0.07887X0.05524*%
%ADD70R,0.03950X0.03162*%
%ADD71R,0.03162X0.03950*%
%ADD72R,0.05918X0.09461*%
%ADD73C,0.07296*%
%ADD74C,0.13910*%
%ADD75C,0.14304*%
%ADD76C,0.04619*%
%ADD77C,0.06706*%
%ADD78C,0.09800*%
%ADD79R,0.06706X0.06706*%
D52*
X0521004Y0389421D02*
D03*
X0509390D02*
D03*
D53*
X0515197Y0395327D02*
D03*
D54*
X0369496Y0401772D02*
D03*
X0353354D02*
D03*
Y0395472D02*
D03*
X0369496D02*
D03*
D55*
X0359724Y0452480D02*
D03*
X0333461Y0452525D02*
D03*
D56*
X0342568Y0430429D02*
D03*
X0350481Y0430438D02*
D03*
D57*
X0475520Y0406280D02*
D03*
X0465677D02*
D03*
X0455736D02*
D03*
X0475520Y0416122D02*
D03*
X0465677D02*
D03*
X0455835D02*
D03*
X0475520Y0425965D02*
D03*
X0465677Y0425965D02*
D03*
X0485000Y0376500D02*
D03*
X0375000Y0456000D02*
D03*
D58*
X0455835Y0425965D02*
D03*
D59*
X0448347Y0437598D02*
D03*
X0451535D02*
D03*
X0454685D02*
D03*
X0457835D02*
D03*
X0460984D02*
D03*
X0464134D02*
D03*
X0467283D02*
D03*
X0470433D02*
D03*
X0473583D02*
D03*
X0476732D02*
D03*
X0479843D02*
D03*
X0483032D02*
D03*
X0483189Y0394665D02*
D03*
X0479878Y0394665D02*
D03*
X0476701D02*
D03*
X0473551Y0394669D02*
D03*
X0470402Y0394669D02*
D03*
X0467252Y0394665D02*
D03*
X0464102D02*
D03*
X0460953Y0394665D02*
D03*
X0457803Y0394665D02*
D03*
X0454654Y0394665D02*
D03*
X0451504D02*
D03*
X0448347D02*
D03*
D60*
X0488898Y0433465D02*
D03*
Y0430315D02*
D03*
Y0427126D02*
D03*
Y0424016D02*
D03*
Y0420866D02*
D03*
Y0417677D02*
D03*
X0488905Y0414547D02*
D03*
X0488905Y0411398D02*
D03*
X0488905Y0408248D02*
D03*
X0488905Y0405110D02*
D03*
X0488905Y0401953D02*
D03*
Y0398799D02*
D03*
X0442441Y0398819D02*
D03*
Y0401929D02*
D03*
Y0405118D02*
D03*
Y0408228D02*
D03*
Y0411378D02*
D03*
Y0414567D02*
D03*
Y0417677D02*
D03*
Y0420827D02*
D03*
Y0423976D02*
D03*
Y0427126D02*
D03*
Y0430315D02*
D03*
Y0433465D02*
D03*
D61*
X0498435Y0430551D02*
D03*
X0505310D02*
D03*
X0459340Y0445276D02*
D03*
X0466215D02*
D03*
X0379242Y0420118D02*
D03*
X0372368D02*
D03*
X0478120Y0386024D02*
D03*
X0484995D02*
D03*
X0352017Y0386772D02*
D03*
X0358892D02*
D03*
X0333789Y0385866D02*
D03*
X0340664D02*
D03*
X0340739Y0393701D02*
D03*
X0333864D02*
D03*
X0323416Y0432205D02*
D03*
X0316541D02*
D03*
X0386248Y0420039D02*
D03*
X0393123D02*
D03*
X0373673Y0386890D02*
D03*
X0366798D02*
D03*
X0498020Y0420197D02*
D03*
X0504895D02*
D03*
X0433476Y0417717D02*
D03*
X0426601D02*
D03*
X0426524Y0436339D02*
D03*
X0433399D02*
D03*
X0426642Y0426968D02*
D03*
X0433517D02*
D03*
X0321802Y0389409D02*
D03*
X0314927D02*
D03*
X0362156Y0413150D02*
D03*
X0355281D02*
D03*
X0504990Y0445709D02*
D03*
X0498115D02*
D03*
X0504479Y0438228D02*
D03*
X0497604D02*
D03*
D62*
X0324882Y0400630D02*
D03*
X0326850D02*
D03*
X0328819D02*
D03*
X0330787D02*
D03*
X0324882Y0408110D02*
D03*
X0326850D02*
D03*
X0328819D02*
D03*
X0330787D02*
D03*
D63*
X0327835Y0404370D02*
D03*
D64*
X0424921Y0396850D02*
D03*
D65*
X0420984Y0404587D02*
D03*
X0422953D02*
D03*
X0424921D02*
D03*
X0426890D02*
D03*
X0428858D02*
D03*
Y0389114D02*
D03*
X0426890D02*
D03*
X0424921D02*
D03*
X0422953D02*
D03*
X0420984D02*
D03*
D66*
X0432657Y0400787D02*
D03*
Y0398819D02*
D03*
Y0396850D02*
D03*
Y0394882D02*
D03*
Y0392913D02*
D03*
X0417185D02*
D03*
Y0394882D02*
D03*
Y0396850D02*
D03*
Y0398819D02*
D03*
Y0400787D02*
D03*
D67*
X0417520Y0415206D02*
D03*
Y0422081D02*
D03*
X0410079Y0441153D02*
D03*
Y0434278D02*
D03*
X0371417Y0441075D02*
D03*
Y0434200D02*
D03*
X0408071Y0408437D02*
D03*
Y0401562D02*
D03*
X0407913Y0424933D02*
D03*
Y0418058D02*
D03*
X0338228Y0404673D02*
D03*
Y0411548D02*
D03*
X0317598Y0404146D02*
D03*
Y0397271D02*
D03*
D68*
X0383209Y0388484D02*
D03*
X0388209D02*
D03*
X0393209D02*
D03*
X0398209D02*
D03*
X0383209Y0409941D02*
D03*
X0388209D02*
D03*
X0393209D02*
D03*
X0398209D02*
D03*
D69*
X0399017Y0442293D02*
D03*
Y0432844D02*
D03*
X0383269Y0442293D02*
D03*
Y0432844D02*
D03*
D70*
X0502323Y0401850D02*
D03*
X0508583D02*
D03*
D71*
X0496063Y0401929D02*
D03*
Y0408189D02*
D03*
X0515197Y0408386D02*
D03*
Y0402126D02*
D03*
D72*
X0325709Y0419567D02*
D03*
X0314055D02*
D03*
D73*
X0257992Y0384291D02*
D03*
Y0449094D02*
D03*
X0568071Y0385709D02*
D03*
Y0450512D02*
D03*
D74*
X0244528Y0391772D02*
D03*
X0581535Y0443032D02*
D03*
D75*
X0244213Y0441614D02*
D03*
X0581850Y0393189D02*
D03*
D76*
X0261496Y0406811D02*
D03*
X0261535Y0414803D02*
D03*
Y0422795D02*
D03*
Y0430787D02*
D03*
X0254488Y0402598D02*
D03*
Y0410591D02*
D03*
Y0418583D02*
D03*
Y0426575D02*
D03*
X0571575Y0408228D02*
D03*
Y0416221D02*
D03*
Y0424213D02*
D03*
Y0432205D02*
D03*
X0564528Y0404016D02*
D03*
Y0412008D02*
D03*
Y0420000D02*
D03*
X0564567Y0427992D02*
D03*
D77*
X0342598Y0451693D02*
D03*
X0351260D02*
D03*
X0297205Y0440158D02*
D03*
Y0430158D02*
D03*
Y0420157D02*
D03*
Y0410157D02*
D03*
Y0400157D02*
D03*
Y0390158D02*
D03*
Y0380157D02*
D03*
X0475000Y0376500D02*
D03*
X0465000D02*
D03*
X0455000D02*
D03*
X0445000D02*
D03*
X0435000D02*
D03*
X0425000D02*
D03*
X0415000D02*
D03*
X0405000D02*
D03*
X0395000D02*
D03*
X0385000D02*
D03*
X0375000D02*
D03*
X0365000D02*
D03*
X0355000D02*
D03*
X0345000D02*
D03*
X0335000D02*
D03*
X0485000Y0456000D02*
D03*
X0475000D02*
D03*
X0465000D02*
D03*
X0455000D02*
D03*
X0445000D02*
D03*
X0435000D02*
D03*
X0425000D02*
D03*
X0415000D02*
D03*
X0405000D02*
D03*
X0395000D02*
D03*
X0385000D02*
D03*
X0530905Y0392205D02*
D03*
Y0402205D02*
D03*
Y0412205D02*
D03*
Y0422205D02*
D03*
Y0432205D02*
D03*
Y0442205D02*
D03*
Y0452205D02*
D03*
D78*
X0317520Y0378150D02*
D03*
X0497480Y0454606D02*
D03*
Y0378150D02*
D03*
X0317500Y0454602D02*
D03*
D79*
X0297205Y0450157D02*
D03*
X0530905Y0382205D02*
D03*
M02*
