G04 Layer_Color=65535*
%FSAX25Y25*%
%MOIN*%
G70*
G01*
G75*
%ADD32C,0.01000*%
%ADD48C,0.00394*%
%ADD49C,0.00984*%
%ADD50C,0.00787*%
%ADD51C,0.00591*%
D32*
X0439331Y0437716D02*
G03*
X0439331Y0437716I-0000905J0000000D01*
G01*
D48*
X0323632Y0398970D02*
G03*
X0323632Y0398970I-0000197J0000000D01*
G01*
X0379490Y0428068D02*
G03*
X0379490Y0428068I-0000197J0000000D01*
G01*
X0311299Y0425787D02*
G03*
X0311299Y0425787I-0000197J0000000D01*
G01*
D49*
X0415313Y0405350D02*
G03*
X0415313Y0405350I-0000492J0000000D01*
G01*
X0402001Y0411713D02*
G03*
X0402001Y0411713I-0000492J0000000D01*
G01*
D50*
X0508504Y0395721D02*
X0512441D01*
X0508504D02*
X0508504Y0394539D01*
X0521890D02*
Y0395720D01*
X0517953D02*
X0521890D01*
X0508504Y0383516D02*
Y0384303D01*
Y0383516D02*
X0521890D01*
Y0384303D01*
X0223819Y0384842D02*
Y0386968D01*
Y0384842D02*
X0283583D01*
Y0448425D01*
X0223819Y0386968D02*
Y0448425D01*
X0283583D01*
X0542480Y0386378D02*
X0602244D01*
Y0447835D01*
X0542480Y0386378D02*
Y0449961D01*
X0602244D01*
Y0447835D02*
Y0449961D01*
X0350315Y0392402D02*
X0372362D01*
X0350315D02*
Y0405000D01*
X0372362D01*
Y0392402D02*
Y0405000D01*
X0340236Y0418228D02*
X0344803D01*
X0348110Y0418150D02*
X0352716D01*
X0350354Y0416181D02*
Y0420276D01*
X0363858Y0421378D02*
Y0461535D01*
X0329213D02*
X0363858D01*
X0329213Y0421378D02*
Y0461535D01*
Y0421378D02*
X0363858D01*
X0440787Y0435276D02*
Y0438976D01*
X0440827Y0439016D01*
X0446496D01*
X0484842Y0438976D02*
X0490236D01*
X0490354Y0438858D01*
Y0435276D02*
Y0438858D01*
X0490315Y0393032D02*
Y0396969D01*
X0490236Y0392953D02*
X0490315Y0393032D01*
X0484921Y0392953D02*
X0490236D01*
X0440984Y0392874D02*
X0446496D01*
X0440827Y0393032D02*
Y0397008D01*
Y0393032D02*
X0440984Y0392874D01*
X0310000Y0371390D02*
Y0461350D01*
X0510000D01*
Y0371390D02*
Y0461350D01*
X0310000Y0371390D02*
X0510000D01*
X0495866Y0427402D02*
X0508071D01*
X0495866D02*
Y0433701D01*
X0508071D01*
Y0427402D02*
Y0433701D01*
X0456772Y0442126D02*
X0468976D01*
X0456772D02*
Y0448425D01*
X0468976D01*
Y0442126D02*
Y0448425D01*
X0322635Y0398170D02*
X0332835D01*
Y0410670D01*
X0322635D02*
X0332835D01*
X0322635Y0398170D02*
Y0410670D01*
X0412921Y0407350D02*
X0436421D01*
Y0386350D02*
Y0407350D01*
X0412921Y0386350D02*
X0436421D01*
X0412921D02*
Y0407350D01*
X0369606Y0423268D02*
X0381811D01*
Y0416968D02*
Y0423268D01*
X0369606Y0416968D02*
X0381811D01*
X0369606D02*
Y0423268D01*
X0475551Y0382874D02*
X0487756D01*
X0475551D02*
Y0389173D01*
X0487756D01*
Y0382874D02*
Y0389173D01*
X0349449Y0383622D02*
X0361653D01*
X0349449D02*
Y0389921D01*
X0361653D01*
Y0383622D02*
Y0389921D01*
X0331221Y0382716D02*
X0343425D01*
X0331221D02*
Y0389016D01*
X0343425D01*
Y0382716D02*
Y0389016D01*
X0331102Y0396850D02*
X0343307D01*
Y0390551D02*
Y0396850D01*
X0331102Y0390551D02*
X0343307D01*
X0331102D02*
Y0396850D01*
X0420669Y0412638D02*
Y0424843D01*
X0414370Y0412638D02*
X0420669D01*
X0414370D02*
Y0424843D01*
X0420669D01*
X0313779Y0435354D02*
X0325984D01*
Y0429055D02*
Y0435354D01*
X0313779Y0429055D02*
X0325984D01*
X0313779D02*
Y0435354D01*
X0379709Y0383713D02*
Y0414213D01*
X0403209Y0383713D02*
Y0414213D01*
X0379709Y0383713D02*
X0403209D01*
X0379709Y0414213D02*
X0403209D01*
X0395984Y0416890D02*
Y0423189D01*
X0383386D02*
X0395984D01*
X0383386Y0416890D02*
Y0423189D01*
Y0416890D02*
X0395984D01*
X0363937Y0383740D02*
Y0390039D01*
Y0383740D02*
X0376535D01*
Y0390039D01*
X0363937D02*
X0376535D01*
X0507756Y0417047D02*
Y0423347D01*
X0495157D02*
X0507756D01*
X0495157Y0417047D02*
Y0423347D01*
Y0417047D02*
X0507756D01*
X0423740Y0414567D02*
Y0420866D01*
Y0414567D02*
X0436339D01*
Y0420866D01*
X0423740D02*
X0436339D01*
X0436260Y0433189D02*
Y0439488D01*
X0423661D02*
X0436260D01*
X0423661Y0433189D02*
Y0439488D01*
Y0433189D02*
X0436260D01*
X0436378Y0423819D02*
Y0430118D01*
X0423779D02*
X0436378D01*
X0423779Y0423819D02*
Y0430118D01*
Y0423819D02*
X0436378D01*
X0406929Y0431417D02*
X0413228D01*
Y0444016D01*
X0406929D02*
X0413228D01*
X0406929Y0431417D02*
Y0444016D01*
X0368268Y0431339D02*
X0374567D01*
Y0443937D01*
X0368268D02*
X0374567D01*
X0368268Y0431339D02*
Y0443937D01*
X0404921Y0398701D02*
X0411221D01*
Y0411299D01*
X0404921D02*
X0411221D01*
X0404921Y0398701D02*
Y0411299D01*
X0404764Y0415197D02*
X0411063D01*
Y0427795D01*
X0404764D02*
X0411063D01*
X0404764Y0415197D02*
Y0427795D01*
X0335079Y0414409D02*
X0341378D01*
X0335079Y0401811D02*
Y0414409D01*
Y0401811D02*
X0341378D01*
Y0414409D01*
X0314449Y0394409D02*
X0320748D01*
Y0407008D01*
X0314449D02*
X0320748D01*
X0314449Y0394409D02*
Y0407008D01*
X0292205Y0375157D02*
X0302205D01*
X0292205D02*
Y0455158D01*
X0302205D01*
Y0375157D02*
Y0455158D01*
X0312165Y0392559D02*
X0324370D01*
Y0386260D02*
Y0392559D01*
X0312165Y0386260D02*
X0324370D01*
X0312165D02*
Y0392559D01*
X0352520Y0416299D02*
X0364724D01*
Y0410000D02*
Y0416299D01*
X0352520Y0410000D02*
X0364724D01*
X0352520D02*
Y0416299D01*
X0330000Y0381500D02*
X0490000D01*
Y0371500D02*
Y0381500D01*
X0482500Y0371500D02*
X0490000D01*
X0330000D02*
X0482500D01*
X0330000D02*
Y0381500D01*
X0377500Y0461000D02*
X0490000D01*
X0370000D02*
X0377500D01*
X0370000Y0451000D02*
Y0461000D01*
Y0451000D02*
X0490000D01*
Y0461000D01*
X0495354Y0448858D02*
X0507559D01*
Y0442559D02*
Y0448858D01*
X0495354Y0442559D02*
X0507559D01*
X0495354D02*
Y0448858D01*
X0494842Y0441378D02*
X0507047D01*
Y0435079D02*
Y0441378D01*
X0494842Y0435079D02*
X0507047D01*
X0494842D02*
Y0441378D01*
X0525906Y0457205D02*
X0535906D01*
Y0377205D02*
Y0457205D01*
X0525906Y0377205D02*
X0535906D01*
X0525906D02*
Y0457205D01*
X0378293Y0446068D02*
X0403793D01*
Y0429069D02*
Y0446068D01*
X0378293Y0429069D02*
X0403793D01*
X0378293D02*
Y0446068D01*
X0508026Y0404134D02*
X0511693D01*
X0499488D02*
X0502911D01*
X0499488Y0399410D02*
Y0404134D01*
Y0399410D02*
X0511693D01*
Y0404134D01*
X0502911D02*
X0508026D01*
X0498347Y0402486D02*
Y0407600D01*
X0493622Y0398819D02*
X0498347D01*
X0493622D02*
Y0411024D01*
X0498347D01*
Y0407600D02*
Y0411024D01*
Y0398819D02*
Y0402486D01*
X0517480Y0399016D02*
Y0402683D01*
Y0407797D02*
Y0411221D01*
X0512756D02*
X0517480D01*
X0512756Y0399016D02*
Y0411221D01*
Y0399016D02*
X0517480D01*
Y0402683D02*
Y0407797D01*
X0309724Y0412165D02*
Y0427165D01*
Y0412165D02*
X0329842D01*
Y0427165D01*
X0309724D02*
X0329842D01*
D51*
X0324095Y0446810D02*
Y0444055D01*
X0325472D01*
X0325931Y0444514D01*
Y0444974D01*
X0325472Y0445433D01*
X0324095D01*
X0325472D01*
X0325931Y0445892D01*
Y0446351D01*
X0325472Y0446810D01*
X0324095D01*
X0326850Y0444055D02*
X0327768D01*
X0327309D01*
Y0446810D01*
X0326850Y0446351D01*
X0511378Y0433898D02*
X0514133D01*
Y0432520D01*
X0513674Y0432061D01*
X0512755D01*
X0512296Y0432520D01*
Y0433898D01*
Y0432979D02*
X0511378Y0432061D01*
Y0431143D02*
Y0430224D01*
Y0430683D01*
X0514133D01*
X0513674Y0431143D01*
Y0428847D02*
X0514133Y0428388D01*
Y0427469D01*
X0513674Y0427010D01*
X0511837D01*
X0511378Y0427469D01*
Y0428388D01*
X0511837Y0428847D01*
X0513674D01*
X0455472Y0442953D02*
X0452717D01*
Y0444330D01*
X0453177Y0444789D01*
X0454095D01*
X0454554Y0444330D01*
Y0442953D01*
Y0443871D02*
X0455472Y0444789D01*
X0455013Y0445708D02*
X0455472Y0446167D01*
Y0447085D01*
X0455013Y0447544D01*
X0453177D01*
X0452717Y0447085D01*
Y0446167D01*
X0453177Y0445708D01*
X0453636D01*
X0454095Y0446167D01*
Y0447544D01*
X0398543Y0427401D02*
X0400380Y0424646D01*
Y0427401D02*
X0398543Y0424646D01*
X0401298D02*
X0402217D01*
X0401757D01*
Y0427401D01*
X0401298Y0426941D01*
X0324055Y0396968D02*
Y0394672D01*
X0324514Y0394213D01*
X0325433D01*
X0325892Y0394672D01*
Y0396968D01*
X0328647Y0394213D02*
X0326810D01*
X0328647Y0396049D01*
Y0396508D01*
X0328188Y0396968D01*
X0327269D01*
X0326810Y0396508D01*
X0438031Y0388582D02*
Y0386286D01*
X0438491Y0385827D01*
X0439409D01*
X0439868Y0386286D01*
Y0388582D01*
X0440787Y0385827D02*
X0441705D01*
X0441246D01*
Y0388582D01*
X0440787Y0388123D01*
X0352348Y0408438D02*
X0351889Y0408897D01*
X0350971D01*
X0350512Y0408438D01*
Y0407978D01*
X0350971Y0407519D01*
X0351889D01*
X0352348Y0407060D01*
Y0406601D01*
X0351889Y0406142D01*
X0350971D01*
X0350512Y0406601D01*
X0353267Y0408897D02*
Y0406142D01*
X0354185Y0407060D01*
X0355103Y0406142D01*
Y0408897D01*
X0356022Y0406142D02*
X0356940D01*
X0356481D01*
Y0408897D01*
X0356022Y0408438D01*
X0384252Y0424567D02*
Y0427322D01*
X0385630D01*
X0386089Y0426863D01*
Y0425944D01*
X0385630Y0425485D01*
X0384252D01*
X0385170D02*
X0386089Y0424567D01*
X0387007Y0426863D02*
X0387466Y0427322D01*
X0388385D01*
X0388844Y0426863D01*
Y0426404D01*
X0388385Y0425944D01*
X0388844Y0425485D01*
Y0425026D01*
X0388385Y0424567D01*
X0387466D01*
X0387007Y0425026D01*
Y0425485D01*
X0387466Y0425944D01*
X0387007Y0426404D01*
Y0426863D01*
X0387466Y0425944D02*
X0388385D01*
X0489252Y0382520D02*
Y0385275D01*
X0490629D01*
X0491089Y0384816D01*
Y0383897D01*
X0490629Y0383438D01*
X0489252D01*
X0490170D02*
X0491089Y0382520D01*
X0492007Y0385275D02*
X0493844D01*
Y0384816D01*
X0492007Y0382979D01*
Y0382520D01*
X0348268Y0384724D02*
X0345513D01*
Y0386102D01*
X0345972Y0386561D01*
X0346890D01*
X0347349Y0386102D01*
Y0384724D01*
Y0385643D02*
X0348268Y0386561D01*
X0345513Y0389316D02*
X0345972Y0388398D01*
X0346890Y0387479D01*
X0347809D01*
X0348268Y0387939D01*
Y0388857D01*
X0347809Y0389316D01*
X0347349D01*
X0346890Y0388857D01*
Y0387479D01*
X0329882Y0382795D02*
X0327127D01*
Y0384173D01*
X0327586Y0384632D01*
X0328504D01*
X0328963Y0384173D01*
Y0382795D01*
Y0383714D02*
X0329882Y0384632D01*
X0327127Y0387387D02*
Y0385550D01*
X0328504D01*
X0328045Y0386469D01*
Y0386928D01*
X0328504Y0387387D01*
X0329423D01*
X0329882Y0386928D01*
Y0386010D01*
X0329423Y0385550D01*
X0345965Y0397339D02*
X0348720D01*
Y0395961D01*
X0348260Y0395502D01*
X0347342D01*
X0346883Y0395961D01*
Y0397339D01*
Y0396420D02*
X0345965Y0395502D01*
Y0393206D02*
X0348720D01*
X0347342Y0394584D01*
Y0392747D01*
X0414606Y0408779D02*
Y0411535D01*
X0415984D01*
X0416443Y0411075D01*
Y0410157D01*
X0415984Y0409698D01*
X0414606D01*
X0415525D02*
X0416443Y0408779D01*
X0417361Y0411075D02*
X0417821Y0411535D01*
X0418739D01*
X0419198Y0411075D01*
Y0410616D01*
X0418739Y0410157D01*
X0418280D01*
X0418739D01*
X0419198Y0409698D01*
Y0409239D01*
X0418739Y0408779D01*
X0417821D01*
X0417361Y0409239D01*
X0313779Y0436890D02*
Y0439645D01*
X0315157D01*
X0315616Y0439186D01*
Y0438267D01*
X0315157Y0437808D01*
X0313779D01*
X0314698D02*
X0315616Y0436890D01*
X0316534D02*
X0317453D01*
X0316994D01*
Y0439645D01*
X0316534Y0439186D01*
X0595197Y0382362D02*
Y0385117D01*
X0596574D01*
X0597034Y0384658D01*
Y0383740D01*
X0596574Y0383280D01*
X0595197D01*
X0599789Y0385117D02*
X0598870Y0384658D01*
X0597952Y0383740D01*
Y0382821D01*
X0598411Y0382362D01*
X0599329D01*
X0599789Y0382821D01*
Y0383280D01*
X0599329Y0383740D01*
X0597952D01*
X0278228Y0380157D02*
Y0382912D01*
X0279606D01*
X0280065Y0382453D01*
Y0381535D01*
X0279606Y0381076D01*
X0278228D01*
X0282820Y0382912D02*
X0280983D01*
Y0381535D01*
X0281902Y0381994D01*
X0282361D01*
X0282820Y0381535D01*
Y0380617D01*
X0282361Y0380157D01*
X0281442D01*
X0280983Y0380617D01*
X0538346Y0377559D02*
Y0380314D01*
X0539724D01*
X0540183Y0379855D01*
Y0378937D01*
X0539724Y0378477D01*
X0538346D01*
X0542479Y0377559D02*
Y0380314D01*
X0541102Y0378937D01*
X0542938D01*
X0286181Y0374567D02*
Y0377322D01*
X0287559D01*
X0288018Y0376863D01*
Y0375944D01*
X0287559Y0375485D01*
X0286181D01*
X0288936Y0376863D02*
X0289395Y0377322D01*
X0290314D01*
X0290773Y0376863D01*
Y0376404D01*
X0290314Y0375944D01*
X0289855D01*
X0290314D01*
X0290773Y0375485D01*
Y0375026D01*
X0290314Y0374567D01*
X0289395D01*
X0288936Y0375026D01*
X0328504Y0373465D02*
X0325749D01*
Y0374842D01*
X0326208Y0375301D01*
X0327126D01*
X0327586Y0374842D01*
Y0373465D01*
X0328504Y0378056D02*
Y0376220D01*
X0326667Y0378056D01*
X0326208D01*
X0325749Y0377597D01*
Y0376679D01*
X0326208Y0376220D01*
X0365079Y0456496D02*
Y0459251D01*
X0366456D01*
X0366915Y0458792D01*
Y0457874D01*
X0366456Y0457414D01*
X0365079D01*
X0367834Y0456496D02*
X0368752D01*
X0368293D01*
Y0459251D01*
X0367834Y0458792D01*
X0472205Y0443425D02*
Y0446180D01*
X0473123Y0445262D01*
X0474041Y0446180D01*
Y0443425D01*
X0476337Y0446180D02*
X0475419D01*
X0474960Y0445721D01*
Y0443884D01*
X0475419Y0443425D01*
X0476337D01*
X0476796Y0443884D01*
Y0445721D01*
X0476337Y0446180D01*
X0477715D02*
Y0443425D01*
X0479092D01*
X0479551Y0443884D01*
Y0445721D01*
X0479092Y0446180D01*
X0477715D01*
X0480470Y0443425D02*
X0481388D01*
X0480929D01*
Y0446180D01*
X0480470Y0445721D01*
X0331339Y0418779D02*
Y0416024D01*
X0333175D01*
X0334094D02*
X0335012D01*
X0334553D01*
Y0418779D01*
X0334094Y0418320D01*
X0406758Y0389094D02*
X0405840D01*
X0406299D01*
Y0386798D01*
X0405840Y0386339D01*
X0405380D01*
X0404921Y0386798D01*
X0407676Y0386339D02*
X0408595D01*
X0408135D01*
Y0389094D01*
X0407676Y0388634D01*
X0514947Y0381863D02*
X0514488Y0382322D01*
X0513569D01*
X0513110Y0381863D01*
Y0380026D01*
X0513569Y0379567D01*
X0514488D01*
X0514947Y0380026D01*
X0517243Y0382322D02*
X0516324D01*
X0515865Y0381863D01*
Y0380026D01*
X0516324Y0379567D01*
X0517243D01*
X0517702Y0380026D01*
Y0381863D01*
X0517243Y0382322D01*
X0518620Y0379567D02*
Y0382322D01*
X0520457Y0379567D01*
Y0382322D01*
X0521375Y0379567D02*
X0522294D01*
X0521835D01*
Y0382322D01*
X0521375Y0381863D01*
X0371640Y0427099D02*
X0371181Y0427558D01*
X0370262D01*
X0369803Y0427099D01*
Y0425262D01*
X0370262Y0424803D01*
X0371181D01*
X0371640Y0425262D01*
X0372558Y0424803D02*
X0373477D01*
X0373017D01*
Y0427558D01*
X0372558Y0427099D01*
X0374854Y0427558D02*
X0376691D01*
Y0427099D01*
X0374854Y0425262D01*
Y0424803D01*
X0375066Y0393687D02*
X0374607Y0393228D01*
Y0392310D01*
X0375066Y0391850D01*
X0376903D01*
X0377362Y0392310D01*
Y0393228D01*
X0376903Y0393687D01*
X0377362Y0394605D02*
Y0395524D01*
Y0395065D01*
X0374607D01*
X0375066Y0394605D01*
X0374607Y0398738D02*
Y0396901D01*
X0375985D01*
X0375525Y0397820D01*
Y0398279D01*
X0375985Y0398738D01*
X0376903D01*
X0377362Y0398279D01*
Y0397360D01*
X0376903Y0396901D01*
X0515183Y0415603D02*
X0514724Y0416062D01*
X0513806D01*
X0513346Y0415603D01*
Y0413766D01*
X0513806Y0413307D01*
X0514724D01*
X0515183Y0413766D01*
X0516102Y0413307D02*
X0517020D01*
X0516561D01*
Y0416062D01*
X0516102Y0415603D01*
X0519775Y0413307D02*
Y0416062D01*
X0518397Y0414685D01*
X0520234D01*
X0496837Y0414658D02*
X0496378Y0415117D01*
X0495459D01*
X0495000Y0414658D01*
Y0412821D01*
X0495459Y0412362D01*
X0496378D01*
X0496837Y0412821D01*
X0497755Y0412362D02*
X0498673D01*
X0498214D01*
Y0415117D01*
X0497755Y0414658D01*
X0500051D02*
X0500510Y0415117D01*
X0501428D01*
X0501888Y0414658D01*
Y0414199D01*
X0501428Y0413740D01*
X0500969D01*
X0501428D01*
X0501888Y0413281D01*
Y0412821D01*
X0501428Y0412362D01*
X0500510D01*
X0500051Y0412821D01*
X0503215Y0408792D02*
X0502755Y0409251D01*
X0501837D01*
X0501378Y0408792D01*
Y0406955D01*
X0501837Y0406496D01*
X0502755D01*
X0503215Y0406955D01*
X0504133Y0406496D02*
X0505051D01*
X0504592D01*
Y0409251D01*
X0504133Y0408792D01*
X0508265Y0406496D02*
X0506429D01*
X0508265Y0408333D01*
Y0408792D01*
X0507806Y0409251D01*
X0506888D01*
X0506429Y0408792D01*
X0513713Y0421392D02*
X0514172Y0421851D01*
Y0422769D01*
X0513713Y0423228D01*
X0511876D01*
X0511417Y0422769D01*
Y0421851D01*
X0511876Y0421392D01*
X0511417Y0420473D02*
Y0419555D01*
Y0420014D01*
X0514172D01*
X0513713Y0420473D01*
X0511417Y0418178D02*
Y0417259D01*
Y0417718D01*
X0514172D01*
X0513713Y0418178D01*
X0427073Y0412256D02*
X0426614Y0412716D01*
X0425695D01*
X0425236Y0412256D01*
Y0410420D01*
X0425695Y0409961D01*
X0426614D01*
X0427073Y0410420D01*
X0427991Y0409961D02*
X0428910D01*
X0428450D01*
Y0412716D01*
X0427991Y0412256D01*
X0430287D02*
X0430746Y0412716D01*
X0431665D01*
X0432124Y0412256D01*
Y0410420D01*
X0431665Y0409961D01*
X0430746D01*
X0430287Y0410420D01*
Y0412256D01*
X0426207Y0443320D02*
X0425748Y0443779D01*
X0424829D01*
X0424370Y0443320D01*
Y0441483D01*
X0424829Y0441024D01*
X0425748D01*
X0426207Y0441483D01*
X0427125D02*
X0427584Y0441024D01*
X0428503D01*
X0428962Y0441483D01*
Y0443320D01*
X0428503Y0443779D01*
X0427584D01*
X0427125Y0443320D01*
Y0442860D01*
X0427584Y0442401D01*
X0428962D01*
X0419909Y0428569D02*
X0419450Y0428110D01*
Y0427191D01*
X0419909Y0426732D01*
X0421746D01*
X0422205Y0427191D01*
Y0428110D01*
X0421746Y0428569D01*
X0419909Y0429487D02*
X0419450Y0429947D01*
Y0430865D01*
X0419909Y0431324D01*
X0420368D01*
X0420827Y0430865D01*
X0421286Y0431324D01*
X0421746D01*
X0422205Y0430865D01*
Y0429947D01*
X0421746Y0429487D01*
X0421286D01*
X0420827Y0429947D01*
X0420368Y0429487D01*
X0419909D01*
X0420827Y0429947D02*
Y0430865D01*
X0409356Y0448162D02*
X0408897Y0448621D01*
X0407979D01*
X0407520Y0448162D01*
Y0446325D01*
X0407979Y0445866D01*
X0408897D01*
X0409356Y0446325D01*
X0410275Y0448621D02*
X0412111D01*
Y0448162D01*
X0410275Y0446325D01*
Y0445866D01*
X0370774Y0447689D02*
X0370315Y0448149D01*
X0369396D01*
X0368937Y0447689D01*
Y0445853D01*
X0369396Y0445394D01*
X0370315D01*
X0370774Y0445853D01*
X0373529Y0448149D02*
X0372610Y0447689D01*
X0371692Y0446771D01*
Y0445853D01*
X0372151Y0445394D01*
X0373070D01*
X0373529Y0445853D01*
Y0446312D01*
X0373070Y0446771D01*
X0371692D01*
X0407506Y0396508D02*
X0407047Y0396968D01*
X0406129D01*
X0405669Y0396508D01*
Y0394672D01*
X0406129Y0394213D01*
X0407047D01*
X0407506Y0394672D01*
X0410261Y0396968D02*
X0408424D01*
Y0395590D01*
X0409343Y0396049D01*
X0409802D01*
X0410261Y0395590D01*
Y0394672D01*
X0409802Y0394213D01*
X0408883D01*
X0408424Y0394672D01*
X0400971Y0419107D02*
X0400511Y0419566D01*
X0399593D01*
X0399134Y0419107D01*
Y0417270D01*
X0399593Y0416811D01*
X0400511D01*
X0400971Y0417270D01*
X0403266Y0416811D02*
Y0419566D01*
X0401889Y0418188D01*
X0403726D01*
X0337782Y0400327D02*
X0337322Y0400786D01*
X0336404D01*
X0335945Y0400327D01*
Y0398491D01*
X0336404Y0398031D01*
X0337322D01*
X0337782Y0398491D01*
X0338700Y0400327D02*
X0339159Y0400786D01*
X0340077D01*
X0340537Y0400327D01*
Y0399868D01*
X0340077Y0399409D01*
X0339618D01*
X0340077D01*
X0340537Y0398950D01*
Y0398491D01*
X0340077Y0398031D01*
X0339159D01*
X0338700Y0398491D01*
X0316994Y0410485D02*
X0316535Y0410944D01*
X0315617D01*
X0315158Y0410485D01*
Y0408648D01*
X0315617Y0408189D01*
X0316535D01*
X0316994Y0408648D01*
X0319749Y0408189D02*
X0317913D01*
X0319749Y0410026D01*
Y0410485D01*
X0319290Y0410944D01*
X0318372D01*
X0317913Y0410485D01*
X0313583Y0393740D02*
X0310828D01*
Y0395118D01*
X0311287Y0395577D01*
X0312205D01*
X0312664Y0395118D01*
Y0393740D01*
Y0394658D02*
X0313583Y0395577D01*
Y0396495D02*
Y0397413D01*
Y0396954D01*
X0310828D01*
X0311287Y0396495D01*
X0313583Y0398791D02*
Y0399709D01*
Y0399250D01*
X0310828D01*
X0311287Y0398791D01*
X0366299Y0410079D02*
Y0412834D01*
X0367677D01*
X0368136Y0412375D01*
Y0411456D01*
X0367677Y0410997D01*
X0366299D01*
X0367217D02*
X0368136Y0410079D01*
X0370891D02*
X0369054D01*
X0370891Y0411915D01*
Y0412375D01*
X0370432Y0412834D01*
X0369513D01*
X0369054Y0412375D01*
X0486102Y0440433D02*
Y0443188D01*
X0487480D01*
X0487939Y0442729D01*
Y0441811D01*
X0487480Y0441351D01*
X0486102D01*
X0487021D02*
X0487939Y0440433D01*
X0488857D02*
X0489776D01*
X0489317D01*
Y0443188D01*
X0488857Y0442729D01*
X0492990Y0440433D02*
X0491153D01*
X0492990Y0442270D01*
Y0442729D01*
X0492531Y0443188D01*
X0491612D01*
X0491153Y0442729D01*
X0486024Y0445866D02*
Y0448621D01*
X0487401D01*
X0487860Y0448162D01*
Y0447244D01*
X0487401Y0446784D01*
X0486024D01*
X0486942D02*
X0487860Y0445866D01*
X0488779D02*
X0489697D01*
X0489238D01*
Y0448621D01*
X0488779Y0448162D01*
X0491075D02*
X0491534Y0448621D01*
X0492452D01*
X0492911Y0448162D01*
Y0447703D01*
X0492452Y0447244D01*
X0491993D01*
X0492452D01*
X0492911Y0446784D01*
Y0446325D01*
X0492452Y0445866D01*
X0491534D01*
X0491075Y0446325D01*
M02*
