G04 Layer_Color=16711935*
%FSAX25Y25*%
%MOIN*%
G70*
G01*
G75*
%ADD48C,0.00394*%
%ADD51C,0.00591*%
D48*
X0416013Y0405350D02*
G03*
X0416013Y0405350I-0001192J0000000D01*
G01*
X0402215Y0411713D02*
G03*
X0402215Y0411713I-0000806J0000000D01*
G01*
X0508583Y0383661D02*
Y0395590D01*
X0508543Y0383622D02*
X0508583Y0383661D01*
X0508543Y0383622D02*
X0521890D01*
Y0395512D01*
X0521811Y0395590D02*
X0521890Y0395512D01*
X0508583Y0395590D02*
X0521811D01*
X0283425Y0384882D02*
X0283622Y0385079D01*
Y0448465D01*
X0224291D02*
X0283622D01*
X0224291Y0384882D02*
X0283425D01*
X0224291D02*
Y0448465D01*
X0601772Y0386339D02*
Y0449921D01*
X0542638D02*
X0601772D01*
X0542441Y0386339D02*
X0601772D01*
X0542441D02*
Y0449724D01*
X0542638Y0449921D01*
X0350315Y0392402D02*
X0372362D01*
X0350315D02*
Y0405000D01*
X0372362D01*
Y0392402D02*
Y0405000D01*
X0362677Y0422559D02*
Y0460354D01*
X0330787Y0422559D02*
X0362677D01*
X0330787D02*
Y0445787D01*
Y0460354D02*
X0362677D01*
X0330787Y0445787D02*
Y0460354D01*
X0440827Y0392945D02*
Y0438945D01*
Y0392945D02*
X0490327D01*
Y0438945D01*
X0440827D02*
X0490327D01*
X0495866Y0427402D02*
X0508071D01*
X0495866D02*
Y0433701D01*
X0508071D01*
Y0427402D02*
Y0433701D01*
X0456772Y0442126D02*
X0468976D01*
X0456772D02*
Y0448425D01*
X0468976D01*
Y0442126D02*
Y0448425D01*
X0322716Y0398051D02*
X0332953D01*
X0322716Y0410689D02*
X0332953D01*
X0322716Y0398051D02*
Y0410689D01*
X0332953Y0398051D02*
Y0410689D01*
X0412921Y0386350D02*
X0436421D01*
X0412921Y0407350D02*
X0436421D01*
Y0386350D02*
Y0407350D01*
X0412921Y0386350D02*
Y0407350D01*
X0369606Y0423268D02*
X0381811D01*
Y0416968D02*
Y0423268D01*
X0369606Y0416968D02*
X0381811D01*
X0369606D02*
Y0423268D01*
X0475551Y0382874D02*
X0487756D01*
X0475551D02*
Y0389173D01*
X0487756D01*
Y0382874D02*
Y0389173D01*
X0349449Y0383622D02*
X0361653D01*
X0349449D02*
Y0389921D01*
X0361653D01*
Y0383622D02*
Y0389921D01*
X0331221Y0382716D02*
X0343425D01*
X0331221D02*
Y0389016D01*
X0343425D01*
Y0382716D02*
Y0389016D01*
X0331102Y0396850D02*
X0343307D01*
Y0390551D02*
Y0396850D01*
X0331102Y0390551D02*
X0343307D01*
X0331102D02*
Y0396850D01*
X0420669Y0412638D02*
Y0424843D01*
X0414370Y0412638D02*
X0420669D01*
X0414370D02*
Y0424843D01*
X0420669D01*
X0313779Y0435354D02*
X0325984D01*
Y0429055D02*
Y0435354D01*
X0313779Y0429055D02*
X0325984D01*
X0313779D02*
Y0435354D01*
X0403209Y0383713D02*
Y0392929D01*
Y0405496D02*
Y0414213D01*
X0379709Y0383713D02*
Y0414213D01*
X0403209Y0392929D02*
Y0405496D01*
X0379709Y0383713D02*
X0403209D01*
X0379709Y0414213D02*
X0403209D01*
X0395984Y0416890D02*
Y0423189D01*
X0383386D02*
X0395984D01*
X0383386Y0416890D02*
Y0423189D01*
Y0416890D02*
X0395984D01*
X0363937Y0383740D02*
Y0390039D01*
Y0383740D02*
X0376535D01*
Y0390039D01*
X0363937D02*
X0376535D01*
X0507756Y0417047D02*
Y0423347D01*
X0495157D02*
X0507756D01*
X0495157Y0417047D02*
Y0423347D01*
Y0417047D02*
X0507756D01*
X0423740Y0414567D02*
Y0420866D01*
Y0414567D02*
X0436339D01*
Y0420866D01*
X0423740D02*
X0436339D01*
X0436260Y0433189D02*
Y0439488D01*
X0423661D02*
X0436260D01*
X0423661Y0433189D02*
Y0439488D01*
Y0433189D02*
X0436260D01*
X0436378Y0423819D02*
Y0430118D01*
X0423779D02*
X0436378D01*
X0423779Y0423819D02*
Y0430118D01*
Y0423819D02*
X0436378D01*
X0406929Y0431417D02*
X0413228D01*
Y0444016D01*
X0406929D02*
X0413228D01*
X0406929Y0431417D02*
Y0444016D01*
X0368268Y0431339D02*
X0374567D01*
Y0443937D01*
X0368268D02*
X0374567D01*
X0368268Y0431339D02*
Y0443937D01*
X0404921Y0398701D02*
X0411221D01*
Y0411299D01*
X0404921D02*
X0411221D01*
X0404921Y0398701D02*
Y0411299D01*
X0404764Y0415197D02*
X0411063D01*
Y0427795D01*
X0404764D02*
X0411063D01*
X0404764Y0415197D02*
Y0427795D01*
X0335079Y0414409D02*
X0341378D01*
X0335079Y0401811D02*
Y0414409D01*
Y0401811D02*
X0341378D01*
Y0414409D01*
X0314449Y0394409D02*
X0320748D01*
Y0407008D01*
X0314449D02*
X0320748D01*
X0314449Y0394409D02*
Y0407008D01*
X0312165Y0392559D02*
X0324370D01*
Y0386260D02*
Y0392559D01*
X0312165Y0386260D02*
X0324370D01*
X0312165D02*
Y0392559D01*
X0352520Y0416299D02*
X0364724D01*
Y0410000D02*
Y0416299D01*
X0352520Y0410000D02*
X0364724D01*
X0352520D02*
Y0416299D01*
X0495354Y0448858D02*
X0507559D01*
Y0442559D02*
Y0448858D01*
X0495354Y0442559D02*
X0507559D01*
X0495354D02*
Y0448858D01*
X0494842Y0441378D02*
X0507047D01*
Y0435079D02*
Y0441378D01*
X0494842Y0435079D02*
X0507047D01*
X0494842D02*
Y0441378D01*
X0378293Y0429069D02*
X0403793D01*
X0378293Y0446068D02*
X0403793D01*
Y0429069D02*
Y0446068D01*
X0378293Y0429069D02*
Y0446068D01*
X0499488Y0399410D02*
Y0404134D01*
X0511693D01*
X0499488Y0399410D02*
X0511693D01*
Y0404134D01*
X0493622Y0398819D02*
X0498347D01*
X0493622D02*
Y0411024D01*
X0498347Y0398819D02*
Y0411024D01*
X0493622D02*
X0498347D01*
X0512756Y0411221D02*
X0517480D01*
Y0399016D02*
Y0411221D01*
X0512756Y0399016D02*
Y0411221D01*
Y0399016D02*
X0517480D01*
X0309764Y0412244D02*
X0329803D01*
X0309764Y0427126D02*
X0329803D01*
Y0412244D02*
Y0427126D01*
X0309764Y0412244D02*
Y0427126D01*
D51*
X0512270Y0389658D02*
X0511811Y0390117D01*
X0510892D01*
X0510433Y0389658D01*
Y0387821D01*
X0510892Y0387362D01*
X0511811D01*
X0512270Y0387821D01*
X0514566Y0390117D02*
X0513647D01*
X0513188Y0389658D01*
Y0387821D01*
X0513647Y0387362D01*
X0514566D01*
X0515025Y0387821D01*
Y0389658D01*
X0514566Y0390117D01*
X0515943Y0387362D02*
Y0390117D01*
X0517780Y0387362D01*
Y0390117D01*
X0518698Y0387362D02*
X0519617D01*
X0519157D01*
Y0390117D01*
X0518698Y0389658D01*
X0250394Y0414252D02*
Y0417007D01*
X0251771D01*
X0252230Y0416548D01*
Y0415629D01*
X0251771Y0415170D01*
X0250394D01*
X0254985Y0417007D02*
X0253149D01*
Y0415629D01*
X0254067Y0416089D01*
X0254526D01*
X0254985Y0415629D01*
Y0414711D01*
X0254526Y0414252D01*
X0253608D01*
X0253149Y0414711D01*
X0570039Y0416968D02*
Y0419724D01*
X0571417D01*
X0571876Y0419264D01*
Y0418346D01*
X0571417Y0417887D01*
X0570039D01*
X0574631Y0419724D02*
X0573713Y0419264D01*
X0572794Y0418346D01*
Y0417428D01*
X0573254Y0416968D01*
X0574172D01*
X0574631Y0417428D01*
Y0417887D01*
X0574172Y0418346D01*
X0572794D01*
X0359750Y0399579D02*
X0359291Y0400038D01*
X0358373D01*
X0357913Y0399579D01*
Y0399120D01*
X0358373Y0398661D01*
X0359291D01*
X0359750Y0398202D01*
Y0397743D01*
X0359291Y0397284D01*
X0358373D01*
X0357913Y0397743D01*
X0360668Y0400038D02*
Y0397284D01*
X0361587Y0398202D01*
X0362505Y0397284D01*
Y0400038D01*
X0363423Y0397284D02*
X0364342D01*
X0363883D01*
Y0400038D01*
X0363423Y0399579D01*
X0344724Y0441810D02*
Y0439055D01*
X0346102D01*
X0346561Y0439514D01*
Y0439973D01*
X0346102Y0440433D01*
X0344724D01*
X0346102D01*
X0346561Y0440892D01*
Y0441351D01*
X0346102Y0441810D01*
X0344724D01*
X0347479Y0439055D02*
X0348398D01*
X0347939D01*
Y0441810D01*
X0347479Y0441351D01*
X0458465Y0415079D02*
Y0417834D01*
X0459383Y0416915D01*
X0460301Y0417834D01*
Y0415079D01*
X0462597Y0417834D02*
X0461679D01*
X0461220Y0417375D01*
Y0415538D01*
X0461679Y0415079D01*
X0462597D01*
X0463056Y0415538D01*
Y0417375D01*
X0462597Y0417834D01*
X0463975D02*
Y0415079D01*
X0465352D01*
X0465811Y0415538D01*
Y0417375D01*
X0465352Y0417834D01*
X0463975D01*
X0466730Y0415079D02*
X0467648D01*
X0467189D01*
Y0417834D01*
X0466730Y0417375D01*
X0497165Y0428740D02*
Y0431495D01*
X0498543D01*
X0499002Y0431036D01*
Y0430118D01*
X0498543Y0429659D01*
X0497165D01*
X0498084D02*
X0499002Y0428740D01*
X0499920D02*
X0500839D01*
X0500380D01*
Y0431495D01*
X0499920Y0431036D01*
X0502216D02*
X0502675Y0431495D01*
X0503594D01*
X0504053Y0431036D01*
Y0429199D01*
X0503594Y0428740D01*
X0502675D01*
X0502216Y0429199D01*
Y0431036D01*
X0458150Y0443268D02*
Y0446023D01*
X0459527D01*
X0459986Y0445564D01*
Y0444645D01*
X0459527Y0444186D01*
X0458150D01*
X0459068D02*
X0459986Y0443268D01*
X0460905Y0443727D02*
X0461364Y0443268D01*
X0462282D01*
X0462741Y0443727D01*
Y0445564D01*
X0462282Y0446023D01*
X0461364D01*
X0460905Y0445564D01*
Y0445104D01*
X0461364Y0444645D01*
X0462741D01*
X0324410Y0402913D02*
Y0400617D01*
X0324869Y0400157D01*
X0325787D01*
X0326246Y0400617D01*
Y0402913D01*
X0329001Y0400157D02*
X0327165D01*
X0329001Y0401994D01*
Y0402453D01*
X0328542Y0402913D01*
X0327624D01*
X0327165Y0402453D01*
X0422323Y0399015D02*
Y0396719D01*
X0422782Y0396260D01*
X0423700D01*
X0424159Y0396719D01*
Y0399015D01*
X0425078Y0396260D02*
X0425996D01*
X0425537D01*
Y0399015D01*
X0425078Y0398556D01*
X0370787Y0418543D02*
Y0421298D01*
X0372165D01*
X0372624Y0420839D01*
Y0419921D01*
X0372165Y0419462D01*
X0370787D01*
X0371706D02*
X0372624Y0418543D01*
X0373542Y0420839D02*
X0374002Y0421298D01*
X0374920D01*
X0375379Y0420839D01*
Y0420380D01*
X0374920Y0419921D01*
X0375379Y0419462D01*
Y0419002D01*
X0374920Y0418543D01*
X0374002D01*
X0373542Y0419002D01*
Y0419462D01*
X0374002Y0419921D01*
X0373542Y0420380D01*
Y0420839D01*
X0374002Y0419921D02*
X0374920D01*
X0477205Y0384213D02*
Y0386968D01*
X0478582D01*
X0479041Y0386508D01*
Y0385590D01*
X0478582Y0385131D01*
X0477205D01*
X0478123D02*
X0479041Y0384213D01*
X0479960Y0386968D02*
X0481796D01*
Y0386508D01*
X0479960Y0384672D01*
Y0384213D01*
X0351614Y0384724D02*
Y0387479D01*
X0352992D01*
X0353451Y0387020D01*
Y0386102D01*
X0352992Y0385643D01*
X0351614D01*
X0352533D02*
X0353451Y0384724D01*
X0356206Y0387479D02*
X0355288Y0387020D01*
X0354369Y0386102D01*
Y0385184D01*
X0354828Y0384724D01*
X0355747D01*
X0356206Y0385184D01*
Y0385643D01*
X0355747Y0386102D01*
X0354369D01*
X0333307Y0383583D02*
Y0386338D01*
X0334685D01*
X0335144Y0385878D01*
Y0384960D01*
X0334685Y0384501D01*
X0333307D01*
X0334225D02*
X0335144Y0383583D01*
X0337899Y0386338D02*
X0336062D01*
Y0384960D01*
X0336981Y0385419D01*
X0337440D01*
X0337899Y0384960D01*
Y0384042D01*
X0337440Y0383583D01*
X0336521D01*
X0336062Y0384042D01*
X0332283Y0392126D02*
Y0394881D01*
X0333661D01*
X0334120Y0394422D01*
Y0393503D01*
X0333661Y0393044D01*
X0332283D01*
X0333202D02*
X0334120Y0392126D01*
X0336416D02*
Y0394881D01*
X0335038Y0393503D01*
X0336875D01*
X0419331Y0416181D02*
X0416576D01*
Y0417559D01*
X0417035Y0418018D01*
X0417953D01*
X0418412Y0417559D01*
Y0416181D01*
Y0417099D02*
X0419331Y0418018D01*
X0417035Y0418936D02*
X0416576Y0419395D01*
Y0420314D01*
X0417035Y0420773D01*
X0417494D01*
X0417953Y0420314D01*
Y0419854D01*
Y0420314D01*
X0418412Y0420773D01*
X0418871D01*
X0419331Y0420314D01*
Y0419395D01*
X0418871Y0418936D01*
X0314961Y0430630D02*
Y0433385D01*
X0316338D01*
X0316797Y0432926D01*
Y0432007D01*
X0316338Y0431548D01*
X0314961D01*
X0315879D02*
X0316797Y0430630D01*
X0317716D02*
X0318634D01*
X0318175D01*
Y0433385D01*
X0317716Y0432926D01*
X0389868Y0401023D02*
X0388950D01*
X0389409D01*
Y0398727D01*
X0388950Y0398268D01*
X0388491D01*
X0388032Y0398727D01*
X0390787Y0398268D02*
X0391705D01*
X0391246D01*
Y0401023D01*
X0390787Y0400564D01*
X0386679Y0420249D02*
X0386220Y0420708D01*
X0385302D01*
X0384842Y0420249D01*
Y0418412D01*
X0385302Y0417953D01*
X0386220D01*
X0386679Y0418412D01*
X0387597Y0417953D02*
X0388516D01*
X0388057D01*
Y0420708D01*
X0387597Y0420249D01*
X0389893Y0420708D02*
X0391730D01*
Y0420249D01*
X0389893Y0418412D01*
Y0417953D01*
X0367349Y0387611D02*
X0366889Y0388070D01*
X0365971D01*
X0365512Y0387611D01*
Y0385774D01*
X0365971Y0385315D01*
X0366889D01*
X0367349Y0385774D01*
X0368267Y0385315D02*
X0369185D01*
X0368726D01*
Y0388070D01*
X0368267Y0387611D01*
X0372399Y0388070D02*
X0370563D01*
Y0386693D01*
X0371481Y0387152D01*
X0371940D01*
X0372399Y0386693D01*
Y0385774D01*
X0371940Y0385315D01*
X0371022D01*
X0370563Y0385774D01*
X0498648Y0420642D02*
X0498188Y0421102D01*
X0497270D01*
X0496811Y0420642D01*
Y0418806D01*
X0497270Y0418347D01*
X0498188D01*
X0498648Y0418806D01*
X0499566Y0418347D02*
X0500484D01*
X0500025D01*
Y0421102D01*
X0499566Y0420642D01*
X0501862Y0418347D02*
X0502780D01*
X0502321D01*
Y0421102D01*
X0501862Y0420642D01*
X0427152Y0418438D02*
X0426692Y0418897D01*
X0425774D01*
X0425315Y0418438D01*
Y0416601D01*
X0425774Y0416142D01*
X0426692D01*
X0427152Y0416601D01*
X0428070Y0416142D02*
X0428988D01*
X0428529D01*
Y0418897D01*
X0428070Y0418438D01*
X0430366D02*
X0430825Y0418897D01*
X0431743D01*
X0432202Y0418438D01*
Y0416601D01*
X0431743Y0416142D01*
X0430825D01*
X0430366Y0416601D01*
Y0418438D01*
X0427703Y0436627D02*
X0427244Y0437086D01*
X0426325D01*
X0425866Y0436627D01*
Y0434790D01*
X0426325Y0434331D01*
X0427244D01*
X0427703Y0434790D01*
X0428621D02*
X0429080Y0434331D01*
X0429999D01*
X0430458Y0434790D01*
Y0436627D01*
X0429999Y0437086D01*
X0429080D01*
X0428621Y0436627D01*
Y0436167D01*
X0429080Y0435708D01*
X0430458D01*
X0428805Y0427335D02*
X0428346Y0427794D01*
X0427428D01*
X0426968Y0427335D01*
Y0425498D01*
X0427428Y0425039D01*
X0428346D01*
X0428805Y0425498D01*
X0429724Y0427335D02*
X0430183Y0427794D01*
X0431101D01*
X0431560Y0427335D01*
Y0426876D01*
X0431101Y0426417D01*
X0431560Y0425958D01*
Y0425498D01*
X0431101Y0425039D01*
X0430183D01*
X0429724Y0425498D01*
Y0425958D01*
X0430183Y0426417D01*
X0429724Y0426876D01*
Y0427335D01*
X0430183Y0426417D02*
X0431101D01*
X0409358Y0434829D02*
X0408898Y0434370D01*
Y0433451D01*
X0409358Y0432992D01*
X0411194D01*
X0411654Y0433451D01*
Y0434370D01*
X0411194Y0434829D01*
X0408898Y0435747D02*
Y0437584D01*
X0409358D01*
X0411194Y0435747D01*
X0411654D01*
X0370696Y0434750D02*
X0370237Y0434291D01*
Y0433373D01*
X0370696Y0432913D01*
X0372533D01*
X0372992Y0433373D01*
Y0434291D01*
X0372533Y0434750D01*
X0370237Y0437505D02*
X0370696Y0436587D01*
X0371615Y0435668D01*
X0372533D01*
X0372992Y0436128D01*
Y0437046D01*
X0372533Y0437505D01*
X0372074D01*
X0371615Y0437046D01*
Y0435668D01*
X0407350Y0402112D02*
X0406891Y0401653D01*
Y0400735D01*
X0407350Y0400276D01*
X0409187D01*
X0409646Y0400735D01*
Y0401653D01*
X0409187Y0402112D01*
X0406891Y0404867D02*
Y0403031D01*
X0408268D01*
X0407809Y0403949D01*
Y0404408D01*
X0408268Y0404867D01*
X0409187D01*
X0409646Y0404408D01*
Y0403490D01*
X0409187Y0403031D01*
X0407192Y0418608D02*
X0406733Y0418149D01*
Y0417231D01*
X0407192Y0416772D01*
X0409029D01*
X0409488Y0417231D01*
Y0418149D01*
X0409029Y0418608D01*
X0409488Y0420904D02*
X0406733D01*
X0408111Y0419527D01*
Y0421363D01*
X0337114Y0406522D02*
X0336654Y0406063D01*
Y0405144D01*
X0337114Y0404685D01*
X0338950D01*
X0339409Y0405144D01*
Y0406063D01*
X0338950Y0406522D01*
X0337114Y0407440D02*
X0336654Y0407899D01*
Y0408818D01*
X0337114Y0409277D01*
X0337573D01*
X0338032Y0408818D01*
Y0408358D01*
Y0408818D01*
X0338491Y0409277D01*
X0338950D01*
X0339409Y0408818D01*
Y0407899D01*
X0338950Y0407440D01*
X0316877Y0397821D02*
X0316418Y0397362D01*
Y0396443D01*
X0316877Y0395984D01*
X0318714D01*
X0319173Y0396443D01*
Y0397362D01*
X0318714Y0397821D01*
X0319173Y0400576D02*
Y0398739D01*
X0317337Y0400576D01*
X0316877D01*
X0316418Y0400117D01*
Y0399198D01*
X0316877Y0398739D01*
X0313347Y0387835D02*
Y0390590D01*
X0314724D01*
X0315183Y0390130D01*
Y0389212D01*
X0314724Y0388753D01*
X0313347D01*
X0314265D02*
X0315183Y0387835D01*
X0316102D02*
X0317020D01*
X0316561D01*
Y0390590D01*
X0316102Y0390130D01*
X0318397Y0387835D02*
X0319316D01*
X0318857D01*
Y0390590D01*
X0318397Y0390130D01*
X0353701Y0411575D02*
Y0414330D01*
X0355078D01*
X0355538Y0413871D01*
Y0412952D01*
X0355078Y0412493D01*
X0353701D01*
X0354619D02*
X0355538Y0411575D01*
X0358293D02*
X0356456D01*
X0358293Y0413412D01*
Y0413871D01*
X0357833Y0414330D01*
X0356915D01*
X0356456Y0413871D01*
X0496535Y0444134D02*
Y0446889D01*
X0497913D01*
X0498372Y0446430D01*
Y0445511D01*
X0497913Y0445052D01*
X0496535D01*
X0497454D02*
X0498372Y0444134D01*
X0499290D02*
X0500209D01*
X0499750D01*
Y0446889D01*
X0499290Y0446430D01*
X0501586D02*
X0502045Y0446889D01*
X0502964D01*
X0503423Y0446430D01*
Y0445970D01*
X0502964Y0445511D01*
X0502505D01*
X0502964D01*
X0503423Y0445052D01*
Y0444593D01*
X0502964Y0444134D01*
X0502045D01*
X0501586Y0444593D01*
X0496024Y0436654D02*
Y0439409D01*
X0497401D01*
X0497860Y0438949D01*
Y0438031D01*
X0497401Y0437572D01*
X0496024D01*
X0496942D02*
X0497860Y0436654D01*
X0498779D02*
X0499697D01*
X0499238D01*
Y0439409D01*
X0498779Y0438949D01*
X0502911Y0436654D02*
X0501075D01*
X0502911Y0438490D01*
Y0438949D01*
X0502452Y0439409D01*
X0501534D01*
X0501075Y0438949D01*
X0383493Y0439324D02*
X0385330Y0436568D01*
Y0439324D02*
X0383493Y0436568D01*
X0386248D02*
X0387166D01*
X0386707D01*
Y0439324D01*
X0386248Y0438864D01*
X0502112Y0402886D02*
X0501653Y0403346D01*
X0500735D01*
X0500276Y0402886D01*
Y0401050D01*
X0500735Y0400591D01*
X0501653D01*
X0502112Y0401050D01*
X0503031Y0400591D02*
X0503949D01*
X0503490D01*
Y0403346D01*
X0503031Y0402886D01*
X0507163Y0400591D02*
X0505327D01*
X0507163Y0402427D01*
Y0402886D01*
X0506704Y0403346D01*
X0505786D01*
X0505327Y0402886D01*
X0497099Y0408399D02*
X0497558Y0408859D01*
Y0409777D01*
X0497099Y0410236D01*
X0495262D01*
X0494803Y0409777D01*
Y0408859D01*
X0495262Y0408399D01*
X0494803Y0407481D02*
Y0406563D01*
Y0407022D01*
X0497558D01*
X0497099Y0407481D01*
Y0405185D02*
X0497558Y0404726D01*
Y0403808D01*
X0497099Y0403349D01*
X0496640D01*
X0496181Y0403808D01*
Y0404267D01*
Y0403808D01*
X0495721Y0403349D01*
X0495262D01*
X0494803Y0403808D01*
Y0404726D01*
X0495262Y0405185D01*
X0516233Y0408596D02*
X0516692Y0409056D01*
Y0409974D01*
X0516233Y0410433D01*
X0514396D01*
X0513937Y0409974D01*
Y0409056D01*
X0514396Y0408596D01*
X0513937Y0407678D02*
Y0406760D01*
Y0407219D01*
X0516692D01*
X0516233Y0407678D01*
X0513937Y0404005D02*
X0516692D01*
X0515314Y0405382D01*
Y0403546D01*
X0312953Y0417204D02*
Y0414449D01*
X0314789D01*
X0315708D02*
X0316626D01*
X0316167D01*
Y0417204D01*
X0315708Y0416745D01*
M02*
