G04 Layer_Color=65535*
%FSAX25Y25*%
%MOIN*%
G70*
G01*
G75*
%ADD36C,0.01000*%
%ADD54C,0.00394*%
%ADD55C,0.00984*%
%ADD56C,0.00787*%
%ADD57C,0.00591*%
D36*
X0371299Y0428937D02*
G03*
X0371299Y0428937I-0000394J0000000D01*
G01*
X0439370Y0437795D02*
G03*
X0439370Y0437795I-0000905J0000000D01*
G01*
X0414181Y0450380D02*
G03*
X0414180Y0450394I0000111J0000014D01*
G01*
D54*
X0318789Y0402907D02*
G03*
X0318789Y0402907I-0000197J0000000D01*
G01*
X0312047Y0429764D02*
G03*
X0312047Y0429764I-0000197J0000000D01*
G01*
X0418307Y0440473D02*
G03*
X0418307Y0440473I-0000197J0000000D01*
G01*
X0389088Y0439282D02*
G03*
X0389088Y0439282I-0000197J0000000D01*
G01*
X0376654Y0416693D02*
Y0417677D01*
D55*
X0415904Y0414080D02*
G03*
X0415748Y0414055I-0000156J0000467D01*
G01*
D56*
X0438386Y0442283D02*
Y0448583D01*
Y0442283D02*
X0450591D01*
Y0448583D01*
X0438386D02*
X0450591D01*
X0322165Y0387913D02*
Y0394213D01*
X0309961D02*
X0322165D01*
X0309961Y0387913D02*
Y0394213D01*
Y0387913D02*
X0322165D01*
X0468543Y0443307D02*
Y0449606D01*
X0456339D02*
X0468543D01*
X0456339Y0443307D02*
Y0449606D01*
Y0443307D02*
X0468543D01*
X0489252Y0381339D02*
Y0387638D01*
X0477047D02*
X0489252D01*
X0477047Y0381339D02*
Y0387638D01*
Y0381339D02*
X0489252D01*
X0361535Y0383504D02*
Y0389803D01*
X0349331D02*
X0361535D01*
X0349331Y0383504D02*
Y0389803D01*
Y0383504D02*
X0361535D01*
X0342087Y0389173D02*
Y0395472D01*
X0329882D02*
X0342087D01*
X0329882Y0389173D02*
Y0395472D01*
Y0389173D02*
X0342087D01*
X0329803Y0396614D02*
Y0402913D01*
Y0396614D02*
X0342008D01*
Y0402913D01*
X0329803D02*
X0342008D01*
X0406220Y0416929D02*
Y0423228D01*
Y0416929D02*
X0418425D01*
Y0423228D01*
X0406220D02*
X0418425D01*
X0343661Y0408071D02*
Y0414370D01*
Y0408071D02*
X0355866D01*
Y0414370D01*
X0343661D02*
X0355866D01*
X0495709Y0433150D02*
Y0439449D01*
Y0433150D02*
X0507913D01*
Y0439449D01*
X0495709D02*
X0507913D01*
X0496063Y0439488D02*
Y0445787D01*
Y0439488D02*
X0508268D01*
Y0445787D01*
X0496063D02*
X0508268D01*
X0403661Y0415472D02*
Y0421772D01*
X0391457D02*
X0403661D01*
X0391457Y0415472D02*
Y0421772D01*
Y0415472D02*
X0403661D01*
X0382008Y0430118D02*
X0388307D01*
X0382008Y0417913D02*
Y0430118D01*
Y0417913D02*
X0388307D01*
Y0430118D01*
X0374567Y0417756D02*
X0380866D01*
Y0429961D01*
X0374567D02*
X0380866D01*
X0374567Y0417756D02*
Y0429961D01*
X0421535Y0438701D02*
Y0445000D01*
Y0438701D02*
X0433740D01*
Y0445000D01*
X0421535D02*
X0433740D01*
X0341181Y0443032D02*
X0347087D01*
X0350236D02*
X0356535D01*
X0352992Y0440276D02*
Y0446181D01*
X0341968Y0418228D02*
X0346535D01*
X0349843Y0418150D02*
X0354449D01*
X0352087Y0416181D02*
Y0420276D01*
X0365591Y0421378D02*
Y0461535D01*
X0330945D02*
X0365591D01*
X0330945Y0421378D02*
Y0461535D01*
Y0421378D02*
X0365591D01*
X0418032Y0415827D02*
Y0416024D01*
Y0415827D02*
X0419331Y0414528D01*
X0422756Y0411102D01*
X0424882D01*
X0366811Y0417402D02*
Y0430000D01*
X0373110D01*
Y0417402D02*
Y0430000D01*
X0366811Y0417402D02*
X0373110D01*
X0317792Y0402107D02*
X0327992D01*
Y0414607D01*
X0317792D02*
X0327992D01*
X0317792Y0402107D02*
Y0414607D01*
X0356890Y0392756D02*
X0369488D01*
Y0414803D01*
X0356890D02*
X0369488D01*
X0356890Y0392756D02*
Y0414803D01*
X0602244Y0447835D02*
Y0449961D01*
X0542480D02*
X0602244D01*
X0542480Y0386378D02*
Y0449961D01*
X0602244Y0386378D02*
Y0447835D01*
X0542480Y0386378D02*
X0602244D01*
X0223819Y0384842D02*
Y0386968D01*
Y0384842D02*
X0283583D01*
Y0448425D01*
X0223819Y0386968D02*
Y0448425D01*
X0283583D01*
X0525906Y0377205D02*
Y0457205D01*
Y0377205D02*
X0535906D01*
Y0457205D01*
X0525906D02*
X0535906D01*
X0292795Y0376181D02*
Y0456181D01*
Y0376181D02*
X0302795D01*
Y0456181D01*
X0292795D02*
X0302795D01*
X0330000Y0371500D02*
Y0381500D01*
Y0371500D02*
X0482500D01*
X0490000D01*
Y0381500D01*
X0330000D02*
X0490000D01*
Y0451102D02*
Y0461102D01*
X0370000Y0451102D02*
X0490000D01*
X0370000D02*
Y0461102D01*
X0377500D01*
X0490000D01*
X0310276Y0430945D02*
X0328780D01*
Y0416772D02*
Y0430945D01*
X0310276Y0416772D02*
X0328780D01*
X0310276D02*
Y0430945D01*
X0508504Y0395721D02*
X0512441D01*
X0508504D02*
X0508504Y0394539D01*
X0521890D02*
Y0395720D01*
X0517953D02*
X0521890D01*
X0508504Y0383516D02*
Y0384303D01*
Y0383516D02*
X0521890D01*
Y0384303D01*
X0370827Y0394685D02*
Y0407283D01*
X0377126D01*
Y0394685D02*
Y0407283D01*
X0370827Y0394685D02*
X0377126D01*
X0349449Y0390354D02*
Y0402953D01*
X0355748D01*
Y0390354D02*
Y0402953D01*
X0349449Y0390354D02*
X0355748D01*
X0517205Y0402722D02*
Y0407837D01*
X0512480Y0399055D02*
X0517205D01*
X0512480D02*
Y0411260D01*
X0517205D01*
Y0407837D02*
Y0411260D01*
Y0399055D02*
Y0402722D01*
X0498347Y0402486D02*
Y0407600D01*
X0493622Y0398819D02*
X0498347D01*
X0493622D02*
Y0411024D01*
X0498347D01*
Y0407600D02*
Y0411024D01*
Y0398819D02*
Y0402486D01*
X0502911Y0404134D02*
X0508026D01*
X0511693Y0399410D02*
Y0404134D01*
X0499488Y0399410D02*
X0511693D01*
X0499488D02*
Y0404134D01*
X0502911D01*
X0508026D02*
X0511693D01*
X0495472Y0417677D02*
X0508071D01*
X0495472D02*
Y0423976D01*
X0508071D01*
Y0417677D02*
Y0423976D01*
X0421654Y0423228D02*
X0434252D01*
Y0416929D02*
Y0423228D01*
X0421654Y0416929D02*
X0434252D01*
X0421654D02*
Y0423228D01*
X0420472Y0431102D02*
X0433071D01*
X0420472D02*
Y0437402D01*
X0433071D01*
Y0431102D02*
Y0437402D01*
X0420472Y0424016D02*
X0433071D01*
X0420472D02*
Y0430315D01*
X0433071D01*
Y0424016D02*
Y0430315D01*
X0378346Y0408268D02*
X0390945D01*
Y0401968D02*
Y0408268D01*
X0378346Y0401968D02*
X0390945D01*
X0378346D02*
Y0408268D01*
X0378307Y0415512D02*
X0390905D01*
Y0409213D02*
Y0415512D01*
X0378307Y0409213D02*
X0390905D01*
X0378307D02*
Y0415512D01*
X0377953Y0389764D02*
Y0402362D01*
X0384252D01*
Y0389764D02*
Y0402362D01*
X0377953Y0389764D02*
X0384252D01*
X0369961Y0448858D02*
X0382559D01*
Y0442559D02*
Y0448858D01*
X0369961Y0442559D02*
X0382559D01*
X0369961D02*
Y0448858D01*
X0337913Y0405039D02*
Y0417638D01*
X0331614Y0405039D02*
X0337913D01*
X0331614D02*
Y0417638D01*
X0337913D01*
X0309449Y0398465D02*
Y0411063D01*
X0315748D01*
Y0398465D02*
Y0411063D01*
X0309449Y0398465D02*
X0315748D01*
X0405118Y0442047D02*
X0419291D01*
X0405118Y0423543D02*
Y0442047D01*
Y0423543D02*
X0419291D01*
Y0442047D01*
X0388091Y0440082D02*
X0400591D01*
Y0429882D02*
Y0440082D01*
X0388091Y0429882D02*
X0400591D01*
X0388091D02*
Y0440082D01*
X0384409Y0441378D02*
Y0447677D01*
Y0441378D02*
X0397008D01*
Y0447677D01*
X0384409D02*
X0397008D01*
X0391693Y0422717D02*
Y0429016D01*
Y0422717D02*
X0404291D01*
Y0429016D01*
X0391693D02*
X0404291D01*
X0417854Y0411890D02*
X0420276D01*
Y0409469D02*
Y0411890D01*
Y0387087D02*
Y0389508D01*
X0417854Y0387087D02*
X0420276D01*
X0395472D02*
X0397894D01*
X0395472D02*
Y0389508D01*
Y0411890D02*
X0397894D01*
X0395472Y0409469D02*
Y0411890D01*
X0370118Y0441535D02*
X0370905D01*
X0370118Y0430905D02*
Y0441535D01*
X0370905D02*
X0379567D01*
X0370118Y0430905D02*
X0379567D01*
Y0441535D01*
X0440866Y0393110D02*
X0441024Y0392953D01*
X0440866Y0393110D02*
Y0397087D01*
X0441024Y0392953D02*
X0446535D01*
X0484961Y0393032D02*
X0490276D01*
X0490354Y0393110D01*
Y0397047D01*
X0490394Y0435354D02*
Y0438937D01*
X0490276Y0439055D02*
X0490394Y0438937D01*
X0484882Y0439055D02*
X0490276D01*
X0440866Y0439094D02*
X0446535D01*
X0440827Y0439055D02*
X0440866Y0439094D01*
X0440827Y0435354D02*
Y0439055D01*
X0415551Y0445079D02*
Y0451221D01*
Y0445079D02*
X0429685D01*
Y0451221D01*
X0415551D02*
X0429685D01*
D57*
X0438189Y0417717D02*
X0435434D01*
Y0419094D01*
X0435893Y0419553D01*
X0436811D01*
X0437271Y0419094D01*
Y0417717D01*
X0435893Y0420472D02*
X0435434Y0420931D01*
Y0421849D01*
X0435893Y0422308D01*
X0436352D01*
X0436811Y0421849D01*
X0437271Y0422308D01*
X0437730D01*
X0438189Y0421849D01*
Y0420931D01*
X0437730Y0420472D01*
X0437271D01*
X0436811Y0420931D01*
X0436352Y0420472D01*
X0435893D01*
X0436811Y0420931D02*
Y0421849D01*
X0388976Y0394488D02*
Y0397243D01*
X0390354D01*
X0390813Y0396784D01*
Y0395866D01*
X0390354Y0395407D01*
X0388976D01*
X0391731Y0397243D02*
X0393568D01*
Y0396784D01*
X0391731Y0394947D01*
Y0394488D01*
X0437087Y0440394D02*
X0434725D01*
Y0441574D01*
X0435119Y0441968D01*
X0435906D01*
X0436300Y0441574D01*
Y0440394D01*
Y0441181D02*
X0437087Y0441968D01*
X0435119Y0442755D02*
X0434725Y0443149D01*
Y0443936D01*
X0435119Y0444329D01*
X0435512D01*
X0435906Y0443936D01*
X0436300Y0444329D01*
X0436693D01*
X0437087Y0443936D01*
Y0443149D01*
X0436693Y0442755D01*
X0436300D01*
X0435906Y0443149D01*
X0435512Y0442755D01*
X0435119D01*
X0435906Y0443149D02*
Y0443936D01*
X0384410Y0434606D02*
X0386706D01*
X0387165Y0435066D01*
Y0435984D01*
X0386706Y0436443D01*
X0384410D01*
X0384870Y0437361D02*
X0384410Y0437820D01*
Y0438739D01*
X0384870Y0439198D01*
X0385329D01*
X0385788Y0438739D01*
Y0438280D01*
Y0438739D01*
X0386247Y0439198D01*
X0386706D01*
X0387165Y0438739D01*
Y0437820D01*
X0386706Y0437361D01*
X0371024Y0413386D02*
Y0415747D01*
X0372204D01*
X0372598Y0415354D01*
Y0414567D01*
X0372204Y0414173D01*
X0371024D01*
X0371811D02*
X0372598Y0413386D01*
X0373385D02*
X0374172D01*
X0373779D01*
Y0415747D01*
X0373385Y0415354D01*
X0375353Y0413779D02*
X0375746Y0413386D01*
X0376534D01*
X0376927Y0413779D01*
Y0415354D01*
X0376534Y0415747D01*
X0375746D01*
X0375353Y0415354D01*
Y0414960D01*
X0375746Y0414567D01*
X0376927D01*
X0381063Y0431142D02*
Y0433503D01*
X0382244D01*
X0382637Y0433110D01*
Y0432323D01*
X0382244Y0431929D01*
X0381063D01*
X0381850D02*
X0382637Y0431142D01*
X0383424D02*
X0384212D01*
X0383818D01*
Y0433503D01*
X0383424Y0433110D01*
X0385392D02*
X0385786Y0433503D01*
X0386573D01*
X0386967Y0433110D01*
Y0432716D01*
X0386573Y0432323D01*
X0386967Y0431929D01*
Y0431535D01*
X0386573Y0431142D01*
X0385786D01*
X0385392Y0431535D01*
Y0431929D01*
X0385786Y0432323D01*
X0385392Y0432716D01*
Y0433110D01*
X0385786Y0432323D02*
X0386573D01*
X0423898Y0403543D02*
Y0406298D01*
X0425275D01*
X0425734Y0405839D01*
Y0404921D01*
X0425275Y0404462D01*
X0423898D01*
X0424816D02*
X0425734Y0403543D01*
X0426653D02*
X0427571D01*
X0427112D01*
Y0406298D01*
X0426653Y0405839D01*
X0428948Y0406298D02*
X0430785D01*
Y0405839D01*
X0428948Y0404003D01*
Y0403543D01*
X0401497Y0431811D02*
X0404252D01*
Y0433648D01*
Y0436403D02*
Y0434566D01*
X0402415Y0436403D01*
X0401956D01*
X0401497Y0435944D01*
Y0435025D01*
X0401956Y0434566D01*
X0425813Y0410406D02*
X0425354Y0410865D01*
X0424436D01*
X0423976Y0410406D01*
Y0408569D01*
X0424436Y0408110D01*
X0425354D01*
X0425813Y0408569D01*
X0426731Y0408110D02*
X0427650D01*
X0427191D01*
Y0410865D01*
X0426731Y0410406D01*
X0429027D02*
X0429486Y0410865D01*
X0430405D01*
X0430864Y0410406D01*
Y0409947D01*
X0430405Y0409488D01*
X0430864Y0409029D01*
Y0408569D01*
X0430405Y0408110D01*
X0429486D01*
X0429027Y0408569D01*
Y0409029D01*
X0429486Y0409488D01*
X0429027Y0409947D01*
Y0410406D01*
X0429486Y0409488D02*
X0430405D01*
X0385826Y0450354D02*
X0385433Y0450747D01*
X0384646D01*
X0384252Y0450354D01*
Y0448779D01*
X0384646Y0448386D01*
X0385433D01*
X0385826Y0448779D01*
X0386613Y0448386D02*
X0387401D01*
X0387007D01*
Y0450747D01*
X0386613Y0450354D01*
X0390156Y0450747D02*
X0389368Y0450354D01*
X0388581Y0449567D01*
Y0448779D01*
X0388975Y0448386D01*
X0389762D01*
X0390156Y0448779D01*
Y0449173D01*
X0389762Y0449567D01*
X0388581D01*
X0499606Y0446850D02*
Y0449605D01*
X0500984D01*
X0501443Y0449146D01*
Y0448228D01*
X0500984Y0447769D01*
X0499606D01*
X0500525D02*
X0501443Y0446850D01*
X0502361D02*
X0503280D01*
X0502820D01*
Y0449605D01*
X0502361Y0449146D01*
X0504657D02*
X0505116Y0449605D01*
X0506035D01*
X0506494Y0449146D01*
Y0448687D01*
X0506035Y0448228D01*
X0505576D01*
X0506035D01*
X0506494Y0447769D01*
Y0447310D01*
X0506035Y0446850D01*
X0505116D01*
X0504657Y0447310D01*
X0496457Y0429134D02*
Y0431889D01*
X0497834D01*
X0498293Y0431430D01*
Y0430511D01*
X0497834Y0430052D01*
X0496457D01*
X0497375D02*
X0498293Y0429134D01*
X0499212D02*
X0500130D01*
X0499671D01*
Y0431889D01*
X0499212Y0431430D01*
X0503344Y0429134D02*
X0501508D01*
X0503344Y0430970D01*
Y0431430D01*
X0502885Y0431889D01*
X0501967D01*
X0501508Y0431430D01*
X0349882Y0404291D02*
Y0407046D01*
X0351259D01*
X0351719Y0406587D01*
Y0405669D01*
X0351259Y0405210D01*
X0349882D01*
X0350800D02*
X0351719Y0404291D01*
X0354474D02*
X0352637D01*
X0354474Y0406128D01*
Y0406587D01*
X0354014Y0407046D01*
X0353096D01*
X0352637Y0406587D01*
X0313254Y0414737D02*
X0312795Y0415196D01*
X0311877D01*
X0311417Y0414737D01*
Y0412900D01*
X0311877Y0412441D01*
X0312795D01*
X0313254Y0412900D01*
X0316009Y0412441D02*
X0314172D01*
X0316009Y0414278D01*
Y0414737D01*
X0315550Y0415196D01*
X0314632D01*
X0314172Y0414737D01*
X0339397Y0408018D02*
X0338938Y0407559D01*
Y0406640D01*
X0339397Y0406181D01*
X0341234D01*
X0341693Y0406640D01*
Y0407559D01*
X0341234Y0408018D01*
X0339397Y0408936D02*
X0338938Y0409395D01*
Y0410314D01*
X0339397Y0410773D01*
X0339856D01*
X0340315Y0410314D01*
Y0409855D01*
Y0410314D01*
X0340775Y0410773D01*
X0341234D01*
X0341693Y0410314D01*
Y0409395D01*
X0341234Y0408936D01*
X0366838Y0445419D02*
X0366379Y0444960D01*
Y0444042D01*
X0366838Y0443583D01*
X0368675D01*
X0369134Y0444042D01*
Y0444960D01*
X0368675Y0445419D01*
X0369134Y0447715D02*
X0366379D01*
X0367756Y0446338D01*
Y0448174D01*
X0385499Y0391207D02*
X0385040Y0390748D01*
Y0389829D01*
X0385499Y0389370D01*
X0387336D01*
X0387795Y0389829D01*
Y0390748D01*
X0387336Y0391207D01*
X0385040Y0393962D02*
Y0392125D01*
X0386418D01*
X0385959Y0393043D01*
Y0393503D01*
X0386418Y0393962D01*
X0387336D01*
X0387795Y0393503D01*
Y0392584D01*
X0387336Y0392125D01*
X0392153Y0410695D02*
X0391694Y0410236D01*
Y0409317D01*
X0392153Y0408858D01*
X0393990D01*
X0394449Y0409317D01*
Y0410236D01*
X0393990Y0410695D01*
X0391694Y0413450D02*
X0392153Y0412532D01*
X0393071Y0411613D01*
X0393990D01*
X0394449Y0412073D01*
Y0412991D01*
X0393990Y0413450D01*
X0393531D01*
X0393071Y0412991D01*
Y0411613D01*
X0392192Y0404396D02*
X0391733Y0403937D01*
Y0403018D01*
X0392192Y0402559D01*
X0394029D01*
X0394488Y0403018D01*
Y0403937D01*
X0394029Y0404396D01*
X0391733Y0405314D02*
Y0407151D01*
X0392192D01*
X0394029Y0405314D01*
X0394488D01*
X0435695Y0430642D02*
X0435236Y0431102D01*
X0434317D01*
X0433858Y0430642D01*
Y0428806D01*
X0434317Y0428346D01*
X0435236D01*
X0435695Y0428806D01*
X0436613Y0430642D02*
X0437073Y0431102D01*
X0437991D01*
X0438450Y0430642D01*
Y0430183D01*
X0437991Y0429724D01*
X0438450Y0429265D01*
Y0428806D01*
X0437991Y0428346D01*
X0437073D01*
X0436613Y0428806D01*
Y0429265D01*
X0437073Y0429724D01*
X0436613Y0430183D01*
Y0430642D01*
X0437073Y0429724D02*
X0437991D01*
X0434318Y0434514D02*
X0433859Y0434055D01*
Y0433136D01*
X0434318Y0432677D01*
X0436155D01*
X0436614Y0433136D01*
Y0434055D01*
X0436155Y0434514D01*
Y0435432D02*
X0436614Y0435891D01*
Y0436810D01*
X0436155Y0437269D01*
X0434318D01*
X0433859Y0436810D01*
Y0435891D01*
X0434318Y0435432D01*
X0434777D01*
X0435237Y0435891D01*
Y0437269D01*
X0423884Y0415682D02*
X0423425Y0416141D01*
X0422506D01*
X0422047Y0415682D01*
Y0413845D01*
X0422506Y0413386D01*
X0423425D01*
X0423884Y0413845D01*
X0424802Y0413386D02*
X0425721D01*
X0425261D01*
Y0416141D01*
X0424802Y0415682D01*
X0427098D02*
X0427557Y0416141D01*
X0428476D01*
X0428935Y0415682D01*
Y0413845D01*
X0428476Y0413386D01*
X0427557D01*
X0427098Y0413845D01*
Y0415682D01*
X0511627Y0422140D02*
X0512086Y0422599D01*
Y0423517D01*
X0511627Y0423976D01*
X0509790D01*
X0509331Y0423517D01*
Y0422599D01*
X0509790Y0422140D01*
X0509331Y0421221D02*
Y0420303D01*
Y0420762D01*
X0512086D01*
X0511627Y0421221D01*
X0509331Y0418926D02*
Y0418007D01*
Y0418466D01*
X0512086D01*
X0511627Y0418926D01*
X0503411Y0407808D02*
X0502952Y0408267D01*
X0502034D01*
X0501575Y0407808D01*
Y0405971D01*
X0502034Y0405512D01*
X0502952D01*
X0503411Y0405971D01*
X0504330Y0405512D02*
X0505248D01*
X0504789D01*
Y0408267D01*
X0504330Y0407808D01*
X0508462Y0405512D02*
X0506626D01*
X0508462Y0407348D01*
Y0407808D01*
X0508003Y0408267D01*
X0507085D01*
X0506626Y0407808D01*
X0495538Y0416075D02*
X0495078Y0416535D01*
X0494160D01*
X0493701Y0416075D01*
Y0414239D01*
X0494160Y0413779D01*
X0495078D01*
X0495538Y0414239D01*
X0496456Y0413779D02*
X0497374D01*
X0496915D01*
Y0416535D01*
X0496456Y0416075D01*
X0498752D02*
X0499211Y0416535D01*
X0500129D01*
X0500588Y0416075D01*
Y0415616D01*
X0500129Y0415157D01*
X0499670D01*
X0500129D01*
X0500588Y0414698D01*
Y0414239D01*
X0500129Y0413779D01*
X0499211D01*
X0498752Y0414239D01*
X0517191Y0414619D02*
X0516732Y0415078D01*
X0515813D01*
X0515354Y0414619D01*
Y0412782D01*
X0515813Y0412323D01*
X0516732D01*
X0517191Y0412782D01*
X0518109Y0412323D02*
X0519028D01*
X0518569D01*
Y0415078D01*
X0518109Y0414619D01*
X0521783Y0412323D02*
Y0415078D01*
X0520405Y0413700D01*
X0522242D01*
X0346011Y0395971D02*
X0345552Y0395511D01*
Y0394593D01*
X0346011Y0394134D01*
X0347848D01*
X0348307Y0394593D01*
Y0395511D01*
X0347848Y0395971D01*
X0348307Y0396889D02*
Y0397807D01*
Y0397348D01*
X0345552D01*
X0346011Y0396889D01*
X0345552Y0401021D02*
Y0399185D01*
X0346930D01*
X0346470Y0400103D01*
Y0400562D01*
X0346930Y0401021D01*
X0347848D01*
X0348307Y0400562D01*
Y0399644D01*
X0347848Y0399185D01*
X0372309Y0392847D02*
X0371850Y0393306D01*
X0370932D01*
X0370472Y0392847D01*
Y0391010D01*
X0370932Y0390551D01*
X0371850D01*
X0372309Y0391010D01*
X0373228Y0390551D02*
X0374146D01*
X0373687D01*
Y0393306D01*
X0373228Y0392847D01*
X0375523Y0393306D02*
X0377360D01*
Y0392847D01*
X0375523Y0391010D01*
Y0390551D01*
X0517191Y0381823D02*
X0516732Y0382283D01*
X0515813D01*
X0515354Y0381823D01*
Y0379987D01*
X0515813Y0379528D01*
X0516732D01*
X0517191Y0379987D01*
X0519487Y0382283D02*
X0518569D01*
X0518109Y0381823D01*
Y0379987D01*
X0518569Y0379528D01*
X0519487D01*
X0519946Y0379987D01*
Y0381823D01*
X0519487Y0382283D01*
X0520864Y0379528D02*
Y0382283D01*
X0522701Y0379528D01*
Y0382283D01*
X0523619Y0379528D02*
X0524538D01*
X0524079D01*
Y0382283D01*
X0523619Y0381823D01*
X0326181Y0435747D02*
Y0432992D01*
X0328018D01*
X0328936D02*
X0329854D01*
X0329395D01*
Y0435747D01*
X0328936Y0435288D01*
X0368898Y0454724D02*
X0366143D01*
Y0456102D01*
X0366602Y0456561D01*
X0367520D01*
X0367979Y0456102D01*
Y0454724D01*
X0368898Y0457479D02*
Y0458398D01*
Y0457939D01*
X0366143D01*
X0366602Y0457479D01*
X0328504Y0373465D02*
X0325749D01*
Y0374842D01*
X0326208Y0375301D01*
X0327126D01*
X0327586Y0374842D01*
Y0373465D01*
X0328504Y0378056D02*
Y0376220D01*
X0326667Y0378056D01*
X0326208D01*
X0325749Y0377597D01*
Y0376679D01*
X0326208Y0376220D01*
X0286221Y0454921D02*
Y0457676D01*
X0287598D01*
X0288057Y0457217D01*
Y0456299D01*
X0287598Y0455840D01*
X0286221D01*
X0288976Y0457217D02*
X0289435Y0457676D01*
X0290353D01*
X0290812Y0457217D01*
Y0456758D01*
X0290353Y0456299D01*
X0289894D01*
X0290353D01*
X0290812Y0455840D01*
Y0455380D01*
X0290353Y0454921D01*
X0289435D01*
X0288976Y0455380D01*
X0537008Y0376378D02*
Y0379133D01*
X0538385D01*
X0538844Y0378674D01*
Y0377755D01*
X0538385Y0377296D01*
X0537008D01*
X0541140Y0376378D02*
Y0379133D01*
X0539763Y0377755D01*
X0541600D01*
X0278228Y0380157D02*
Y0382912D01*
X0279606D01*
X0280065Y0382453D01*
Y0381535D01*
X0279606Y0381076D01*
X0278228D01*
X0282820Y0382912D02*
X0280983D01*
Y0381535D01*
X0281902Y0381994D01*
X0282361D01*
X0282820Y0381535D01*
Y0380617D01*
X0282361Y0380157D01*
X0281442D01*
X0280983Y0380617D01*
X0595197Y0382362D02*
Y0385117D01*
X0596574D01*
X0597034Y0384658D01*
Y0383740D01*
X0596574Y0383280D01*
X0595197D01*
X0599789Y0385117D02*
X0598870Y0384658D01*
X0597952Y0383740D01*
Y0382821D01*
X0598411Y0382362D01*
X0599329D01*
X0599789Y0382821D01*
Y0383280D01*
X0599329Y0383740D01*
X0597952D01*
X0433032Y0402874D02*
Y0405629D01*
X0434409D01*
X0434868Y0405170D01*
Y0404251D01*
X0434409Y0403792D01*
X0433032D01*
X0433950D02*
X0434868Y0402874D01*
X0435786Y0405170D02*
X0436246Y0405629D01*
X0437164D01*
X0437623Y0405170D01*
Y0404711D01*
X0437164Y0404251D01*
X0436705D01*
X0437164D01*
X0437623Y0403792D01*
Y0403333D01*
X0437164Y0402874D01*
X0436246D01*
X0435786Y0403333D01*
X0328661Y0396496D02*
X0325906D01*
Y0397874D01*
X0326366Y0398333D01*
X0327284D01*
X0327743Y0397874D01*
Y0396496D01*
Y0397414D02*
X0328661Y0398333D01*
Y0400629D02*
X0325906D01*
X0327284Y0399251D01*
Y0401088D01*
X0336929Y0385433D02*
Y0388188D01*
X0338307D01*
X0338766Y0387729D01*
Y0386811D01*
X0338307Y0386351D01*
X0336929D01*
X0337847D02*
X0338766Y0385433D01*
X0341521Y0388188D02*
X0339684D01*
Y0386811D01*
X0340602Y0387270D01*
X0341062D01*
X0341521Y0386811D01*
Y0385892D01*
X0341062Y0385433D01*
X0340143D01*
X0339684Y0385892D01*
X0346850Y0384213D02*
X0344095D01*
Y0385590D01*
X0344554Y0386049D01*
X0345473D01*
X0345932Y0385590D01*
Y0384213D01*
Y0385131D02*
X0346850Y0386049D01*
X0344095Y0388804D02*
X0344554Y0387886D01*
X0345473Y0386968D01*
X0346391D01*
X0346850Y0387427D01*
Y0388345D01*
X0346391Y0388804D01*
X0345932D01*
X0345473Y0388345D01*
Y0386968D01*
X0480354Y0385157D02*
Y0387913D01*
X0481732D01*
X0482191Y0387453D01*
Y0386535D01*
X0481732Y0386076D01*
X0480354D01*
X0481273D02*
X0482191Y0385157D01*
X0483109Y0387913D02*
X0484946D01*
Y0387453D01*
X0483109Y0385617D01*
Y0385157D01*
X0358018Y0418044D02*
X0357559Y0418503D01*
X0356640D01*
X0356181Y0418044D01*
Y0417585D01*
X0356640Y0417126D01*
X0357559D01*
X0358018Y0416666D01*
Y0416207D01*
X0357559Y0415748D01*
X0356640D01*
X0356181Y0416207D01*
X0358936Y0418503D02*
Y0415748D01*
X0359855Y0416666D01*
X0360773Y0415748D01*
Y0418503D01*
X0361691Y0415748D02*
X0362610D01*
X0362150D01*
Y0418503D01*
X0361691Y0418044D01*
X0421890Y0389763D02*
Y0387467D01*
X0422349Y0387008D01*
X0423267D01*
X0423726Y0387467D01*
Y0389763D01*
X0424645Y0387008D02*
X0425563D01*
X0425104D01*
Y0389763D01*
X0424645Y0389304D01*
X0318504Y0401180D02*
Y0398884D01*
X0318963Y0398425D01*
X0319881D01*
X0320341Y0398884D01*
Y0401180D01*
X0323096Y0398425D02*
X0321259D01*
X0323096Y0400262D01*
Y0400721D01*
X0322637Y0401180D01*
X0321718D01*
X0321259Y0400721D01*
X0366300Y0438543D02*
X0369055Y0440380D01*
X0366300D02*
X0369055Y0438543D01*
Y0441298D02*
Y0442217D01*
Y0441757D01*
X0366300D01*
X0366759Y0441298D01*
X0472638Y0444803D02*
X0469883D01*
Y0446181D01*
X0470342Y0446640D01*
X0471260D01*
X0471720Y0446181D01*
Y0444803D01*
Y0445721D02*
X0472638Y0446640D01*
X0472179Y0447558D02*
X0472638Y0448017D01*
Y0448936D01*
X0472179Y0449395D01*
X0470342D01*
X0469883Y0448936D01*
Y0448017D01*
X0470342Y0447558D01*
X0470801D01*
X0471260Y0448017D01*
Y0449395D01*
X0308661Y0388189D02*
X0305906D01*
Y0389566D01*
X0306366Y0390026D01*
X0307284D01*
X0307743Y0389566D01*
Y0388189D01*
Y0389107D02*
X0308661Y0390026D01*
Y0390944D02*
Y0391862D01*
Y0391403D01*
X0305906D01*
X0306366Y0390944D01*
Y0393240D02*
X0305906Y0393699D01*
Y0394617D01*
X0306366Y0395076D01*
X0308202D01*
X0308661Y0394617D01*
Y0393699D01*
X0308202Y0393240D01*
X0306366D01*
X0325827Y0446810D02*
Y0444055D01*
X0327204D01*
X0327663Y0444514D01*
Y0444974D01*
X0327204Y0445433D01*
X0325827D01*
X0327204D01*
X0327663Y0445892D01*
Y0446351D01*
X0327204Y0446810D01*
X0325827D01*
X0328582Y0444055D02*
X0329500D01*
X0329041D01*
Y0446810D01*
X0328582Y0446351D01*
X0363688Y0419120D02*
X0363229Y0418661D01*
Y0417743D01*
X0363688Y0417283D01*
X0365525D01*
X0365984Y0417743D01*
Y0418661D01*
X0365525Y0419120D01*
X0365984Y0420039D02*
Y0420957D01*
Y0420498D01*
X0363229D01*
X0363688Y0420039D01*
X0454567Y0442953D02*
X0451812D01*
Y0444330D01*
X0452271Y0444789D01*
X0453189D01*
X0453649Y0444330D01*
Y0442953D01*
Y0443871D02*
X0454567Y0444789D01*
Y0445708D02*
Y0446626D01*
Y0446167D01*
X0451812D01*
X0452271Y0445708D01*
X0454567Y0449381D02*
X0451812D01*
X0453189Y0448004D01*
Y0449840D01*
X0431299Y0449802D02*
Y0447047D01*
X0432677D01*
X0433136Y0447506D01*
Y0449343D01*
X0432677Y0449802D01*
X0431299D01*
X0434054Y0447047D02*
X0434973D01*
X0434513D01*
Y0449802D01*
X0434054Y0449343D01*
X0482559Y0445983D02*
Y0443687D01*
X0483018Y0443228D01*
X0483937D01*
X0484396Y0443687D01*
Y0445983D01*
X0486692Y0443228D02*
Y0445983D01*
X0485314Y0444606D01*
X0487151D01*
M02*
