G04 Layer_Physical_Order=2*
G04 Layer_Color=16711680*
%FSAX25Y25*%
%MOIN*%
G70*
G01*
G75*
%ADD34R,0.05905X0.05905*%
%ADD36C,0.01000*%
%ADD37C,0.00800*%
%ADD38C,0.02000*%
%ADD40C,0.03000*%
%ADD41C,0.01200*%
%ADD42C,0.02500*%
%ADD44C,0.05905*%
%ADD45C,0.10000*%
%ADD46C,0.09000*%
%ADD47C,0.06496*%
%ADD48C,0.13110*%
%ADD49C,0.13504*%
%ADD50C,0.03819*%
%ADD51R,0.05905X0.05905*%
%ADD52C,0.01968*%
%ADD53C,0.03937*%
G36*
X0601286Y0372375D02*
X0488210D01*
X0488161Y0372875D01*
X0488226Y0372888D01*
X0488457Y0373043D01*
X0488612Y0373274D01*
X0488666Y0373547D01*
Y0379453D01*
X0488612Y0379726D01*
X0488457Y0379957D01*
X0488226Y0380112D01*
X0487953Y0380167D01*
X0486122D01*
Y0385717D01*
X0487354Y0386948D01*
X0490376D01*
X0490438Y0386856D01*
X0490995Y0386484D01*
X0491653Y0386353D01*
X0492310Y0386484D01*
X0492867Y0386856D01*
X0493239Y0387413D01*
X0493370Y0388070D01*
X0493275Y0388545D01*
X0493582Y0389045D01*
X0499185D01*
X0506891Y0381340D01*
X0507288Y0381074D01*
X0507756Y0380981D01*
X0527239D01*
Y0379252D01*
X0527293Y0378979D01*
X0527448Y0378747D01*
X0527680Y0378593D01*
X0527953Y0378538D01*
X0533858D01*
X0534131Y0378593D01*
X0534363Y0378747D01*
X0534518Y0378979D01*
X0534572Y0379252D01*
Y0385157D01*
X0534518Y0385431D01*
X0534363Y0385662D01*
X0534131Y0385817D01*
X0533858Y0385871D01*
X0527953D01*
X0527680Y0385817D01*
X0527448Y0385662D01*
X0527293Y0385431D01*
X0527239Y0385157D01*
Y0383428D01*
X0524513D01*
X0524321Y0383890D01*
X0529333Y0388902D01*
X0529952Y0388646D01*
X0530905Y0388520D01*
X0531859Y0388646D01*
X0532748Y0389014D01*
X0533511Y0389599D01*
X0534096Y0390363D01*
X0534464Y0391251D01*
X0534590Y0392205D01*
X0534464Y0393158D01*
X0534096Y0394047D01*
X0533511Y0394810D01*
X0532748Y0395395D01*
X0531859Y0395763D01*
X0530905Y0395889D01*
X0529952Y0395763D01*
X0529063Y0395395D01*
X0528300Y0394810D01*
X0527715Y0394047D01*
X0527347Y0393158D01*
X0527221Y0392205D01*
X0527347Y0391251D01*
X0527603Y0390633D01*
X0522099Y0385128D01*
X0508967D01*
X0501261Y0392834D01*
X0500865Y0393099D01*
X0500396Y0393192D01*
X0497960D01*
X0497692Y0393692D01*
X0497821Y0393885D01*
X0497972Y0394646D01*
Y0410554D01*
X0498158Y0410740D01*
X0498475Y0410803D01*
X0499120Y0411234D01*
X0499551Y0411879D01*
X0499703Y0412640D01*
X0499551Y0413401D01*
X0499120Y0414046D01*
X0498475Y0414477D01*
X0497715Y0414628D01*
X0497246D01*
X0496485Y0414477D01*
X0495840Y0414046D01*
X0494578Y0412784D01*
X0494147Y0412139D01*
X0493996Y0411378D01*
Y0395306D01*
X0493496Y0395154D01*
X0493340Y0395388D01*
X0492783Y0395760D01*
X0492126Y0395890D01*
X0491469Y0395760D01*
X0490912Y0395388D01*
X0490850Y0395295D01*
X0489362D01*
X0488129Y0396528D01*
Y0401496D01*
X0488044Y0401925D01*
X0487801Y0402289D01*
X0487801Y0402289D01*
X0485321Y0404769D01*
X0484957Y0405013D01*
X0484527Y0405098D01*
X0484527Y0405098D01*
X0481850D01*
X0481421Y0405013D01*
X0481057Y0404769D01*
X0481057Y0404769D01*
X0477921Y0401633D01*
X0470213D01*
X0470151Y0401726D01*
X0469594Y0402098D01*
X0468937Y0402229D01*
X0468280Y0402098D01*
X0467723Y0401726D01*
X0467350Y0401169D01*
X0467220Y0400512D01*
X0467350Y0399855D01*
X0467723Y0399297D01*
X0468280Y0398925D01*
X0468778Y0398826D01*
X0468728Y0398326D01*
X0457967D01*
X0457776Y0398788D01*
X0458076Y0399089D01*
X0458320Y0399453D01*
X0458405Y0399882D01*
X0458405Y0399882D01*
Y0402677D01*
X0458405Y0402677D01*
X0458320Y0403106D01*
X0458076Y0403470D01*
X0458076Y0403470D01*
X0456580Y0404966D01*
X0456217Y0405209D01*
X0455787Y0405295D01*
X0455787Y0405295D01*
X0452323D01*
X0451894Y0405209D01*
X0451530Y0404966D01*
X0451530Y0404966D01*
X0450667Y0404104D01*
X0450591Y0404119D01*
X0449933Y0403988D01*
X0449376Y0403616D01*
X0449004Y0403059D01*
X0448873Y0402402D01*
X0448966Y0401936D01*
X0448654Y0401437D01*
X0436055D01*
X0432486Y0405006D01*
X0432122Y0405249D01*
X0431693Y0405334D01*
X0431693Y0405334D01*
X0427827D01*
X0426144Y0407017D01*
X0426166Y0407126D01*
X0426035Y0407783D01*
X0425663Y0408340D01*
X0425106Y0408712D01*
X0424449Y0408843D01*
X0423792Y0408712D01*
X0423235Y0408340D01*
X0422862Y0407783D01*
X0422732Y0407126D01*
X0422752Y0407021D01*
X0422292Y0406775D01*
X0419783Y0409283D01*
Y0410062D01*
X0419876Y0410124D01*
X0420248Y0410681D01*
X0420379Y0411339D01*
X0420248Y0411996D01*
X0419876Y0412553D01*
X0419319Y0412925D01*
X0418661Y0413056D01*
X0418004Y0412925D01*
X0417447Y0412553D01*
X0417075Y0411996D01*
X0416944Y0411339D01*
X0417075Y0410681D01*
X0417447Y0410124D01*
X0417540Y0410062D01*
Y0408819D01*
X0417540Y0408819D01*
X0417625Y0408390D01*
X0417868Y0408026D01*
X0424445Y0401449D01*
X0424345Y0400944D01*
X0424476Y0400287D01*
X0424848Y0399730D01*
X0425317Y0399416D01*
X0425480Y0398872D01*
X0424392Y0397784D01*
X0423885Y0398122D01*
X0423228Y0398253D01*
X0422571Y0398122D01*
X0422014Y0397750D01*
X0421642Y0397193D01*
X0421511Y0396535D01*
X0421642Y0395878D01*
X0422014Y0395321D01*
X0422571Y0394949D01*
X0423228Y0394818D01*
X0423589Y0394890D01*
X0423836Y0394429D01*
X0419147Y0389740D01*
X0395895D01*
X0395704Y0390202D01*
X0397684Y0392183D01*
X0397684Y0392183D01*
X0397927Y0392547D01*
X0398013Y0392976D01*
X0398013Y0392976D01*
Y0404586D01*
X0400283Y0406856D01*
X0400526Y0407220D01*
X0400611Y0407649D01*
X0400611Y0407649D01*
Y0410915D01*
X0402944Y0413248D01*
X0405219D01*
X0405281Y0413155D01*
X0405838Y0412783D01*
X0406495Y0412652D01*
X0407152Y0412783D01*
X0407710Y0413155D01*
X0408082Y0413712D01*
X0408213Y0414369D01*
X0408082Y0415026D01*
X0408028Y0415106D01*
X0408296Y0415606D01*
X0410193D01*
X0410224Y0415450D01*
X0410597Y0414893D01*
X0411154Y0414521D01*
X0411811Y0414390D01*
X0412468Y0414521D01*
X0413012Y0414884D01*
X0420511D01*
X0428662Y0406733D01*
X0429059Y0406468D01*
X0429528Y0406375D01*
X0479469D01*
X0480012Y0406012D01*
X0480669Y0405881D01*
X0481326Y0406012D01*
X0481884Y0406384D01*
X0482256Y0406941D01*
X0482386Y0407598D01*
X0482256Y0408256D01*
X0481884Y0408813D01*
X0481326Y0409185D01*
X0480669Y0409316D01*
X0480012Y0409185D01*
X0479469Y0408822D01*
X0440603D01*
X0440412Y0409284D01*
X0442195Y0411067D01*
X0442492Y0410944D01*
X0443189Y0410852D01*
X0443886Y0410944D01*
X0444535Y0411212D01*
X0445092Y0411640D01*
X0445520Y0412197D01*
X0445789Y0412847D01*
X0445881Y0413543D01*
X0445789Y0414240D01*
X0445520Y0414889D01*
X0445092Y0415447D01*
X0444535Y0415874D01*
X0443886Y0416143D01*
X0443189Y0416235D01*
X0442492Y0416143D01*
X0441843Y0415874D01*
X0441422Y0415551D01*
X0441136Y0415360D01*
X0440893Y0414996D01*
X0440876Y0414913D01*
X0440858Y0414889D01*
X0440589Y0414240D01*
X0440497Y0413543D01*
X0440589Y0412847D01*
X0440652Y0412696D01*
X0438332Y0410376D01*
X0437450D01*
X0437137Y0410876D01*
X0437229Y0411339D01*
X0437098Y0411996D01*
X0436895Y0412300D01*
X0436966Y0412948D01*
X0437041Y0412998D01*
X0437413Y0413555D01*
X0437544Y0414213D01*
X0437413Y0414870D01*
X0437041Y0415427D01*
X0436484Y0415799D01*
X0435827Y0415930D01*
X0435717Y0415908D01*
X0435255Y0416370D01*
Y0419063D01*
X0435750Y0419557D01*
X0436155Y0419869D01*
X0436583Y0420426D01*
X0436852Y0421075D01*
X0436943Y0421772D01*
X0436852Y0422468D01*
X0436583Y0423117D01*
X0436155Y0423675D01*
X0435598Y0424103D01*
X0434949Y0424371D01*
X0434252Y0424463D01*
X0433555Y0424371D01*
X0432906Y0424103D01*
X0432349Y0423675D01*
X0431921Y0423117D01*
X0431652Y0422468D01*
X0431560Y0421772D01*
X0431652Y0421075D01*
X0431921Y0420426D01*
X0432349Y0419869D01*
X0432906Y0419441D01*
X0433012Y0419397D01*
Y0417706D01*
X0432512Y0417499D01*
X0428688Y0421323D01*
X0428781Y0421548D01*
X0428873Y0422244D01*
X0428781Y0422941D01*
X0428512Y0423590D01*
X0428084Y0424147D01*
X0427527Y0424575D01*
X0426878Y0424844D01*
X0426181Y0424936D01*
X0425485Y0424844D01*
X0424835Y0424575D01*
X0424278Y0424147D01*
X0423850Y0423590D01*
X0423581Y0422941D01*
X0423490Y0422244D01*
X0423581Y0421548D01*
X0423638Y0421412D01*
X0423214Y0421128D01*
X0420478Y0423864D01*
X0420114Y0424107D01*
X0419685Y0424192D01*
X0419685Y0424192D01*
X0414290D01*
X0413871Y0424692D01*
X0413912Y0425000D01*
X0413820Y0425697D01*
X0413551Y0426346D01*
X0413124Y0426903D01*
X0412566Y0427331D01*
X0411917Y0427600D01*
X0411221Y0427692D01*
X0410524Y0427600D01*
X0409875Y0427331D01*
X0409317Y0426903D01*
X0408889Y0426346D01*
X0408621Y0425697D01*
X0408529Y0425000D01*
X0408621Y0424303D01*
X0408889Y0423654D01*
X0409317Y0423097D01*
X0409875Y0422669D01*
X0410524Y0422400D01*
X0411221Y0422308D01*
X0411917Y0422400D01*
X0412141Y0422493D01*
X0412357Y0422278D01*
X0412357Y0422278D01*
X0412720Y0422035D01*
X0413150Y0421949D01*
X0418862D01*
X0418923Y0421858D01*
X0418655Y0421358D01*
X0402522D01*
X0402394Y0421555D01*
X0402304Y0421858D01*
X0402622Y0422335D01*
X0402753Y0422992D01*
X0402622Y0423649D01*
X0402250Y0424206D01*
X0401693Y0424579D01*
X0401035Y0424709D01*
X0400378Y0424579D01*
X0399835Y0424216D01*
X0391004D01*
X0390578Y0424500D01*
X0389921Y0424631D01*
X0389264Y0424500D01*
X0388707Y0424128D01*
X0388335Y0423571D01*
X0388204Y0422913D01*
X0388335Y0422256D01*
X0388601Y0421858D01*
X0388386Y0421358D01*
X0377543D01*
X0376782Y0421207D01*
X0376137Y0420776D01*
X0372371Y0417009D01*
X0372342Y0416966D01*
X0371893Y0416517D01*
X0371350Y0416681D01*
X0371286Y0417002D01*
X0371103Y0417276D01*
Y0418573D01*
X0384375Y0431845D01*
X0384751Y0432408D01*
X0384883Y0433071D01*
X0384751Y0433734D01*
X0384375Y0434297D01*
X0383813Y0434672D01*
X0383150Y0434804D01*
X0382486Y0434672D01*
X0381924Y0434297D01*
X0368144Y0420517D01*
X0367769Y0419955D01*
X0367637Y0419291D01*
Y0416653D01*
X0367769Y0415990D01*
X0368057Y0415559D01*
X0367907Y0415169D01*
X0367806Y0415059D01*
X0367162D01*
X0367106Y0415115D01*
Y0416102D01*
X0366955Y0416863D01*
X0366524Y0417508D01*
X0365879Y0417939D01*
X0365118Y0418091D01*
X0364357Y0417939D01*
X0363712Y0417508D01*
X0363281Y0416863D01*
X0363130Y0416102D01*
Y0414291D01*
X0363281Y0413530D01*
X0363712Y0412886D01*
X0364933Y0411665D01*
X0365571Y0411239D01*
Y0410354D01*
X0365722Y0409593D01*
X0366153Y0408949D01*
X0371468Y0403633D01*
X0372113Y0403202D01*
X0372874Y0403051D01*
X0373635Y0403202D01*
X0374280Y0403633D01*
X0374711Y0404279D01*
X0374862Y0405039D01*
X0374819Y0405255D01*
X0376771Y0407206D01*
X0377036Y0407603D01*
X0377101Y0407931D01*
X0377614Y0407999D01*
X0377669Y0407867D01*
X0378097Y0407309D01*
X0378654Y0406882D01*
X0379303Y0406613D01*
X0380000Y0406521D01*
X0380697Y0406613D01*
X0381346Y0406882D01*
X0381903Y0407309D01*
X0382331Y0407867D01*
X0382505Y0408287D01*
X0389542D01*
X0389749Y0407787D01*
X0389028Y0407066D01*
X0382835D01*
X0382835Y0407066D01*
X0382405Y0406981D01*
X0382042Y0406738D01*
X0382042Y0406738D01*
X0376372Y0401069D01*
X0376129Y0400705D01*
X0376044Y0400276D01*
X0376044Y0400276D01*
Y0400008D01*
X0375820Y0399915D01*
X0375262Y0399487D01*
X0374834Y0398930D01*
X0374566Y0398281D01*
X0374474Y0397584D01*
X0374566Y0396887D01*
X0374834Y0396238D01*
X0375262Y0395681D01*
X0375820Y0395253D01*
X0376469Y0394984D01*
X0377165Y0394893D01*
X0377862Y0394984D01*
X0378511Y0395253D01*
X0379069Y0395681D01*
X0379496Y0396238D01*
X0379765Y0396887D01*
X0379857Y0397584D01*
X0379765Y0398281D01*
X0379496Y0398930D01*
X0379069Y0399487D01*
X0378843Y0399660D01*
X0378794Y0400318D01*
X0382517Y0404041D01*
X0382978Y0403795D01*
X0382928Y0403543D01*
X0383058Y0402885D01*
X0383431Y0402328D01*
X0383756Y0402111D01*
X0383701Y0401546D01*
X0383694Y0401544D01*
X0383136Y0401116D01*
X0382708Y0400558D01*
X0382440Y0399909D01*
X0382348Y0399213D01*
X0382440Y0398516D01*
X0382708Y0397867D01*
X0383136Y0397309D01*
X0383694Y0396882D01*
X0384343Y0396613D01*
X0385039Y0396521D01*
X0385736Y0396613D01*
X0386385Y0396882D01*
X0386489Y0396961D01*
X0386989Y0396715D01*
Y0391175D01*
X0386527Y0390984D01*
X0383857Y0393653D01*
X0383493Y0393896D01*
X0383064Y0393981D01*
X0383064Y0393981D01*
X0378805D01*
X0378805Y0393981D01*
X0378376Y0393896D01*
X0378012Y0393653D01*
X0375093Y0390734D01*
X0373118D01*
X0373068Y0391234D01*
X0373530Y0391326D01*
X0374088Y0391698D01*
X0374460Y0392255D01*
X0374590Y0392913D01*
X0374460Y0393570D01*
X0374088Y0394127D01*
X0373905Y0394249D01*
X0373666Y0394606D01*
X0373666Y0394606D01*
X0371480Y0396793D01*
Y0399834D01*
X0371480Y0399834D01*
X0371394Y0400263D01*
X0371151Y0400627D01*
X0371151Y0400627D01*
X0361968Y0409810D01*
Y0423655D01*
X0369262Y0430948D01*
X0369262Y0430948D01*
X0369505Y0431312D01*
X0369531Y0431443D01*
X0369683Y0431544D01*
X0370055Y0432101D01*
X0370186Y0432759D01*
X0370055Y0433416D01*
X0369683Y0433973D01*
X0369342Y0434200D01*
X0369184Y0434770D01*
X0369315Y0435427D01*
X0369184Y0436084D01*
X0368812Y0436641D01*
X0368255Y0437014D01*
X0367598Y0437144D01*
X0366940Y0437014D01*
X0366383Y0436641D01*
X0366011Y0436084D01*
X0365880Y0435427D01*
X0365902Y0435318D01*
X0365591Y0435007D01*
X0365348Y0434643D01*
X0365263Y0434214D01*
X0365263Y0434214D01*
Y0432242D01*
X0358554Y0425534D01*
X0358311Y0425170D01*
X0358225Y0424741D01*
X0358225Y0424741D01*
Y0408724D01*
X0358225Y0408724D01*
X0358311Y0408295D01*
X0358554Y0407931D01*
X0367737Y0398748D01*
Y0393937D01*
X0367737Y0393937D01*
X0367822Y0393508D01*
X0368065Y0393144D01*
X0368515Y0392694D01*
X0368610Y0392217D01*
X0368983Y0391660D01*
X0369540Y0391287D01*
X0369808Y0391234D01*
X0369759Y0390734D01*
X0368933D01*
X0368909Y0390854D01*
X0368537Y0391411D01*
X0367980Y0391783D01*
X0367323Y0391914D01*
X0366666Y0391783D01*
X0366109Y0391411D01*
X0365824Y0390986D01*
X0365263Y0390840D01*
X0363269Y0392834D01*
X0362872Y0393099D01*
X0362404Y0393192D01*
X0300856D01*
X0300400Y0393786D01*
X0299637Y0394372D01*
X0298749Y0394740D01*
X0297795Y0394865D01*
X0296842Y0394740D01*
X0296223Y0394484D01*
X0292269Y0398438D01*
X0292476Y0398938D01*
X0294912D01*
X0295190Y0398576D01*
X0295953Y0397990D01*
X0296842Y0397622D01*
X0297795Y0397497D01*
X0298749Y0397622D01*
X0299637Y0397990D01*
X0300400Y0398576D01*
X0300986Y0399339D01*
X0301354Y0400227D01*
X0301480Y0401181D01*
X0301354Y0402135D01*
X0300986Y0403023D01*
X0300400Y0403786D01*
X0299637Y0404372D01*
X0298749Y0404740D01*
X0297795Y0404865D01*
X0296842Y0404740D01*
X0295953Y0404372D01*
X0295190Y0403786D01*
X0294912Y0403424D01*
X0293055D01*
X0280353Y0416126D01*
Y0422831D01*
X0283381D01*
X0284240Y0423002D01*
X0284967Y0423488D01*
X0290417Y0428938D01*
X0294912D01*
X0295190Y0428576D01*
X0295953Y0427990D01*
X0296842Y0427622D01*
X0297795Y0427497D01*
X0298749Y0427622D01*
X0299637Y0427990D01*
X0300400Y0428576D01*
X0300986Y0429339D01*
X0301354Y0430228D01*
X0301381Y0430434D01*
X0303211D01*
X0303376Y0429934D01*
X0298248Y0424806D01*
X0297795Y0424865D01*
X0296842Y0424740D01*
X0295953Y0424372D01*
X0295190Y0423786D01*
X0294605Y0423023D01*
X0294236Y0422135D01*
X0294111Y0421181D01*
X0294236Y0420227D01*
X0294605Y0419339D01*
X0295190Y0418576D01*
X0295953Y0417990D01*
X0296842Y0417622D01*
X0297795Y0417497D01*
X0298749Y0417622D01*
X0298897Y0417684D01*
X0299182Y0417261D01*
X0296600Y0414640D01*
X0295990Y0414387D01*
X0290917Y0419460D01*
X0290189Y0419946D01*
X0289331Y0420117D01*
X0288472Y0419946D01*
X0287745Y0419460D01*
X0287692Y0419381D01*
X0287192Y0419532D01*
Y0420271D01*
X0287413Y0420603D01*
X0287544Y0421260D01*
X0287413Y0421917D01*
X0287041Y0422474D01*
X0286484Y0422846D01*
X0285827Y0422977D01*
X0285170Y0422846D01*
X0284612Y0422474D01*
X0284240Y0421917D01*
X0284109Y0421260D01*
X0284240Y0420603D01*
X0284541Y0420153D01*
Y0414646D01*
X0284642Y0414138D01*
X0284929Y0413708D01*
X0292882Y0405756D01*
X0293256Y0405506D01*
X0293274Y0405479D01*
X0293831Y0405106D01*
X0294488Y0404976D01*
X0295145Y0405106D01*
X0295703Y0405479D01*
X0296075Y0406036D01*
X0296205Y0406693D01*
X0296075Y0407350D01*
X0296030Y0407417D01*
X0296361Y0407821D01*
X0296842Y0407622D01*
X0297795Y0407497D01*
X0298749Y0407622D01*
X0299637Y0407990D01*
X0300400Y0408576D01*
X0300986Y0409339D01*
X0301354Y0410227D01*
X0301480Y0411181D01*
X0301354Y0412135D01*
X0301080Y0412795D01*
X0310505Y0422363D01*
X0346810D01*
X0347669Y0422534D01*
X0348396Y0423020D01*
X0363370Y0437994D01*
X0394797D01*
X0395655Y0438165D01*
X0396383Y0438651D01*
X0397649Y0439917D01*
X0398441D01*
X0398763Y0439417D01*
X0398676Y0438975D01*
X0398806Y0438318D01*
X0399179Y0437761D01*
X0399736Y0437389D01*
X0400393Y0437258D01*
X0401050Y0437389D01*
X0401129Y0437442D01*
X0403816Y0434755D01*
X0403795Y0434646D01*
X0403925Y0433989D01*
X0404297Y0433431D01*
X0404855Y0433059D01*
X0405512Y0432928D01*
X0406169Y0433059D01*
X0406726Y0433431D01*
X0407098Y0433989D01*
X0407229Y0434646D01*
X0407098Y0435303D01*
X0406726Y0435860D01*
X0406169Y0436232D01*
X0405512Y0436363D01*
X0405402Y0436341D01*
X0402327Y0439417D01*
X0402534Y0439917D01*
X0405107D01*
X0417752Y0427272D01*
X0418480Y0426786D01*
X0419338Y0426615D01*
X0441157D01*
X0445151Y0422622D01*
X0445879Y0422135D01*
X0446737Y0421965D01*
X0518958D01*
X0527469Y0413453D01*
X0527347Y0413158D01*
X0527221Y0412205D01*
X0527347Y0411251D01*
X0527715Y0410363D01*
X0528300Y0409599D01*
X0529063Y0409014D01*
X0529952Y0408646D01*
X0530905Y0408520D01*
X0531859Y0408646D01*
X0532748Y0409014D01*
X0533511Y0409599D01*
X0533788Y0409962D01*
X0545134D01*
X0559831Y0395264D01*
X0560559Y0394778D01*
X0561417Y0394607D01*
X0570079D01*
X0570937Y0394778D01*
X0571665Y0395264D01*
X0578752Y0402351D01*
X0579238Y0403079D01*
X0579408Y0403937D01*
Y0410630D01*
X0579238Y0411488D01*
X0578752Y0412216D01*
X0574125Y0416843D01*
X0574117Y0416902D01*
X0573854Y0417536D01*
X0573436Y0418082D01*
X0572891Y0418500D01*
X0572256Y0418763D01*
X0571575Y0418852D01*
X0570894Y0418763D01*
X0570259Y0418500D01*
X0569714Y0418082D01*
X0569295Y0417536D01*
X0569032Y0416902D01*
X0568943Y0416221D01*
X0569032Y0415539D01*
X0569295Y0414904D01*
X0569714Y0414359D01*
X0570259Y0413941D01*
X0570894Y0413678D01*
X0570953Y0413670D01*
X0574922Y0409701D01*
Y0404866D01*
X0569150Y0399094D01*
X0562346D01*
X0547649Y0413791D01*
X0546921Y0414277D01*
X0546063Y0414448D01*
X0533788D01*
X0533511Y0414810D01*
X0532748Y0415395D01*
X0531859Y0415764D01*
X0531449Y0415817D01*
X0528288Y0418979D01*
X0528618Y0419356D01*
X0529063Y0419014D01*
X0529952Y0418646D01*
X0530905Y0418520D01*
X0531358Y0418580D01*
X0531524Y0418414D01*
X0532252Y0417928D01*
X0533110Y0417757D01*
X0563164D01*
X0563212Y0417721D01*
X0563846Y0417458D01*
X0564528Y0417368D01*
X0565209Y0417458D01*
X0565843Y0417721D01*
X0566389Y0418139D01*
X0566807Y0418684D01*
X0567070Y0419319D01*
X0567160Y0420000D01*
X0567070Y0420681D01*
X0566807Y0421316D01*
X0566389Y0421861D01*
X0565843Y0422279D01*
X0565209Y0422542D01*
X0564528Y0422632D01*
X0563846Y0422542D01*
X0563212Y0422279D01*
X0563164Y0422243D01*
X0534585D01*
X0534464Y0423158D01*
X0534096Y0424047D01*
X0533511Y0424810D01*
X0532748Y0425395D01*
X0531859Y0425764D01*
X0530905Y0425889D01*
X0529952Y0425764D01*
X0529063Y0425395D01*
X0528335Y0424837D01*
X0523678Y0429494D01*
X0522951Y0429980D01*
X0522092Y0430151D01*
X0476067D01*
X0475872Y0430517D01*
X0475848Y0430651D01*
X0475969Y0431260D01*
X0475839Y0431917D01*
X0475466Y0432474D01*
X0474909Y0432846D01*
X0474252Y0432977D01*
X0473595Y0432846D01*
X0473038Y0432474D01*
X0472976Y0432381D01*
X0471409D01*
X0467321Y0436470D01*
X0467459Y0436907D01*
X0467506Y0436970D01*
X0508323D01*
X0509280Y0436012D01*
X0510008Y0435526D01*
X0510866Y0435355D01*
X0511725Y0435526D01*
X0512452Y0436012D01*
X0512938Y0436740D01*
X0513109Y0437598D01*
X0512938Y0438457D01*
X0512452Y0439185D01*
X0511429Y0440208D01*
X0511621Y0440669D01*
X0519269D01*
X0527281Y0432657D01*
X0527221Y0432205D01*
X0527347Y0431251D01*
X0527715Y0430363D01*
X0528300Y0429600D01*
X0529063Y0429014D01*
X0529952Y0428646D01*
X0530905Y0428520D01*
X0531859Y0428646D01*
X0532748Y0429014D01*
X0533511Y0429600D01*
X0534096Y0430363D01*
X0534464Y0431251D01*
X0534590Y0432205D01*
X0534464Y0433158D01*
X0534096Y0434047D01*
X0533511Y0434810D01*
X0532748Y0435395D01*
X0531859Y0435764D01*
X0530905Y0435889D01*
X0530453Y0435829D01*
X0521784Y0444499D01*
X0521056Y0444985D01*
X0520198Y0445156D01*
X0495809D01*
X0495542Y0445656D01*
X0495585Y0445721D01*
X0495716Y0446378D01*
X0495585Y0447035D01*
X0495213Y0447592D01*
X0495175Y0447618D01*
X0495129Y0447848D01*
X0494864Y0448244D01*
X0493818Y0449290D01*
X0493421Y0449556D01*
X0492953Y0449649D01*
X0485649D01*
X0485106Y0450012D01*
X0484449Y0450142D01*
X0483792Y0450012D01*
X0483235Y0449640D01*
X0482862Y0449082D01*
X0482732Y0448425D01*
X0482774Y0448209D01*
X0482622Y0448088D01*
X0482314Y0447962D01*
X0481838Y0448279D01*
X0481181Y0448410D01*
X0480524Y0448279D01*
X0480512Y0448271D01*
X0480061Y0448572D01*
X0480064Y0448583D01*
X0479933Y0449240D01*
X0479561Y0449797D01*
X0479004Y0450169D01*
X0478346Y0450300D01*
X0477689Y0450169D01*
X0477132Y0449797D01*
X0477013Y0449619D01*
X0477012Y0449619D01*
X0476648Y0449376D01*
X0476648Y0449376D01*
X0476031Y0448759D01*
X0418181D01*
X0415001Y0451940D01*
X0415203Y0452445D01*
X0415954Y0452544D01*
X0416842Y0452912D01*
X0417605Y0453497D01*
X0418191Y0454260D01*
X0418559Y0455149D01*
X0418684Y0456102D01*
X0418559Y0457056D01*
X0418191Y0457944D01*
X0417605Y0458708D01*
X0416842Y0459293D01*
X0415954Y0459661D01*
X0415000Y0459787D01*
X0414046Y0459661D01*
X0413158Y0459293D01*
X0412395Y0458708D01*
X0411809Y0457944D01*
X0411441Y0457056D01*
X0411316Y0456102D01*
X0411441Y0455149D01*
X0411809Y0454260D01*
X0412295Y0453627D01*
Y0452937D01*
X0411833Y0452745D01*
X0408660Y0455918D01*
X0408684Y0456102D01*
X0408559Y0457056D01*
X0408191Y0457944D01*
X0407605Y0458708D01*
X0406842Y0459293D01*
X0405954Y0459661D01*
X0405000Y0459787D01*
X0404046Y0459661D01*
X0403158Y0459293D01*
X0402395Y0458708D01*
X0401809Y0457944D01*
X0401441Y0457056D01*
X0401316Y0456102D01*
X0401441Y0455149D01*
X0401809Y0454260D01*
X0402395Y0453497D01*
X0403158Y0452912D01*
X0404046Y0452544D01*
X0405000Y0452418D01*
X0405954Y0452544D01*
X0406842Y0452912D01*
X0407605Y0453497D01*
X0407890Y0453516D01*
X0409104Y0452302D01*
X0408896Y0451803D01*
X0393654D01*
X0392796Y0451632D01*
X0392068Y0451146D01*
X0390802Y0449880D01*
X0390086D01*
X0389879Y0450380D01*
X0392735Y0453236D01*
X0393158Y0452912D01*
X0394046Y0452544D01*
X0395000Y0452418D01*
X0395954Y0452544D01*
X0396842Y0452912D01*
X0397605Y0453497D01*
X0398191Y0454260D01*
X0398559Y0455149D01*
X0398684Y0456102D01*
X0398559Y0457056D01*
X0398191Y0457944D01*
X0397605Y0458708D01*
X0396842Y0459293D01*
X0395954Y0459661D01*
X0395000Y0459787D01*
X0394046Y0459661D01*
X0393158Y0459293D01*
X0392395Y0458708D01*
X0391809Y0457944D01*
X0391441Y0457056D01*
X0391409Y0456813D01*
X0388600Y0454004D01*
X0388191Y0454260D01*
X0388559Y0455149D01*
X0388684Y0456102D01*
X0388559Y0457056D01*
X0388191Y0457944D01*
X0387605Y0458708D01*
X0386842Y0459293D01*
X0385954Y0459661D01*
X0385000Y0459787D01*
X0384046Y0459661D01*
X0383158Y0459293D01*
X0382395Y0458708D01*
X0381809Y0457944D01*
X0381441Y0457056D01*
X0381316Y0456102D01*
X0381441Y0455149D01*
X0381809Y0454260D01*
X0382395Y0453497D01*
X0383158Y0452912D01*
X0384046Y0452544D01*
X0385000Y0452418D01*
X0385954Y0452544D01*
X0386358Y0452711D01*
X0386628Y0452282D01*
X0386317Y0451817D01*
X0386185Y0451154D01*
X0386317Y0450490D01*
X0386391Y0450380D01*
X0386124Y0449880D01*
X0359022D01*
X0358164Y0449709D01*
X0357436Y0449223D01*
X0343133Y0434920D01*
X0299291D01*
X0298529Y0434769D01*
X0297795Y0434865D01*
X0296842Y0434740D01*
X0295953Y0434372D01*
X0295190Y0433786D01*
X0294912Y0433424D01*
X0289488D01*
X0288630Y0433253D01*
X0287902Y0432767D01*
X0282452Y0427317D01*
X0271141D01*
Y0432712D01*
X0270970Y0433570D01*
X0270484Y0434298D01*
X0266975Y0437807D01*
X0266248Y0438293D01*
X0265389Y0438464D01*
X0254331D01*
X0253472Y0438293D01*
X0252745Y0437807D01*
X0245264Y0430326D01*
X0244778Y0429599D01*
X0244607Y0428740D01*
Y0415354D01*
X0244778Y0414496D01*
X0245264Y0413768D01*
X0250028Y0409004D01*
X0250756Y0408518D01*
X0251614Y0408347D01*
X0253125D01*
X0253172Y0408311D01*
X0253807Y0408048D01*
X0254488Y0407959D01*
X0255169Y0408048D01*
X0255804Y0408311D01*
X0256349Y0408730D01*
X0256768Y0409275D01*
X0257031Y0409909D01*
X0257120Y0410591D01*
X0257031Y0411272D01*
X0256768Y0411906D01*
X0256349Y0412452D01*
X0255804Y0412870D01*
X0255169Y0413133D01*
X0254488Y0413223D01*
X0253807Y0413133D01*
X0253172Y0412870D01*
X0253125Y0412834D01*
X0252543D01*
X0249094Y0416284D01*
Y0427811D01*
X0255260Y0433977D01*
X0264460D01*
X0266654Y0431783D01*
Y0427317D01*
X0263814D01*
X0262956Y0427146D01*
X0262228Y0426660D01*
X0260913Y0425345D01*
X0260854Y0425338D01*
X0260219Y0425075D01*
X0259674Y0424656D01*
X0259256Y0424111D01*
X0258993Y0423477D01*
X0258904Y0422795D01*
X0258993Y0422114D01*
X0259256Y0421479D01*
X0259674Y0420934D01*
X0260219Y0420516D01*
X0260854Y0420253D01*
X0261535Y0420163D01*
X0262217Y0420253D01*
X0262851Y0420516D01*
X0263397Y0420934D01*
X0263815Y0421479D01*
X0264078Y0422114D01*
X0264086Y0422173D01*
X0264743Y0422831D01*
X0267418D01*
X0267741Y0422331D01*
X0267653Y0421890D01*
X0267784Y0421233D01*
X0268147Y0420689D01*
Y0419606D01*
X0268240Y0419138D01*
X0268505Y0418741D01*
X0294493Y0392753D01*
X0294236Y0392135D01*
X0294111Y0391181D01*
X0294236Y0390228D01*
X0294605Y0389339D01*
X0295190Y0388576D01*
X0295953Y0387990D01*
X0296842Y0387622D01*
X0297795Y0387497D01*
X0298749Y0387622D01*
X0299637Y0387990D01*
X0300400Y0388576D01*
X0300986Y0389339D01*
X0301354Y0390228D01*
X0301422Y0390745D01*
X0304976D01*
X0305167Y0390283D01*
X0299731Y0384848D01*
X0295859D01*
X0289058Y0391649D01*
Y0393524D01*
X0289421Y0394067D01*
X0289552Y0394724D01*
X0289421Y0395382D01*
X0289049Y0395939D01*
X0288492Y0396311D01*
X0287835Y0396442D01*
X0287177Y0396311D01*
X0286620Y0395939D01*
X0286248Y0395382D01*
X0286117Y0394724D01*
X0286248Y0394067D01*
X0286611Y0393524D01*
Y0391142D01*
X0286704Y0390673D01*
X0286969Y0390277D01*
X0294129Y0383117D01*
Y0378228D01*
X0294183Y0377955D01*
X0294338Y0377724D01*
X0294569Y0377569D01*
X0294843Y0377515D01*
X0300748D01*
X0301021Y0377569D01*
X0301253Y0377724D01*
X0301407Y0377955D01*
X0301462Y0378228D01*
Y0383117D01*
X0307389Y0389045D01*
X0361193D01*
X0364791Y0385447D01*
X0365188Y0385182D01*
X0365656Y0385089D01*
X0382010D01*
X0382092Y0384966D01*
X0382649Y0384594D01*
X0383290Y0384466D01*
X0385669Y0382088D01*
X0386066Y0381822D01*
X0386534Y0381729D01*
X0387990D01*
X0388181Y0381267D01*
X0386674Y0379760D01*
X0385954Y0380059D01*
X0385000Y0380184D01*
X0384046Y0380059D01*
X0383158Y0379691D01*
X0382395Y0379105D01*
X0381809Y0378342D01*
X0381441Y0377454D01*
X0381316Y0376500D01*
X0381441Y0375546D01*
X0381809Y0374658D01*
X0382395Y0373895D01*
X0383158Y0373309D01*
X0384046Y0372941D01*
X0384550Y0372875D01*
X0384517Y0372375D01*
X0375483D01*
X0375450Y0372875D01*
X0375954Y0372941D01*
X0376842Y0373309D01*
X0377605Y0373895D01*
X0378191Y0374658D01*
X0378559Y0375546D01*
X0378684Y0376500D01*
X0378559Y0377454D01*
X0378191Y0378342D01*
X0377605Y0379105D01*
X0376842Y0379691D01*
X0375954Y0380059D01*
X0375000Y0380184D01*
X0374046Y0380059D01*
X0373158Y0379691D01*
X0372395Y0379105D01*
X0371809Y0378342D01*
X0371441Y0377454D01*
X0371316Y0376500D01*
X0371441Y0375546D01*
X0371809Y0374658D01*
X0372395Y0373895D01*
X0373158Y0373309D01*
X0374046Y0372941D01*
X0374550Y0372875D01*
X0374517Y0372375D01*
X0355483D01*
X0355450Y0372875D01*
X0355954Y0372941D01*
X0356842Y0373309D01*
X0357605Y0373895D01*
X0358191Y0374658D01*
X0358559Y0375546D01*
X0358684Y0376500D01*
X0358559Y0377454D01*
X0358191Y0378342D01*
X0357605Y0379105D01*
X0356842Y0379691D01*
X0355954Y0380059D01*
X0355000Y0380184D01*
X0354046Y0380059D01*
X0353158Y0379691D01*
X0352395Y0379105D01*
X0351809Y0378342D01*
X0351441Y0377454D01*
X0351316Y0376500D01*
X0351441Y0375546D01*
X0351809Y0374658D01*
X0352395Y0373895D01*
X0353158Y0373309D01*
X0354046Y0372941D01*
X0354550Y0372875D01*
X0354517Y0372375D01*
X0345483D01*
X0345450Y0372875D01*
X0345954Y0372941D01*
X0346842Y0373309D01*
X0347605Y0373895D01*
X0348191Y0374658D01*
X0348559Y0375546D01*
X0348684Y0376500D01*
X0348559Y0377454D01*
X0348191Y0378342D01*
X0347605Y0379105D01*
X0346842Y0379691D01*
X0345954Y0380059D01*
X0345000Y0380184D01*
X0344046Y0380059D01*
X0343158Y0379691D01*
X0342395Y0379105D01*
X0341809Y0378342D01*
X0341441Y0377454D01*
X0341316Y0376500D01*
X0341441Y0375546D01*
X0341809Y0374658D01*
X0342395Y0373895D01*
X0343158Y0373309D01*
X0344046Y0372941D01*
X0344550Y0372875D01*
X0344517Y0372375D01*
X0335483D01*
X0335450Y0372875D01*
X0335954Y0372941D01*
X0336842Y0373309D01*
X0337605Y0373895D01*
X0338191Y0374658D01*
X0338559Y0375546D01*
X0338684Y0376500D01*
X0338559Y0377454D01*
X0338191Y0378342D01*
X0337605Y0379105D01*
X0336842Y0379691D01*
X0335954Y0380059D01*
X0335000Y0380184D01*
X0334046Y0380059D01*
X0333158Y0379691D01*
X0332395Y0379105D01*
X0331809Y0378342D01*
X0331441Y0377454D01*
X0331316Y0376500D01*
X0331441Y0375546D01*
X0331809Y0374658D01*
X0332395Y0373895D01*
X0333158Y0373309D01*
X0334046Y0372941D01*
X0334550Y0372875D01*
X0334517Y0372375D01*
X0224580D01*
Y0460735D01*
X0601286D01*
Y0372375D01*
D02*
G37*
G36*
X0434464Y0440190D02*
X0434384Y0440071D01*
X0434214Y0439213D01*
X0434384Y0438354D01*
X0434871Y0437627D01*
X0435196Y0437409D01*
X0435044Y0436909D01*
X0425349D01*
X0425349Y0436909D01*
X0424961Y0436832D01*
X0424010D01*
X0423252Y0437590D01*
X0423371Y0438189D01*
X0423240Y0438846D01*
X0422868Y0439403D01*
X0422311Y0439776D01*
X0421654Y0439906D01*
X0420996Y0439776D01*
X0420439Y0439403D01*
X0420067Y0438846D01*
X0419936Y0438189D01*
X0420067Y0437532D01*
X0420439Y0436975D01*
X0420996Y0436602D01*
X0421084Y0436585D01*
X0421783Y0435886D01*
X0421594Y0435400D01*
X0421240Y0435361D01*
X0416432Y0440169D01*
X0416623Y0440631D01*
X0434228D01*
X0434464Y0440190D01*
D02*
G37*
G36*
X0401594Y0415336D02*
X0401630Y0415106D01*
X0398697Y0412173D01*
X0398454Y0411809D01*
X0398368Y0411379D01*
X0398368Y0411379D01*
Y0408113D01*
X0396098Y0405843D01*
X0395855Y0405479D01*
X0395770Y0405050D01*
X0395770Y0405050D01*
Y0393440D01*
X0393400Y0391070D01*
X0392057D01*
X0392031Y0391102D01*
X0391901Y0391759D01*
X0391529Y0392316D01*
X0390971Y0392688D01*
X0390314Y0392819D01*
X0389914Y0392739D01*
X0389668Y0393200D01*
X0394100Y0397632D01*
X0394343Y0397996D01*
X0394429Y0398425D01*
X0394429Y0398425D01*
Y0403960D01*
X0394521Y0404022D01*
X0394894Y0404579D01*
X0395024Y0405236D01*
X0394931Y0405704D01*
X0394926Y0405927D01*
X0395247Y0406264D01*
X0395348Y0406284D01*
X0395712Y0406527D01*
X0396698Y0407514D01*
X0396699Y0407514D01*
X0396942Y0407878D01*
X0397027Y0408307D01*
X0397027Y0408307D01*
Y0409275D01*
X0397120Y0409337D01*
X0397492Y0409894D01*
X0397623Y0410551D01*
X0397492Y0411208D01*
X0397120Y0411765D01*
X0396563Y0412138D01*
X0395905Y0412268D01*
X0395248Y0412138D01*
X0394691Y0411765D01*
X0394376Y0411294D01*
X0394172Y0411159D01*
X0393773Y0411025D01*
X0393267Y0411126D01*
X0392610Y0410995D01*
X0392053Y0410623D01*
X0391991Y0410530D01*
X0382343D01*
X0382331Y0410558D01*
X0381903Y0411116D01*
X0381346Y0411544D01*
X0380697Y0411812D01*
X0380000Y0411904D01*
X0379303Y0411812D01*
X0378757Y0411586D01*
X0378473Y0412010D01*
X0380358Y0413895D01*
X0382833D01*
X0382928Y0413779D01*
X0383058Y0413122D01*
X0383431Y0412564D01*
X0383988Y0412192D01*
X0384645Y0412061D01*
X0385302Y0412192D01*
X0385859Y0412564D01*
X0386231Y0413122D01*
X0386362Y0413779D01*
X0386231Y0414436D01*
X0385859Y0414993D01*
X0385689Y0415106D01*
X0385841Y0415606D01*
X0401451D01*
X0401594Y0415336D01*
D02*
G37*
%LPC*%
G36*
X0564528Y0414640D02*
X0563846Y0414550D01*
X0563212Y0414287D01*
X0562667Y0413869D01*
X0562248Y0413324D01*
X0561985Y0412689D01*
X0561896Y0412008D01*
X0561985Y0411327D01*
X0562248Y0410692D01*
X0562667Y0410147D01*
X0563212Y0409728D01*
X0563846Y0409466D01*
X0564528Y0409376D01*
X0565209Y0409466D01*
X0565843Y0409728D01*
X0566389Y0410147D01*
X0566807Y0410692D01*
X0567070Y0411327D01*
X0567160Y0412008D01*
X0567070Y0412689D01*
X0566807Y0413324D01*
X0566389Y0413869D01*
X0565843Y0414287D01*
X0565209Y0414550D01*
X0564528Y0414640D01*
D02*
G37*
G36*
X0571575Y0410860D02*
X0570894Y0410771D01*
X0570259Y0410508D01*
X0569714Y0410089D01*
X0569295Y0409544D01*
X0569032Y0408910D01*
X0568943Y0408228D01*
X0569032Y0407547D01*
X0569295Y0406912D01*
X0569714Y0406367D01*
X0570259Y0405949D01*
X0570894Y0405686D01*
X0571575Y0405596D01*
X0572256Y0405686D01*
X0572891Y0405949D01*
X0573436Y0406367D01*
X0573854Y0406912D01*
X0574117Y0407547D01*
X0574207Y0408228D01*
X0574117Y0408910D01*
X0573854Y0409544D01*
X0573436Y0410089D01*
X0572891Y0410508D01*
X0572256Y0410771D01*
X0571575Y0410860D01*
D02*
G37*
G36*
X0339331Y0416678D02*
X0338673Y0416547D01*
X0338116Y0416175D01*
X0337744Y0415618D01*
X0337614Y0414961D01*
X0337744Y0414303D01*
X0338116Y0413746D01*
X0338147Y0413726D01*
Y0405531D01*
X0337784Y0404988D01*
X0337653Y0404331D01*
X0337784Y0403674D01*
X0338156Y0403116D01*
X0338713Y0402744D01*
X0339370Y0402613D01*
X0340027Y0402744D01*
X0340584Y0403116D01*
X0340957Y0403674D01*
X0341087Y0404331D01*
X0340957Y0404988D01*
X0340594Y0405531D01*
Y0413819D01*
X0340917Y0414303D01*
X0341048Y0414961D01*
X0340917Y0415618D01*
X0340545Y0416175D01*
X0339988Y0416547D01*
X0339331Y0416678D01*
D02*
G37*
G36*
X0571575Y0426845D02*
X0570894Y0426755D01*
X0570259Y0426492D01*
X0569714Y0426074D01*
X0569295Y0425529D01*
X0569032Y0424894D01*
X0568943Y0424213D01*
X0569032Y0423531D01*
X0569295Y0422897D01*
X0569714Y0422352D01*
X0570259Y0421933D01*
X0570894Y0421670D01*
X0571575Y0421581D01*
X0572256Y0421670D01*
X0572891Y0421933D01*
X0573436Y0422352D01*
X0573854Y0422897D01*
X0574117Y0423531D01*
X0574207Y0424213D01*
X0574117Y0424894D01*
X0573854Y0425529D01*
X0573436Y0426074D01*
X0572891Y0426492D01*
X0572256Y0426755D01*
X0571575Y0426845D01*
D02*
G37*
G36*
X0451260Y0418991D02*
X0450563Y0418899D01*
X0449914Y0418630D01*
X0449357Y0418202D01*
X0448929Y0417645D01*
X0448660Y0416996D01*
X0448568Y0416299D01*
X0448660Y0415603D01*
X0448929Y0414953D01*
X0449075Y0414763D01*
Y0413969D01*
X0448180Y0413073D01*
X0448071Y0413095D01*
X0447414Y0412964D01*
X0446857Y0412592D01*
X0446484Y0412035D01*
X0446354Y0411378D01*
X0446484Y0410721D01*
X0446857Y0410164D01*
X0447414Y0409791D01*
X0448071Y0409661D01*
X0448728Y0409791D01*
X0449285Y0410164D01*
X0449657Y0410721D01*
X0449788Y0411378D01*
X0449766Y0411487D01*
X0450990Y0412711D01*
X0451233Y0413075D01*
X0451318Y0413504D01*
X0451761Y0413674D01*
X0451957Y0413699D01*
X0452606Y0413968D01*
X0453163Y0414396D01*
X0453591Y0414953D01*
X0453860Y0415603D01*
X0453951Y0416299D01*
X0453860Y0416996D01*
X0453591Y0417645D01*
X0453163Y0418202D01*
X0452606Y0418630D01*
X0451957Y0418899D01*
X0451260Y0418991D01*
D02*
G37*
G36*
X0254488Y0421215D02*
X0253807Y0421125D01*
X0253172Y0420862D01*
X0252627Y0420444D01*
X0252209Y0419899D01*
X0251946Y0419264D01*
X0251856Y0418583D01*
X0251946Y0417902D01*
X0252209Y0417267D01*
X0252627Y0416722D01*
X0253172Y0416303D01*
X0253807Y0416040D01*
X0254488Y0415951D01*
X0255169Y0416040D01*
X0255804Y0416303D01*
X0256349Y0416722D01*
X0256768Y0417267D01*
X0257031Y0417902D01*
X0257120Y0418583D01*
X0257031Y0419264D01*
X0256768Y0419899D01*
X0256349Y0420444D01*
X0255804Y0420862D01*
X0255169Y0421125D01*
X0254488Y0421215D01*
D02*
G37*
G36*
X0261535Y0417435D02*
X0260854Y0417345D01*
X0260219Y0417083D01*
X0259674Y0416664D01*
X0259256Y0416119D01*
X0258993Y0415484D01*
X0258904Y0414803D01*
X0258993Y0414122D01*
X0259256Y0413487D01*
X0259674Y0412942D01*
X0260219Y0412524D01*
X0260854Y0412261D01*
X0261535Y0412171D01*
X0262217Y0412261D01*
X0262851Y0412524D01*
X0263397Y0412942D01*
X0263815Y0413487D01*
X0264078Y0414122D01*
X0264167Y0414803D01*
X0264078Y0415484D01*
X0263815Y0416119D01*
X0263397Y0416664D01*
X0262851Y0417083D01*
X0262217Y0417345D01*
X0261535Y0417435D01*
D02*
G37*
G36*
X0258085Y0388275D02*
X0258015Y0388270D01*
X0257992Y0388273D01*
X0257969Y0388270D01*
X0257899Y0388275D01*
X0257051Y0388163D01*
X0256984Y0388141D01*
X0256961Y0388138D01*
X0256940Y0388129D01*
X0256871Y0388115D01*
X0256081Y0387788D01*
X0256023Y0387749D01*
X0256001Y0387740D01*
X0255983Y0387726D01*
X0255920Y0387695D01*
X0255241Y0387174D01*
X0255195Y0387121D01*
X0255176Y0387107D01*
X0255162Y0387089D01*
X0255109Y0387042D01*
X0254589Y0386364D01*
X0254558Y0386301D01*
X0254543Y0386282D01*
X0254535Y0386261D01*
X0254496Y0386203D01*
X0254168Y0385412D01*
X0254155Y0385343D01*
X0254146Y0385322D01*
X0254143Y0385299D01*
X0254120Y0385232D01*
X0254009Y0384384D01*
X0254012Y0384337D01*
X0254002Y0384291D01*
X0254012Y0384245D01*
X0254009Y0384198D01*
X0254120Y0383350D01*
X0254143Y0383284D01*
X0254146Y0383261D01*
X0254155Y0383239D01*
X0254168Y0383170D01*
X0254496Y0382380D01*
X0254535Y0382322D01*
X0254543Y0382300D01*
X0254558Y0382282D01*
X0254589Y0382219D01*
X0255109Y0381540D01*
X0255162Y0381494D01*
X0255176Y0381476D01*
X0255195Y0381461D01*
X0255241Y0381409D01*
X0255920Y0380888D01*
X0255983Y0380857D01*
X0256001Y0380843D01*
X0256023Y0380834D01*
X0256081Y0380795D01*
X0256871Y0380468D01*
X0256940Y0380454D01*
X0256961Y0380445D01*
X0256984Y0380442D01*
X0257051Y0380419D01*
X0257899Y0380308D01*
X0257969Y0380312D01*
X0257992Y0380309D01*
X0258015Y0380312D01*
X0258085Y0380308D01*
X0258933Y0380419D01*
X0259000Y0380442D01*
X0259023Y0380445D01*
X0259044Y0380454D01*
X0259113Y0380468D01*
X0259903Y0380795D01*
X0259962Y0380834D01*
X0259983Y0380843D01*
X0260002Y0380857D01*
X0260065Y0380888D01*
X0260743Y0381409D01*
X0260789Y0381461D01*
X0260808Y0381476D01*
X0260822Y0381494D01*
X0260875Y0381540D01*
X0261396Y0382219D01*
X0261427Y0382282D01*
X0261441Y0382300D01*
X0261450Y0382322D01*
X0261489Y0382380D01*
X0261816Y0383170D01*
X0261830Y0383239D01*
X0261839Y0383261D01*
X0261842Y0383284D01*
X0261864Y0383350D01*
X0261976Y0384198D01*
X0261973Y0384245D01*
X0261982Y0384291D01*
X0261973Y0384337D01*
X0261976Y0384384D01*
X0261864Y0385232D01*
X0261842Y0385299D01*
X0261839Y0385322D01*
X0261830Y0385343D01*
X0261816Y0385412D01*
X0261489Y0386203D01*
X0261450Y0386261D01*
X0261441Y0386282D01*
X0261427Y0386301D01*
X0261396Y0386364D01*
X0260875Y0387042D01*
X0260822Y0387089D01*
X0260808Y0387107D01*
X0260789Y0387121D01*
X0260743Y0387174D01*
X0260065Y0387695D01*
X0260002Y0387726D01*
X0259983Y0387740D01*
X0259962Y0387749D01*
X0259903Y0387788D01*
X0259113Y0388115D01*
X0259044Y0388129D01*
X0259023Y0388138D01*
X0259000Y0388141D01*
X0258933Y0388163D01*
X0258085Y0388275D01*
D02*
G37*
G36*
X0568164Y0389692D02*
X0568094Y0389688D01*
X0568071Y0389691D01*
X0568048Y0389688D01*
X0567978Y0389692D01*
X0567130Y0389581D01*
X0567063Y0389558D01*
X0567040Y0389555D01*
X0567019Y0389546D01*
X0566950Y0389532D01*
X0566160Y0389205D01*
X0566101Y0389166D01*
X0566080Y0389157D01*
X0566061Y0389143D01*
X0565998Y0389112D01*
X0565320Y0388591D01*
X0565274Y0388539D01*
X0565255Y0388524D01*
X0565241Y0388506D01*
X0565188Y0388460D01*
X0564668Y0387781D01*
X0564636Y0387718D01*
X0564622Y0387700D01*
X0564613Y0387678D01*
X0564574Y0387620D01*
X0564247Y0386830D01*
X0564233Y0386761D01*
X0564224Y0386739D01*
X0564221Y0386716D01*
X0564199Y0386650D01*
X0564087Y0385802D01*
X0564090Y0385755D01*
X0564081Y0385709D01*
X0564090Y0385663D01*
X0564087Y0385615D01*
X0564199Y0384768D01*
X0564221Y0384701D01*
X0564224Y0384678D01*
X0564233Y0384657D01*
X0564247Y0384588D01*
X0564574Y0383798D01*
X0564613Y0383739D01*
X0564622Y0383718D01*
X0564636Y0383699D01*
X0564668Y0383636D01*
X0565188Y0382958D01*
X0565241Y0382911D01*
X0565255Y0382893D01*
X0565274Y0382879D01*
X0565320Y0382826D01*
X0565998Y0382305D01*
X0566061Y0382274D01*
X0566080Y0382260D01*
X0566101Y0382251D01*
X0566160Y0382212D01*
X0566950Y0381885D01*
X0567019Y0381871D01*
X0567040Y0381862D01*
X0567063Y0381859D01*
X0567130Y0381837D01*
X0567978Y0381725D01*
X0568048Y0381730D01*
X0568071Y0381727D01*
X0568094Y0381730D01*
X0568164Y0381725D01*
X0569012Y0381837D01*
X0569078Y0381859D01*
X0569101Y0381862D01*
X0569123Y0381871D01*
X0569192Y0381885D01*
X0569982Y0382212D01*
X0570040Y0382251D01*
X0570062Y0382260D01*
X0570080Y0382274D01*
X0570143Y0382305D01*
X0570822Y0382826D01*
X0570868Y0382879D01*
X0570887Y0382893D01*
X0570901Y0382911D01*
X0570954Y0382958D01*
X0571474Y0383636D01*
X0571505Y0383699D01*
X0571520Y0383718D01*
X0571528Y0383739D01*
X0571567Y0383798D01*
X0571895Y0384588D01*
X0571908Y0384657D01*
X0571917Y0384678D01*
X0571920Y0384701D01*
X0571943Y0384768D01*
X0572054Y0385615D01*
X0572051Y0385663D01*
X0572061Y0385709D01*
X0572051Y0385755D01*
X0572054Y0385802D01*
X0571943Y0386650D01*
X0571920Y0386716D01*
X0571917Y0386739D01*
X0571908Y0386761D01*
X0571895Y0386830D01*
X0571567Y0387620D01*
X0571528Y0387678D01*
X0571520Y0387700D01*
X0571505Y0387718D01*
X0571474Y0387781D01*
X0570954Y0388460D01*
X0570901Y0388506D01*
X0570887Y0388524D01*
X0570868Y0388539D01*
X0570822Y0388591D01*
X0570143Y0389112D01*
X0570080Y0389143D01*
X0570062Y0389157D01*
X0570040Y0389166D01*
X0569982Y0389205D01*
X0569192Y0389532D01*
X0569123Y0389546D01*
X0569101Y0389555D01*
X0569078Y0389558D01*
X0569012Y0389581D01*
X0568164Y0389692D01*
D02*
G37*
G36*
X0317323Y0387253D02*
X0317277Y0387244D01*
X0317230Y0387247D01*
X0315924Y0387075D01*
X0315858Y0387052D01*
X0315835Y0387049D01*
X0315813Y0387040D01*
X0315744Y0387027D01*
X0314528Y0386523D01*
X0314470Y0386484D01*
X0314448Y0386475D01*
X0314430Y0386461D01*
X0314367Y0386430D01*
X0313322Y0385628D01*
X0313276Y0385576D01*
X0313258Y0385561D01*
X0313243Y0385543D01*
X0313191Y0385497D01*
X0312389Y0384452D01*
X0312358Y0384389D01*
X0312344Y0384371D01*
X0312335Y0384349D01*
X0312296Y0384291D01*
X0311792Y0383074D01*
X0311778Y0383006D01*
X0311770Y0382984D01*
X0311767Y0382961D01*
X0311744Y0382894D01*
X0311572Y0381589D01*
X0311577Y0381519D01*
X0311574Y0381496D01*
X0311577Y0381473D01*
X0311572Y0381403D01*
X0311744Y0380098D01*
X0311767Y0380031D01*
X0311770Y0380008D01*
X0311778Y0379987D01*
X0311792Y0379918D01*
X0312296Y0378701D01*
X0312335Y0378643D01*
X0312344Y0378622D01*
X0312358Y0378603D01*
X0312389Y0378540D01*
X0313191Y0377496D01*
X0313243Y0377449D01*
X0313258Y0377431D01*
X0313276Y0377417D01*
X0313322Y0377364D01*
X0314367Y0376562D01*
X0314430Y0376531D01*
X0314448Y0376517D01*
X0314470Y0376508D01*
X0314528Y0376469D01*
X0315744Y0375965D01*
X0315813Y0375952D01*
X0315835Y0375943D01*
X0315858Y0375940D01*
X0315924Y0375917D01*
X0317230Y0375745D01*
X0317277Y0375748D01*
X0317323Y0375739D01*
X0317369Y0375748D01*
X0317416Y0375745D01*
X0318721Y0375917D01*
X0318788Y0375940D01*
X0318811Y0375943D01*
X0318832Y0375952D01*
X0318901Y0375965D01*
X0320117Y0376469D01*
X0320176Y0376508D01*
X0320197Y0376517D01*
X0320216Y0376531D01*
X0320279Y0376562D01*
X0321323Y0377364D01*
X0321370Y0377417D01*
X0321388Y0377431D01*
X0321402Y0377449D01*
X0321455Y0377496D01*
X0322257Y0378540D01*
X0322288Y0378603D01*
X0322302Y0378622D01*
X0322311Y0378643D01*
X0322350Y0378701D01*
X0322853Y0379918D01*
X0322867Y0379987D01*
X0322876Y0380008D01*
X0322879Y0380031D01*
X0322902Y0380098D01*
X0323074Y0381403D01*
X0323069Y0381473D01*
X0323072Y0381496D01*
X0323069Y0381519D01*
X0323074Y0381589D01*
X0322902Y0382894D01*
X0322879Y0382961D01*
X0322876Y0382984D01*
X0322867Y0383006D01*
X0322853Y0383074D01*
X0322350Y0384291D01*
X0322311Y0384349D01*
X0322302Y0384371D01*
X0322288Y0384389D01*
X0322256Y0384452D01*
X0321455Y0385497D01*
X0321402Y0385543D01*
X0321388Y0385561D01*
X0321370Y0385576D01*
X0321323Y0385628D01*
X0320279Y0386430D01*
X0320216Y0386461D01*
X0320197Y0386475D01*
X0320176Y0386484D01*
X0320117Y0386523D01*
X0318901Y0387027D01*
X0318832Y0387040D01*
X0318811Y0387049D01*
X0318788Y0387052D01*
X0318721Y0387075D01*
X0317416Y0387247D01*
X0317369Y0387244D01*
X0317323Y0387253D01*
D02*
G37*
G36*
X0345354Y0386245D02*
X0344697Y0386114D01*
X0344140Y0385742D01*
X0343768Y0385185D01*
X0343637Y0384528D01*
X0343768Y0383870D01*
X0344140Y0383313D01*
X0344697Y0382941D01*
X0345354Y0382810D01*
X0346011Y0382941D01*
X0346555Y0383304D01*
X0360960D01*
X0361012Y0383044D01*
X0361384Y0382487D01*
X0361941Y0382114D01*
X0362598Y0381983D01*
X0363256Y0382114D01*
X0363813Y0382487D01*
X0364185Y0383044D01*
X0364316Y0383701D01*
X0364185Y0384358D01*
X0363813Y0384915D01*
X0363256Y0385287D01*
X0362599Y0385418D01*
X0362240Y0385658D01*
X0361772Y0385751D01*
X0346555D01*
X0346011Y0386114D01*
X0345354Y0386245D01*
D02*
G37*
G36*
X0497480Y0383599D02*
X0497434Y0383590D01*
X0497387Y0383593D01*
X0496212Y0383438D01*
X0496146Y0383416D01*
X0496123Y0383413D01*
X0496101Y0383404D01*
X0496032Y0383390D01*
X0494938Y0382937D01*
X0494879Y0382898D01*
X0494858Y0382889D01*
X0494839Y0382874D01*
X0494776Y0382843D01*
X0493836Y0382122D01*
X0493790Y0382069D01*
X0493772Y0382055D01*
X0493757Y0382037D01*
X0493705Y0381990D01*
X0492983Y0381050D01*
X0492952Y0380987D01*
X0492938Y0380969D01*
X0492929Y0380947D01*
X0492890Y0380889D01*
X0492437Y0379794D01*
X0492423Y0379725D01*
X0492414Y0379704D01*
X0492411Y0379681D01*
X0492388Y0379614D01*
X0492234Y0378440D01*
X0492239Y0378369D01*
X0492235Y0378346D01*
X0492239Y0378323D01*
X0492234Y0378253D01*
X0492388Y0377079D01*
X0492411Y0377012D01*
X0492414Y0376989D01*
X0492423Y0376968D01*
X0492437Y0376899D01*
X0492890Y0375804D01*
X0492929Y0375746D01*
X0492938Y0375724D01*
X0492952Y0375706D01*
X0492983Y0375643D01*
X0493705Y0374703D01*
X0493757Y0374656D01*
X0493772Y0374638D01*
X0493790Y0374624D01*
X0493836Y0374571D01*
X0494776Y0373850D01*
X0494839Y0373818D01*
X0494858Y0373804D01*
X0494879Y0373795D01*
X0494938Y0373756D01*
X0496032Y0373303D01*
X0496101Y0373289D01*
X0496123Y0373280D01*
X0496146Y0373277D01*
X0496212Y0373255D01*
X0497387Y0373100D01*
X0497434Y0373103D01*
X0497480Y0373094D01*
X0497527Y0373103D01*
X0497574Y0373100D01*
X0498748Y0373255D01*
X0498815Y0373277D01*
X0498838Y0373280D01*
X0498859Y0373289D01*
X0498928Y0373303D01*
X0500023Y0373756D01*
X0500081Y0373795D01*
X0500103Y0373804D01*
X0500121Y0373818D01*
X0500184Y0373850D01*
X0501124Y0374571D01*
X0501171Y0374624D01*
X0501189Y0374638D01*
X0501203Y0374656D01*
X0501256Y0374703D01*
X0501977Y0375643D01*
X0502008Y0375706D01*
X0502023Y0375724D01*
X0502031Y0375746D01*
X0502070Y0375804D01*
X0502524Y0376899D01*
X0502538Y0376968D01*
X0502547Y0376989D01*
X0502550Y0377012D01*
X0502572Y0377079D01*
X0502727Y0378253D01*
X0502722Y0378323D01*
X0502725Y0378346D01*
X0502722Y0378369D01*
X0502727Y0378440D01*
X0502572Y0379614D01*
X0502550Y0379681D01*
X0502547Y0379704D01*
X0502538Y0379725D01*
X0502524Y0379794D01*
X0502070Y0380889D01*
X0502031Y0380947D01*
X0502023Y0380969D01*
X0502008Y0380987D01*
X0501977Y0381050D01*
X0501256Y0381990D01*
X0501203Y0382037D01*
X0501189Y0382055D01*
X0501171Y0382069D01*
X0501124Y0382122D01*
X0500184Y0382843D01*
X0500121Y0382874D01*
X0500103Y0382889D01*
X0500081Y0382897D01*
X0500023Y0382937D01*
X0498928Y0383390D01*
X0498859Y0383404D01*
X0498838Y0383413D01*
X0498815Y0383416D01*
X0498748Y0383438D01*
X0497574Y0383593D01*
X0497527Y0383590D01*
X0497480Y0383599D01*
D02*
G37*
G36*
X0564528Y0406648D02*
X0563846Y0406558D01*
X0563212Y0406295D01*
X0562667Y0405877D01*
X0562248Y0405332D01*
X0561985Y0404697D01*
X0561896Y0404016D01*
X0561985Y0403335D01*
X0562248Y0402700D01*
X0562667Y0402155D01*
X0563212Y0401736D01*
X0563846Y0401474D01*
X0564528Y0401384D01*
X0565209Y0401474D01*
X0565843Y0401736D01*
X0566389Y0402155D01*
X0566807Y0402700D01*
X0567070Y0403335D01*
X0567160Y0404016D01*
X0567070Y0404697D01*
X0566807Y0405332D01*
X0566389Y0405877D01*
X0565843Y0406295D01*
X0565209Y0406558D01*
X0564528Y0406648D01*
D02*
G37*
G36*
X0329449Y0413804D02*
X0328792Y0413673D01*
X0328235Y0413301D01*
X0327862Y0412744D01*
X0327732Y0412087D01*
X0327862Y0411429D01*
X0328123Y0411039D01*
Y0404882D01*
X0328224Y0404375D01*
X0328295Y0404269D01*
X0328414Y0403674D01*
X0328786Y0403116D01*
X0329343Y0402744D01*
X0330000Y0402613D01*
X0330657Y0402744D01*
X0331214Y0403116D01*
X0331587Y0403674D01*
X0331717Y0404331D01*
X0331587Y0404988D01*
X0331214Y0405545D01*
X0330774Y0405839D01*
Y0411039D01*
X0331035Y0411429D01*
X0331166Y0412087D01*
X0331035Y0412744D01*
X0330663Y0413301D01*
X0330106Y0413673D01*
X0329449Y0413804D01*
D02*
G37*
G36*
X0581920Y0400684D02*
X0581850Y0400677D01*
X0581850Y0400677D01*
X0581850Y0400677D01*
X0581780Y0400684D01*
X0580457Y0400554D01*
X0580390Y0400533D01*
X0580320Y0400526D01*
X0579047Y0400140D01*
X0578985Y0400107D01*
X0578985Y0400107D01*
X0578918Y0400087D01*
X0577745Y0399460D01*
X0577690Y0399415D01*
X0577690Y0399415D01*
X0577690Y0399415D01*
X0577628Y0399382D01*
X0576600Y0398538D01*
X0576556Y0398484D01*
X0576556Y0398484D01*
X0576555Y0398484D01*
X0576501Y0398439D01*
X0575658Y0397411D01*
X0575624Y0397349D01*
X0575624Y0397349D01*
X0575624Y0397349D01*
X0575580Y0397295D01*
X0574953Y0396122D01*
X0574932Y0396055D01*
X0574932Y0396055D01*
X0574899Y0395992D01*
X0574513Y0394720D01*
X0574506Y0394650D01*
X0574486Y0394583D01*
X0574356Y0393259D01*
X0574359Y0393224D01*
X0574352Y0393189D01*
X0574359Y0393154D01*
X0574356Y0393119D01*
X0574486Y0391795D01*
X0574506Y0391728D01*
X0574513Y0391658D01*
X0574899Y0390385D01*
X0574932Y0390323D01*
X0574932Y0390323D01*
X0574953Y0390256D01*
X0575580Y0389083D01*
X0575624Y0389029D01*
X0575624Y0389029D01*
X0575624Y0389029D01*
X0575658Y0388967D01*
X0576501Y0387939D01*
X0576555Y0387894D01*
X0576556Y0387894D01*
X0576556Y0387894D01*
X0576600Y0387840D01*
X0577628Y0386996D01*
X0577690Y0386963D01*
X0577690Y0386963D01*
X0577690Y0386963D01*
X0577745Y0386918D01*
X0578918Y0386291D01*
X0578985Y0386271D01*
X0578985Y0386271D01*
X0579047Y0386238D01*
X0580320Y0385852D01*
X0580389Y0385845D01*
X0580457Y0385824D01*
X0581780Y0385694D01*
X0581850Y0385701D01*
X0581850Y0385701D01*
X0581850Y0385701D01*
X0581920Y0385694D01*
X0583244Y0385824D01*
X0583311Y0385845D01*
X0583381Y0385852D01*
X0584654Y0386238D01*
X0584716Y0386271D01*
X0584716Y0386271D01*
X0584783Y0386291D01*
X0585956Y0386918D01*
X0586010Y0386963D01*
X0586011Y0386963D01*
X0586011Y0386963D01*
X0586072Y0386996D01*
X0587101Y0387840D01*
X0587145Y0387894D01*
X0587145Y0387894D01*
X0587145Y0387894D01*
X0587199Y0387939D01*
X0588043Y0388967D01*
X0588076Y0389029D01*
X0588076Y0389029D01*
X0588076Y0389029D01*
X0588121Y0389083D01*
X0588748Y0390256D01*
X0588768Y0390323D01*
X0588768Y0390323D01*
X0588802Y0390385D01*
X0589188Y0391658D01*
X0589194Y0391728D01*
X0589215Y0391795D01*
X0589345Y0393119D01*
X0589342Y0393154D01*
X0589349Y0393189D01*
X0589342Y0393224D01*
X0589345Y0393259D01*
X0589215Y0394583D01*
X0589194Y0394650D01*
X0589188Y0394720D01*
X0588802Y0395992D01*
X0588768Y0396055D01*
X0588768Y0396055D01*
X0588748Y0396122D01*
X0588121Y0397295D01*
X0588076Y0397349D01*
X0588076Y0397349D01*
X0588076Y0397349D01*
X0588043Y0397411D01*
X0587200Y0398439D01*
X0587145Y0398484D01*
X0587145Y0398484D01*
X0587145Y0398484D01*
X0587101Y0398538D01*
X0586072Y0399382D01*
X0586011Y0399415D01*
X0586011Y0399415D01*
X0586011Y0399415D01*
X0585956Y0399460D01*
X0584783Y0400087D01*
X0584716Y0400107D01*
X0584716Y0400107D01*
X0584654Y0400140D01*
X0583381Y0400526D01*
X0583311Y0400533D01*
X0583244Y0400554D01*
X0581920Y0400684D01*
D02*
G37*
G36*
X0530905Y0405889D02*
X0529952Y0405763D01*
X0529063Y0405395D01*
X0528300Y0404810D01*
X0527715Y0404047D01*
X0527347Y0403158D01*
X0527221Y0402205D01*
X0527347Y0401251D01*
X0527715Y0400363D01*
X0528300Y0399600D01*
X0529063Y0399014D01*
X0529952Y0398646D01*
X0530905Y0398520D01*
X0531859Y0398646D01*
X0532748Y0399014D01*
X0533511Y0399600D01*
X0534096Y0400363D01*
X0534464Y0401251D01*
X0534590Y0402205D01*
X0534464Y0403158D01*
X0534096Y0404047D01*
X0533511Y0404810D01*
X0532748Y0405395D01*
X0531859Y0405763D01*
X0530905Y0405889D01*
D02*
G37*
G36*
X0244598Y0399069D02*
X0244528Y0399062D01*
X0244458Y0399069D01*
X0243173Y0398942D01*
X0243105Y0398922D01*
X0243035Y0398915D01*
X0241800Y0398540D01*
X0241738Y0398507D01*
X0241670Y0398486D01*
X0240532Y0397878D01*
X0240477Y0397833D01*
X0240415Y0397800D01*
X0239417Y0396981D01*
X0239373Y0396927D01*
X0239318Y0396882D01*
X0238499Y0395884D01*
X0238466Y0395822D01*
X0238421Y0395767D01*
X0237813Y0394629D01*
X0237792Y0394562D01*
X0237759Y0394499D01*
X0237384Y0393264D01*
X0237377Y0393194D01*
X0237357Y0393127D01*
X0237230Y0391842D01*
X0237234Y0391806D01*
X0237227Y0391772D01*
X0237234Y0391737D01*
X0237230Y0391702D01*
X0237357Y0390417D01*
X0237377Y0390349D01*
X0237384Y0390279D01*
X0237759Y0389044D01*
X0237792Y0388982D01*
X0237813Y0388914D01*
X0238421Y0387776D01*
X0238466Y0387721D01*
X0238499Y0387659D01*
X0239318Y0386661D01*
X0239373Y0386617D01*
X0239417Y0386562D01*
X0240415Y0385743D01*
X0240477Y0385710D01*
X0240532Y0385665D01*
X0241670Y0385057D01*
X0241738Y0385036D01*
X0241800Y0385003D01*
X0243035Y0384628D01*
X0243105Y0384622D01*
X0243173Y0384601D01*
X0244458Y0384474D01*
X0244528Y0384481D01*
X0244598Y0384474D01*
X0245883Y0384601D01*
X0245950Y0384622D01*
X0246020Y0384628D01*
X0247255Y0385003D01*
X0247317Y0385036D01*
X0247385Y0385057D01*
X0248523Y0385665D01*
X0248578Y0385710D01*
X0248640Y0385743D01*
X0249638Y0386562D01*
X0249682Y0386617D01*
X0249737Y0386661D01*
X0250556Y0387659D01*
X0250589Y0387721D01*
X0250634Y0387776D01*
X0251242Y0388914D01*
X0251263Y0388982D01*
X0251296Y0389044D01*
X0251671Y0390279D01*
X0251678Y0390349D01*
X0251698Y0390417D01*
X0251825Y0391702D01*
X0251821Y0391737D01*
X0251828Y0391772D01*
X0251821Y0391806D01*
X0251825Y0391842D01*
X0251698Y0393127D01*
X0251678Y0393194D01*
X0251671Y0393264D01*
X0251296Y0394499D01*
X0251263Y0394562D01*
X0251242Y0394629D01*
X0250634Y0395767D01*
X0250589Y0395822D01*
X0250556Y0395884D01*
X0249737Y0396882D01*
X0249682Y0396927D01*
X0249638Y0396981D01*
X0248640Y0397800D01*
X0248578Y0397833D01*
X0248523Y0397878D01*
X0247385Y0398486D01*
X0247317Y0398507D01*
X0247255Y0398540D01*
X0246020Y0398915D01*
X0245950Y0398922D01*
X0245883Y0398942D01*
X0244598Y0399069D01*
D02*
G37*
G36*
X0475000Y0459787D02*
X0474046Y0459661D01*
X0473158Y0459293D01*
X0472395Y0458708D01*
X0471809Y0457944D01*
X0471441Y0457056D01*
X0471316Y0456102D01*
X0471441Y0455149D01*
X0471809Y0454260D01*
X0472395Y0453497D01*
X0473158Y0452912D01*
X0474046Y0452544D01*
X0475000Y0452418D01*
X0475954Y0452544D01*
X0476842Y0452912D01*
X0477605Y0453497D01*
X0478191Y0454260D01*
X0478559Y0455149D01*
X0478684Y0456102D01*
X0478559Y0457056D01*
X0478191Y0457944D01*
X0477605Y0458708D01*
X0476842Y0459293D01*
X0475954Y0459661D01*
X0475000Y0459787D01*
D02*
G37*
G36*
X0485000D02*
X0484046Y0459661D01*
X0483158Y0459293D01*
X0482395Y0458708D01*
X0481809Y0457944D01*
X0481441Y0457056D01*
X0481316Y0456102D01*
X0481441Y0455149D01*
X0481809Y0454260D01*
X0482395Y0453497D01*
X0483158Y0452912D01*
X0484046Y0452544D01*
X0485000Y0452418D01*
X0485954Y0452544D01*
X0486842Y0452912D01*
X0487605Y0453497D01*
X0488191Y0454260D01*
X0488559Y0455149D01*
X0488684Y0456102D01*
X0488559Y0457056D01*
X0488191Y0457944D01*
X0487605Y0458708D01*
X0486842Y0459293D01*
X0485954Y0459661D01*
X0485000Y0459787D01*
D02*
G37*
G36*
X0455000D02*
X0454046Y0459661D01*
X0453158Y0459293D01*
X0452395Y0458708D01*
X0451809Y0457944D01*
X0451441Y0457056D01*
X0451316Y0456102D01*
X0451441Y0455149D01*
X0451809Y0454260D01*
X0452395Y0453497D01*
X0453158Y0452912D01*
X0454046Y0452544D01*
X0455000Y0452418D01*
X0455954Y0452544D01*
X0456842Y0452912D01*
X0457605Y0453497D01*
X0458191Y0454260D01*
X0458559Y0455149D01*
X0458684Y0456102D01*
X0458559Y0457056D01*
X0458191Y0457944D01*
X0457605Y0458708D01*
X0456842Y0459293D01*
X0455954Y0459661D01*
X0455000Y0459787D01*
D02*
G37*
G36*
X0465000D02*
X0464046Y0459661D01*
X0463158Y0459293D01*
X0462395Y0458708D01*
X0461809Y0457944D01*
X0461441Y0457056D01*
X0461316Y0456102D01*
X0461441Y0455149D01*
X0461809Y0454260D01*
X0462395Y0453497D01*
X0463158Y0452912D01*
X0464046Y0452544D01*
X0465000Y0452418D01*
X0465954Y0452544D01*
X0466842Y0452912D01*
X0467605Y0453497D01*
X0468191Y0454260D01*
X0468559Y0455149D01*
X0468684Y0456102D01*
X0468559Y0457056D01*
X0468191Y0457944D01*
X0467605Y0458708D01*
X0466842Y0459293D01*
X0465954Y0459661D01*
X0465000Y0459787D01*
D02*
G37*
G36*
X0377953Y0459769D02*
X0372047D01*
X0371774Y0459715D01*
X0371543Y0459560D01*
X0371388Y0459328D01*
X0371334Y0459055D01*
Y0453150D01*
X0371388Y0452877D01*
X0371543Y0452645D01*
X0371774Y0452490D01*
X0372047Y0452436D01*
X0377953D01*
X0378226Y0452490D01*
X0378457Y0452645D01*
X0378612Y0452877D01*
X0378666Y0453150D01*
Y0459055D01*
X0378612Y0459328D01*
X0378457Y0459560D01*
X0378226Y0459715D01*
X0377953Y0459769D01*
D02*
G37*
G36*
X0317717Y0457332D02*
X0317670Y0457323D01*
X0317623Y0457326D01*
X0316318Y0457154D01*
X0316252Y0457131D01*
X0316229Y0457128D01*
X0316207Y0457119D01*
X0316138Y0457105D01*
X0314922Y0456602D01*
X0314863Y0456563D01*
X0314842Y0456554D01*
X0314824Y0456540D01*
X0314760Y0456508D01*
X0313716Y0455707D01*
X0313670Y0455654D01*
X0313651Y0455640D01*
X0313637Y0455622D01*
X0313584Y0455575D01*
X0312783Y0454531D01*
X0312752Y0454468D01*
X0312738Y0454449D01*
X0312729Y0454428D01*
X0312690Y0454369D01*
X0312186Y0453153D01*
X0312172Y0453084D01*
X0312163Y0453063D01*
X0312160Y0453040D01*
X0312138Y0452973D01*
X0311966Y0451668D01*
X0311970Y0451598D01*
X0311967Y0451575D01*
X0311970Y0451552D01*
X0311966Y0451482D01*
X0312138Y0450176D01*
X0312160Y0450110D01*
X0312163Y0450087D01*
X0312172Y0450065D01*
X0312186Y0449996D01*
X0312690Y0448780D01*
X0312729Y0448722D01*
X0312738Y0448700D01*
X0312752Y0448682D01*
X0312783Y0448619D01*
X0313584Y0447574D01*
X0313637Y0447528D01*
X0313651Y0447509D01*
X0313670Y0447495D01*
X0313716Y0447442D01*
X0314760Y0446641D01*
X0314824Y0446610D01*
X0314842Y0446596D01*
X0314863Y0446587D01*
X0314922Y0446548D01*
X0316138Y0446044D01*
X0316207Y0446030D01*
X0316229Y0446022D01*
X0316252Y0446019D01*
X0316318Y0445996D01*
X0317623Y0445824D01*
X0317670Y0445827D01*
X0317717Y0445818D01*
X0317763Y0445827D01*
X0317810Y0445824D01*
X0319115Y0445996D01*
X0319181Y0446019D01*
X0319204Y0446022D01*
X0319226Y0446030D01*
X0319295Y0446044D01*
X0320511Y0446548D01*
X0320570Y0446587D01*
X0320591Y0446596D01*
X0320610Y0446610D01*
X0320673Y0446641D01*
X0321717Y0447442D01*
X0321763Y0447495D01*
X0321782Y0447509D01*
X0321796Y0447528D01*
X0321849Y0447574D01*
X0322650Y0448619D01*
X0322681Y0448682D01*
X0322695Y0448700D01*
X0322704Y0448722D01*
X0322743Y0448780D01*
X0323247Y0449996D01*
X0323261Y0450065D01*
X0323270Y0450087D01*
X0323273Y0450110D01*
X0323295Y0450176D01*
X0323467Y0451482D01*
X0323463Y0451552D01*
X0323466Y0451575D01*
X0323463Y0451598D01*
X0323467Y0451668D01*
X0323295Y0452973D01*
X0323273Y0453040D01*
X0323270Y0453063D01*
X0323261Y0453084D01*
X0323247Y0453153D01*
X0322743Y0454369D01*
X0322704Y0454428D01*
X0322695Y0454449D01*
X0322681Y0454468D01*
X0322650Y0454531D01*
X0321849Y0455575D01*
X0321796Y0455622D01*
X0321782Y0455640D01*
X0321763Y0455654D01*
X0321717Y0455707D01*
X0320673Y0456508D01*
X0320610Y0456540D01*
X0320591Y0456554D01*
X0320570Y0456563D01*
X0320511Y0456602D01*
X0319295Y0457105D01*
X0319226Y0457119D01*
X0319204Y0457128D01*
X0319181Y0457131D01*
X0319115Y0457154D01*
X0317810Y0457326D01*
X0317763Y0457323D01*
X0317717Y0457332D01*
D02*
G37*
G36*
X0497480Y0459859D02*
X0497434Y0459850D01*
X0497387Y0459853D01*
X0496212Y0459698D01*
X0496146Y0459676D01*
X0496123Y0459672D01*
X0496101Y0459664D01*
X0496032Y0459650D01*
X0494938Y0459196D01*
X0494879Y0459157D01*
X0494858Y0459149D01*
X0494839Y0459134D01*
X0494776Y0459103D01*
X0493836Y0458382D01*
X0493790Y0458329D01*
X0493772Y0458315D01*
X0493757Y0458297D01*
X0493705Y0458250D01*
X0492983Y0457310D01*
X0492952Y0457247D01*
X0492938Y0457229D01*
X0492929Y0457207D01*
X0492890Y0457149D01*
X0492437Y0456054D01*
X0492423Y0455985D01*
X0492414Y0455964D01*
X0492411Y0455941D01*
X0492388Y0455874D01*
X0492234Y0454700D01*
X0492239Y0454629D01*
X0492235Y0454606D01*
X0492239Y0454583D01*
X0492234Y0454513D01*
X0492388Y0453338D01*
X0492411Y0453272D01*
X0492414Y0453249D01*
X0492423Y0453227D01*
X0492437Y0453158D01*
X0492890Y0452064D01*
X0492929Y0452005D01*
X0492938Y0451984D01*
X0492952Y0451965D01*
X0492983Y0451902D01*
X0493705Y0450962D01*
X0493757Y0450916D01*
X0493772Y0450898D01*
X0493790Y0450883D01*
X0493836Y0450831D01*
X0494776Y0450109D01*
X0494839Y0450078D01*
X0494858Y0450064D01*
X0494879Y0450055D01*
X0494938Y0450016D01*
X0496032Y0449563D01*
X0496101Y0449549D01*
X0496123Y0449540D01*
X0496146Y0449537D01*
X0496212Y0449514D01*
X0497387Y0449360D01*
X0497434Y0449363D01*
X0497480Y0449354D01*
X0497527Y0449363D01*
X0497574Y0449360D01*
X0498748Y0449514D01*
X0498815Y0449537D01*
X0498838Y0449540D01*
X0498859Y0449549D01*
X0498928Y0449563D01*
X0500023Y0450016D01*
X0500081Y0450055D01*
X0500103Y0450064D01*
X0500121Y0450078D01*
X0500184Y0450109D01*
X0501124Y0450831D01*
X0501171Y0450883D01*
X0501189Y0450898D01*
X0501203Y0450916D01*
X0501256Y0450962D01*
X0501977Y0451902D01*
X0502008Y0451965D01*
X0502023Y0451984D01*
X0502031Y0452005D01*
X0502070Y0452064D01*
X0502524Y0453158D01*
X0502538Y0453227D01*
X0502547Y0453249D01*
X0502550Y0453272D01*
X0502572Y0453338D01*
X0502727Y0454513D01*
X0502722Y0454583D01*
X0502725Y0454606D01*
X0502722Y0454629D01*
X0502727Y0454700D01*
X0502572Y0455874D01*
X0502550Y0455941D01*
X0502547Y0455964D01*
X0502538Y0455985D01*
X0502524Y0456054D01*
X0502070Y0457149D01*
X0502031Y0457207D01*
X0502023Y0457229D01*
X0502008Y0457247D01*
X0501977Y0457310D01*
X0501256Y0458250D01*
X0501203Y0458297D01*
X0501189Y0458315D01*
X0501171Y0458329D01*
X0501124Y0458382D01*
X0500184Y0459103D01*
X0500121Y0459134D01*
X0500103Y0459149D01*
X0500081Y0459157D01*
X0500023Y0459196D01*
X0498928Y0459650D01*
X0498859Y0459664D01*
X0498838Y0459672D01*
X0498815Y0459676D01*
X0498748Y0459698D01*
X0497574Y0459853D01*
X0497527Y0459850D01*
X0497480Y0459859D01*
D02*
G37*
G36*
X0258085Y0453078D02*
X0258015Y0453074D01*
X0257992Y0453077D01*
X0257969Y0453074D01*
X0257899Y0453078D01*
X0257051Y0452966D01*
X0256984Y0452944D01*
X0256961Y0452941D01*
X0256940Y0452932D01*
X0256871Y0452918D01*
X0256081Y0452591D01*
X0256023Y0452552D01*
X0256001Y0452543D01*
X0255983Y0452529D01*
X0255920Y0452498D01*
X0255241Y0451977D01*
X0255195Y0451924D01*
X0255176Y0451910D01*
X0255162Y0451892D01*
X0255109Y0451846D01*
X0254589Y0451167D01*
X0254558Y0451104D01*
X0254543Y0451086D01*
X0254535Y0451064D01*
X0254496Y0451006D01*
X0254168Y0450215D01*
X0254155Y0450147D01*
X0254146Y0450125D01*
X0254143Y0450102D01*
X0254120Y0450036D01*
X0254009Y0449188D01*
X0254012Y0449141D01*
X0254002Y0449094D01*
X0254012Y0449048D01*
X0254009Y0449001D01*
X0254120Y0448153D01*
X0254143Y0448087D01*
X0254146Y0448064D01*
X0254155Y0448042D01*
X0254168Y0447973D01*
X0254496Y0447183D01*
X0254535Y0447125D01*
X0254543Y0447103D01*
X0254558Y0447085D01*
X0254589Y0447022D01*
X0255109Y0446344D01*
X0255162Y0446297D01*
X0255176Y0446279D01*
X0255195Y0446265D01*
X0255241Y0446212D01*
X0255920Y0445691D01*
X0255983Y0445660D01*
X0256001Y0445646D01*
X0256023Y0445637D01*
X0256081Y0445598D01*
X0256871Y0445271D01*
X0256940Y0445257D01*
X0256961Y0445248D01*
X0256984Y0445245D01*
X0257051Y0445223D01*
X0257899Y0445111D01*
X0257969Y0445115D01*
X0257992Y0445112D01*
X0258015Y0445115D01*
X0258085Y0445111D01*
X0258933Y0445223D01*
X0259000Y0445245D01*
X0259023Y0445248D01*
X0259044Y0445257D01*
X0259113Y0445271D01*
X0259903Y0445598D01*
X0259962Y0445637D01*
X0259983Y0445646D01*
X0260002Y0445660D01*
X0260065Y0445691D01*
X0260743Y0446212D01*
X0260789Y0446265D01*
X0260808Y0446279D01*
X0260822Y0446297D01*
X0260875Y0446344D01*
X0261396Y0447022D01*
X0261427Y0447085D01*
X0261441Y0447103D01*
X0261450Y0447125D01*
X0261489Y0447183D01*
X0261816Y0447973D01*
X0261830Y0448042D01*
X0261839Y0448064D01*
X0261842Y0448087D01*
X0261864Y0448153D01*
X0261976Y0449001D01*
X0261973Y0449048D01*
X0261982Y0449094D01*
X0261973Y0449141D01*
X0261976Y0449188D01*
X0261864Y0450036D01*
X0261842Y0450102D01*
X0261839Y0450125D01*
X0261830Y0450147D01*
X0261816Y0450215D01*
X0261489Y0451006D01*
X0261450Y0451064D01*
X0261441Y0451086D01*
X0261427Y0451104D01*
X0261396Y0451167D01*
X0260875Y0451846D01*
X0260822Y0451892D01*
X0260808Y0451910D01*
X0260789Y0451924D01*
X0260743Y0451977D01*
X0260065Y0452498D01*
X0260002Y0452529D01*
X0259983Y0452543D01*
X0259962Y0452552D01*
X0259903Y0452591D01*
X0259113Y0452918D01*
X0259044Y0452932D01*
X0259023Y0452941D01*
X0259000Y0452944D01*
X0258933Y0452966D01*
X0258085Y0453078D01*
D02*
G37*
G36*
X0568164Y0454495D02*
X0568094Y0454491D01*
X0568071Y0454494D01*
X0568048Y0454491D01*
X0567978Y0454495D01*
X0567130Y0454384D01*
X0567063Y0454361D01*
X0567040Y0454358D01*
X0567019Y0454349D01*
X0566950Y0454336D01*
X0566160Y0454008D01*
X0566101Y0453969D01*
X0566080Y0453960D01*
X0566061Y0453946D01*
X0565998Y0453915D01*
X0565320Y0453395D01*
X0565274Y0453342D01*
X0565255Y0453328D01*
X0565241Y0453309D01*
X0565188Y0453263D01*
X0564668Y0452584D01*
X0564636Y0452521D01*
X0564622Y0452503D01*
X0564613Y0452481D01*
X0564574Y0452423D01*
X0564247Y0451633D01*
X0564233Y0451564D01*
X0564224Y0451543D01*
X0564221Y0451519D01*
X0564199Y0451453D01*
X0564087Y0450605D01*
X0564090Y0450558D01*
X0564081Y0450512D01*
X0564090Y0450466D01*
X0564087Y0450419D01*
X0564199Y0449571D01*
X0564221Y0449504D01*
X0564224Y0449481D01*
X0564233Y0449460D01*
X0564247Y0449391D01*
X0564574Y0448601D01*
X0564613Y0448542D01*
X0564622Y0448521D01*
X0564636Y0448502D01*
X0564668Y0448439D01*
X0565188Y0447761D01*
X0565241Y0447715D01*
X0565255Y0447696D01*
X0565274Y0447682D01*
X0565320Y0447629D01*
X0565998Y0447108D01*
X0566061Y0447077D01*
X0566080Y0447063D01*
X0566101Y0447054D01*
X0566160Y0447015D01*
X0566950Y0446688D01*
X0567019Y0446674D01*
X0567040Y0446665D01*
X0567063Y0446662D01*
X0567130Y0446640D01*
X0567978Y0446528D01*
X0568048Y0446533D01*
X0568071Y0446530D01*
X0568094Y0446533D01*
X0568164Y0446528D01*
X0569012Y0446640D01*
X0569078Y0446662D01*
X0569101Y0446665D01*
X0569123Y0446674D01*
X0569192Y0446688D01*
X0569982Y0447015D01*
X0570040Y0447054D01*
X0570062Y0447063D01*
X0570080Y0447077D01*
X0570143Y0447108D01*
X0570822Y0447629D01*
X0570868Y0447682D01*
X0570887Y0447696D01*
X0570901Y0447715D01*
X0570954Y0447761D01*
X0571474Y0448439D01*
X0571505Y0448502D01*
X0571520Y0448521D01*
X0571528Y0448542D01*
X0571567Y0448601D01*
X0571895Y0449391D01*
X0571908Y0449460D01*
X0571917Y0449481D01*
X0571920Y0449504D01*
X0571943Y0449571D01*
X0572054Y0450419D01*
X0572051Y0450466D01*
X0572061Y0450512D01*
X0572051Y0450558D01*
X0572054Y0450605D01*
X0571943Y0451453D01*
X0571920Y0451519D01*
X0571917Y0451543D01*
X0571908Y0451564D01*
X0571895Y0451633D01*
X0571567Y0452423D01*
X0571528Y0452481D01*
X0571520Y0452503D01*
X0571505Y0452521D01*
X0571474Y0452584D01*
X0570954Y0453263D01*
X0570901Y0453309D01*
X0570887Y0453328D01*
X0570868Y0453342D01*
X0570822Y0453395D01*
X0570143Y0453915D01*
X0570080Y0453946D01*
X0570062Y0453960D01*
X0570040Y0453969D01*
X0569982Y0454008D01*
X0569192Y0454336D01*
X0569123Y0454349D01*
X0569101Y0454358D01*
X0569078Y0454361D01*
X0569012Y0454384D01*
X0568164Y0454495D01*
D02*
G37*
G36*
X0261535Y0433419D02*
X0260854Y0433330D01*
X0260220Y0433067D01*
X0259674Y0432649D01*
X0259256Y0432103D01*
X0258993Y0431469D01*
X0258904Y0430787D01*
X0258993Y0430106D01*
X0259256Y0429471D01*
X0259674Y0428926D01*
X0260220Y0428508D01*
X0260854Y0428245D01*
X0261535Y0428155D01*
X0262217Y0428245D01*
X0262851Y0428508D01*
X0263397Y0428926D01*
X0263815Y0429471D01*
X0264078Y0430106D01*
X0264167Y0430787D01*
X0264078Y0431469D01*
X0263815Y0432103D01*
X0263397Y0432649D01*
X0262851Y0433067D01*
X0262217Y0433330D01*
X0261535Y0433419D01*
D02*
G37*
G36*
X0352992Y0455377D02*
X0352039Y0455252D01*
X0351150Y0454884D01*
X0350387Y0454298D01*
X0349801Y0453535D01*
X0349433Y0452646D01*
X0349308Y0451693D01*
X0349433Y0450739D01*
X0349801Y0449851D01*
X0350387Y0449088D01*
X0351150Y0448502D01*
X0352039Y0448134D01*
X0352992Y0448009D01*
X0353946Y0448134D01*
X0354834Y0448502D01*
X0355597Y0449088D01*
X0356183Y0449851D01*
X0356551Y0450739D01*
X0356676Y0451693D01*
X0356551Y0452646D01*
X0356183Y0453535D01*
X0355597Y0454298D01*
X0354834Y0454884D01*
X0353946Y0455252D01*
X0352992Y0455377D01*
D02*
G37*
G36*
X0254488Y0429207D02*
X0253807Y0429117D01*
X0253172Y0428854D01*
X0252627Y0428436D01*
X0252209Y0427891D01*
X0251946Y0427256D01*
X0251856Y0426575D01*
X0251946Y0425894D01*
X0252209Y0425259D01*
X0252627Y0424714D01*
X0253172Y0424295D01*
X0253807Y0424032D01*
X0254488Y0423943D01*
X0255169Y0424032D01*
X0255804Y0424295D01*
X0256349Y0424714D01*
X0256768Y0425259D01*
X0257031Y0425894D01*
X0257120Y0426575D01*
X0257031Y0427256D01*
X0256777Y0427868D01*
X0256722Y0428146D01*
X0256456Y0428543D01*
X0256060Y0428808D01*
X0255781Y0428864D01*
X0255169Y0429117D01*
X0254488Y0429207D01*
D02*
G37*
G36*
X0386221Y0432032D02*
X0385563Y0431902D01*
X0385006Y0431529D01*
X0384634Y0430972D01*
X0384503Y0430315D01*
X0384634Y0429658D01*
X0385006Y0429101D01*
X0385563Y0428728D01*
X0386221Y0428598D01*
X0386878Y0428728D01*
X0387153Y0428912D01*
X0387324Y0428741D01*
X0387721Y0428476D01*
X0388189Y0428383D01*
X0397067D01*
X0397611Y0428020D01*
X0398268Y0427889D01*
X0398925Y0428020D01*
X0399482Y0428392D01*
X0399854Y0428949D01*
X0399985Y0429606D01*
X0399854Y0430264D01*
X0399482Y0430821D01*
X0398925Y0431193D01*
X0398268Y0431323D01*
X0397611Y0431193D01*
X0397067Y0430830D01*
X0388696D01*
X0388188Y0431338D01*
X0387791Y0431603D01*
X0387323Y0431696D01*
X0387217Y0431675D01*
X0386878Y0431902D01*
X0386221Y0432032D01*
D02*
G37*
G36*
X0244283Y0449109D02*
X0244213Y0449102D01*
X0244213Y0449102D01*
X0244213Y0449102D01*
X0244143Y0449109D01*
X0242819Y0448979D01*
X0242752Y0448958D01*
X0242682Y0448951D01*
X0241409Y0448565D01*
X0241347Y0448532D01*
X0241347Y0448532D01*
X0241280Y0448512D01*
X0240107Y0447885D01*
X0240053Y0447840D01*
X0240053Y0447840D01*
X0240052Y0447840D01*
X0239990Y0447807D01*
X0238962Y0446963D01*
X0238918Y0446909D01*
X0238918Y0446909D01*
X0238918Y0446909D01*
X0238863Y0446864D01*
X0238020Y0445836D01*
X0237987Y0445774D01*
X0237986Y0445774D01*
X0237986Y0445774D01*
X0237942Y0445720D01*
X0237315Y0444547D01*
X0237295Y0444480D01*
X0237295Y0444480D01*
X0237261Y0444418D01*
X0236875Y0443145D01*
X0236868Y0443075D01*
X0236848Y0443008D01*
X0236718Y0441684D01*
X0236721Y0441649D01*
X0236714Y0441614D01*
X0236721Y0441579D01*
X0236718Y0441544D01*
X0236848Y0440221D01*
X0236868Y0440153D01*
X0236875Y0440083D01*
X0237261Y0438811D01*
X0237295Y0438749D01*
X0237295Y0438749D01*
X0237315Y0438681D01*
X0237942Y0437508D01*
X0237986Y0437454D01*
X0237986Y0437454D01*
X0237987Y0437454D01*
X0238020Y0437392D01*
X0238863Y0436364D01*
X0238918Y0436319D01*
X0238918Y0436319D01*
X0238918Y0436319D01*
X0238962Y0436265D01*
X0239990Y0435421D01*
X0240052Y0435388D01*
X0240053Y0435388D01*
X0240053Y0435388D01*
X0240107Y0435344D01*
X0241280Y0434717D01*
X0241347Y0434696D01*
X0241347Y0434696D01*
X0241409Y0434663D01*
X0242682Y0434277D01*
X0242752Y0434270D01*
X0242819Y0434250D01*
X0244143Y0434119D01*
X0244213Y0434126D01*
X0244213Y0434126D01*
X0244213Y0434126D01*
X0244283Y0434119D01*
X0245606Y0434250D01*
X0245673Y0434270D01*
X0245743Y0434277D01*
X0247016Y0434663D01*
X0247078Y0434696D01*
X0247078Y0434696D01*
X0247145Y0434717D01*
X0248318Y0435344D01*
X0248373Y0435388D01*
X0248373Y0435388D01*
X0248373Y0435388D01*
X0248435Y0435421D01*
X0249463Y0436265D01*
X0249507Y0436319D01*
X0249507Y0436319D01*
X0249507Y0436319D01*
X0249562Y0436364D01*
X0250406Y0437392D01*
X0250439Y0437454D01*
X0250439Y0437454D01*
X0250439Y0437454D01*
X0250483Y0437508D01*
X0251110Y0438681D01*
X0251131Y0438749D01*
X0251131Y0438749D01*
X0251164Y0438811D01*
X0251550Y0440083D01*
X0251557Y0440153D01*
X0251577Y0440221D01*
X0251708Y0441544D01*
X0251704Y0441579D01*
X0251711Y0441614D01*
X0251704Y0441649D01*
X0251708Y0441684D01*
X0251577Y0443008D01*
X0251557Y0443075D01*
X0251550Y0443145D01*
X0251164Y0444418D01*
X0251131Y0444480D01*
X0251131Y0444480D01*
X0251110Y0444547D01*
X0250483Y0445720D01*
X0250439Y0445774D01*
X0250439Y0445774D01*
X0250439Y0445774D01*
X0250406Y0445836D01*
X0249562Y0446864D01*
X0249507Y0446909D01*
X0249507Y0446909D01*
X0249507Y0446909D01*
X0249463Y0446963D01*
X0248435Y0447807D01*
X0248373Y0447840D01*
X0248373Y0447840D01*
X0248373Y0447840D01*
X0248318Y0447885D01*
X0247145Y0448512D01*
X0247078Y0448532D01*
X0247078Y0448532D01*
X0247016Y0448565D01*
X0245743Y0448951D01*
X0245673Y0448958D01*
X0245606Y0448979D01*
X0244283Y0449109D01*
D02*
G37*
G36*
X0435000Y0459787D02*
X0434046Y0459661D01*
X0433158Y0459293D01*
X0432395Y0458708D01*
X0431809Y0457944D01*
X0431441Y0457056D01*
X0431316Y0456102D01*
X0431441Y0455149D01*
X0431809Y0454260D01*
X0432395Y0453497D01*
X0433158Y0452912D01*
X0434046Y0452544D01*
X0435000Y0452418D01*
X0435954Y0452544D01*
X0436842Y0452912D01*
X0437605Y0453497D01*
X0438191Y0454260D01*
X0438559Y0455149D01*
X0438684Y0456102D01*
X0438559Y0457056D01*
X0438191Y0457944D01*
X0437605Y0458708D01*
X0436842Y0459293D01*
X0435954Y0459661D01*
X0435000Y0459787D01*
D02*
G37*
G36*
X0445000D02*
X0444046Y0459661D01*
X0443158Y0459293D01*
X0442395Y0458708D01*
X0441809Y0457944D01*
X0441441Y0457056D01*
X0441316Y0456102D01*
X0441441Y0455149D01*
X0441809Y0454260D01*
X0442395Y0453497D01*
X0443158Y0452912D01*
X0444046Y0452544D01*
X0445000Y0452418D01*
X0445954Y0452544D01*
X0446842Y0452912D01*
X0447605Y0453497D01*
X0448191Y0454260D01*
X0448559Y0455149D01*
X0448684Y0456102D01*
X0448559Y0457056D01*
X0448191Y0457944D01*
X0447605Y0458708D01*
X0446842Y0459293D01*
X0445954Y0459661D01*
X0445000Y0459787D01*
D02*
G37*
G36*
X0581605Y0450329D02*
X0581535Y0450322D01*
X0581465Y0450329D01*
X0580180Y0450202D01*
X0580113Y0450182D01*
X0580043Y0450175D01*
X0578808Y0449800D01*
X0578746Y0449767D01*
X0578678Y0449746D01*
X0577539Y0449138D01*
X0577485Y0449093D01*
X0577423Y0449060D01*
X0576425Y0448241D01*
X0576380Y0448186D01*
X0576326Y0448142D01*
X0575507Y0447144D01*
X0575474Y0447082D01*
X0575429Y0447027D01*
X0574821Y0445889D01*
X0574800Y0445821D01*
X0574767Y0445759D01*
X0574392Y0444524D01*
X0574385Y0444454D01*
X0574365Y0444386D01*
X0574238Y0443102D01*
X0574242Y0443066D01*
X0574235Y0443032D01*
X0574242Y0442997D01*
X0574238Y0442962D01*
X0574365Y0441677D01*
X0574385Y0441609D01*
X0574392Y0441539D01*
X0574767Y0440304D01*
X0574800Y0440242D01*
X0574821Y0440174D01*
X0575429Y0439036D01*
X0575474Y0438981D01*
X0575507Y0438919D01*
X0576326Y0437921D01*
X0576380Y0437877D01*
X0576425Y0437822D01*
X0577423Y0437003D01*
X0577485Y0436970D01*
X0577539Y0436925D01*
X0578678Y0436317D01*
X0578746Y0436296D01*
X0578808Y0436263D01*
X0580043Y0435888D01*
X0580113Y0435881D01*
X0580181Y0435861D01*
X0581465Y0435734D01*
X0581535Y0435741D01*
X0581605Y0435734D01*
X0582890Y0435861D01*
X0582958Y0435881D01*
X0583028Y0435888D01*
X0584263Y0436263D01*
X0584325Y0436296D01*
X0584392Y0436317D01*
X0585531Y0436925D01*
X0585586Y0436970D01*
X0585648Y0437003D01*
X0586646Y0437822D01*
X0586690Y0437877D01*
X0586745Y0437921D01*
X0587564Y0438919D01*
X0587597Y0438981D01*
X0587642Y0439036D01*
X0588250Y0440174D01*
X0588271Y0440242D01*
X0588304Y0440304D01*
X0588679Y0441539D01*
X0588686Y0441609D01*
X0588706Y0441677D01*
X0588833Y0442962D01*
X0588829Y0442997D01*
X0588836Y0443032D01*
X0588829Y0443066D01*
X0588833Y0443102D01*
X0588706Y0444386D01*
X0588686Y0444454D01*
X0588679Y0444524D01*
X0588304Y0445759D01*
X0588271Y0445821D01*
X0588250Y0445889D01*
X0587642Y0447027D01*
X0587597Y0447082D01*
X0587564Y0447144D01*
X0586745Y0448142D01*
X0586690Y0448186D01*
X0586646Y0448241D01*
X0585648Y0449060D01*
X0585586Y0449093D01*
X0585531Y0449138D01*
X0584392Y0449746D01*
X0584325Y0449767D01*
X0584263Y0449800D01*
X0583028Y0450175D01*
X0582958Y0450182D01*
X0582890Y0450202D01*
X0581605Y0450329D01*
D02*
G37*
G36*
X0425000Y0459787D02*
X0424046Y0459661D01*
X0423158Y0459293D01*
X0422395Y0458708D01*
X0421809Y0457944D01*
X0421441Y0457056D01*
X0421316Y0456102D01*
X0421441Y0455149D01*
X0421809Y0454260D01*
X0422395Y0453497D01*
X0423158Y0452912D01*
X0424046Y0452544D01*
X0425000Y0452418D01*
X0425954Y0452544D01*
X0426842Y0452912D01*
X0427605Y0453497D01*
X0428191Y0454260D01*
X0428559Y0455149D01*
X0428684Y0456102D01*
X0428559Y0457056D01*
X0428191Y0457944D01*
X0427605Y0458708D01*
X0426842Y0459293D01*
X0425954Y0459661D01*
X0425000Y0459787D01*
D02*
G37*
%LPD*%
D34*
X0485000Y0376500D02*
D03*
X0375000Y0456102D02*
D03*
D36*
X0387795Y0402756D02*
X0390905Y0399646D01*
X0385432Y0402756D02*
X0387795D01*
X0384645Y0403543D02*
X0385432Y0402756D01*
X0384645Y0413779D02*
Y0414095D01*
X0383622Y0415118D02*
X0384645Y0414095D01*
X0411811Y0416108D02*
X0421018D01*
X0411089Y0416830D02*
X0411811Y0416108D01*
X0429528Y0407598D02*
X0480669D01*
X0386221Y0430315D02*
X0386929D01*
X0387047Y0430197D01*
X0297784Y0412645D02*
X0297795Y0411181D01*
X0293819Y0406693D02*
X0294488D01*
X0269370Y0419606D02*
X0297795Y0391181D01*
X0269370Y0419606D02*
Y0421890D01*
X0287835Y0391142D02*
X0297795Y0381181D01*
X0287835Y0391142D02*
Y0394724D01*
X0306883Y0390268D02*
X0361700D01*
X0297795Y0381181D02*
X0306883Y0390268D01*
X0285827Y0421260D02*
X0285866Y0421220D01*
X0530197Y0412205D02*
Y0413346D01*
X0388189Y0429606D02*
X0398268D01*
X0387323Y0430472D02*
X0388189Y0429606D01*
X0387047Y0430197D02*
X0387323Y0430472D01*
X0375905Y0411172D02*
X0379851Y0415118D01*
X0375905Y0408071D02*
Y0411172D01*
X0372874Y0405039D02*
X0375905Y0408071D01*
X0379851Y0415118D02*
X0383622D01*
X0372244Y0409921D02*
X0379153Y0416830D01*
X0372205Y0409921D02*
X0372244D01*
X0382402Y0391260D02*
X0389009Y0384653D01*
X0381024Y0391260D02*
X0382402D01*
X0389009Y0384653D02*
X0395074D01*
X0379153Y0416830D02*
X0411089D01*
X0389921Y0422913D02*
X0390000Y0422992D01*
X0401035D01*
X0440868Y0395605D02*
X0477369D01*
X0440164Y0393905D02*
X0476665D01*
X0440861Y0395612D02*
X0440868Y0395605D01*
X0440157Y0393912D02*
X0440164Y0393905D01*
X0421018Y0416108D02*
X0429528Y0407598D01*
X0379580Y0391260D02*
X0381024D01*
X0395074Y0384653D02*
X0395940Y0385519D01*
X0395778Y0382953D02*
X0396644Y0383819D01*
X0386534Y0382953D02*
X0395778D01*
X0383306Y0386180D02*
X0386534Y0382953D01*
X0396644Y0383819D02*
X0421600D01*
X0395940Y0385519D02*
X0420895D01*
X0430989Y0395612D01*
X0421600Y0383819D02*
X0431693Y0393912D01*
X0376333Y0388013D02*
X0379580Y0391260D01*
X0365656Y0386313D02*
X0383306D01*
X0361700Y0390268D02*
X0365656Y0386313D01*
X0430989Y0395612D02*
X0440861D01*
X0431693Y0393912D02*
X0440157D01*
X0366360Y0388013D02*
X0376333D01*
X0362404Y0391968D02*
X0366360Y0388013D01*
X0298583Y0391968D02*
X0362404D01*
X0493999Y0446378D02*
Y0447379D01*
X0339331Y0414961D02*
X0339370Y0414921D01*
Y0404331D02*
Y0414921D01*
X0492953Y0448425D02*
X0493999Y0447379D01*
X0484449Y0448425D02*
X0492953D01*
X0522606Y0383905D02*
X0530905Y0392205D01*
X0345354Y0384528D02*
X0361772D01*
X0362598Y0383701D01*
X0297795Y0391181D02*
X0298583Y0391968D01*
X0477369Y0395605D02*
X0481005Y0391968D01*
X0476665Y0393905D02*
X0480301Y0390268D01*
X0499692D01*
X0507756Y0382205D01*
X0530905D01*
X0481005Y0391968D02*
X0500396D01*
X0508460Y0383905D01*
X0522606D01*
X0254488Y0426575D02*
X0255591Y0427678D01*
D37*
X0385709Y0400039D02*
X0388110Y0397638D01*
Y0389935D02*
Y0397638D01*
X0388504Y0393622D02*
X0393307Y0398425D01*
Y0405236D01*
X0395391Y0394423D02*
Y0405672D01*
X0393001Y0392033D02*
X0395391Y0394423D01*
X0393864Y0389949D02*
X0396891Y0392976D01*
X0402480Y0414369D02*
X0406495D01*
X0406220D02*
X0406495D01*
X0425349Y0435787D02*
X0466417D01*
X0451502Y0432565D02*
X0465660D01*
X0425272Y0435710D02*
X0425349Y0435787D01*
X0466417D02*
X0470945Y0431260D01*
X0419685Y0423071D02*
X0429921Y0412835D01*
X0421654Y0437602D02*
Y0438189D01*
Y0437602D02*
X0423468Y0435787D01*
X0423468D02*
X0423468D01*
X0423468D02*
X0423545Y0435710D01*
X0425272D01*
X0401320Y0438838D02*
X0405512Y0434646D01*
X0400393Y0438976D02*
X0400394Y0438976D01*
X0400393Y0438975D02*
Y0438976D01*
X0417008Y0445984D02*
X0480472D01*
X0406992Y0456000D02*
X0417008Y0445984D01*
X0405000Y0456000D02*
X0406992D01*
X0417717Y0447638D02*
X0476496D01*
X0413416Y0451938D02*
X0417717Y0447638D01*
X0413416Y0451938D02*
Y0454417D01*
X0415000Y0456000D01*
X0476496Y0447638D02*
X0477441Y0448583D01*
X0395000Y0376500D02*
Y0377791D01*
X0397797Y0380588D02*
X0461454D01*
X0395000Y0377791D02*
X0397797Y0380588D01*
X0396441Y0381353D02*
X0397176Y0382088D01*
X0389853Y0381353D02*
X0396441D01*
X0385000Y0376500D02*
X0389853Y0381353D01*
X0480467Y0387913D02*
X0482874D01*
X0480043Y0387489D02*
X0480467Y0387913D01*
X0480043Y0387410D02*
Y0387489D01*
X0475000Y0382367D02*
X0480043Y0387410D01*
X0475000Y0376500D02*
Y0382367D01*
X0486889Y0388070D02*
X0491653D01*
X0485000Y0386181D02*
X0486889Y0388070D01*
X0485000Y0376500D02*
Y0386181D01*
X0488898Y0394173D02*
X0492126D01*
X0487008Y0396063D02*
X0488898Y0394173D01*
X0487008Y0396063D02*
Y0401496D01*
X0470945Y0431260D02*
X0474252D01*
X0413150Y0423071D02*
X0419685D01*
X0411221Y0425000D02*
X0413150Y0423071D01*
X0435157Y0420551D02*
Y0421732D01*
X0434134Y0419528D02*
X0435157Y0420551D01*
X0434134Y0415906D02*
Y0419528D01*
Y0415906D02*
X0435827Y0414213D01*
X0432205Y0414646D02*
X0435512Y0411339D01*
X0433770Y0409254D02*
X0438796D01*
X0432598Y0410427D02*
X0433770Y0409254D01*
X0438796D02*
X0441929Y0412387D01*
X0426181Y0422244D02*
X0432205Y0416221D01*
X0465660Y0432565D02*
X0466061Y0432164D01*
X0441929Y0412387D02*
Y0414567D01*
X0429921Y0410551D02*
Y0412835D01*
X0360847Y0424119D02*
X0368468Y0431741D01*
Y0432759D01*
X0366384Y0434214D02*
X0367598Y0435427D01*
X0366384Y0431778D02*
Y0434214D01*
X0359347Y0424741D02*
X0366384Y0431778D01*
X0378504Y0409528D02*
X0380000D01*
X0380119Y0409409D01*
X0393267D01*
X0383064Y0392860D02*
X0389671Y0386253D01*
X0378805Y0392860D02*
X0383064D01*
X0389671Y0386253D02*
X0394411D01*
X0450591Y0402441D02*
X0452323Y0404173D01*
X0450591Y0402402D02*
Y0402441D01*
X0452323Y0404173D02*
X0455787D01*
X0457283Y0402677D01*
X0435591Y0400315D02*
X0453307D01*
X0442152Y0398705D02*
X0456106D01*
X0441531Y0397205D02*
X0479095D01*
X0457283Y0399882D02*
Y0402677D01*
X0456106Y0398705D02*
X0457283Y0399882D01*
X0442145Y0398712D02*
X0442152Y0398705D01*
X0441524Y0397212D02*
X0441531Y0397205D01*
X0399490Y0411379D02*
X0402480Y0414369D01*
X0399490Y0407649D02*
Y0411379D01*
X0396891Y0405050D02*
X0399490Y0407649D01*
X0396891Y0392976D02*
Y0405050D01*
X0395391Y0405672D02*
X0397990Y0408270D01*
X0418661Y0408819D02*
X0426062Y0401418D01*
X0418661Y0408819D02*
Y0411339D01*
X0431693Y0404213D02*
X0435591Y0400315D01*
X0427362Y0404213D02*
X0431693D01*
X0424449Y0407126D02*
X0427362Y0404213D01*
X0453307Y0400315D02*
X0454487Y0401495D01*
X0434949Y0398712D02*
X0442145D01*
X0432168Y0401494D02*
X0434949Y0398712D01*
X0429688Y0401494D02*
X0432168D01*
X0424730Y0396535D02*
X0429688Y0401494D01*
X0423228Y0396535D02*
X0424730D01*
X0426062Y0400944D02*
Y0401418D01*
X0380866Y0391102D02*
X0381024Y0391260D01*
X0380866Y0388779D02*
Y0391102D01*
X0389291Y0412756D02*
X0396648D01*
X0397990Y0411414D01*
Y0408270D02*
Y0411414D01*
X0390314Y0390946D02*
X0391311Y0389949D01*
X0390314Y0390946D02*
Y0391102D01*
X0391311Y0389949D02*
X0393864D01*
X0388110Y0389935D02*
X0390293Y0387753D01*
X0393790D02*
X0394656Y0388619D01*
X0390293Y0387753D02*
X0393790D01*
X0394411Y0386253D02*
X0395277Y0387119D01*
X0394656Y0388619D02*
X0419611D01*
X0395277Y0387119D02*
X0420233D01*
X0397176Y0382088D02*
X0459293D01*
X0420233Y0387119D02*
X0430326Y0397212D01*
X0375557Y0389613D02*
X0378805Y0392860D01*
X0390868Y0407320D02*
X0394919D01*
X0430402Y0399410D02*
X0430551D01*
X0419611Y0388619D02*
X0430402Y0399410D01*
X0367907Y0389613D02*
X0375557D01*
X0367323Y0390197D02*
X0367907Y0389613D01*
X0394919Y0407320D02*
X0395905Y0408307D01*
Y0410551D01*
X0389493Y0405945D02*
X0390868Y0407320D01*
X0382835Y0405945D02*
X0389493D01*
X0377165Y0400276D02*
X0382835Y0405945D01*
X0430326Y0397212D02*
X0441524D01*
X0442046Y0391574D02*
X0442558D01*
X0442755Y0391377D01*
X0442835Y0391457D01*
X0441303Y0389293D02*
X0444209D01*
X0439252Y0391344D02*
X0441303Y0389293D01*
X0442885Y0387757D02*
X0456169D01*
X0441623Y0386495D02*
X0442885Y0387757D01*
X0443506Y0386257D02*
X0455548D01*
X0442285Y0385036D02*
X0443506Y0386257D01*
X0444369Y0384173D02*
X0444448Y0384094D01*
X0442835Y0391457D02*
X0466496D01*
X0459767Y0385509D02*
X0461095D01*
X0464055Y0388470D01*
X0457032Y0389015D02*
X0457912D01*
X0456790Y0389257D02*
X0457032Y0389015D01*
X0444245Y0389257D02*
X0456790D01*
X0444209Y0389293D02*
X0444245Y0389257D01*
X0456169Y0387757D02*
X0457262Y0386664D01*
X0430273Y0388620D02*
X0438541D01*
X0428937Y0387283D02*
X0430273Y0388620D01*
X0438541D02*
X0438779Y0388858D01*
X0461454Y0380588D02*
X0463779Y0382913D01*
X0432795Y0391063D02*
X0433233Y0391501D01*
Y0391728D01*
X0444448Y0384094D02*
X0454605D01*
X0440787Y0386495D02*
X0441623D01*
X0441644Y0384327D02*
X0442285Y0384967D01*
X0440787Y0386416D02*
Y0386495D01*
X0440197Y0385827D02*
X0440787Y0386416D01*
X0442285Y0384967D02*
Y0385036D01*
X0454605Y0384094D02*
X0454684Y0384173D01*
X0438779Y0388858D02*
X0439054Y0388582D01*
X0428035Y0384327D02*
X0441644D01*
X0459293Y0382088D02*
X0460630Y0383425D01*
X0457262Y0386664D02*
X0458800D01*
X0460451Y0388315D01*
X0427520Y0384842D02*
X0428035Y0384327D01*
X0432953Y0385827D02*
X0440197D01*
X0432244Y0386535D02*
X0432953Y0385827D01*
X0369605Y0393466D02*
X0370197Y0392874D01*
X0369329Y0393466D02*
X0369605D01*
X0368858Y0393937D02*
X0369329Y0393466D01*
X0370358Y0396328D02*
X0372873Y0393813D01*
Y0392913D02*
Y0393813D01*
Y0392913D02*
X0373196D01*
X0432205Y0414646D02*
Y0416221D01*
X0432598Y0410039D02*
Y0410427D01*
X0480472Y0445984D02*
X0481181Y0446693D01*
X0477441Y0448583D02*
X0478346D01*
X0448071Y0411378D02*
X0450197Y0413504D01*
X0465000Y0376500D02*
X0467012D01*
X0479095Y0397205D02*
X0483110Y0401221D01*
X0467012Y0376500D02*
X0478543Y0388032D01*
Y0388937D01*
X0454528Y0376972D02*
X0455000Y0376500D01*
X0460451Y0388315D02*
X0460953D01*
X0464055Y0388470D02*
Y0388740D01*
X0467252Y0389213D02*
Y0390701D01*
X0466496Y0391457D02*
X0467252Y0390701D01*
X0484527Y0403976D02*
X0487008Y0401496D01*
X0468937Y0400512D02*
X0478386D01*
X0481850Y0403976D01*
X0484527D01*
X0466061Y0432164D02*
X0466456Y0432558D01*
X0439252Y0391344D02*
Y0391728D01*
X0433233D02*
X0439252D01*
X0359347Y0408724D02*
Y0424741D01*
Y0408724D02*
X0368858Y0399213D01*
Y0393937D02*
Y0399213D01*
X0360847Y0409345D02*
Y0424119D01*
Y0409345D02*
X0370358Y0399834D01*
Y0396328D02*
Y0399834D01*
X0377165Y0397584D02*
Y0400276D01*
X0459421Y0385164D02*
X0459767Y0385509D01*
X0455548Y0386257D02*
X0456640Y0385164D01*
X0459421D01*
X0450197Y0413504D02*
Y0416142D01*
X0450039Y0416299D02*
X0450197Y0416142D01*
D38*
X0388201Y0451154D02*
X0393047Y0456000D01*
X0387919Y0451154D02*
X0388201D01*
X0369370Y0419291D02*
X0383150Y0433071D01*
X0393047Y0456000D02*
X0395000D01*
X0297795Y0431181D02*
X0298386Y0431772D01*
X0369370Y0416653D02*
X0369685Y0416339D01*
X0369370Y0416653D02*
Y0419291D01*
D40*
X0448903Y0427908D02*
X0522092D01*
X0443740Y0433071D02*
X0448903Y0427908D01*
X0420358Y0433071D02*
X0443740D01*
X0436457Y0439213D02*
X0509252D01*
X0434924Y0442913D02*
X0520198D01*
X0446737Y0424208D02*
X0519887D01*
X0442087Y0428858D02*
X0446737Y0424208D01*
X0419338Y0428858D02*
X0442087D01*
X0406037Y0442160D02*
X0419338Y0428858D01*
X0396719Y0442160D02*
X0406037D01*
X0407569Y0445860D02*
X0420358Y0433071D01*
X0395187Y0445860D02*
X0407569D01*
X0415787Y0442874D02*
X0434886D01*
X0409102Y0449560D02*
X0415787Y0442874D01*
X0393654Y0449560D02*
X0409102D01*
X0391732Y0447637D02*
X0393654Y0449560D01*
X0393264Y0443937D02*
X0395187Y0445860D01*
X0394797Y0440237D02*
X0396719Y0442160D01*
X0362441Y0440237D02*
X0394797D01*
X0360555Y0443937D02*
X0393264D01*
X0359022Y0447637D02*
X0391732D01*
X0527795Y0422205D02*
X0530905D01*
X0522092Y0427908D02*
X0527795Y0422205D01*
X0533110Y0420000D02*
X0564528D01*
X0530905Y0422205D02*
X0533110Y0420000D01*
X0292126Y0401181D02*
X0297795D01*
X0278110Y0415197D02*
X0292126Y0401181D01*
X0278110Y0415197D02*
Y0424956D01*
X0309566Y0424606D02*
X0346810D01*
X0297784Y0412645D02*
X0309566Y0424606D01*
X0305079Y0428465D02*
X0345082D01*
X0297795Y0421181D02*
X0305079Y0428465D01*
X0344062Y0432677D02*
X0359022Y0447637D01*
X0299291Y0432677D02*
X0344062D01*
X0296024Y0411181D02*
X0297795D01*
X0289331Y0417874D02*
X0296024Y0411181D01*
X0546063Y0412205D02*
X0561417Y0396850D01*
X0530905Y0412205D02*
X0546063D01*
X0561417Y0396850D02*
X0570079D01*
X0577165Y0403937D01*
X0571575Y0416221D02*
X0577165Y0410630D01*
Y0403937D02*
Y0410630D01*
X0520198Y0442913D02*
X0530905Y0432205D01*
X0434886Y0442874D02*
X0434924Y0442913D01*
X0345082Y0428465D02*
X0360555Y0443937D01*
X0346810Y0424606D02*
X0362441Y0440237D01*
X0530905Y0412205D02*
Y0413189D01*
X0519887Y0424208D02*
X0530905Y0413189D01*
X0268898Y0425074D02*
Y0432712D01*
X0265389Y0436221D02*
X0268898Y0432712D01*
X0254331Y0436221D02*
X0265389D01*
X0246850Y0428740D02*
X0254331Y0436221D01*
X0251614Y0410591D02*
X0254488D01*
X0246850Y0415354D02*
X0251614Y0410591D01*
X0246850Y0415354D02*
Y0428740D01*
X0268898Y0425074D02*
X0277992D01*
X0263814D02*
X0268898D01*
X0277992D02*
X0283381D01*
X0277992D02*
X0278110Y0424956D01*
X0283381Y0425074D02*
X0289488Y0431181D01*
X0261535Y0422795D02*
X0263814Y0425074D01*
X0289488Y0431181D02*
X0297795D01*
X0509252Y0439213D02*
X0510866Y0437598D01*
D41*
X0285866Y0414646D02*
Y0421220D01*
Y0414646D02*
X0293819Y0406693D01*
X0329449Y0404882D02*
X0330000Y0404331D01*
X0329449Y0404882D02*
Y0412087D01*
D42*
X0298386Y0431772D02*
X0299291Y0432677D01*
X0373777Y0415604D02*
X0377543Y0419370D01*
X0367559Y0413071D02*
X0371244D01*
X0366339D02*
X0367559D01*
Y0410354D02*
X0372874Y0405039D01*
X0367559Y0410354D02*
Y0413071D01*
X0377543Y0419370D02*
X0419842D01*
X0420197Y0419016D01*
X0371244Y0413071D02*
X0372034Y0413861D01*
X0373777Y0415589D02*
Y0415604D01*
X0372049Y0413861D02*
X0373777Y0415589D01*
X0372034Y0413861D02*
X0372049D01*
X0495984Y0394646D02*
Y0411378D01*
X0497246Y0412640D01*
X0497715D01*
X0365118Y0414291D02*
Y0416102D01*
Y0414291D02*
X0366339Y0413071D01*
D44*
X0344331Y0451693D02*
D03*
X0352992D02*
D03*
X0530905Y0452205D02*
D03*
Y0442205D02*
D03*
Y0432205D02*
D03*
Y0422205D02*
D03*
Y0412205D02*
D03*
Y0402205D02*
D03*
Y0392205D02*
D03*
X0297795Y0451181D02*
D03*
Y0441181D02*
D03*
Y0431181D02*
D03*
Y0421181D02*
D03*
Y0411181D02*
D03*
Y0401181D02*
D03*
Y0391181D02*
D03*
X0335000Y0376500D02*
D03*
X0345000D02*
D03*
X0355000D02*
D03*
X0365000D02*
D03*
X0375000D02*
D03*
X0385000D02*
D03*
X0395000D02*
D03*
X0405000D02*
D03*
X0415000D02*
D03*
X0425000D02*
D03*
X0435000D02*
D03*
X0445000D02*
D03*
X0455000D02*
D03*
X0465000D02*
D03*
X0475000D02*
D03*
X0385000Y0456102D02*
D03*
X0395000D02*
D03*
X0405000D02*
D03*
X0415000D02*
D03*
X0425000D02*
D03*
X0435000D02*
D03*
X0445000D02*
D03*
X0455000D02*
D03*
X0465000D02*
D03*
X0475000D02*
D03*
X0485000D02*
D03*
D45*
X0317717Y0451575D02*
D03*
X0317323Y0381496D02*
D03*
D46*
X0497480Y0378346D02*
D03*
Y0454606D02*
D03*
D47*
X0568071Y0450512D02*
D03*
Y0385709D02*
D03*
X0257992Y0384291D02*
D03*
Y0449094D02*
D03*
D48*
X0581535Y0443032D02*
D03*
X0244528Y0391772D02*
D03*
D49*
X0581850Y0393189D02*
D03*
X0244213Y0441614D02*
D03*
D50*
X0564567Y0427992D02*
D03*
X0564528Y0420000D02*
D03*
Y0412008D02*
D03*
Y0404016D02*
D03*
X0571575Y0432205D02*
D03*
Y0424213D02*
D03*
Y0416221D02*
D03*
Y0408228D02*
D03*
X0261496Y0406811D02*
D03*
X0261535Y0414803D02*
D03*
Y0422795D02*
D03*
Y0430787D02*
D03*
X0254488Y0402598D02*
D03*
Y0410591D02*
D03*
Y0418583D02*
D03*
Y0426575D02*
D03*
D51*
X0530905Y0382205D02*
D03*
X0297795Y0381181D02*
D03*
D52*
X0384645Y0403543D02*
D03*
X0390905Y0399646D02*
D03*
X0384645Y0413779D02*
D03*
X0406495Y0414369D02*
D03*
X0411811Y0416108D02*
D03*
X0405276Y0423307D02*
D03*
X0451502Y0432565D02*
D03*
X0455039Y0421024D02*
D03*
X0453937Y0411378D02*
D03*
X0421654Y0438189D02*
D03*
X0405512Y0434646D02*
D03*
X0400393Y0438975D02*
D03*
X0544488Y0416142D02*
D03*
X0539764Y0429134D02*
D03*
X0570079Y0402756D02*
D03*
X0550394Y0392913D02*
D03*
X0553937Y0396457D02*
D03*
X0309449Y0437795D02*
D03*
X0314173Y0440945D02*
D03*
X0319685D02*
D03*
X0332283Y0439764D02*
D03*
X0274016Y0443701D02*
D03*
X0257874Y0443307D02*
D03*
X0262992Y0443701D02*
D03*
X0268898D02*
D03*
X0275197Y0409449D02*
D03*
X0270866D02*
D03*
X0266142D02*
D03*
X0255118Y0440158D02*
D03*
X0275984D02*
D03*
X0271654D02*
D03*
X0266142D02*
D03*
X0260236D02*
D03*
X0556299Y0442913D02*
D03*
X0512205Y0447244D02*
D03*
X0513779Y0450787D02*
D03*
X0524803Y0444882D02*
D03*
X0542913Y0407874D02*
D03*
X0539764Y0404331D02*
D03*
X0547638Y0403150D02*
D03*
X0564173Y0433858D02*
D03*
X0553937D02*
D03*
X0542913D02*
D03*
X0539764Y0443307D02*
D03*
X0562598Y0442913D02*
D03*
X0550394D02*
D03*
X0501181Y0432677D02*
D03*
X0386221Y0430315D02*
D03*
X0400394Y0453150D02*
D03*
X0428346Y0438583D02*
D03*
X0387919Y0451154D02*
D03*
X0291339Y0427165D02*
D03*
X0590551Y0448819D02*
D03*
X0596456Y0437008D02*
D03*
X0590551Y0425197D02*
D03*
X0596456Y0413386D02*
D03*
X0590551Y0401575D02*
D03*
X0596456Y0389764D02*
D03*
X0590551Y0377953D02*
D03*
X0578740Y0425197D02*
D03*
X0584646Y0413386D02*
D03*
X0578740Y0377953D02*
D03*
X0566929Y0425197D02*
D03*
X0572834Y0389764D02*
D03*
X0566929Y0377953D02*
D03*
X0555118Y0448819D02*
D03*
Y0425197D02*
D03*
X0561023Y0389764D02*
D03*
X0555118Y0377953D02*
D03*
X0543307Y0448819D02*
D03*
Y0425197D02*
D03*
Y0401575D02*
D03*
Y0377953D02*
D03*
X0537401Y0389764D02*
D03*
X0519685Y0448819D02*
D03*
X0525590Y0413386D02*
D03*
X0519685Y0401575D02*
D03*
Y0377953D02*
D03*
X0507874Y0448819D02*
D03*
X0513779Y0413386D02*
D03*
Y0389764D02*
D03*
X0507874Y0377953D02*
D03*
X0501968Y0413386D02*
D03*
X0460630Y0401575D02*
D03*
X0366142Y0425197D02*
D03*
X0336614Y0437008D02*
D03*
X0307086Y0448819D02*
D03*
Y0377953D02*
D03*
X0301181Y0437008D02*
D03*
X0295275Y0425197D02*
D03*
X0283465Y0448819D02*
D03*
X0289370Y0437008D02*
D03*
X0283465Y0401575D02*
D03*
Y0377953D02*
D03*
X0271654Y0448819D02*
D03*
Y0401575D02*
D03*
X0277559Y0389764D02*
D03*
X0271654Y0377953D02*
D03*
X0259842Y0401575D02*
D03*
X0265748Y0389764D02*
D03*
X0259842Y0377953D02*
D03*
X0248031Y0401575D02*
D03*
X0253937Y0389764D02*
D03*
X0248031Y0377953D02*
D03*
X0236220Y0448819D02*
D03*
Y0425197D02*
D03*
X0242126Y0413386D02*
D03*
X0236220Y0401575D02*
D03*
Y0377953D02*
D03*
X0294488Y0406693D02*
D03*
X0379613Y0452428D02*
D03*
X0285827Y0421260D02*
D03*
X0474252Y0431260D02*
D03*
X0390551Y0447441D02*
D03*
X0398268Y0429606D02*
D03*
X0394279Y0433582D02*
D03*
X0394291Y0436982D02*
D03*
X0435827Y0414213D02*
D03*
X0435512Y0411339D02*
D03*
X0289331Y0417874D02*
D03*
X0368468Y0432759D02*
D03*
X0367598Y0435427D02*
D03*
X0380354Y0435236D02*
D03*
X0269370Y0421890D02*
D03*
X0373504Y0401024D02*
D03*
X0372205Y0409921D02*
D03*
X0389921Y0422913D02*
D03*
X0450591Y0402402D02*
D03*
X0418661Y0411339D02*
D03*
X0424449Y0407126D02*
D03*
X0426062Y0400944D02*
D03*
X0423228Y0396535D02*
D03*
X0390314Y0391102D02*
D03*
X0393001Y0392033D02*
D03*
X0380866Y0388779D02*
D03*
X0383306Y0386180D02*
D03*
X0393267Y0409409D02*
D03*
X0393307Y0405236D02*
D03*
X0401035Y0422992D02*
D03*
X0395905Y0410551D02*
D03*
X0420197Y0419016D02*
D03*
X0430551Y0399410D02*
D03*
X0442046Y0391574D02*
D03*
X0444369Y0384173D02*
D03*
X0428937Y0387283D02*
D03*
X0432795Y0391063D02*
D03*
X0440787Y0386495D02*
D03*
X0439054Y0388582D02*
D03*
X0457912Y0389015D02*
D03*
X0454684Y0384173D02*
D03*
X0383150Y0433071D02*
D03*
X0372873Y0392913D02*
D03*
X0370197Y0392874D02*
D03*
X0367323Y0390197D02*
D03*
X0432598Y0410039D02*
D03*
X0429921Y0410551D02*
D03*
X0493999Y0446378D02*
D03*
X0481181Y0446693D02*
D03*
X0478346Y0448583D02*
D03*
X0427520Y0384842D02*
D03*
X0432244Y0386535D02*
D03*
X0330000Y0404331D02*
D03*
X0329449Y0412087D02*
D03*
X0339331Y0414961D02*
D03*
X0339370Y0404331D02*
D03*
X0325433Y0394331D02*
D03*
X0474488Y0411102D02*
D03*
X0461772Y0411260D02*
D03*
X0477047Y0431260D02*
D03*
X0482008Y0431181D02*
D03*
X0477835Y0411339D02*
D03*
X0484449Y0448425D02*
D03*
X0300394Y0396457D02*
D03*
X0358228Y0426890D02*
D03*
X0343898Y0394685D02*
D03*
X0327598Y0382953D02*
D03*
X0308661Y0383071D02*
D03*
X0343937Y0400669D02*
D03*
X0321260Y0396850D02*
D03*
X0343268Y0404055D02*
D03*
X0343740Y0397835D02*
D03*
X0328031Y0387165D02*
D03*
X0284409Y0433937D02*
D03*
X0512284Y0376732D02*
D03*
X0513976Y0379646D02*
D03*
X0501772Y0384921D02*
D03*
X0523465Y0401811D02*
D03*
X0523622Y0405905D02*
D03*
X0520236Y0410945D02*
D03*
X0518780Y0416653D02*
D03*
X0510433Y0415197D02*
D03*
X0505630Y0413858D02*
D03*
X0508465Y0410669D02*
D03*
X0504803Y0410315D02*
D03*
X0501024Y0410079D02*
D03*
X0501142Y0406417D02*
D03*
X0505669Y0406890D02*
D03*
X0509567D02*
D03*
X0519961Y0406142D02*
D03*
X0521142Y0398228D02*
D03*
X0510866Y0437598D02*
D03*
X0495984Y0394646D02*
D03*
X0497715Y0412640D02*
D03*
X0436457Y0439213D02*
D03*
X0345354Y0384528D02*
D03*
X0362598Y0383701D02*
D03*
X0468937Y0400512D02*
D03*
X0483110Y0401221D02*
D03*
X0480669Y0407598D02*
D03*
X0492126Y0394173D02*
D03*
X0491653Y0388070D02*
D03*
X0482874Y0387913D02*
D03*
X0478543Y0388937D02*
D03*
X0464055Y0388740D02*
D03*
X0467252Y0389213D02*
D03*
X0463779Y0382913D02*
D03*
X0460953Y0388315D02*
D03*
X0460630Y0383425D02*
D03*
X0448071Y0411378D02*
D03*
X0287835Y0394724D02*
D03*
X0466456Y0432558D02*
D03*
X0439252Y0391728D02*
D03*
X0454487Y0401495D02*
D03*
X0504921Y0397087D02*
D03*
X0500197Y0397362D02*
D03*
X0457913Y0411260D02*
D03*
X0458386Y0420945D02*
D03*
X0320892Y0408307D02*
D03*
X0325192D02*
D03*
X0397953Y0426457D02*
D03*
X0390315Y0426339D02*
D03*
X0328386Y0394843D02*
D03*
X0324646Y0400039D02*
D03*
X0324213Y0397244D02*
D03*
X0318898Y0396457D02*
D03*
X0317323Y0398031D02*
D03*
X0314567Y0397244D02*
D03*
X0305354Y0404882D02*
D03*
X0308622D02*
D03*
X0316890D02*
D03*
X0504213Y0393465D02*
D03*
X0516653Y0387874D02*
D03*
X0524331Y0395787D02*
D03*
X0522284Y0414882D02*
D03*
X0334528Y0387087D02*
D03*
X0335197Y0411181D02*
D03*
X0312520Y0404764D02*
D03*
X0330630Y0419646D02*
D03*
X0334764Y0419528D02*
D03*
X0363740Y0432205D02*
D03*
X0360984Y0429331D02*
D03*
X0404803Y0426457D02*
D03*
X0381535Y0423701D02*
D03*
X0384842Y0423898D02*
D03*
X0305906Y0411772D02*
D03*
X0307008Y0408622D02*
D03*
X0339331Y0419016D02*
D03*
X0344449Y0418307D02*
D03*
X0348622Y0420590D02*
D03*
X0348268Y0416142D02*
D03*
X0460866Y0416063D02*
D03*
X0461221Y0421024D02*
D03*
X0460709Y0405039D02*
D03*
X0465827Y0411339D02*
D03*
X0365118Y0416102D02*
D03*
X0414370Y0405984D02*
D03*
Y0401653D02*
D03*
Y0397323D02*
D03*
Y0392992D02*
D03*
X0410039Y0405984D02*
D03*
Y0401653D02*
D03*
Y0397323D02*
D03*
Y0392992D02*
D03*
X0405709Y0405984D02*
D03*
Y0401653D02*
D03*
Y0397323D02*
D03*
Y0392992D02*
D03*
X0401378Y0405984D02*
D03*
Y0401653D02*
D03*
Y0397323D02*
D03*
Y0392992D02*
D03*
X0369685Y0416339D02*
D03*
X0273228Y0431102D02*
D03*
X0276772Y0429528D02*
D03*
X0381102Y0396850D02*
D03*
D53*
X0451260Y0416299D02*
D03*
X0434252Y0421772D02*
D03*
X0426181Y0422244D02*
D03*
X0443189Y0413543D02*
D03*
X0411221Y0425000D02*
D03*
X0377165Y0397584D02*
D03*
X0380000Y0409213D02*
D03*
X0385039Y0399213D02*
D03*
X0390472Y0412795D02*
D03*
M02*
