G04 Layer_Color=8421504*
%FSAX25Y25*%
%MOIN*%
G70*
G01*
G75*
%ADD12R,0.03150X0.03937*%
%ADD13R,0.03937X0.03150*%
%ADD14R,0.05905X0.13386*%
%ADD15R,0.03937X0.13386*%
%ADD16R,0.00984X0.01968*%
%ADD17R,0.06496X0.02716*%
%ADD18R,0.03937X0.03543*%
%ADD19R,0.05118X0.08661*%
%ADD20R,0.04134X0.08661*%
%ADD21R,0.03937X0.03937*%
%ADD22R,0.02362X0.03150*%
%ADD23R,0.03150X0.02362*%
%ADD24R,0.08661X0.05118*%
%ADD25R,0.02716X0.06496*%
%ADD26R,0.01968X0.00984*%
%ADD27R,0.01457X0.03937*%
%ADD28R,0.03937X0.01457*%
%ADD29R,0.16732X0.16732*%
%ADD30R,0.03051X0.03445*%
G04:AMPARAMS|DCode=33|XSize=59.05mil|YSize=59.05mil|CornerRadius=5.91mil|HoleSize=0mil|Usage=FLASHONLY|Rotation=0.000|XOffset=0mil|YOffset=0mil|HoleType=Round|Shape=RoundedRectangle|*
%AMROUNDEDRECTD33*
21,1,0.05905,0.04724,0,0,0.0*
21,1,0.04724,0.05905,0,0,0.0*
1,1,0.01181,0.02362,-0.02362*
1,1,0.01181,-0.02362,-0.02362*
1,1,0.01181,-0.02362,0.02362*
1,1,0.01181,0.02362,0.02362*
%
%ADD33ROUNDEDRECTD33*%
%ADD34R,0.05905X0.05905*%
%ADD35R,0.03937X0.03150*%
%ADD58R,0.01929X0.03740*%
%ADD59R,0.03780X0.01968*%
%ADD60R,0.03740X0.01929*%
%ADD61R,0.03740X0.01929*%
D12*
X0441147Y0445433D02*
D03*
X0448022D02*
D03*
X0319404Y0391063D02*
D03*
X0312529D02*
D03*
X0465782Y0446457D02*
D03*
X0458907D02*
D03*
X0486491Y0384488D02*
D03*
X0479616D02*
D03*
X0358774Y0386653D02*
D03*
X0351899D02*
D03*
X0339325Y0392323D02*
D03*
X0332450D02*
D03*
X0332564Y0399764D02*
D03*
X0339439D02*
D03*
X0408982Y0420079D02*
D03*
X0415857D02*
D03*
X0346423Y0411221D02*
D03*
X0353298D02*
D03*
X0498470Y0436299D02*
D03*
X0505345D02*
D03*
X0498824Y0442638D02*
D03*
X0505699D02*
D03*
X0400900Y0418622D02*
D03*
X0394025D02*
D03*
X0424297Y0441850D02*
D03*
X0431172D02*
D03*
X0505210Y0420827D02*
D03*
X0498335D02*
D03*
X0424515Y0420079D02*
D03*
X0431390D02*
D03*
X0430210Y0434252D02*
D03*
X0423335D02*
D03*
X0430210Y0427165D02*
D03*
X0423335D02*
D03*
X0381208Y0405118D02*
D03*
X0388083D02*
D03*
X0381168Y0412362D02*
D03*
X0388043D02*
D03*
X0372822Y0445709D02*
D03*
X0379697D02*
D03*
X0394146Y0444528D02*
D03*
X0387271D02*
D03*
X0401429Y0425866D02*
D03*
X0394554D02*
D03*
D13*
X0385157Y0427357D02*
D03*
Y0420482D02*
D03*
X0377716Y0420517D02*
D03*
Y0427392D02*
D03*
X0369961Y0420263D02*
D03*
Y0427138D02*
D03*
X0373976Y0397546D02*
D03*
Y0404421D02*
D03*
X0352598Y0393215D02*
D03*
Y0400091D02*
D03*
X0381102Y0392625D02*
D03*
Y0399500D02*
D03*
X0334764Y0414777D02*
D03*
Y0407902D02*
D03*
X0312598Y0401326D02*
D03*
Y0408201D02*
D03*
D14*
X0361456Y0452480D02*
D03*
X0335193Y0452525D02*
D03*
D15*
X0344301Y0430429D02*
D03*
X0352214Y0430438D02*
D03*
D16*
X0320039Y0404567D02*
D03*
X0322008D02*
D03*
X0323976D02*
D03*
X0325945D02*
D03*
X0320039Y0412047D02*
D03*
X0322008D02*
D03*
X0323976D02*
D03*
X0325945D02*
D03*
D17*
X0322992Y0408307D02*
D03*
D18*
X0359961Y0395622D02*
D03*
Y0411764D02*
D03*
X0366260D02*
D03*
Y0395622D02*
D03*
D19*
X0313740Y0423858D02*
D03*
X0325394D02*
D03*
D20*
X0521004Y0389421D02*
D03*
X0509390D02*
D03*
D21*
X0515197Y0395327D02*
D03*
D22*
X0514921Y0402165D02*
D03*
Y0408425D02*
D03*
X0496063Y0401929D02*
D03*
Y0408189D02*
D03*
D23*
X0508583Y0401850D02*
D03*
X0502323D02*
D03*
D24*
X0412205Y0426929D02*
D03*
Y0438583D02*
D03*
D25*
X0394291Y0434882D02*
D03*
D26*
X0398031Y0431929D02*
D03*
Y0433898D02*
D03*
Y0435866D02*
D03*
Y0437835D02*
D03*
X0390551Y0431929D02*
D03*
Y0433898D02*
D03*
Y0435866D02*
D03*
Y0437835D02*
D03*
D27*
X0415551Y0410709D02*
D03*
X0412992D02*
D03*
X0410433D02*
D03*
X0407874D02*
D03*
X0405315D02*
D03*
X0402756D02*
D03*
X0400197D02*
D03*
Y0388268D02*
D03*
X0402756D02*
D03*
X0405315D02*
D03*
X0407874D02*
D03*
X0410433D02*
D03*
X0412992D02*
D03*
X0415551D02*
D03*
D28*
X0396654Y0407165D02*
D03*
Y0404606D02*
D03*
Y0402047D02*
D03*
Y0399488D02*
D03*
Y0396929D02*
D03*
Y0394370D02*
D03*
Y0391811D02*
D03*
X0419095D02*
D03*
Y0394370D02*
D03*
Y0396929D02*
D03*
Y0399488D02*
D03*
Y0402047D02*
D03*
Y0404606D02*
D03*
Y0407165D02*
D03*
D29*
X0407874Y0399488D02*
D03*
D30*
X0376713Y0438779D02*
D03*
Y0433760D02*
D03*
X0372874Y0438779D02*
D03*
Y0433760D02*
D03*
D33*
X0455874Y0426043D02*
D03*
D34*
X0465717Y0426043D02*
D03*
X0475559Y0426043D02*
D03*
X0455874Y0416201D02*
D03*
X0465717D02*
D03*
X0475559D02*
D03*
X0455776Y0406358D02*
D03*
X0465717D02*
D03*
X0475559D02*
D03*
D35*
X0425906Y0448032D02*
D03*
X0419213D02*
D03*
D58*
X0483051Y0436240D02*
D03*
X0479862D02*
D03*
X0476713D02*
D03*
X0473563D02*
D03*
X0470413D02*
D03*
X0467264D02*
D03*
X0464114D02*
D03*
X0461004D02*
D03*
X0457854D02*
D03*
X0454705D02*
D03*
X0451555D02*
D03*
X0448366Y0436201D02*
D03*
X0483209Y0396201D02*
D03*
X0479902D02*
D03*
X0476713D02*
D03*
X0473563D02*
D03*
X0470413D02*
D03*
X0467264D02*
D03*
X0464114D02*
D03*
X0460965D02*
D03*
X0457854D02*
D03*
X0454705D02*
D03*
X0451516D02*
D03*
X0448366D02*
D03*
D59*
X0487480Y0398858D02*
D03*
Y0402008D02*
D03*
Y0405158D02*
D03*
Y0408307D02*
D03*
Y0411457D02*
D03*
Y0414606D02*
D03*
Y0417756D02*
D03*
Y0420905D02*
D03*
Y0424055D02*
D03*
Y0427205D02*
D03*
Y0430354D02*
D03*
Y0433504D02*
D03*
X0443937Y0433543D02*
D03*
D60*
X0443917Y0398878D02*
D03*
Y0402028D02*
D03*
Y0405177D02*
D03*
Y0408327D02*
D03*
Y0411476D02*
D03*
Y0414626D02*
D03*
Y0417776D02*
D03*
Y0420925D02*
D03*
Y0427224D02*
D03*
Y0430413D02*
D03*
D61*
Y0424075D02*
D03*
M02*
