G04 Layer_Color=16711935*
%FSAX25Y25*%
%MOIN*%
G70*
G01*
G75*
%ADD86R,0.06706X0.06706*%
%ADD88C,0.06706*%
%ADD89C,0.10800*%
%ADD90C,0.09800*%
%ADD91C,0.07296*%
%ADD92C,0.13910*%
%ADD93C,0.14304*%
%ADD94C,0.04619*%
%ADD95R,0.06706X0.06706*%
%ADD96C,0.04737*%
D86*
X0485000Y0376500D02*
D03*
X0375000Y0456102D02*
D03*
D88*
X0344331Y0451693D02*
D03*
X0352992D02*
D03*
X0530905Y0452205D02*
D03*
Y0442205D02*
D03*
Y0432205D02*
D03*
Y0422205D02*
D03*
Y0412205D02*
D03*
Y0402205D02*
D03*
Y0392205D02*
D03*
X0297795Y0451181D02*
D03*
Y0441181D02*
D03*
Y0431181D02*
D03*
Y0421181D02*
D03*
Y0411181D02*
D03*
Y0401181D02*
D03*
Y0391181D02*
D03*
X0335000Y0376500D02*
D03*
X0345000D02*
D03*
X0355000D02*
D03*
X0365000D02*
D03*
X0375000D02*
D03*
X0385000D02*
D03*
X0395000D02*
D03*
X0405000D02*
D03*
X0415000D02*
D03*
X0425000D02*
D03*
X0435000D02*
D03*
X0445000D02*
D03*
X0455000D02*
D03*
X0465000D02*
D03*
X0475000D02*
D03*
X0385000Y0456102D02*
D03*
X0395000D02*
D03*
X0405000D02*
D03*
X0415000D02*
D03*
X0425000D02*
D03*
X0435000D02*
D03*
X0445000D02*
D03*
X0455000D02*
D03*
X0465000D02*
D03*
X0475000D02*
D03*
X0485000D02*
D03*
D89*
X0317717Y0451575D02*
D03*
X0317323Y0381496D02*
D03*
D90*
X0497480Y0378346D02*
D03*
Y0454606D02*
D03*
D91*
X0568071Y0450512D02*
D03*
Y0385709D02*
D03*
X0257992Y0384291D02*
D03*
Y0449094D02*
D03*
D92*
X0581535Y0443032D02*
D03*
X0244528Y0391772D02*
D03*
D93*
X0581850Y0393189D02*
D03*
X0244213Y0441614D02*
D03*
D94*
X0564567Y0427992D02*
D03*
X0564528Y0420000D02*
D03*
Y0412008D02*
D03*
Y0404016D02*
D03*
X0571575Y0432205D02*
D03*
Y0424213D02*
D03*
Y0416221D02*
D03*
Y0408228D02*
D03*
X0261496Y0406811D02*
D03*
X0261535Y0414803D02*
D03*
Y0422795D02*
D03*
Y0430787D02*
D03*
X0254488Y0402598D02*
D03*
Y0410591D02*
D03*
Y0418583D02*
D03*
Y0426575D02*
D03*
D95*
X0530905Y0382205D02*
D03*
X0297795Y0381181D02*
D03*
D96*
X0451260Y0416299D02*
D03*
X0434252Y0421772D02*
D03*
X0426181Y0422244D02*
D03*
X0443189Y0413543D02*
D03*
X0411221Y0425000D02*
D03*
X0377165Y0397584D02*
D03*
X0380000Y0409213D02*
D03*
X0385039Y0399213D02*
D03*
X0390472Y0412795D02*
D03*
M02*
