G04 Layer_Color=8388736*
%FSAX25Y25*%
%MOIN*%
G70*
G01*
G75*
%ADD62C,0.02400*%
%ADD63C,0.01587*%
%ADD64R,0.03950X0.04737*%
%ADD65R,0.04737X0.03950*%
%ADD66R,0.06706X0.14186*%
%ADD67R,0.04737X0.14186*%
%ADD68R,0.01784X0.02768*%
%ADD69R,0.07296X0.03517*%
%ADD70R,0.04737X0.04343*%
%ADD71R,0.05918X0.09461*%
%ADD72R,0.04934X0.09461*%
%ADD73R,0.04737X0.04737*%
%ADD74R,0.03162X0.03950*%
%ADD75R,0.03950X0.03162*%
%ADD76R,0.09461X0.05918*%
%ADD77R,0.03517X0.07296*%
%ADD78R,0.02768X0.01784*%
%ADD79R,0.02257X0.04737*%
%ADD80R,0.04737X0.02257*%
%ADD81R,0.17532X0.17532*%
%ADD82R,0.03851X0.04245*%
%ADD83R,0.07493X0.02768*%
%ADD84R,0.02768X0.07493*%
G04:AMPARAMS|DCode=85|XSize=67.06mil|YSize=67.06mil|CornerRadius=9.9mil|HoleSize=0mil|Usage=FLASHONLY|Rotation=0.000|XOffset=0mil|YOffset=0mil|HoleType=Round|Shape=RoundedRectangle|*
%AMROUNDEDRECTD85*
21,1,0.06706,0.04724,0,0,0.0*
21,1,0.04724,0.06706,0,0,0.0*
1,1,0.01981,0.02362,-0.02362*
1,1,0.01981,-0.02362,-0.02362*
1,1,0.01981,-0.02362,0.02362*
1,1,0.01981,0.02362,0.02362*
%
%ADD85ROUNDEDRECTD85*%
%ADD86R,0.06706X0.06706*%
%ADD87R,0.04737X0.03950*%
%ADD88C,0.06706*%
%ADD89C,0.10800*%
%ADD90C,0.09800*%
%ADD91C,0.07296*%
%ADD92C,0.13910*%
%ADD93C,0.14304*%
%ADD94C,0.04619*%
%ADD95R,0.06706X0.06706*%
D62*
X0387684Y0398925D02*
G03*
X0387684Y0398925I-0001100J0000000D01*
G01*
X0436897Y0425697D02*
G03*
X0436897Y0425697I-0001100J0000000D01*
G01*
D63*
X0385365Y0398925D02*
D03*
X0387825D02*
D03*
X0437037Y0425697D02*
D03*
X0434577D02*
D03*
D64*
X0441147Y0445433D02*
D03*
X0448022D02*
D03*
X0319404Y0391063D02*
D03*
X0312529D02*
D03*
X0465782Y0446457D02*
D03*
X0458907D02*
D03*
X0486491Y0384488D02*
D03*
X0479616D02*
D03*
X0358774Y0386653D02*
D03*
X0351899D02*
D03*
X0339325Y0392323D02*
D03*
X0332450D02*
D03*
X0332564Y0399764D02*
D03*
X0339439D02*
D03*
X0408982Y0420079D02*
D03*
X0415857D02*
D03*
X0346423Y0411221D02*
D03*
X0353298D02*
D03*
X0498470Y0436299D02*
D03*
X0505345D02*
D03*
X0498824Y0442638D02*
D03*
X0505699D02*
D03*
X0400900Y0418622D02*
D03*
X0394025D02*
D03*
X0424297Y0441850D02*
D03*
X0431172D02*
D03*
X0505210Y0420827D02*
D03*
X0498335D02*
D03*
X0424515Y0420079D02*
D03*
X0431390D02*
D03*
X0430210Y0434252D02*
D03*
X0423335D02*
D03*
X0430210Y0427165D02*
D03*
X0423335D02*
D03*
X0381208Y0405118D02*
D03*
X0388083D02*
D03*
X0381168Y0412362D02*
D03*
X0388043D02*
D03*
X0372822Y0445709D02*
D03*
X0379697D02*
D03*
X0394146Y0444528D02*
D03*
X0387271D02*
D03*
X0401429Y0425866D02*
D03*
X0394554D02*
D03*
D65*
X0385157Y0427357D02*
D03*
Y0420482D02*
D03*
X0377716Y0420517D02*
D03*
Y0427392D02*
D03*
X0369961Y0420263D02*
D03*
Y0427138D02*
D03*
X0373976Y0397546D02*
D03*
Y0404421D02*
D03*
X0352598Y0393215D02*
D03*
Y0400091D02*
D03*
X0381102Y0392625D02*
D03*
Y0399500D02*
D03*
X0334764Y0414777D02*
D03*
Y0407902D02*
D03*
X0312598Y0401326D02*
D03*
Y0408201D02*
D03*
D66*
X0361456Y0452480D02*
D03*
X0335193Y0452525D02*
D03*
D67*
X0344301Y0430429D02*
D03*
X0352214Y0430438D02*
D03*
D68*
X0320039Y0404567D02*
D03*
X0322008D02*
D03*
X0323976D02*
D03*
X0325945D02*
D03*
X0320039Y0412047D02*
D03*
X0322008D02*
D03*
X0323976D02*
D03*
X0325945D02*
D03*
D69*
X0322992Y0408307D02*
D03*
D70*
X0359961Y0395622D02*
D03*
Y0411764D02*
D03*
X0366260D02*
D03*
Y0395622D02*
D03*
D71*
X0313740Y0423858D02*
D03*
X0325394D02*
D03*
D72*
X0521004Y0389421D02*
D03*
X0509390D02*
D03*
D73*
X0515197Y0395327D02*
D03*
D74*
X0514921Y0402165D02*
D03*
Y0408425D02*
D03*
X0496063Y0401929D02*
D03*
Y0408189D02*
D03*
D75*
X0508583Y0401850D02*
D03*
X0502323D02*
D03*
D76*
X0412205Y0426929D02*
D03*
Y0438583D02*
D03*
D77*
X0394291Y0434882D02*
D03*
D78*
X0398031Y0431929D02*
D03*
Y0433898D02*
D03*
Y0435866D02*
D03*
Y0437835D02*
D03*
X0390551Y0431929D02*
D03*
Y0433898D02*
D03*
Y0435866D02*
D03*
Y0437835D02*
D03*
D79*
X0415551Y0410709D02*
D03*
X0412992D02*
D03*
X0410433D02*
D03*
X0407874D02*
D03*
X0405315D02*
D03*
X0402756D02*
D03*
X0400197D02*
D03*
Y0388268D02*
D03*
X0402756D02*
D03*
X0405315D02*
D03*
X0407874D02*
D03*
X0410433D02*
D03*
X0412992D02*
D03*
X0415551D02*
D03*
D80*
X0396654Y0407165D02*
D03*
Y0404606D02*
D03*
Y0402047D02*
D03*
Y0399488D02*
D03*
Y0396929D02*
D03*
Y0394370D02*
D03*
Y0391811D02*
D03*
X0419095D02*
D03*
Y0394370D02*
D03*
Y0396929D02*
D03*
Y0399488D02*
D03*
Y0402047D02*
D03*
Y0404606D02*
D03*
Y0407165D02*
D03*
D81*
X0407874Y0399488D02*
D03*
D82*
X0376713Y0438779D02*
D03*
Y0433760D02*
D03*
X0372874Y0438779D02*
D03*
Y0433760D02*
D03*
D83*
X0442480Y0433543D02*
D03*
Y0430394D02*
D03*
Y0427205D02*
D03*
Y0424055D02*
D03*
Y0420905D02*
D03*
Y0417756D02*
D03*
Y0414646D02*
D03*
Y0411457D02*
D03*
Y0408307D02*
D03*
Y0405197D02*
D03*
Y0402008D02*
D03*
Y0398898D02*
D03*
X0488945Y0398878D02*
D03*
Y0402032D02*
D03*
X0488945Y0405189D02*
D03*
X0488945Y0408327D02*
D03*
X0488945Y0411476D02*
D03*
X0488945Y0414626D02*
D03*
X0488937Y0417756D02*
D03*
Y0420945D02*
D03*
Y0424094D02*
D03*
Y0427205D02*
D03*
Y0430394D02*
D03*
Y0433543D02*
D03*
D84*
X0448386Y0394744D02*
D03*
X0451543D02*
D03*
X0454693D02*
D03*
X0457842Y0394744D02*
D03*
X0460992Y0394744D02*
D03*
X0464142Y0394744D02*
D03*
X0467291D02*
D03*
X0470441Y0394748D02*
D03*
X0473591Y0394748D02*
D03*
X0476740Y0394744D02*
D03*
X0479917D02*
D03*
X0483228Y0394744D02*
D03*
X0483071Y0437677D02*
D03*
X0479882D02*
D03*
X0476772D02*
D03*
X0473622D02*
D03*
X0470472D02*
D03*
X0467323D02*
D03*
X0464173D02*
D03*
X0461024D02*
D03*
X0457874D02*
D03*
X0454724D02*
D03*
X0451575D02*
D03*
X0448386D02*
D03*
D85*
X0455874Y0426043D02*
D03*
D86*
X0465717Y0426043D02*
D03*
X0475559Y0426043D02*
D03*
X0455874Y0416201D02*
D03*
X0465717D02*
D03*
X0475559D02*
D03*
X0455776Y0406358D02*
D03*
X0465717D02*
D03*
X0475559D02*
D03*
X0485000Y0376500D02*
D03*
X0375000Y0456102D02*
D03*
D87*
X0425906Y0448032D02*
D03*
X0419213D02*
D03*
D88*
X0344331Y0451693D02*
D03*
X0352992D02*
D03*
X0530905Y0452205D02*
D03*
Y0442205D02*
D03*
Y0432205D02*
D03*
Y0422205D02*
D03*
Y0412205D02*
D03*
Y0402205D02*
D03*
Y0392205D02*
D03*
X0297795Y0451181D02*
D03*
Y0441181D02*
D03*
Y0431181D02*
D03*
Y0421181D02*
D03*
Y0411181D02*
D03*
Y0401181D02*
D03*
Y0391181D02*
D03*
X0335000Y0376500D02*
D03*
X0345000D02*
D03*
X0355000D02*
D03*
X0365000D02*
D03*
X0375000D02*
D03*
X0385000D02*
D03*
X0395000D02*
D03*
X0405000D02*
D03*
X0415000D02*
D03*
X0425000D02*
D03*
X0435000D02*
D03*
X0445000D02*
D03*
X0455000D02*
D03*
X0465000D02*
D03*
X0475000D02*
D03*
X0385000Y0456102D02*
D03*
X0395000D02*
D03*
X0405000D02*
D03*
X0415000D02*
D03*
X0425000D02*
D03*
X0435000D02*
D03*
X0445000D02*
D03*
X0455000D02*
D03*
X0465000D02*
D03*
X0475000D02*
D03*
X0485000D02*
D03*
D89*
X0317717Y0451575D02*
D03*
X0317323Y0381496D02*
D03*
D90*
X0497480Y0378346D02*
D03*
Y0454606D02*
D03*
D91*
X0568071Y0450512D02*
D03*
Y0385709D02*
D03*
X0257992Y0384291D02*
D03*
Y0449094D02*
D03*
D92*
X0581535Y0443032D02*
D03*
X0244528Y0391772D02*
D03*
D93*
X0581850Y0393189D02*
D03*
X0244213Y0441614D02*
D03*
D94*
X0564567Y0427992D02*
D03*
X0564528Y0420000D02*
D03*
Y0412008D02*
D03*
Y0404016D02*
D03*
X0571575Y0432205D02*
D03*
Y0424213D02*
D03*
Y0416221D02*
D03*
Y0408228D02*
D03*
X0261496Y0406811D02*
D03*
X0261535Y0414803D02*
D03*
Y0422795D02*
D03*
Y0430787D02*
D03*
X0254488Y0402598D02*
D03*
Y0410591D02*
D03*
Y0418583D02*
D03*
Y0426575D02*
D03*
D95*
X0530905Y0382205D02*
D03*
X0297795Y0381181D02*
D03*
M02*
