M48
;Layer_Color=9474304
;FILE_FORMAT=2:5
INCH
;TYPE=PLATED
T1F00S00C0.01181
T2F00S00C0.02756
T3F00S00C0.03543
T4F00S00C0.03937
;TYPE=NON_PLATED
T5F00S00C0.06496
T6F00S00C0.09000
T7F00S00C0.13110
T8F00S00C0.13504
%
T01
X0266378Y0392480
X0261968Y0397126
X0276220Y0401142
X0271220Y0406457
X0279842Y0415315
X0287402Y0415590
X0289016Y0424134
X0303031Y0426181
X0304604Y0430354
X0308543Y0434294
X0307677Y0419764
X0305118Y0414134
X0312126Y0405669
Y0401339
X0312283Y0393976
X0310354Y0391496
X0305866Y0384370
X0287795Y0385000
X0286378Y0394921
X0289016Y0406181
X0274213Y0386968
X0269016Y0439409
X0275512Y0443661
X0288504Y0444449
X0306496Y0450748
X0314961Y0439843
X0320808Y0438281
X0326102Y0441024
X0331653Y0441221
X0333740Y0430394
X0337441Y0428504
X0336732Y0424291
X0332756Y0425669
X0331102Y0419528
X0334803Y0416811
X0338386Y0419370
X0342638Y0418937
X0342559Y0414291
X0346142Y0417520
X0349961Y0418228
X0345984Y0409370
X0333307Y0408110
X0333386Y0401693
X0330035Y0404370
X0325735
X0326142Y0393701
X0322913Y0393858
X0329134Y0394213
X0327126Y0389134
X0325039Y0384252
X0326732Y0380630
X0337913Y0399410
X0341811Y0399095
X0356024Y0382716
X0378543Y0385906
X0378780Y0397126
X0378858Y0401575
X0373819Y0401890
X0372913Y0408307
X0371220Y0411535
X0370630Y0414685
X0377598Y0414921
X0378740Y0408425
X0383976Y0399410
X0388228Y0395079
X0393150Y0395158
X0401850Y0388150
X0407795Y0391417
X0410472Y0391851
X0422756Y0394685
X0427087
Y0399016
X0422756
X0435196Y0398700
X0434528Y0402008
X0431102Y0404724
X0429488Y0412126
X0434528Y0411299
X0437204Y0411810
X0437165Y0415394
X0436890Y0428425
X0433596Y0431653
X0422047Y0432835
X0419685Y0435118
X0416496Y0433937
X0415118Y0430354
X0415079Y0426102
X0412165Y0421181
X0401850Y0421929
X0398661Y0421260
X0398425Y0415906
X0402362Y0408189
X0407913Y0411929
X0413150Y0408228
X0404961Y0429449
X0389528Y0427087
X0382087Y0426221
X0376969Y0430276
X0373819Y0429488
X0361181Y0425433
X0356063Y0426102
X0356850Y0431811
X0361575Y0434685
X0360197Y0442441
X0355157Y0442047
X0366811Y0445551
X0367323Y0453189
X0376063Y0445354
X0418504Y0445197
X0418346Y0442361
X0422480Y0446063
X0450276Y0429095
X0450906Y0424370
X0448346Y0423149
X0447835Y0420472
X0454095Y0417992
X0460276Y0410787
X0462125Y0400117
X0456772Y0400512
X0453346Y0400747
X0449764Y0400787
X0444960Y0387322
X0440787Y0386377
X0439566Y0388936
X0438110Y0391260
X0435236Y0388189
X0449370Y0382677
X0456417Y0386457
X0461024Y0386417
X0460236Y0389409
X0463857Y0388936
X0466535Y0389449
Y0381850
X0337126Y0433465
X0318898Y0427716
X0326142Y0449646
X0474054Y0442440
X0477008Y0442717
X0480197Y0442913
X0488858Y0445590
X0494331Y0443819
X0494055Y0425236
X0497559Y0425602
X0508189Y0426260
X0509921Y0432244
X0508819Y0435389
X0515590Y0429528
X0518543Y0425433
X0520945Y0427402
X0521024Y0432913
X0520669Y0447402
X0518347Y0450551
X0513150Y0456063
X0514961Y0442047
X0512441Y0418465
X0512284Y0415158
X0516299Y0414803
X0519567Y0411654
X0520866Y0408228
X0519921Y0405433
X0520079Y0402323
X0519173Y0398228
X0521772Y0398898
X0505996Y0397295
X0501457Y0396496
X0497520Y0397087
X0493819Y0395158
X0494961Y0391929
X0491260Y0393228
X0488346Y0391063
X0495539Y0387210
X0500000Y0390630
X0502559Y0388740
X0502874Y0393032
X0503425Y0383740
X0505472Y0380315
X0509842Y0379488
X0510787Y0376220
X0506850Y0376339
X0514213Y0377835
X0516102Y0380591
X0519291Y0377835
X0517244Y0375669
X0539528Y0387087
X0539213Y0396102
X0546339Y0398150
X0550000Y0405315
X0555827Y0407441
X0538622Y0407205
X0538150Y0416457
X0539213Y0437047
X0547874Y0436221
X0553189Y0432598
X0548740Y0427953
X0557165Y0426772
X0558504Y0441732
X0554134Y0446969
X0546024Y0446575
X0563583Y0436732
X0506535Y0414449
X0502244Y0414331
X0497323Y0413307
X0500827Y0409567
X0500315Y0406693
X0503543Y0406535
X0506968Y0406299
X0505512Y0410709
X0481693Y0411417
X0470433Y0410984
X0470669Y0420827
X0481299Y0428346
X0478582Y0400117
X0473661Y0388976
X0469882Y0388504
T02
X0254488Y0402598
Y0410591
Y0418583
Y0426575
X0261535Y0422795
Y0414803
X0261496Y0406811
X0261535Y0430787
X0564567Y0427992
X0564528Y0420000
Y0412008
Y0404016
X0571575Y0408228
Y0416221
Y0424213
Y0432205
T03
X0297205Y0380157
Y0390158
Y0400157
Y0410157
Y0420157
Y0430158
Y0440158
Y0450157
X0375000Y0456000
X0385000
X0395000
X0405000
X0415000
X0425000
X0435000
X0445000
X0455000
X0465000
Y0376500
X0455000
X0445000
X0435000
X0425000
X0415000
X0405000
X0395000
X0385000
X0375000
X0365000
X0355000
X0345000
X0335000
X0475000
X0485000
X0530905Y0382205
Y0392205
Y0402205
Y0412205
Y0422205
Y0432205
Y0442205
Y0452205
X0485000Y0456000
X0475000
T04
X0342598Y0451693
X0351260
T05
X0257992Y0384291
Y0449094
X0568071Y0450512
Y0385709
T06
X0317520Y0378150
X0317500Y0454602
X0497480Y0454606
Y0378150
T07
X0244528Y0391772
X0581535Y0443032
T08
X0244213Y0441614
X0581850Y0393189
M30
